M48
; DRILL file {KiCad (6.0.5)} date Thu 02 Jun 2022 10:53:17 AM CEST
; FORMAT={-:-/ absolute / metric / decimal}
; #@! TF.CreationDate,2022-06-02T10:53:17+02:00
; #@! TF.GenerationSoftware,Kicad,Pcbnew,(6.0.5)
; #@! TF.FileFunction,Plated,1,2,PTH
FMAT,2
METRIC
; #@! TA.AperFunction,Plated,PTH,ViaDrill
T1C0.200
; #@! TA.AperFunction,Plated,PTH,ComponentDrill
T2C0.200
; #@! TA.AperFunction,Plated,PTH,ViaDrill
T3C0.400
; #@! TA.AperFunction,Plated,PTH,ComponentDrill
T4C0.500
; #@! TA.AperFunction,Plated,PTH,ComponentDrill
T5C1.000
; #@! TA.AperFunction,Plated,PTH,ComponentDrill
T6C3.000
%
G90
G05
T1
X101.6Y-80.01
X101.6Y-81.28
X101.6Y-82.55
X101.6Y-83.82
X101.6Y-85.09
X101.6Y-86.36
X101.6Y-87.63
X101.6Y-88.9
X101.6Y-90.17
X101.6Y-91.44
X101.6Y-92.71
X101.6Y-93.98
X101.6Y-95.25
X101.6Y-96.52
X101.6Y-97.79
X101.6Y-99.06
X101.6Y-100.33
X101.6Y-101.6
X101.6Y-102.87
X101.6Y-104.14
X101.6Y-105.41
X101.6Y-106.68
X101.6Y-107.95
X101.6Y-109.22
X101.6Y-110.49
X101.6Y-111.76
X101.6Y-113.03
X101.6Y-114.3
X101.6Y-115.57
X101.6Y-116.84
X101.6Y-118.11
X101.6Y-119.38
X101.6Y-120.65
X101.6Y-121.92
X101.6Y-123.19
X101.6Y-124.46
X101.6Y-125.73
X101.6Y-127.0
X101.6Y-128.27
X101.6Y-129.54
X101.6Y-130.81
X101.6Y-132.08
X101.6Y-133.35
X101.6Y-134.62
X101.6Y-135.89
X101.6Y-137.16
X102.87Y-80.01
X102.87Y-113.03
X102.87Y-114.3
X102.87Y-115.57
X102.87Y-137.16
X103.759Y-130.429
X104.14Y-80.01
X104.14Y-104.394
X104.14Y-108.712
X104.14Y-112.014
X104.14Y-114.3
X104.14Y-115.57
X104.14Y-137.16
X104.902Y-81.788
X104.902Y-87.122
X104.902Y-130.429
X105.283Y-126.619
X105.283Y-133.985
X105.41Y-114.3
X105.41Y-115.57
X105.41Y-137.16
X106.045Y-133.223
X106.172Y-127.508
X106.68Y-78.74
X106.68Y-115.57
X106.68Y-138.43
X107.95Y-73.66
X107.95Y-74.93
X107.95Y-76.2
X107.95Y-77.47
X107.95Y-115.57
X107.95Y-139.7
X107.95Y-140.97
X107.95Y-142.24
X107.95Y-143.51
X108.204Y-87.122
X108.458Y-81.788
X108.966Y-104.394
X108.966Y-125.222
X108.966Y-126.365
X109.22Y-73.66
X109.22Y-115.57
X109.22Y-116.84
X109.22Y-118.11
X109.22Y-119.38
X109.22Y-120.65
X109.22Y-121.92
X109.22Y-143.51
X110.49Y-73.66
X110.49Y-123.19
X110.49Y-143.51
X110.744Y-105.791
X110.871Y-84.455
X110.871Y-87.503
X111.76Y-73.66
X111.76Y-81.026
X111.76Y-124.46
X111.76Y-127.508
X111.76Y-133.223
X111.76Y-143.51
X112.141Y-112.268
X112.395Y-118.872
X112.522Y-109.728
X112.522Y-111.252
X112.649Y-126.619
X112.649Y-134.112
X112.903Y-105.791
X113.03Y-73.66
X113.03Y-87.503
X113.03Y-125.73
X113.03Y-130.429
X113.03Y-143.51
X114.3Y-73.66
X114.3Y-120.65
X114.3Y-121.92
X114.3Y-127.0
X114.3Y-130.429
X114.3Y-143.51
X114.427Y-109.093
X114.427Y-110.617
X114.427Y-116.586
X114.554Y-80.391
X115.189Y-84.455
X115.189Y-87.503
X115.57Y-73.66
X115.57Y-81.915
X115.57Y-121.92
X115.57Y-123.19
X115.57Y-128.27
X115.57Y-143.51
X116.713Y-80.899
X116.84Y-73.66
X116.84Y-123.19
X116.84Y-124.46
X116.84Y-129.54
X116.84Y-143.51
X116.962Y-109.83
X116.967Y-109.093
X117.704Y-109.093
X118.11Y-73.66
X118.11Y-99.06
X118.11Y-100.33
X118.11Y-116.84
X118.11Y-118.11
X118.11Y-119.38
X118.11Y-124.46
X118.11Y-125.73
X118.11Y-143.51
X118.364Y-80.645
X118.491Y-111.887
X119.38Y-73.66
X119.38Y-88.9
X119.38Y-90.17
X119.38Y-91.44
X119.38Y-92.71
X119.38Y-93.98
X119.38Y-95.25
X119.38Y-96.52
X119.38Y-97.79
X119.38Y-99.06
X119.38Y-110.998
X119.38Y-111.887
X119.38Y-125.73
X119.38Y-127.0
X119.38Y-143.51
X119.507Y-105.791
X120.142Y-80.899
X120.65Y-73.66
X120.65Y-127.0
X120.65Y-143.51
X120.904Y-105.791
X120.955Y-109.576
X121.412Y-78.867
X121.412Y-104.14
X121.412Y-139.192
X121.412Y-140.97
X121.666Y-128.524
X121.92Y-73.66
X121.92Y-143.51
X122.174Y-117.221
X122.174Y-119.38
X122.224Y-112.303
X122.682Y-123.19
X122.936Y-104.14
X123.19Y-73.66
X123.19Y-83.82
X123.19Y-92.71
X123.19Y-93.98
X123.19Y-95.25
X123.19Y-96.52
X123.19Y-143.51
X123.317Y-89.916
X123.444Y-138.303
X123.952Y-124.46
X124.206Y-109.093
X124.333Y-83.439
X124.46Y-73.66
X124.46Y-79.121
X124.46Y-80.264
X124.46Y-82.296
X124.46Y-85.852
X124.46Y-131.445
X124.46Y-136.398
X124.46Y-139.319
X124.46Y-143.51
X124.714Y-110.617
X125.222Y-125.73
X125.73Y-73.66
X125.73Y-116.84
X125.73Y-118.11
X125.73Y-123.19
X125.73Y-132.842
X125.73Y-143.51
X126.619Y-127.127
X126.746Y-79.121
X126.746Y-109.093
X126.873Y-83.947
X127.0Y-73.66
X127.0Y-95.25
X127.0Y-99.06
X127.0Y-100.33
X127.0Y-101.6
X127.0Y-124.46
X127.0Y-134.112
X127.0Y-143.51
X127.127Y-89.916
X127.127Y-104.14
X127.508Y-109.982
X128.27Y-73.66
X128.27Y-125.73
X128.27Y-137.668
X128.27Y-138.684
X128.27Y-143.51
X129.54Y-73.66
X129.54Y-81.28
X129.54Y-87.122
X129.54Y-116.84
X129.54Y-118.11
X129.54Y-119.38
X129.54Y-129.794
X129.54Y-135.382
X129.54Y-138.176
X129.54Y-143.51
X129.921Y-108.966
X130.048Y-140.97
X130.175Y-96.52
X130.175Y-97.79
X130.175Y-99.06
X130.175Y-100.33
X130.556Y-127.762
X130.81Y-73.66
X130.81Y-90.17
X130.81Y-118.11
X130.81Y-119.38
X130.81Y-137.668
X130.81Y-138.684
X130.81Y-143.51
X131.318Y-133.477
X131.729Y-112.415
X132.08Y-73.66
X132.08Y-80.518
X132.08Y-85.598
X132.08Y-87.122
X132.08Y-88.773
X132.08Y-90.17
X132.08Y-105.41
X132.08Y-116.84
X132.08Y-119.38
X132.08Y-129.413
X132.08Y-131.191
X132.08Y-138.176
X132.08Y-143.51
X132.207Y-133.477
X132.715Y-109.093
X133.096Y-94.742
X133.35Y-73.66
X133.35Y-88.773
X133.35Y-116.84
X133.35Y-118.11
X133.35Y-124.46
X133.35Y-125.73
X133.35Y-137.668
X133.35Y-138.684
X133.35Y-143.51
X134.366Y-94.742
X134.62Y-73.66
X134.62Y-80.518
X134.62Y-82.042
X134.62Y-87.122
X134.62Y-119.38
X134.62Y-124.46
X134.62Y-125.73
X134.62Y-127.0
X134.62Y-132.969
X134.62Y-134.366
X134.62Y-138.176
X134.62Y-143.51
X135.128Y-83.82
X135.128Y-106.807
X135.128Y-107.95
X135.128Y-112.903
X135.255Y-102.489
X135.636Y-94.742
X135.89Y-73.66
X135.89Y-90.17
X135.89Y-119.38
X135.89Y-124.46
X135.89Y-125.73
X135.89Y-127.0
X135.89Y-132.842
X135.89Y-137.668
X135.89Y-138.684
X135.89Y-143.51
X136.144Y-101.6
X136.652Y-112.903
X137.16Y-73.66
X137.16Y-88.9
X137.16Y-90.17
X137.16Y-119.38
X137.16Y-124.46
X137.16Y-125.73
X137.16Y-127.0
X137.16Y-128.016
X137.16Y-129.286
X137.16Y-134.366
X137.16Y-138.176
X137.16Y-143.51
X137.541Y-100.33
X137.668Y-109.474
X138.303Y-83.82
X138.303Y-112.903
X138.43Y-73.66
X138.43Y-78.994
X138.43Y-90.17
X138.43Y-91.44
X138.43Y-92.71
X138.43Y-93.98
X138.43Y-99.314
X138.43Y-118.11
X138.43Y-119.38
X138.43Y-125.73
X138.43Y-127.0
X138.43Y-137.668
X138.43Y-138.684
X138.43Y-143.51
X139.573Y-110.236
X139.7Y-73.66
X139.7Y-79.248
X139.7Y-80.264
X139.7Y-91.44
X139.7Y-92.71
X139.7Y-101.6
X139.7Y-116.84
X139.7Y-118.11
X139.7Y-119.38
X139.7Y-123.19
X139.7Y-127.0
X139.7Y-128.016
X139.7Y-129.286
X139.7Y-131.064
X139.7Y-138.176
X139.7Y-143.51
X140.081Y-105.664
X140.97Y-73.66
X140.97Y-100.33
X140.97Y-116.84
X140.97Y-118.11
X140.97Y-119.38
X140.97Y-125.73
X140.97Y-138.684
X140.97Y-143.51
X141.224Y-89.027
X141.224Y-105.918
X141.605Y-140.97
X141.732Y-83.566
X142.24Y-73.66
X142.24Y-79.248
X142.24Y-80.264
X142.24Y-99.06
X142.24Y-118.11
X142.24Y-119.38
X142.24Y-123.19
X142.24Y-125.73
X142.24Y-127.0
X142.24Y-129.286
X142.24Y-131.064
X142.24Y-143.51
X142.875Y-94.869
X142.875Y-114.427
X143.129Y-89.662
X143.51Y-73.66
X143.51Y-119.38
X143.51Y-121.92
X143.51Y-127.0
X143.51Y-143.51
X143.764Y-108.712
X143.764Y-113.538
X144.018Y-106.045
X144.018Y-115.57
X144.272Y-137.922
X144.78Y-73.66
X144.78Y-79.248
X144.78Y-80.264
X144.78Y-85.598
X144.78Y-87.249
X144.78Y-96.647
X144.78Y-101.6
X144.78Y-120.65
X144.78Y-123.19
X144.78Y-125.73
X144.78Y-128.27
X144.78Y-129.286
X144.78Y-143.51
X144.907Y-113.538
X145.034Y-133.35
X145.161Y-138.811
X145.542Y-108.077
X145.542Y-116.586
X145.796Y-114.554
X146.05Y-73.66
X146.05Y-91.44
X146.05Y-100.33
X146.05Y-105.918
X146.05Y-121.92
X146.05Y-127.0
X146.05Y-143.51
X146.685Y-102.997
X147.066Y-83.82
X147.193Y-125.73
X147.32Y-73.66
X147.32Y-79.248
X147.32Y-80.264
X147.32Y-90.17
X147.32Y-93.98
X147.32Y-123.19
X147.32Y-131.318
X147.32Y-133.35
X147.32Y-137.541
X147.32Y-143.51
X147.574Y-119.126
X148.336Y-116.84
X148.336Y-118.237
X148.59Y-73.66
X148.59Y-88.9
X148.59Y-92.71
X148.59Y-143.51
X149.606Y-84.074
X149.606Y-113.538
X149.733Y-100.584
X149.86Y-73.66
X149.86Y-85.344
X149.86Y-87.122
X149.86Y-91.44
X149.86Y-96.52
X149.86Y-129.286
X149.86Y-130.81
X149.86Y-133.35
X149.86Y-138.557
X149.86Y-143.51
X150.114Y-107.061
X150.114Y-108.458
X150.495Y-109.855
X150.622Y-112.522
X150.876Y-114.046
X151.003Y-115.697
X151.003Y-120.777
X151.13Y-73.66
X151.13Y-90.17
X151.13Y-95.25
X151.13Y-122.682
X151.13Y-143.51
X152.273Y-111.633
X152.4Y-73.66
X152.4Y-80.264
X152.4Y-85.344
X152.4Y-87.122
X152.4Y-88.9
X152.4Y-93.98
X152.4Y-97.79
X152.4Y-106.68
X152.4Y-107.95
X152.4Y-109.22
X152.4Y-114.3
X152.4Y-116.967
X152.4Y-121.412
X152.4Y-137.795
X152.4Y-143.51
X152.908Y-128.016
X153.67Y-73.66
X153.67Y-92.71
X153.67Y-96.52
X153.67Y-100.33
X153.67Y-104.14
X153.67Y-105.41
X153.67Y-106.68
X153.67Y-107.95
X153.67Y-109.22
X153.67Y-125.222
X153.67Y-143.51
X154.305Y-111.633
X154.305Y-114.046
X154.305Y-116.078
X154.305Y-118.872
X154.94Y-73.66
X154.94Y-80.264
X154.94Y-123.952
X154.94Y-126.492
X154.94Y-134.366
X154.94Y-137.414
X154.94Y-142.24
X154.94Y-143.51
X156.21Y-73.66
X156.21Y-142.24
X156.21Y-143.51
X156.972Y-93.472
X156.972Y-96.52
X156.972Y-97.79
X156.972Y-99.06
X156.972Y-100.33
X156.972Y-101.6
X156.972Y-102.87
X156.972Y-104.14
X156.972Y-105.41
X156.972Y-106.68
X156.972Y-107.95
X156.972Y-109.22
X156.972Y-110.49
X156.972Y-111.76
X156.972Y-113.03
X156.972Y-114.3
X156.972Y-115.57
X156.972Y-116.84
X156.972Y-118.11
X156.972Y-119.38
X156.972Y-120.65
X156.972Y-121.92
X156.972Y-125.603
X156.972Y-127.762
X157.48Y-73.66
X157.48Y-80.264
X157.48Y-82.296
X157.48Y-83.82
X157.48Y-88.519
X157.48Y-131.318
X157.48Y-134.366
X157.48Y-137.414
X157.48Y-142.24
X157.48Y-143.51
X158.75Y-73.66
X158.75Y-83.82
X158.75Y-142.24
X158.75Y-143.51
X159.004Y-91.44
X159.004Y-95.25
X159.004Y-96.52
X159.004Y-97.79
X159.004Y-99.06
X159.004Y-100.33
X159.004Y-101.6
X159.004Y-102.87
X159.004Y-104.14
X159.004Y-105.41
X159.004Y-106.68
X159.004Y-107.95
X159.004Y-109.22
X159.004Y-110.49
X159.004Y-111.76
X159.004Y-113.03
X159.004Y-114.3
X159.004Y-115.57
X159.004Y-116.84
X159.004Y-118.11
X159.004Y-119.38
X159.004Y-120.65
X159.004Y-121.92
X159.004Y-123.19
X159.004Y-127.635
X160.02Y-73.66
X160.02Y-80.264
X160.02Y-82.296
X160.02Y-83.82
X160.02Y-85.471
X160.02Y-137.414
X160.02Y-142.24
X160.02Y-143.51
X161.29Y-73.66
X161.29Y-92.71
X161.29Y-93.98
X161.29Y-95.25
X161.29Y-96.52
X161.29Y-97.79
X161.29Y-99.06
X161.29Y-100.33
X161.29Y-101.6
X161.29Y-102.87
X161.29Y-104.14
X161.29Y-105.41
X161.29Y-106.68
X161.29Y-107.95
X161.29Y-109.22
X161.29Y-110.49
X161.29Y-111.76
X161.29Y-113.03
X161.29Y-114.3
X161.29Y-115.57
X161.29Y-116.84
X161.29Y-118.11
X161.29Y-119.38
X161.29Y-120.65
X161.29Y-121.92
X161.29Y-123.19
X161.29Y-124.46
X161.29Y-125.73
X161.29Y-142.24
X161.29Y-143.51
X162.56Y-73.66
X162.56Y-80.264
X162.56Y-82.296
X162.56Y-92.71
X162.56Y-93.98
X162.56Y-95.25
X162.56Y-96.52
X162.56Y-97.79
X162.56Y-99.06
X162.56Y-100.33
X162.56Y-101.6
X162.56Y-102.87
X162.56Y-104.14
X162.56Y-105.41
X162.56Y-106.68
X162.56Y-107.95
X162.56Y-109.22
X162.56Y-110.49
X162.56Y-111.76
X162.56Y-113.03
X162.56Y-114.3
X162.56Y-115.57
X162.56Y-116.84
X162.56Y-118.11
X162.56Y-119.38
X162.56Y-120.65
X162.56Y-121.92
X162.56Y-123.19
X162.56Y-124.46
X162.56Y-125.73
X162.56Y-129.54
X162.56Y-131.318
X162.56Y-134.366
X162.56Y-137.414
X162.56Y-142.24
X162.56Y-143.51
X163.83Y-73.66
X163.83Y-83.82
X163.83Y-90.17
X163.83Y-93.98
X163.83Y-95.25
X163.83Y-96.52
X163.83Y-97.79
X163.83Y-99.06
X163.83Y-100.33
X163.83Y-101.6
X163.83Y-102.87
X163.83Y-104.14
X163.83Y-105.41
X163.83Y-106.68
X163.83Y-107.95
X163.83Y-109.22
X163.83Y-110.49
X163.83Y-111.76
X163.83Y-113.03
X163.83Y-114.3
X163.83Y-115.57
X163.83Y-116.84
X163.83Y-118.11
X163.83Y-119.38
X163.83Y-120.65
X163.83Y-121.92
X163.83Y-123.19
X163.83Y-124.46
X163.83Y-125.73
X163.83Y-127.762
X163.83Y-142.24
X163.83Y-143.51
X165.1Y-73.66
X165.1Y-85.344
X165.1Y-87.376
X165.1Y-88.9
X165.1Y-90.17
X165.1Y-91.44
X165.1Y-95.25
X165.1Y-96.52
X165.1Y-97.79
X165.1Y-99.06
X165.1Y-100.33
X165.1Y-101.6
X165.1Y-102.87
X165.1Y-104.14
X165.1Y-105.41
X165.1Y-106.68
X165.1Y-107.95
X165.1Y-109.22
X165.1Y-110.49
X165.1Y-111.76
X165.1Y-113.03
X165.1Y-114.3
X165.1Y-115.57
X165.1Y-116.84
X165.1Y-118.11
X165.1Y-119.38
X165.1Y-120.65
X165.1Y-121.92
X165.1Y-123.19
X165.1Y-124.46
X165.1Y-125.73
X165.1Y-127.762
X165.1Y-129.54
X165.1Y-131.318
X165.1Y-134.366
X165.1Y-137.287
X165.1Y-143.51
X166.37Y-73.66
X166.37Y-137.922
X166.37Y-143.51
X167.64Y-73.66
X167.64Y-80.264
X167.64Y-82.296
X167.64Y-134.366
X167.64Y-143.51
X167.894Y-137.541
X168.91Y-73.66
X168.91Y-143.51
X170.18Y-73.66
X170.18Y-143.51
X171.45Y-73.66
X171.45Y-83.82
X171.45Y-88.9
X171.45Y-90.17
X171.45Y-91.44
X171.45Y-92.71
X171.45Y-93.98
X171.45Y-95.25
X171.45Y-96.52
X171.45Y-97.79
X171.45Y-101.6
X171.45Y-102.87
X171.45Y-104.14
X171.45Y-105.41
X171.45Y-106.68
X171.45Y-107.95
X171.45Y-109.22
X171.45Y-110.49
X171.45Y-111.76
X171.45Y-113.03
X171.45Y-114.3
X171.45Y-115.57
X171.45Y-116.84
X171.45Y-118.11
X171.45Y-119.38
X171.45Y-120.65
X171.45Y-121.92
X171.45Y-123.19
X171.45Y-124.46
X171.45Y-125.73
X171.45Y-143.51
X172.593Y-132.842
X172.72Y-73.66
X172.72Y-99.06
X172.72Y-102.87
X172.72Y-125.73
X172.72Y-137.541
X172.72Y-143.51
X172.974Y-130.302
X173.99Y-73.66
X173.99Y-100.33
X173.99Y-104.14
X173.99Y-125.73
X173.99Y-127.0
X173.99Y-128.27
X173.99Y-129.54
X173.99Y-140.97
X173.99Y-142.24
X173.99Y-143.51
X175.26Y-73.66
X175.26Y-101.6
X175.26Y-105.41
X175.26Y-129.54
X175.26Y-137.16
X175.26Y-140.97
X175.26Y-143.51
X176.53Y-73.66
X176.53Y-102.87
X176.53Y-106.68
X176.53Y-129.54
X176.53Y-135.89
X176.53Y-140.97
X176.53Y-143.51
X177.8Y-73.66
X177.8Y-102.87
X177.8Y-106.68
X177.8Y-129.54
X177.8Y-139.7
X177.8Y-143.51
X179.07Y-73.66
X179.07Y-102.87
X179.07Y-106.68
X179.07Y-107.95
X179.07Y-129.54
X179.07Y-130.81
X179.07Y-138.43
X179.07Y-143.51
X180.34Y-73.66
X180.34Y-102.87
X180.34Y-106.68
X180.34Y-107.95
X180.34Y-109.22
X180.34Y-129.54
X180.34Y-130.81
X180.34Y-132.08
X180.34Y-137.16
X180.34Y-143.51
X181.61Y-73.66
X181.61Y-106.68
X181.61Y-107.95
X181.61Y-109.22
X181.61Y-110.49
X181.61Y-129.54
X181.61Y-130.81
X181.61Y-135.89
X181.61Y-143.51
X182.88Y-73.66
X182.88Y-106.68
X182.88Y-107.95
X182.88Y-109.22
X182.88Y-110.49
X182.88Y-111.76
X182.88Y-113.03
X182.88Y-114.3
X182.88Y-115.57
X182.88Y-116.84
X182.88Y-118.11
X182.88Y-119.38
X182.88Y-120.65
X182.88Y-121.92
X182.88Y-123.19
X182.88Y-124.46
X182.88Y-125.73
X182.88Y-127.0
X182.88Y-128.27
X182.88Y-129.54
X182.88Y-134.62
X182.88Y-143.51
X184.15Y-73.66
X184.15Y-102.87
X184.15Y-109.22
X184.15Y-133.35
X184.15Y-143.51
X185.42Y-73.66
X185.42Y-102.87
X185.42Y-132.08
X185.42Y-143.51
X186.69Y-73.66
X186.69Y-102.87
X186.69Y-130.81
X186.69Y-143.51
X187.96Y-73.66
X187.96Y-106.68
X187.96Y-107.95
X187.96Y-109.22
X187.96Y-110.49
X187.96Y-113.03
X187.96Y-114.3
X187.96Y-115.57
X187.96Y-116.84
X187.96Y-118.11
X187.96Y-119.38
X187.96Y-120.65
X187.96Y-121.92
X187.96Y-123.19
X187.96Y-124.46
X187.96Y-125.73
X187.96Y-127.0
X187.96Y-128.27
X187.96Y-129.54
X187.96Y-143.51
X189.23Y-73.66
X189.23Y-105.41
X189.23Y-113.03
X189.23Y-143.51
X190.5Y-73.66
X190.5Y-106.68
X190.5Y-113.03
X190.5Y-143.51
X191.77Y-73.66
X191.77Y-74.93
X191.77Y-76.2
X191.77Y-106.68
X191.77Y-113.03
X191.77Y-139.7
X191.77Y-140.97
X191.77Y-142.24
X191.77Y-143.51
X193.04Y-107.95
X193.04Y-109.22
X193.04Y-110.49
X193.04Y-111.76
X193.04Y-138.43
X194.31Y-137.16
X195.58Y-80.01
X195.58Y-137.16
X196.85Y-80.01
X196.85Y-137.16
X198.12Y-80.01
X198.12Y-81.28
X198.12Y-82.55
X198.12Y-83.82
X198.12Y-85.09
X198.12Y-86.36
X198.12Y-87.63
X198.12Y-88.9
X198.12Y-90.17
X198.12Y-91.44
X198.12Y-92.71
X198.12Y-93.98
X198.12Y-95.25
X198.12Y-96.52
X198.12Y-97.79
X198.12Y-99.06
X198.12Y-100.33
X198.12Y-101.6
X198.12Y-102.87
X198.12Y-104.14
X198.12Y-105.41
X198.12Y-106.68
X198.12Y-107.95
X198.12Y-109.22
X198.12Y-110.49
X198.12Y-111.76
X198.12Y-113.03
X198.12Y-114.3
X198.12Y-115.57
X198.12Y-116.84
X198.12Y-118.11
X198.12Y-119.38
X198.12Y-120.65
X198.12Y-121.92
X198.12Y-123.19
X198.12Y-124.46
X198.12Y-125.73
X198.12Y-127.0
X198.12Y-128.27
X198.12Y-129.54
X198.12Y-130.81
X198.12Y-132.08
X198.12Y-133.35
X198.12Y-134.62
X198.12Y-135.89
X198.12Y-137.16
T2
X146.475Y-109.49
X146.475Y-111.49
X148.475Y-109.49
X148.475Y-111.49
T3
X109.474Y-108.204
X112.395Y-115.06
X114.402Y-115.06
X114.681Y-112.014
X117.907Y-115.062
X119.619Y-120.675
X119.634Y-122.174
X120.904Y-111.095
X122.207Y-115.062
X122.36Y-105.935
X123.317Y-99.695
X124.079Y-100.457
X124.093Y-101.981
X124.428Y-87.804
X124.714Y-112.012
X125.92Y-114.747
X126.839Y-112.116
X127.0Y-132.461
X127.438Y-106.53
X128.27Y-89.291
X128.927Y-90.932
X129.54Y-128.524
X129.545Y-122.886
X130.429Y-88.519
X130.507Y-83.473
X131.42Y-115.062
X131.445Y-123.698
X131.627Y-83.421
X131.699Y-124.968
X133.268Y-99.84
X133.35Y-133.16
X133.8Y-107.823
X134.62Y-136.525
X138.684Y-103.759
X139.86Y-83.566
X142.089Y-87.464
X142.24Y-133.278
X142.4Y-82.691
X144.616Y-131.734
X145.371Y-84.142
X146.848Y-104.685
X149.098Y-124.732
X149.832Y-104.584
X150.888Y-133.169
X151.13Y-83.616
X152.755Y-133.307
X153.48Y-83.583
X157.48Y-129.667
X157.988Y-89.662
X160.176Y-133.938
X160.525Y-90.492
T4
X101.89Y-76.2
X101.89Y-141.224
X102.549Y-74.609
X102.549Y-77.791
X102.549Y-139.633
X102.549Y-142.815
X104.14Y-73.95
X104.14Y-78.45
X104.14Y-138.974
X104.14Y-143.474
X105.731Y-74.609
X105.731Y-77.791
X105.731Y-139.633
X105.731Y-142.815
X106.39Y-76.2
X106.39Y-141.224
X193.584Y-76.2
X193.584Y-141.224
X194.243Y-74.609
X194.243Y-77.791
X194.243Y-139.633
X194.243Y-142.815
X195.834Y-73.95
X195.834Y-78.45
X195.834Y-138.974
X195.834Y-143.474
X197.425Y-74.609
X197.425Y-77.791
X197.425Y-139.633
X197.425Y-142.815
X198.084Y-76.2
X198.084Y-141.224
T5
X123.175Y-140.97
X125.715Y-140.97
X128.255Y-140.97
X143.52Y-140.97
X146.06Y-140.97
X148.6Y-140.97
X151.14Y-140.97
X166.37Y-140.97
X168.91Y-140.97
X171.45Y-140.97
T6
X104.14Y-76.2
X104.14Y-141.224
X195.834Y-76.2
X195.834Y-141.224
T0
M30
