%TF.GenerationSoftware,KiCad,Pcbnew,(6.0.5)*%
%TF.CreationDate,2022-06-02T10:53:14+02:00*%
%TF.ProjectId,Helios-Display,48656c69-6f73-42d4-9469-73706c61792e,5*%
%TF.SameCoordinates,Original*%
%TF.FileFunction,Legend,Bot*%
%TF.FilePolarity,Positive*%
%FSLAX46Y46*%
G04 Gerber Fmt 4.6, Leading zero omitted, Abs format (unit mm)*
G04 Created by KiCad (PCBNEW (6.0.5)) date 2022-06-02 10:53:14*
%MOMM*%
%LPD*%
G01*
G04 APERTURE LIST*
G04 Aperture macros list*
%AMRoundRect*
0 Rectangle with rounded corners*
0 $1 Rounding radius*
0 $2 $3 $4 $5 $6 $7 $8 $9 X,Y pos of 4 corners*
0 Add a 4 corners polygon primitive as box body*
4,1,4,$2,$3,$4,$5,$6,$7,$8,$9,$2,$3,0*
0 Add four circle primitives for the rounded corners*
1,1,$1+$1,$2,$3*
1,1,$1+$1,$4,$5*
1,1,$1+$1,$6,$7*
1,1,$1+$1,$8,$9*
0 Add four rect primitives between the rounded corners*
20,1,$1+$1,$2,$3,$4,$5,0*
20,1,$1+$1,$4,$5,$6,$7,0*
20,1,$1+$1,$6,$7,$8,$9,0*
20,1,$1+$1,$8,$9,$2,$3,0*%
G04 Aperture macros list end*
%ADD10C,0.300000*%
%ADD11C,0.150000*%
%ADD12C,0.010000*%
%ADD13C,0.120000*%
%ADD14C,0.800000*%
%ADD15C,6.000000*%
%ADD16R,1.700000X1.700000*%
%ADD17O,1.700000X1.700000*%
%ADD18C,2.500000*%
%ADD19RoundRect,0.237500X-0.237500X0.300000X-0.237500X-0.300000X0.237500X-0.300000X0.237500X0.300000X0*%
%ADD20RoundRect,0.150000X0.150000X-0.825000X0.150000X0.825000X-0.150000X0.825000X-0.150000X-0.825000X0*%
%ADD21RoundRect,0.062500X-0.062500X0.350000X-0.062500X-0.350000X0.062500X-0.350000X0.062500X0.350000X0*%
%ADD22RoundRect,0.062500X-0.350000X0.062500X-0.350000X-0.062500X0.350000X-0.062500X0.350000X0.062500X0*%
%ADD23R,2.500000X2.500000*%
%ADD24R,0.300000X1.300000*%
%ADD25R,1.800000X2.200000*%
%ADD26RoundRect,0.250000X0.625000X-0.400000X0.625000X0.400000X-0.625000X0.400000X-0.625000X-0.400000X0*%
%ADD27RoundRect,0.237500X0.237500X-0.300000X0.237500X0.300000X-0.237500X0.300000X-0.237500X-0.300000X0*%
%ADD28RoundRect,0.237500X0.250000X0.237500X-0.250000X0.237500X-0.250000X-0.237500X0.250000X-0.237500X0*%
%ADD29RoundRect,0.250000X0.412500X1.100000X-0.412500X1.100000X-0.412500X-1.100000X0.412500X-1.100000X0*%
%ADD30RoundRect,0.237500X-0.250000X-0.237500X0.250000X-0.237500X0.250000X0.237500X-0.250000X0.237500X0*%
%ADD31R,3.300000X2.500000*%
%ADD32RoundRect,0.250000X0.337500X0.475000X-0.337500X0.475000X-0.337500X-0.475000X0.337500X-0.475000X0*%
%ADD33RoundRect,0.237500X-0.300000X-0.237500X0.300000X-0.237500X0.300000X0.237500X-0.300000X0.237500X0*%
%ADD34RoundRect,0.250001X0.462499X0.624999X-0.462499X0.624999X-0.462499X-0.624999X0.462499X-0.624999X0*%
%ADD35RoundRect,0.250000X-1.100000X0.412500X-1.100000X-0.412500X1.100000X-0.412500X1.100000X0.412500X0*%
%ADD36RoundRect,0.237500X0.237500X-0.250000X0.237500X0.250000X-0.237500X0.250000X-0.237500X-0.250000X0*%
%ADD37RoundRect,0.237500X-0.237500X0.250000X-0.237500X-0.250000X0.237500X-0.250000X0.237500X0.250000X0*%
%ADD38RoundRect,0.250000X0.400000X0.625000X-0.400000X0.625000X-0.400000X-0.625000X0.400000X-0.625000X0*%
G04 APERTURE END LIST*
D10*
X195051071Y-93592857D02*
X193551071Y-93592857D01*
X194265357Y-93592857D02*
X194265357Y-94450000D01*
X195051071Y-94450000D02*
X193551071Y-94450000D01*
X194979642Y-95735714D02*
X195051071Y-95592857D01*
X195051071Y-95307142D01*
X194979642Y-95164285D01*
X194836785Y-95092857D01*
X194265357Y-95092857D01*
X194122500Y-95164285D01*
X194051071Y-95307142D01*
X194051071Y-95592857D01*
X194122500Y-95735714D01*
X194265357Y-95807142D01*
X194408214Y-95807142D01*
X194551071Y-95092857D01*
X195051071Y-96664285D02*
X194979642Y-96521428D01*
X194836785Y-96450000D01*
X193551071Y-96450000D01*
X195051071Y-97235714D02*
X194051071Y-97235714D01*
X193551071Y-97235714D02*
X193622500Y-97164285D01*
X193693928Y-97235714D01*
X193622500Y-97307142D01*
X193551071Y-97235714D01*
X193693928Y-97235714D01*
X195051071Y-98164285D02*
X194979642Y-98021428D01*
X194908214Y-97950000D01*
X194765357Y-97878571D01*
X194336785Y-97878571D01*
X194193928Y-97950000D01*
X194122500Y-98021428D01*
X194051071Y-98164285D01*
X194051071Y-98378571D01*
X194122500Y-98521428D01*
X194193928Y-98592857D01*
X194336785Y-98664285D01*
X194765357Y-98664285D01*
X194908214Y-98592857D01*
X194979642Y-98521428D01*
X195051071Y-98378571D01*
X195051071Y-98164285D01*
X194979642Y-99235714D02*
X195051071Y-99378571D01*
X195051071Y-99664285D01*
X194979642Y-99807142D01*
X194836785Y-99878571D01*
X194765357Y-99878571D01*
X194622500Y-99807142D01*
X194551071Y-99664285D01*
X194551071Y-99450000D01*
X194479642Y-99307142D01*
X194336785Y-99235714D01*
X194265357Y-99235714D01*
X194122500Y-99307142D01*
X194051071Y-99450000D01*
X194051071Y-99664285D01*
X194122500Y-99807142D01*
X195051071Y-100521428D02*
X193551071Y-100521428D01*
X193551071Y-100878571D01*
X193622500Y-101092857D01*
X193765357Y-101235714D01*
X193908214Y-101307142D01*
X194193928Y-101378571D01*
X194408214Y-101378571D01*
X194693928Y-101307142D01*
X194836785Y-101235714D01*
X194979642Y-101092857D01*
X195051071Y-100878571D01*
X195051071Y-100521428D01*
X195051071Y-102021428D02*
X194051071Y-102021428D01*
X193551071Y-102021428D02*
X193622500Y-101950000D01*
X193693928Y-102021428D01*
X193622500Y-102092857D01*
X193551071Y-102021428D01*
X193693928Y-102021428D01*
X194979642Y-102664285D02*
X195051071Y-102807142D01*
X195051071Y-103092857D01*
X194979642Y-103235714D01*
X194836785Y-103307142D01*
X194765357Y-103307142D01*
X194622500Y-103235714D01*
X194551071Y-103092857D01*
X194551071Y-102878571D01*
X194479642Y-102735714D01*
X194336785Y-102664285D01*
X194265357Y-102664285D01*
X194122500Y-102735714D01*
X194051071Y-102878571D01*
X194051071Y-103092857D01*
X194122500Y-103235714D01*
X194051071Y-103950000D02*
X195551071Y-103950000D01*
X194122500Y-103950000D02*
X194051071Y-104092857D01*
X194051071Y-104378571D01*
X194122500Y-104521428D01*
X194193928Y-104592857D01*
X194336785Y-104664285D01*
X194765357Y-104664285D01*
X194908214Y-104592857D01*
X194979642Y-104521428D01*
X195051071Y-104378571D01*
X195051071Y-104092857D01*
X194979642Y-103950000D01*
X195051071Y-105521428D02*
X194979642Y-105378571D01*
X194836785Y-105307142D01*
X193551071Y-105307142D01*
X195051071Y-106735714D02*
X194265357Y-106735714D01*
X194122500Y-106664285D01*
X194051071Y-106521428D01*
X194051071Y-106235714D01*
X194122500Y-106092857D01*
X194979642Y-106735714D02*
X195051071Y-106592857D01*
X195051071Y-106235714D01*
X194979642Y-106092857D01*
X194836785Y-106021428D01*
X194693928Y-106021428D01*
X194551071Y-106092857D01*
X194479642Y-106235714D01*
X194479642Y-106592857D01*
X194408214Y-106735714D01*
X194051071Y-107307142D02*
X195051071Y-107664285D01*
X194051071Y-108021428D02*
X195051071Y-107664285D01*
X195408214Y-107521428D01*
X195479642Y-107450000D01*
X195551071Y-107307142D01*
X194622500Y-109664285D02*
X194622500Y-110378571D01*
X195051071Y-109521428D02*
X193551071Y-110021428D01*
X195051071Y-110521428D01*
X195051071Y-111664285D02*
X193551071Y-111664285D01*
X194979642Y-111664285D02*
X195051071Y-111521428D01*
X195051071Y-111235714D01*
X194979642Y-111092857D01*
X194908214Y-111021428D01*
X194765357Y-110950000D01*
X194336785Y-110950000D01*
X194193928Y-111021428D01*
X194122500Y-111092857D01*
X194051071Y-111235714D01*
X194051071Y-111521428D01*
X194122500Y-111664285D01*
X195051071Y-113021428D02*
X194265357Y-113021428D01*
X194122500Y-112950000D01*
X194051071Y-112807142D01*
X194051071Y-112521428D01*
X194122500Y-112378571D01*
X194979642Y-113021428D02*
X195051071Y-112878571D01*
X195051071Y-112521428D01*
X194979642Y-112378571D01*
X194836785Y-112307142D01*
X194693928Y-112307142D01*
X194551071Y-112378571D01*
X194479642Y-112521428D01*
X194479642Y-112878571D01*
X194408214Y-113021428D01*
X194051071Y-113735714D02*
X195551071Y-113735714D01*
X194122500Y-113735714D02*
X194051071Y-113878571D01*
X194051071Y-114164285D01*
X194122500Y-114307142D01*
X194193928Y-114378571D01*
X194336785Y-114449999D01*
X194765357Y-114449999D01*
X194908214Y-114378571D01*
X194979642Y-114307142D01*
X195051071Y-114164285D01*
X195051071Y-113878571D01*
X194979642Y-113735714D01*
X194051071Y-114878571D02*
X194051071Y-115449999D01*
X193551071Y-115092857D02*
X194836785Y-115092857D01*
X194979642Y-115164285D01*
X195051071Y-115307142D01*
X195051071Y-115449999D01*
X194979642Y-116521428D02*
X195051071Y-116378571D01*
X195051071Y-116092857D01*
X194979642Y-115949999D01*
X194836785Y-115878571D01*
X194265357Y-115878571D01*
X194122500Y-115949999D01*
X194051071Y-116092857D01*
X194051071Y-116378571D01*
X194122500Y-116521428D01*
X194265357Y-116592857D01*
X194408214Y-116592857D01*
X194551071Y-115878571D01*
X195051071Y-117235714D02*
X194051071Y-117235714D01*
X194336785Y-117235714D02*
X194193928Y-117307142D01*
X194122500Y-117378571D01*
X194051071Y-117521428D01*
X194051071Y-117664285D01*
X195051071Y-120164285D02*
X194336785Y-119664285D01*
X195051071Y-119307142D02*
X193551071Y-119307142D01*
X193551071Y-119878571D01*
X193622500Y-120021428D01*
X193693928Y-120092857D01*
X193836785Y-120164285D01*
X194051071Y-120164285D01*
X194193928Y-120092857D01*
X194265357Y-120021428D01*
X194336785Y-119878571D01*
X194336785Y-119307142D01*
X195051071Y-120807142D02*
X193551071Y-120807142D01*
X193551071Y-121378571D01*
X193622500Y-121521428D01*
X193693928Y-121592857D01*
X193836785Y-121664285D01*
X194051071Y-121664285D01*
X194193928Y-121592857D01*
X194265357Y-121521428D01*
X194336785Y-121378571D01*
X194336785Y-120807142D01*
X195051071Y-122307142D02*
X194051071Y-122307142D01*
X193551071Y-122307142D02*
X193622500Y-122235714D01*
X193693928Y-122307142D01*
X193622500Y-122378571D01*
X193551071Y-122307142D01*
X193693928Y-122307142D01*
X196108928Y-90021428D02*
X196037500Y-90092857D01*
X195966071Y-90235714D01*
X195966071Y-90592857D01*
X196037500Y-90735714D01*
X196108928Y-90807142D01*
X196251785Y-90878571D01*
X196394642Y-90878571D01*
X196608928Y-90807142D01*
X197466071Y-89950000D01*
X197466071Y-90878571D01*
X195966071Y-91807142D02*
X195966071Y-91950000D01*
X196037500Y-92092857D01*
X196108928Y-92164285D01*
X196251785Y-92235714D01*
X196537500Y-92307142D01*
X196894642Y-92307142D01*
X197180357Y-92235714D01*
X197323214Y-92164285D01*
X197394642Y-92092857D01*
X197466071Y-91950000D01*
X197466071Y-91807142D01*
X197394642Y-91664285D01*
X197323214Y-91592857D01*
X197180357Y-91521428D01*
X196894642Y-91450000D01*
X196537500Y-91450000D01*
X196251785Y-91521428D01*
X196108928Y-91592857D01*
X196037500Y-91664285D01*
X195966071Y-91807142D01*
X196108928Y-92878571D02*
X196037500Y-92950000D01*
X195966071Y-93092857D01*
X195966071Y-93450000D01*
X196037500Y-93592857D01*
X196108928Y-93664285D01*
X196251785Y-93735714D01*
X196394642Y-93735714D01*
X196608928Y-93664285D01*
X197466071Y-92807142D01*
X197466071Y-93735714D01*
X196108928Y-94307142D02*
X196037500Y-94378571D01*
X195966071Y-94521428D01*
X195966071Y-94878571D01*
X196037500Y-95021428D01*
X196108928Y-95092857D01*
X196251785Y-95164285D01*
X196394642Y-95164285D01*
X196608928Y-95092857D01*
X197466071Y-94235714D01*
X197466071Y-95164285D01*
X195894642Y-96878571D02*
X197823214Y-95592857D01*
X195966071Y-97664285D02*
X195966071Y-97807142D01*
X196037500Y-97950000D01*
X196108928Y-98021428D01*
X196251785Y-98092857D01*
X196537500Y-98164285D01*
X196894642Y-98164285D01*
X197180357Y-98092857D01*
X197323214Y-98021428D01*
X197394642Y-97950000D01*
X197466071Y-97807142D01*
X197466071Y-97664285D01*
X197394642Y-97521428D01*
X197323214Y-97450000D01*
X197180357Y-97378571D01*
X196894642Y-97307142D01*
X196537500Y-97307142D01*
X196251785Y-97378571D01*
X196108928Y-97450000D01*
X196037500Y-97521428D01*
X195966071Y-97664285D01*
X195966071Y-99450000D02*
X195966071Y-99164285D01*
X196037500Y-99021428D01*
X196108928Y-98950000D01*
X196323214Y-98807142D01*
X196608928Y-98735714D01*
X197180357Y-98735714D01*
X197323214Y-98807142D01*
X197394642Y-98878571D01*
X197466071Y-99021428D01*
X197466071Y-99307142D01*
X197394642Y-99450000D01*
X197323214Y-99521428D01*
X197180357Y-99592857D01*
X196823214Y-99592857D01*
X196680357Y-99521428D01*
X196608928Y-99450000D01*
X196537500Y-99307142D01*
X196537500Y-99021428D01*
X196608928Y-98878571D01*
X196680357Y-98807142D01*
X196823214Y-98735714D01*
X195894642Y-101307142D02*
X197823214Y-100021428D01*
X195966071Y-102092857D02*
X195966071Y-102235714D01*
X196037500Y-102378571D01*
X196108928Y-102450000D01*
X196251785Y-102521428D01*
X196537500Y-102592857D01*
X196894642Y-102592857D01*
X197180357Y-102521428D01*
X197323214Y-102450000D01*
X197394642Y-102378571D01*
X197466071Y-102235714D01*
X197466071Y-102092857D01*
X197394642Y-101950000D01*
X197323214Y-101878571D01*
X197180357Y-101807142D01*
X196894642Y-101735714D01*
X196537500Y-101735714D01*
X196251785Y-101807142D01*
X196108928Y-101878571D01*
X196037500Y-101950000D01*
X195966071Y-102092857D01*
X196108928Y-103164285D02*
X196037500Y-103235714D01*
X195966071Y-103378571D01*
X195966071Y-103735714D01*
X196037500Y-103878571D01*
X196108928Y-103950000D01*
X196251785Y-104021428D01*
X196394642Y-104021428D01*
X196608928Y-103950000D01*
X197466071Y-103092857D01*
X197466071Y-104021428D01*
X197466071Y-105807142D02*
X196466071Y-105807142D01*
X196608928Y-105807142D02*
X196537500Y-105878571D01*
X196466071Y-106021428D01*
X196466071Y-106235714D01*
X196537500Y-106378571D01*
X196680357Y-106450000D01*
X197466071Y-106450000D01*
X196680357Y-106450000D02*
X196537500Y-106521428D01*
X196466071Y-106664285D01*
X196466071Y-106878571D01*
X196537500Y-107021428D01*
X196680357Y-107092857D01*
X197466071Y-107092857D01*
X197466071Y-108021428D02*
X197394642Y-107878571D01*
X197323214Y-107807142D01*
X197180357Y-107735714D01*
X196751785Y-107735714D01*
X196608928Y-107807142D01*
X196537500Y-107878571D01*
X196466071Y-108021428D01*
X196466071Y-108235714D01*
X196537500Y-108378571D01*
X196608928Y-108450000D01*
X196751785Y-108521428D01*
X197180357Y-108521428D01*
X197323214Y-108450000D01*
X197394642Y-108378571D01*
X197466071Y-108235714D01*
X197466071Y-108021428D01*
X197466071Y-109164285D02*
X196466071Y-109164285D01*
X196751785Y-109164285D02*
X196608928Y-109235714D01*
X196537500Y-109307142D01*
X196466071Y-109450000D01*
X196466071Y-109592857D01*
X197466071Y-110307142D02*
X197394642Y-110164285D01*
X197251785Y-110092857D01*
X195966071Y-110092857D01*
X197466071Y-111521428D02*
X196680357Y-111521428D01*
X196537500Y-111450000D01*
X196466071Y-111307142D01*
X196466071Y-111021428D01*
X196537500Y-110878571D01*
X197394642Y-111521428D02*
X197466071Y-111378571D01*
X197466071Y-111021428D01*
X197394642Y-110878571D01*
X197251785Y-110807142D01*
X197108928Y-110807142D01*
X196966071Y-110878571D01*
X196894642Y-111021428D01*
X196894642Y-111378571D01*
X196823214Y-111521428D01*
X197394642Y-112878571D02*
X197466071Y-112735714D01*
X197466071Y-112450000D01*
X197394642Y-112307142D01*
X197323214Y-112235714D01*
X197180357Y-112164285D01*
X196751785Y-112164285D01*
X196608928Y-112235714D01*
X196537500Y-112307142D01*
X196466071Y-112450000D01*
X196466071Y-112735714D01*
X196537500Y-112878571D01*
X196751785Y-114450000D02*
X196680357Y-114378571D01*
X196608928Y-114235714D01*
X196608928Y-114092857D01*
X196680357Y-113950000D01*
X196751785Y-113878571D01*
X196894642Y-113807142D01*
X197037500Y-113807142D01*
X197180357Y-113878571D01*
X197251785Y-113950000D01*
X197323214Y-114092857D01*
X197323214Y-114235714D01*
X197251785Y-114378571D01*
X197180357Y-114450000D01*
X196608928Y-114450000D02*
X197180357Y-114450000D01*
X197251785Y-114521428D01*
X197251785Y-114592857D01*
X197180357Y-114735714D01*
X197037500Y-114807142D01*
X196680357Y-114807142D01*
X196466071Y-114664285D01*
X196323214Y-114450000D01*
X196251785Y-114164285D01*
X196323214Y-113878571D01*
X196466071Y-113664285D01*
X196680357Y-113521428D01*
X196966071Y-113450000D01*
X197251785Y-113521428D01*
X197466071Y-113664285D01*
X197608928Y-113878571D01*
X197680357Y-114164285D01*
X197608928Y-114450000D01*
X197466071Y-114664285D01*
X197466071Y-115450000D02*
X196466071Y-115450000D01*
X196608928Y-115450000D02*
X196537500Y-115521428D01*
X196466071Y-115664285D01*
X196466071Y-115878571D01*
X196537500Y-116021428D01*
X196680357Y-116092857D01*
X197466071Y-116092857D01*
X196680357Y-116092857D02*
X196537500Y-116164285D01*
X196466071Y-116307142D01*
X196466071Y-116521428D01*
X196537500Y-116664285D01*
X196680357Y-116735714D01*
X197466071Y-116735714D01*
X197466071Y-117664285D02*
X197394642Y-117521428D01*
X197323214Y-117450000D01*
X197180357Y-117378571D01*
X196751785Y-117378571D01*
X196608928Y-117450000D01*
X196537500Y-117521428D01*
X196466071Y-117664285D01*
X196466071Y-117878571D01*
X196537500Y-118021428D01*
X196608928Y-118092857D01*
X196751785Y-118164285D01*
X197180357Y-118164285D01*
X197323214Y-118092857D01*
X197394642Y-118021428D01*
X197466071Y-117878571D01*
X197466071Y-117664285D01*
X197466071Y-118807142D02*
X196466071Y-118807142D01*
X196751785Y-118807142D02*
X196608928Y-118878571D01*
X196537500Y-118950000D01*
X196466071Y-119092857D01*
X196466071Y-119235714D01*
X197466071Y-119950000D02*
X197394642Y-119807142D01*
X197251785Y-119735714D01*
X195966071Y-119735714D01*
X197466071Y-121164285D02*
X196680357Y-121164285D01*
X196537500Y-121092857D01*
X196466071Y-120950000D01*
X196466071Y-120664285D01*
X196537500Y-120521428D01*
X197394642Y-121164285D02*
X197466071Y-121021428D01*
X197466071Y-120664285D01*
X197394642Y-120521428D01*
X197251785Y-120450000D01*
X197108928Y-120450000D01*
X196966071Y-120521428D01*
X196894642Y-120664285D01*
X196894642Y-121021428D01*
X196823214Y-121164285D01*
X197394642Y-122521428D02*
X197466071Y-122378571D01*
X197466071Y-122092857D01*
X197394642Y-121950000D01*
X197323214Y-121878571D01*
X197180357Y-121807142D01*
X196751785Y-121807142D01*
X196608928Y-121878571D01*
X196537500Y-121950000D01*
X196466071Y-122092857D01*
X196466071Y-122378571D01*
X196537500Y-122521428D01*
X197323214Y-123164285D02*
X197394642Y-123235714D01*
X197466071Y-123164285D01*
X197394642Y-123092857D01*
X197323214Y-123164285D01*
X197466071Y-123164285D01*
X197466071Y-124521428D02*
X195966071Y-124521428D01*
X197394642Y-124521428D02*
X197466071Y-124378571D01*
X197466071Y-124092857D01*
X197394642Y-123950000D01*
X197323214Y-123878571D01*
X197180357Y-123807142D01*
X196751785Y-123807142D01*
X196608928Y-123878571D01*
X196537500Y-123950000D01*
X196466071Y-124092857D01*
X196466071Y-124378571D01*
X196537500Y-124521428D01*
X197394642Y-125807142D02*
X197466071Y-125664285D01*
X197466071Y-125378571D01*
X197394642Y-125235714D01*
X197251785Y-125164285D01*
X196680357Y-125164285D01*
X196537500Y-125235714D01*
X196466071Y-125378571D01*
X196466071Y-125664285D01*
X196537500Y-125807142D01*
X196680357Y-125878571D01*
X196823214Y-125878571D01*
X196966071Y-125164285D01*
D11*
X151550666Y-120245142D02*
X151598285Y-120292761D01*
X151741142Y-120340380D01*
X151836380Y-120340380D01*
X151979238Y-120292761D01*
X152074476Y-120197523D01*
X152122095Y-120102285D01*
X152169714Y-119911809D01*
X152169714Y-119768952D01*
X152122095Y-119578476D01*
X152074476Y-119483238D01*
X151979238Y-119388000D01*
X151836380Y-119340380D01*
X151741142Y-119340380D01*
X151598285Y-119388000D01*
X151550666Y-119435619D01*
X150598285Y-120340380D02*
X151169714Y-120340380D01*
X150884000Y-120340380D02*
X150884000Y-119340380D01*
X150979238Y-119483238D01*
X151074476Y-119578476D01*
X151169714Y-119626095D01*
X131365523Y-95194380D02*
X131365523Y-94194380D01*
X131032190Y-94908666D01*
X130698857Y-94194380D01*
X130698857Y-95194380D01*
X129698857Y-95194380D02*
X130270285Y-95194380D01*
X129984571Y-95194380D02*
X129984571Y-94194380D01*
X130079809Y-94337238D01*
X130175047Y-94432476D01*
X130270285Y-94480095D01*
X148208904Y-106640380D02*
X148208904Y-107449904D01*
X148161285Y-107545142D01*
X148113666Y-107592761D01*
X148018428Y-107640380D01*
X147827952Y-107640380D01*
X147732714Y-107592761D01*
X147685095Y-107545142D01*
X147637476Y-107449904D01*
X147637476Y-106640380D01*
X146637476Y-107640380D02*
X147208904Y-107640380D01*
X146923190Y-107640380D02*
X146923190Y-106640380D01*
X147018428Y-106783238D01*
X147113666Y-106878476D01*
X147208904Y-106926095D01*
X123253333Y-114792380D02*
X123253333Y-115506666D01*
X123300952Y-115649523D01*
X123396190Y-115744761D01*
X123539047Y-115792380D01*
X123634285Y-115792380D01*
X122872380Y-114792380D02*
X122253333Y-114792380D01*
X122586666Y-115173333D01*
X122443809Y-115173333D01*
X122348571Y-115220952D01*
X122300952Y-115268571D01*
X122253333Y-115363809D01*
X122253333Y-115601904D01*
X122300952Y-115697142D01*
X122348571Y-115744761D01*
X122443809Y-115792380D01*
X122729523Y-115792380D01*
X122824761Y-115744761D01*
X122872380Y-115697142D01*
X143041666Y-113990380D02*
X143375000Y-113514190D01*
X143613095Y-113990380D02*
X143613095Y-112990380D01*
X143232142Y-112990380D01*
X143136904Y-113038000D01*
X143089285Y-113085619D01*
X143041666Y-113180857D01*
X143041666Y-113323714D01*
X143089285Y-113418952D01*
X143136904Y-113466571D01*
X143232142Y-113514190D01*
X143613095Y-113514190D01*
X142470238Y-113418952D02*
X142565476Y-113371333D01*
X142613095Y-113323714D01*
X142660714Y-113228476D01*
X142660714Y-113180857D01*
X142613095Y-113085619D01*
X142565476Y-113038000D01*
X142470238Y-112990380D01*
X142279761Y-112990380D01*
X142184523Y-113038000D01*
X142136904Y-113085619D01*
X142089285Y-113180857D01*
X142089285Y-113228476D01*
X142136904Y-113323714D01*
X142184523Y-113371333D01*
X142279761Y-113418952D01*
X142470238Y-113418952D01*
X142565476Y-113466571D01*
X142613095Y-113514190D01*
X142660714Y-113609428D01*
X142660714Y-113799904D01*
X142613095Y-113895142D01*
X142565476Y-113942761D01*
X142470238Y-113990380D01*
X142279761Y-113990380D01*
X142184523Y-113942761D01*
X142136904Y-113895142D01*
X142089285Y-113799904D01*
X142089285Y-113609428D01*
X142136904Y-113514190D01*
X142184523Y-113466571D01*
X142279761Y-113418952D01*
X144565666Y-107291142D02*
X144613285Y-107338761D01*
X144756142Y-107386380D01*
X144851380Y-107386380D01*
X144994238Y-107338761D01*
X145089476Y-107243523D01*
X145137095Y-107148285D01*
X145184714Y-106957809D01*
X145184714Y-106814952D01*
X145137095Y-106624476D01*
X145089476Y-106529238D01*
X144994238Y-106434000D01*
X144851380Y-106386380D01*
X144756142Y-106386380D01*
X144613285Y-106434000D01*
X144565666Y-106481619D01*
X143708523Y-106386380D02*
X143899000Y-106386380D01*
X143994238Y-106434000D01*
X144041857Y-106481619D01*
X144137095Y-106624476D01*
X144184714Y-106814952D01*
X144184714Y-107195904D01*
X144137095Y-107291142D01*
X144089476Y-107338761D01*
X143994238Y-107386380D01*
X143803761Y-107386380D01*
X143708523Y-107338761D01*
X143660904Y-107291142D01*
X143613285Y-107195904D01*
X143613285Y-106957809D01*
X143660904Y-106862571D01*
X143708523Y-106814952D01*
X143803761Y-106767333D01*
X143994238Y-106767333D01*
X144089476Y-106814952D01*
X144137095Y-106862571D01*
X144184714Y-106957809D01*
X156376666Y-110942380D02*
X156710000Y-110466190D01*
X156948095Y-110942380D02*
X156948095Y-109942380D01*
X156567142Y-109942380D01*
X156471904Y-109990000D01*
X156424285Y-110037619D01*
X156376666Y-110132857D01*
X156376666Y-110275714D01*
X156424285Y-110370952D01*
X156471904Y-110418571D01*
X156567142Y-110466190D01*
X156948095Y-110466190D01*
X155995714Y-110037619D02*
X155948095Y-109990000D01*
X155852857Y-109942380D01*
X155614761Y-109942380D01*
X155519523Y-109990000D01*
X155471904Y-110037619D01*
X155424285Y-110132857D01*
X155424285Y-110228095D01*
X155471904Y-110370952D01*
X156043333Y-110942380D01*
X155424285Y-110942380D01*
X105830666Y-104737142D02*
X105878285Y-104784761D01*
X106021142Y-104832380D01*
X106116380Y-104832380D01*
X106259238Y-104784761D01*
X106354476Y-104689523D01*
X106402095Y-104594285D01*
X106449714Y-104403809D01*
X106449714Y-104260952D01*
X106402095Y-104070476D01*
X106354476Y-103975238D01*
X106259238Y-103880000D01*
X106116380Y-103832380D01*
X106021142Y-103832380D01*
X105878285Y-103880000D01*
X105830666Y-103927619D01*
X105497333Y-103832380D02*
X104830666Y-103832380D01*
X105259238Y-104832380D01*
X185753333Y-107292380D02*
X185753333Y-108006666D01*
X185800952Y-108149523D01*
X185896190Y-108244761D01*
X186039047Y-108292380D01*
X186134285Y-108292380D01*
X185324761Y-107387619D02*
X185277142Y-107340000D01*
X185181904Y-107292380D01*
X184943809Y-107292380D01*
X184848571Y-107340000D01*
X184800952Y-107387619D01*
X184753333Y-107482857D01*
X184753333Y-107578095D01*
X184800952Y-107720952D01*
X185372380Y-108292380D01*
X184753333Y-108292380D01*
X190761857Y-113261380D02*
X191095190Y-112785190D01*
X191333285Y-113261380D02*
X191333285Y-112261380D01*
X190952333Y-112261380D01*
X190857095Y-112309000D01*
X190809476Y-112356619D01*
X190761857Y-112451857D01*
X190761857Y-112594714D01*
X190809476Y-112689952D01*
X190857095Y-112737571D01*
X190952333Y-112785190D01*
X191333285Y-112785190D01*
X189809476Y-113261380D02*
X190380904Y-113261380D01*
X190095190Y-113261380D02*
X190095190Y-112261380D01*
X190190428Y-112404238D01*
X190285666Y-112499476D01*
X190380904Y-112547095D01*
X188857095Y-113261380D02*
X189428523Y-113261380D01*
X189142809Y-113261380D02*
X189142809Y-112261380D01*
X189238047Y-112404238D01*
X189333285Y-112499476D01*
X189428523Y-112547095D01*
X138787095Y-100782380D02*
X138787095Y-99782380D01*
X138549000Y-99782380D01*
X138406142Y-99830000D01*
X138310904Y-99925238D01*
X138263285Y-100020476D01*
X138215666Y-100210952D01*
X138215666Y-100353809D01*
X138263285Y-100544285D01*
X138310904Y-100639523D01*
X138406142Y-100734761D01*
X138549000Y-100782380D01*
X138787095Y-100782380D01*
X137263285Y-100782380D02*
X137834714Y-100782380D01*
X137549000Y-100782380D02*
X137549000Y-99782380D01*
X137644238Y-99925238D01*
X137739476Y-100020476D01*
X137834714Y-100068095D01*
X153963666Y-103481142D02*
X154011285Y-103528761D01*
X154154142Y-103576380D01*
X154249380Y-103576380D01*
X154392238Y-103528761D01*
X154487476Y-103433523D01*
X154535095Y-103338285D01*
X154582714Y-103147809D01*
X154582714Y-103004952D01*
X154535095Y-102814476D01*
X154487476Y-102719238D01*
X154392238Y-102624000D01*
X154249380Y-102576380D01*
X154154142Y-102576380D01*
X154011285Y-102624000D01*
X153963666Y-102671619D01*
X153106523Y-102909714D02*
X153106523Y-103576380D01*
X153344619Y-102528761D02*
X153582714Y-103243047D01*
X152963666Y-103243047D01*
X190761857Y-110594380D02*
X191095190Y-110118190D01*
X191333285Y-110594380D02*
X191333285Y-109594380D01*
X190952333Y-109594380D01*
X190857095Y-109642000D01*
X190809476Y-109689619D01*
X190761857Y-109784857D01*
X190761857Y-109927714D01*
X190809476Y-110022952D01*
X190857095Y-110070571D01*
X190952333Y-110118190D01*
X191333285Y-110118190D01*
X189809476Y-110594380D02*
X190380904Y-110594380D01*
X190095190Y-110594380D02*
X190095190Y-109594380D01*
X190190428Y-109737238D01*
X190285666Y-109832476D01*
X190380904Y-109880095D01*
X189428523Y-109689619D02*
X189380904Y-109642000D01*
X189285666Y-109594380D01*
X189047571Y-109594380D01*
X188952333Y-109642000D01*
X188904714Y-109689619D01*
X188857095Y-109784857D01*
X188857095Y-109880095D01*
X188904714Y-110022952D01*
X189476142Y-110594380D01*
X188857095Y-110594380D01*
X153836666Y-106116380D02*
X154170000Y-105640190D01*
X154408095Y-106116380D02*
X154408095Y-105116380D01*
X154027142Y-105116380D01*
X153931904Y-105164000D01*
X153884285Y-105211619D01*
X153836666Y-105306857D01*
X153836666Y-105449714D01*
X153884285Y-105544952D01*
X153931904Y-105592571D01*
X154027142Y-105640190D01*
X154408095Y-105640190D01*
X152979523Y-105449714D02*
X152979523Y-106116380D01*
X153217619Y-105068761D02*
X153455714Y-105783047D01*
X152836666Y-105783047D01*
X139326857Y-110053380D02*
X139660190Y-109577190D01*
X139898285Y-110053380D02*
X139898285Y-109053380D01*
X139517333Y-109053380D01*
X139422095Y-109101000D01*
X139374476Y-109148619D01*
X139326857Y-109243857D01*
X139326857Y-109386714D01*
X139374476Y-109481952D01*
X139422095Y-109529571D01*
X139517333Y-109577190D01*
X139898285Y-109577190D01*
X138374476Y-110053380D02*
X138945904Y-110053380D01*
X138660190Y-110053380D02*
X138660190Y-109053380D01*
X138755428Y-109196238D01*
X138850666Y-109291476D01*
X138945904Y-109339095D01*
X137755428Y-109053380D02*
X137660190Y-109053380D01*
X137564952Y-109101000D01*
X137517333Y-109148619D01*
X137469714Y-109243857D01*
X137422095Y-109434333D01*
X137422095Y-109672428D01*
X137469714Y-109862904D01*
X137517333Y-109958142D01*
X137564952Y-110005761D01*
X137660190Y-110053380D01*
X137755428Y-110053380D01*
X137850666Y-110005761D01*
X137898285Y-109958142D01*
X137945904Y-109862904D01*
X137993523Y-109672428D01*
X137993523Y-109434333D01*
X137945904Y-109243857D01*
X137898285Y-109148619D01*
X137850666Y-109101000D01*
X137755428Y-109053380D01*
X156376666Y-113133142D02*
X156424285Y-113180761D01*
X156567142Y-113228380D01*
X156662380Y-113228380D01*
X156805238Y-113180761D01*
X156900476Y-113085523D01*
X156948095Y-112990285D01*
X156995714Y-112799809D01*
X156995714Y-112656952D01*
X156948095Y-112466476D01*
X156900476Y-112371238D01*
X156805238Y-112276000D01*
X156662380Y-112228380D01*
X156567142Y-112228380D01*
X156424285Y-112276000D01*
X156376666Y-112323619D01*
X155471904Y-112228380D02*
X155948095Y-112228380D01*
X155995714Y-112704571D01*
X155948095Y-112656952D01*
X155852857Y-112609333D01*
X155614761Y-112609333D01*
X155519523Y-112656952D01*
X155471904Y-112704571D01*
X155424285Y-112799809D01*
X155424285Y-113037904D01*
X155471904Y-113133142D01*
X155519523Y-113180761D01*
X155614761Y-113228380D01*
X155852857Y-113228380D01*
X155948095Y-113180761D01*
X155995714Y-113133142D01*
X118697333Y-77102571D02*
X119030666Y-77102571D01*
X119030666Y-77626380D02*
X119030666Y-76626380D01*
X118554476Y-76626380D01*
X117649714Y-77626380D02*
X118221142Y-77626380D01*
X117935428Y-77626380D02*
X117935428Y-76626380D01*
X118030666Y-76769238D01*
X118125904Y-76864476D01*
X118221142Y-76912095D01*
X133611857Y-118308380D02*
X133945190Y-117832190D01*
X134183285Y-118308380D02*
X134183285Y-117308380D01*
X133802333Y-117308380D01*
X133707095Y-117356000D01*
X133659476Y-117403619D01*
X133611857Y-117498857D01*
X133611857Y-117641714D01*
X133659476Y-117736952D01*
X133707095Y-117784571D01*
X133802333Y-117832190D01*
X134183285Y-117832190D01*
X132659476Y-118308380D02*
X133230904Y-118308380D01*
X132945190Y-118308380D02*
X132945190Y-117308380D01*
X133040428Y-117451238D01*
X133135666Y-117546476D01*
X133230904Y-117594095D01*
X131802333Y-117641714D02*
X131802333Y-118308380D01*
X132040428Y-117260761D02*
X132278523Y-117975047D01*
X131659476Y-117975047D01*
X133611857Y-116149380D02*
X133945190Y-115673190D01*
X134183285Y-116149380D02*
X134183285Y-115149380D01*
X133802333Y-115149380D01*
X133707095Y-115197000D01*
X133659476Y-115244619D01*
X133611857Y-115339857D01*
X133611857Y-115482714D01*
X133659476Y-115577952D01*
X133707095Y-115625571D01*
X133802333Y-115673190D01*
X134183285Y-115673190D01*
X132659476Y-116149380D02*
X133230904Y-116149380D01*
X132945190Y-116149380D02*
X132945190Y-115149380D01*
X133040428Y-115292238D01*
X133135666Y-115387476D01*
X133230904Y-115435095D01*
X132326142Y-115149380D02*
X131707095Y-115149380D01*
X132040428Y-115530333D01*
X131897571Y-115530333D01*
X131802333Y-115577952D01*
X131754714Y-115625571D01*
X131707095Y-115720809D01*
X131707095Y-115958904D01*
X131754714Y-116054142D01*
X131802333Y-116101761D01*
X131897571Y-116149380D01*
X132183285Y-116149380D01*
X132278523Y-116101761D01*
X132326142Y-116054142D01*
X113196666Y-88114142D02*
X113244285Y-88161761D01*
X113387142Y-88209380D01*
X113482380Y-88209380D01*
X113625238Y-88161761D01*
X113720476Y-88066523D01*
X113768095Y-87971285D01*
X113815714Y-87780809D01*
X113815714Y-87637952D01*
X113768095Y-87447476D01*
X113720476Y-87352238D01*
X113625238Y-87257000D01*
X113482380Y-87209380D01*
X113387142Y-87209380D01*
X113244285Y-87257000D01*
X113196666Y-87304619D01*
X112815714Y-87304619D02*
X112768095Y-87257000D01*
X112672857Y-87209380D01*
X112434761Y-87209380D01*
X112339523Y-87257000D01*
X112291904Y-87304619D01*
X112244285Y-87399857D01*
X112244285Y-87495095D01*
X112291904Y-87637952D01*
X112863333Y-88209380D01*
X112244285Y-88209380D01*
X139358666Y-108783380D02*
X139692000Y-108307190D01*
X139930095Y-108783380D02*
X139930095Y-107783380D01*
X139549142Y-107783380D01*
X139453904Y-107831000D01*
X139406285Y-107878619D01*
X139358666Y-107973857D01*
X139358666Y-108116714D01*
X139406285Y-108211952D01*
X139453904Y-108259571D01*
X139549142Y-108307190D01*
X139930095Y-108307190D01*
X138453904Y-107783380D02*
X138930095Y-107783380D01*
X138977714Y-108259571D01*
X138930095Y-108211952D01*
X138834857Y-108164333D01*
X138596761Y-108164333D01*
X138501523Y-108211952D01*
X138453904Y-108259571D01*
X138406285Y-108354809D01*
X138406285Y-108592904D01*
X138453904Y-108688142D01*
X138501523Y-108735761D01*
X138596761Y-108783380D01*
X138834857Y-108783380D01*
X138930095Y-108735761D01*
X138977714Y-108688142D01*
X111418666Y-79192380D02*
X111752000Y-78716190D01*
X111990095Y-79192380D02*
X111990095Y-78192380D01*
X111609142Y-78192380D01*
X111513904Y-78240000D01*
X111466285Y-78287619D01*
X111418666Y-78382857D01*
X111418666Y-78525714D01*
X111466285Y-78620952D01*
X111513904Y-78668571D01*
X111609142Y-78716190D01*
X111990095Y-78716190D01*
X111085333Y-78192380D02*
X110418666Y-78192380D01*
X110847238Y-79192380D01*
X145454666Y-117038380D02*
X145788000Y-116562190D01*
X146026095Y-117038380D02*
X146026095Y-116038380D01*
X145645142Y-116038380D01*
X145549904Y-116086000D01*
X145502285Y-116133619D01*
X145454666Y-116228857D01*
X145454666Y-116371714D01*
X145502285Y-116466952D01*
X145549904Y-116514571D01*
X145645142Y-116562190D01*
X146026095Y-116562190D01*
X145121333Y-116038380D02*
X144502285Y-116038380D01*
X144835619Y-116419333D01*
X144692761Y-116419333D01*
X144597523Y-116466952D01*
X144549904Y-116514571D01*
X144502285Y-116609809D01*
X144502285Y-116847904D01*
X144549904Y-116943142D01*
X144597523Y-116990761D01*
X144692761Y-117038380D01*
X144978476Y-117038380D01*
X145073714Y-116990761D01*
X145121333Y-116943142D01*
X135929666Y-103195380D02*
X136263000Y-102719190D01*
X136501095Y-103195380D02*
X136501095Y-102195380D01*
X136120142Y-102195380D01*
X136024904Y-102243000D01*
X135977285Y-102290619D01*
X135929666Y-102385857D01*
X135929666Y-102528714D01*
X135977285Y-102623952D01*
X136024904Y-102671571D01*
X136120142Y-102719190D01*
X136501095Y-102719190D01*
X135453476Y-103195380D02*
X135263000Y-103195380D01*
X135167761Y-103147761D01*
X135120142Y-103100142D01*
X135024904Y-102957285D01*
X134977285Y-102766809D01*
X134977285Y-102385857D01*
X135024904Y-102290619D01*
X135072523Y-102243000D01*
X135167761Y-102195380D01*
X135358238Y-102195380D01*
X135453476Y-102243000D01*
X135501095Y-102290619D01*
X135548714Y-102385857D01*
X135548714Y-102623952D01*
X135501095Y-102719190D01*
X135453476Y-102766809D01*
X135358238Y-102814428D01*
X135167761Y-102814428D01*
X135072523Y-102766809D01*
X135024904Y-102719190D01*
X134977285Y-102623952D01*
X125515666Y-92908380D02*
X125849000Y-92432190D01*
X126087095Y-92908380D02*
X126087095Y-91908380D01*
X125706142Y-91908380D01*
X125610904Y-91956000D01*
X125563285Y-92003619D01*
X125515666Y-92098857D01*
X125515666Y-92241714D01*
X125563285Y-92336952D01*
X125610904Y-92384571D01*
X125706142Y-92432190D01*
X126087095Y-92432190D01*
X124658523Y-91908380D02*
X124849000Y-91908380D01*
X124944238Y-91956000D01*
X124991857Y-92003619D01*
X125087095Y-92146476D01*
X125134714Y-92336952D01*
X125134714Y-92717904D01*
X125087095Y-92813142D01*
X125039476Y-92860761D01*
X124944238Y-92908380D01*
X124753761Y-92908380D01*
X124658523Y-92860761D01*
X124610904Y-92813142D01*
X124563285Y-92717904D01*
X124563285Y-92479809D01*
X124610904Y-92384571D01*
X124658523Y-92336952D01*
X124753761Y-92289333D01*
X124944238Y-92289333D01*
X125039476Y-92336952D01*
X125087095Y-92384571D01*
X125134714Y-92479809D01*
X151550666Y-117038380D02*
X151884000Y-116562190D01*
X152122095Y-117038380D02*
X152122095Y-116038380D01*
X151741142Y-116038380D01*
X151645904Y-116086000D01*
X151598285Y-116133619D01*
X151550666Y-116228857D01*
X151550666Y-116371714D01*
X151598285Y-116466952D01*
X151645904Y-116514571D01*
X151741142Y-116562190D01*
X152122095Y-116562190D01*
X150598285Y-117038380D02*
X151169714Y-117038380D01*
X150884000Y-117038380D02*
X150884000Y-116038380D01*
X150979238Y-116181238D01*
X151074476Y-116276476D01*
X151169714Y-116324095D01*
G36*
X115534938Y-135845744D02*
G01*
X115533355Y-135986918D01*
X115527916Y-136085285D01*
X115516643Y-136153990D01*
X115497561Y-136206181D01*
X115468694Y-136255004D01*
X115461592Y-136265135D01*
X115386444Y-136345012D01*
X115300820Y-136405253D01*
X115256852Y-136424802D01*
X115098861Y-136457408D01*
X114942613Y-136436317D01*
X114798618Y-136364249D01*
X114677385Y-136243922D01*
X114667150Y-136227803D01*
X114633847Y-136134205D01*
X114611405Y-136003879D01*
X114600516Y-135853371D01*
X114601740Y-135714147D01*
X114896384Y-135714147D01*
X114898706Y-135907020D01*
X114899639Y-135919433D01*
X114913242Y-136025857D01*
X114937465Y-136093346D01*
X114978365Y-136139584D01*
X115046941Y-136182895D01*
X115114764Y-136185172D01*
X115184621Y-136135241D01*
X115196771Y-136122102D01*
X115220575Y-136082785D01*
X115234628Y-136025674D01*
X115241313Y-135937256D01*
X115243011Y-135804019D01*
X115240101Y-135679222D01*
X115225582Y-135560326D01*
X115195610Y-135485184D01*
X115146589Y-135445893D01*
X115074924Y-135434552D01*
X115047632Y-135436807D01*
X114971176Y-135478160D01*
X114920650Y-135570900D01*
X114896384Y-135714147D01*
X114601740Y-135714147D01*
X114601871Y-135699227D01*
X114616161Y-135557992D01*
X114644075Y-135446213D01*
X114679949Y-135371766D01*
X114780939Y-135255968D01*
X114917779Y-135184015D01*
X115085283Y-135159281D01*
X115130019Y-135160619D01*
X115261758Y-135188008D01*
X115369968Y-135257007D01*
X115469276Y-135375864D01*
X115475184Y-135384681D01*
X115501921Y-135432108D01*
X115519312Y-135485714D01*
X115529312Y-135558549D01*
X115533878Y-135663659D01*
X115534893Y-135804019D01*
X115534965Y-135814092D01*
X115534938Y-135845744D01*
G37*
D12*
X115534938Y-135845744D02*
X115533355Y-135986918D01*
X115527916Y-136085285D01*
X115516643Y-136153990D01*
X115497561Y-136206181D01*
X115468694Y-136255004D01*
X115461592Y-136265135D01*
X115386444Y-136345012D01*
X115300820Y-136405253D01*
X115256852Y-136424802D01*
X115098861Y-136457408D01*
X114942613Y-136436317D01*
X114798618Y-136364249D01*
X114677385Y-136243922D01*
X114667150Y-136227803D01*
X114633847Y-136134205D01*
X114611405Y-136003879D01*
X114600516Y-135853371D01*
X114601740Y-135714147D01*
X114896384Y-135714147D01*
X114898706Y-135907020D01*
X114899639Y-135919433D01*
X114913242Y-136025857D01*
X114937465Y-136093346D01*
X114978365Y-136139584D01*
X115046941Y-136182895D01*
X115114764Y-136185172D01*
X115184621Y-136135241D01*
X115196771Y-136122102D01*
X115220575Y-136082785D01*
X115234628Y-136025674D01*
X115241313Y-135937256D01*
X115243011Y-135804019D01*
X115240101Y-135679222D01*
X115225582Y-135560326D01*
X115195610Y-135485184D01*
X115146589Y-135445893D01*
X115074924Y-135434552D01*
X115047632Y-135436807D01*
X114971176Y-135478160D01*
X114920650Y-135570900D01*
X114896384Y-135714147D01*
X114601740Y-135714147D01*
X114601871Y-135699227D01*
X114616161Y-135557992D01*
X114644075Y-135446213D01*
X114679949Y-135371766D01*
X114780939Y-135255968D01*
X114917779Y-135184015D01*
X115085283Y-135159281D01*
X115130019Y-135160619D01*
X115261758Y-135188008D01*
X115369968Y-135257007D01*
X115469276Y-135375864D01*
X115475184Y-135384681D01*
X115501921Y-135432108D01*
X115519312Y-135485714D01*
X115529312Y-135558549D01*
X115533878Y-135663659D01*
X115534893Y-135804019D01*
X115534965Y-135814092D01*
X115534938Y-135845744D01*
G36*
X113306168Y-135952639D02*
G01*
X113300926Y-135999526D01*
X113261868Y-136166409D01*
X113191290Y-136293326D01*
X113083955Y-136390602D01*
X113077888Y-136394616D01*
X112941440Y-136451706D01*
X112798973Y-136456786D01*
X112661696Y-136413311D01*
X112540819Y-136324734D01*
X112447552Y-136194509D01*
X112445986Y-136191369D01*
X112414993Y-136110501D01*
X112392292Y-136018593D01*
X112380250Y-135932311D01*
X112381237Y-135868321D01*
X112397623Y-135843287D01*
X112412179Y-135844809D01*
X112481792Y-135872496D01*
X112560697Y-135923409D01*
X112627820Y-135982343D01*
X112662087Y-136034094D01*
X112697707Y-136104291D01*
X112770711Y-136168138D01*
X112855485Y-136193632D01*
X112886558Y-136186261D01*
X112947891Y-136149154D01*
X113001315Y-136097644D01*
X113024161Y-136050913D01*
X113024154Y-136050740D01*
X112998233Y-136029280D01*
X112929127Y-135990565D01*
X112827249Y-135940037D01*
X112703011Y-135883134D01*
X112702328Y-135882833D01*
X112567355Y-135822738D01*
X112476884Y-135779440D01*
X112422039Y-135746179D01*
X112393944Y-135716194D01*
X112383724Y-135682726D01*
X112382503Y-135639015D01*
X112390996Y-135556244D01*
X112679219Y-135556244D01*
X112708970Y-135582265D01*
X112783101Y-135621256D01*
X112785274Y-135622359D01*
X112872733Y-135664009D01*
X112950974Y-135697235D01*
X113000611Y-135711291D01*
X113020521Y-135692503D01*
X113024161Y-135628124D01*
X113009035Y-135548001D01*
X112956597Y-135475189D01*
X112880677Y-135437439D01*
X112796040Y-135441251D01*
X112717447Y-135493121D01*
X112686555Y-135528965D01*
X112679219Y-135556244D01*
X112390996Y-135556244D01*
X112393251Y-135534265D01*
X112446389Y-135391949D01*
X112535342Y-135280111D01*
X112650448Y-135202676D01*
X112782045Y-135163568D01*
X112920472Y-135166711D01*
X113056065Y-135216030D01*
X113179164Y-135315447D01*
X113247366Y-135413829D01*
X113296356Y-135554261D01*
X113304322Y-135628124D01*
X113315452Y-135731329D01*
X113306168Y-135952639D01*
G37*
X113306168Y-135952639D02*
X113300926Y-135999526D01*
X113261868Y-136166409D01*
X113191290Y-136293326D01*
X113083955Y-136390602D01*
X113077888Y-136394616D01*
X112941440Y-136451706D01*
X112798973Y-136456786D01*
X112661696Y-136413311D01*
X112540819Y-136324734D01*
X112447552Y-136194509D01*
X112445986Y-136191369D01*
X112414993Y-136110501D01*
X112392292Y-136018593D01*
X112380250Y-135932311D01*
X112381237Y-135868321D01*
X112397623Y-135843287D01*
X112412179Y-135844809D01*
X112481792Y-135872496D01*
X112560697Y-135923409D01*
X112627820Y-135982343D01*
X112662087Y-136034094D01*
X112697707Y-136104291D01*
X112770711Y-136168138D01*
X112855485Y-136193632D01*
X112886558Y-136186261D01*
X112947891Y-136149154D01*
X113001315Y-136097644D01*
X113024161Y-136050913D01*
X113024154Y-136050740D01*
X112998233Y-136029280D01*
X112929127Y-135990565D01*
X112827249Y-135940037D01*
X112703011Y-135883134D01*
X112702328Y-135882833D01*
X112567355Y-135822738D01*
X112476884Y-135779440D01*
X112422039Y-135746179D01*
X112393944Y-135716194D01*
X112383724Y-135682726D01*
X112382503Y-135639015D01*
X112390996Y-135556244D01*
X112679219Y-135556244D01*
X112708970Y-135582265D01*
X112783101Y-135621256D01*
X112785274Y-135622359D01*
X112872733Y-135664009D01*
X112950974Y-135697235D01*
X113000611Y-135711291D01*
X113020521Y-135692503D01*
X113024161Y-135628124D01*
X113009035Y-135548001D01*
X112956597Y-135475189D01*
X112880677Y-135437439D01*
X112796040Y-135441251D01*
X112717447Y-135493121D01*
X112686555Y-135528965D01*
X112679219Y-135556244D01*
X112390996Y-135556244D01*
X112393251Y-135534265D01*
X112446389Y-135391949D01*
X112535342Y-135280111D01*
X112650448Y-135202676D01*
X112782045Y-135163568D01*
X112920472Y-135166711D01*
X113056065Y-135216030D01*
X113179164Y-135315447D01*
X113247366Y-135413829D01*
X113296356Y-135554261D01*
X113304322Y-135628124D01*
X113315452Y-135731329D01*
X113306168Y-135952639D01*
G36*
X109145995Y-135261674D02*
G01*
X109246355Y-135320191D01*
X109290505Y-135365784D01*
X109375347Y-135502072D01*
X109403931Y-135650658D01*
X109403931Y-135752882D01*
X109309963Y-135713372D01*
X109244977Y-135673504D01*
X109193763Y-135590734D01*
X109188504Y-135573669D01*
X109131903Y-135486724D01*
X109046594Y-135439758D01*
X108948641Y-135437741D01*
X108854106Y-135485644D01*
X108839993Y-135497998D01*
X108792797Y-135551683D01*
X108785003Y-135598488D01*
X108820706Y-135644446D01*
X108904003Y-135695588D01*
X109038988Y-135757948D01*
X109048118Y-135761897D01*
X109197969Y-135831772D01*
X109300316Y-135893672D01*
X109363320Y-135955476D01*
X109395138Y-136025062D01*
X109403931Y-136110308D01*
X109392409Y-136204816D01*
X109334228Y-136325785D01*
X109231875Y-136412688D01*
X109157843Y-136438778D01*
X109053367Y-136453055D01*
X108951917Y-136450006D01*
X108879472Y-136428467D01*
X108871777Y-136423104D01*
X108851341Y-136385632D01*
X108865522Y-136319591D01*
X108890161Y-136267753D01*
X108929670Y-136246172D01*
X109004602Y-136247246D01*
X109108630Y-136241055D01*
X109176605Y-136198311D01*
X109199563Y-136119189D01*
X109199542Y-136116916D01*
X109185629Y-136070986D01*
X109138303Y-136028845D01*
X109046287Y-135980272D01*
X108921151Y-135921790D01*
X108838268Y-135889975D01*
X108790420Y-135892025D01*
X108768063Y-135934051D01*
X108761649Y-136022162D01*
X108761632Y-136162469D01*
X108760917Y-136249081D01*
X108757635Y-136356041D01*
X108752300Y-136429250D01*
X108745585Y-136456391D01*
X108743790Y-136456206D01*
X108704982Y-136441498D01*
X108640709Y-136410456D01*
X108551880Y-136364521D01*
X108562436Y-135950628D01*
X108563171Y-135923179D01*
X108571555Y-135730517D01*
X108586366Y-135585309D01*
X108610629Y-135477887D01*
X108647364Y-135398584D01*
X108699597Y-135337730D01*
X108770348Y-135285658D01*
X108771657Y-135284842D01*
X108886056Y-135242360D01*
X109018365Y-135235184D01*
X109145995Y-135261674D01*
G37*
X109145995Y-135261674D02*
X109246355Y-135320191D01*
X109290505Y-135365784D01*
X109375347Y-135502072D01*
X109403931Y-135650658D01*
X109403931Y-135752882D01*
X109309963Y-135713372D01*
X109244977Y-135673504D01*
X109193763Y-135590734D01*
X109188504Y-135573669D01*
X109131903Y-135486724D01*
X109046594Y-135439758D01*
X108948641Y-135437741D01*
X108854106Y-135485644D01*
X108839993Y-135497998D01*
X108792797Y-135551683D01*
X108785003Y-135598488D01*
X108820706Y-135644446D01*
X108904003Y-135695588D01*
X109038988Y-135757948D01*
X109048118Y-135761897D01*
X109197969Y-135831772D01*
X109300316Y-135893672D01*
X109363320Y-135955476D01*
X109395138Y-136025062D01*
X109403931Y-136110308D01*
X109392409Y-136204816D01*
X109334228Y-136325785D01*
X109231875Y-136412688D01*
X109157843Y-136438778D01*
X109053367Y-136453055D01*
X108951917Y-136450006D01*
X108879472Y-136428467D01*
X108871777Y-136423104D01*
X108851341Y-136385632D01*
X108865522Y-136319591D01*
X108890161Y-136267753D01*
X108929670Y-136246172D01*
X109004602Y-136247246D01*
X109108630Y-136241055D01*
X109176605Y-136198311D01*
X109199563Y-136119189D01*
X109199542Y-136116916D01*
X109185629Y-136070986D01*
X109138303Y-136028845D01*
X109046287Y-135980272D01*
X108921151Y-135921790D01*
X108838268Y-135889975D01*
X108790420Y-135892025D01*
X108768063Y-135934051D01*
X108761649Y-136022162D01*
X108761632Y-136162469D01*
X108760917Y-136249081D01*
X108757635Y-136356041D01*
X108752300Y-136429250D01*
X108745585Y-136456391D01*
X108743790Y-136456206D01*
X108704982Y-136441498D01*
X108640709Y-136410456D01*
X108551880Y-136364521D01*
X108562436Y-135950628D01*
X108563171Y-135923179D01*
X108571555Y-135730517D01*
X108586366Y-135585309D01*
X108610629Y-135477887D01*
X108647364Y-135398584D01*
X108699597Y-135337730D01*
X108770348Y-135285658D01*
X108771657Y-135284842D01*
X108886056Y-135242360D01*
X109018365Y-135235184D01*
X109145995Y-135261674D01*
G36*
X109195175Y-125771045D02*
G01*
X109347895Y-125772039D01*
X109457792Y-125774593D01*
X109532235Y-125779445D01*
X109578594Y-125787331D01*
X109604239Y-125798988D01*
X109616539Y-125815153D01*
X109622865Y-125836563D01*
X109623047Y-125837332D01*
X109633441Y-125887663D01*
X109652339Y-125984888D01*
X109677802Y-126118810D01*
X109707890Y-126279235D01*
X109740664Y-126455967D01*
X109743337Y-126470428D01*
X109776010Y-126641959D01*
X109806413Y-126792625D01*
X109832568Y-126913267D01*
X109852496Y-126994729D01*
X109864220Y-127027852D01*
X109864282Y-127027905D01*
X109901229Y-127046229D01*
X109977057Y-127076677D01*
X110075425Y-127112685D01*
X110080965Y-127114640D01*
X110206724Y-127162170D01*
X110353011Y-127221783D01*
X110489293Y-127281056D01*
X110713390Y-127382765D01*
X111209618Y-127043897D01*
X111244570Y-127020063D01*
X111394280Y-126918755D01*
X111527867Y-126829575D01*
X111637343Y-126757773D01*
X111714718Y-126708603D01*
X111752004Y-126687317D01*
X111777552Y-126692196D01*
X111835555Y-126730002D01*
X111925195Y-126804870D01*
X112048957Y-126918903D01*
X112209328Y-127074205D01*
X112223679Y-127088341D01*
X112350933Y-127214999D01*
X112463969Y-127329745D01*
X112555867Y-127425391D01*
X112619707Y-127494746D01*
X112648570Y-127530620D01*
X112648664Y-127530794D01*
X112652331Y-127558106D01*
X112638808Y-127602408D01*
X112604684Y-127669761D01*
X112546548Y-127766226D01*
X112460988Y-127897863D01*
X112344594Y-128070734D01*
X112324759Y-128099912D01*
X112224445Y-128247726D01*
X112135923Y-128378577D01*
X112064465Y-128484643D01*
X112015343Y-128558102D01*
X111993831Y-128591130D01*
X111992208Y-128598126D01*
X112002387Y-128650326D01*
X112032879Y-128735561D01*
X112078712Y-128839291D01*
X112141000Y-128974951D01*
X112210548Y-129135921D01*
X112269609Y-129281621D01*
X112284252Y-129319333D01*
X112322600Y-129415622D01*
X112350770Y-129482704D01*
X112363497Y-129507885D01*
X112377545Y-129509767D01*
X112440681Y-129520651D01*
X112544019Y-129539449D01*
X112676809Y-129564115D01*
X112828297Y-129592604D01*
X112987732Y-129622873D01*
X113144361Y-129652875D01*
X113287433Y-129680566D01*
X113406195Y-129703900D01*
X113489896Y-129720833D01*
X113527782Y-129729320D01*
X113534063Y-129731713D01*
X113549373Y-129744619D01*
X113560763Y-129772096D01*
X113568803Y-129821446D01*
X113574064Y-129899973D01*
X113577116Y-130014980D01*
X113578529Y-130173770D01*
X113578873Y-130383645D01*
X113578873Y-131021906D01*
X113425598Y-131052160D01*
X113407057Y-131055785D01*
X113308596Y-131074569D01*
X113172448Y-131100093D01*
X113014087Y-131129468D01*
X112848988Y-131159806D01*
X112783973Y-131172009D01*
X112638697Y-131201697D01*
X112517626Y-131229770D01*
X112431886Y-131253536D01*
X112392601Y-131270301D01*
X112374799Y-131297694D01*
X112342389Y-131370174D01*
X112309234Y-131463977D01*
X112297564Y-131499103D01*
X112254604Y-131614409D01*
X112199192Y-131750876D01*
X112140353Y-131885954D01*
X112108884Y-131956509D01*
X112064051Y-132061895D01*
X112033240Y-132140818D01*
X112021785Y-132180053D01*
X112022422Y-132183014D01*
X112044150Y-132224639D01*
X112093146Y-132304969D01*
X112164438Y-132416220D01*
X112253054Y-132550605D01*
X112354023Y-132700340D01*
X112686261Y-133187931D01*
X112249771Y-133625149D01*
X112207555Y-133667221D01*
X112078470Y-133793153D01*
X111963107Y-133901754D01*
X111868224Y-133986903D01*
X111800582Y-134042482D01*
X111766938Y-134062368D01*
X111730402Y-134047238D01*
X111653890Y-134003801D01*
X111546196Y-133937270D01*
X111415767Y-133852867D01*
X111271052Y-133755816D01*
X111128910Y-133659964D01*
X111000678Y-133575557D01*
X110896054Y-133508850D01*
X110823171Y-133465024D01*
X110790158Y-133449264D01*
X110788223Y-133449408D01*
X110744369Y-133464945D01*
X110666598Y-133501121D01*
X110570392Y-133550785D01*
X110569381Y-133551329D01*
X110441605Y-133615326D01*
X110354051Y-133646591D01*
X110299726Y-133646677D01*
X110271641Y-133617138D01*
X110259752Y-133588061D01*
X110227668Y-133510188D01*
X110178247Y-133390475D01*
X110114118Y-133235286D01*
X110037911Y-133050984D01*
X109952255Y-132843933D01*
X109859781Y-132620496D01*
X109775962Y-132417226D01*
X109690678Y-132208649D01*
X109615222Y-132022263D01*
X109552126Y-131864407D01*
X109503923Y-131741419D01*
X109473144Y-131659639D01*
X109462322Y-131625406D01*
X109482991Y-131594015D01*
X109540409Y-131541602D01*
X109621688Y-131480704D01*
X109816820Y-131321387D01*
X109991445Y-131117807D01*
X110119235Y-130893808D01*
X110199402Y-130656003D01*
X110231160Y-130411007D01*
X110213722Y-130165433D01*
X110146301Y-129925895D01*
X110028111Y-129699007D01*
X109858364Y-129491383D01*
X109769856Y-129410527D01*
X109557804Y-129267559D01*
X109330905Y-129174352D01*
X109095791Y-129128687D01*
X108859094Y-129128344D01*
X108627446Y-129171105D01*
X108407478Y-129254750D01*
X108205822Y-129377061D01*
X108029111Y-129535817D01*
X107883977Y-129728801D01*
X107777050Y-129953793D01*
X107714964Y-130208575D01*
X107703569Y-130331377D01*
X107719246Y-130597434D01*
X107789846Y-130849856D01*
X107913282Y-131084182D01*
X108087466Y-131295952D01*
X108310311Y-131480704D01*
X108388561Y-131539123D01*
X108447244Y-131592110D01*
X108469678Y-131625356D01*
X108460732Y-131654339D01*
X108431703Y-131731996D01*
X108385026Y-131851451D01*
X108323231Y-132006362D01*
X108248850Y-132190392D01*
X108164412Y-132397200D01*
X108072449Y-132620446D01*
X107988771Y-132822742D01*
X107902366Y-133031686D01*
X107825138Y-133218498D01*
X107759716Y-133376814D01*
X107708731Y-133500269D01*
X107674812Y-133582498D01*
X107660590Y-133617138D01*
X107660425Y-133617548D01*
X107631972Y-133646798D01*
X107577382Y-133646463D01*
X107489609Y-133614980D01*
X107361608Y-133550785D01*
X107351532Y-133545380D01*
X107256481Y-133496750D01*
X107181424Y-133462328D01*
X107141842Y-133449264D01*
X107109400Y-133464702D01*
X107036895Y-133508258D01*
X106932565Y-133574751D01*
X106804539Y-133658998D01*
X106660948Y-133755816D01*
X106519468Y-133850734D01*
X106388611Y-133935490D01*
X106280292Y-134002496D01*
X106202960Y-134046529D01*
X106165062Y-134062368D01*
X106158607Y-134060357D01*
X106113609Y-134028658D01*
X106036727Y-133963181D01*
X105934721Y-133870048D01*
X105814351Y-133755381D01*
X105682379Y-133625300D01*
X105246039Y-133188232D01*
X105925733Y-132188440D01*
X105822402Y-131964886D01*
X105822096Y-131964225D01*
X105760046Y-131821714D01*
X105696640Y-131663018D01*
X105645558Y-131522368D01*
X105637827Y-131499683D01*
X105598852Y-131394370D01*
X105563707Y-131312534D01*
X105539195Y-131270301D01*
X105529212Y-131264337D01*
X105469286Y-131244329D01*
X105367532Y-131218442D01*
X105235068Y-131189370D01*
X105083011Y-131159806D01*
X105037466Y-131151467D01*
X104872685Y-131121107D01*
X104718930Y-131092509D01*
X104591678Y-131068564D01*
X104506402Y-131052160D01*
X104353126Y-131021906D01*
X104353126Y-130383645D01*
X104353160Y-130305165D01*
X104353808Y-130113703D01*
X104355720Y-129970812D01*
X104359469Y-129869189D01*
X104365622Y-129801531D01*
X104374751Y-129760536D01*
X104387427Y-129738900D01*
X104404218Y-129729320D01*
X104420474Y-129725439D01*
X104486748Y-129711710D01*
X104592479Y-129690745D01*
X104726915Y-129664588D01*
X104879302Y-129635283D01*
X105038890Y-129604877D01*
X105194925Y-129575413D01*
X105336657Y-129548937D01*
X105453331Y-129527494D01*
X105534197Y-129513128D01*
X105568503Y-129507885D01*
X105570822Y-129504720D01*
X105589474Y-129463642D01*
X105621753Y-129385044D01*
X105662391Y-129281621D01*
X105718788Y-129142273D01*
X105788214Y-128981226D01*
X105853288Y-128839291D01*
X105868202Y-128807432D01*
X105910047Y-128707669D01*
X105935118Y-128630721D01*
X105938426Y-128591130D01*
X105936720Y-128588325D01*
X105909631Y-128547005D01*
X105855927Y-128466740D01*
X105780877Y-128355350D01*
X105689746Y-128220655D01*
X105587800Y-128070476D01*
X105472930Y-127899851D01*
X105386761Y-127767311D01*
X105328131Y-127670112D01*
X105293650Y-127602234D01*
X105279926Y-127557656D01*
X105283568Y-127530361D01*
X105284794Y-127528313D01*
X105317747Y-127488536D01*
X105384927Y-127416052D01*
X105479419Y-127318046D01*
X105594306Y-127201702D01*
X105722672Y-127074205D01*
X105855831Y-126944821D01*
X105986269Y-126823209D01*
X106082119Y-126741156D01*
X106145866Y-126696560D01*
X106179996Y-126687317D01*
X106184456Y-126689393D01*
X106231421Y-126717385D01*
X106316685Y-126772084D01*
X106432259Y-126848237D01*
X106570154Y-126940592D01*
X106722381Y-127043897D01*
X107218610Y-127382765D01*
X107442707Y-127281056D01*
X107449219Y-127278109D01*
X107586804Y-127218504D01*
X107732767Y-127159222D01*
X107856575Y-127112685D01*
X107857122Y-127112493D01*
X107955414Y-127076497D01*
X108031081Y-127046095D01*
X108067780Y-127027852D01*
X108068374Y-127027190D01*
X108080833Y-126989831D01*
X108101336Y-126904871D01*
X108127907Y-126781469D01*
X108158567Y-126628782D01*
X108191336Y-126455967D01*
X108192478Y-126449774D01*
X108225193Y-126273431D01*
X108255155Y-126113743D01*
X108280425Y-125980905D01*
X108299065Y-125885113D01*
X108309135Y-125836563D01*
X108309779Y-125833873D01*
X108316408Y-125813088D01*
X108329841Y-125797466D01*
X108357446Y-125786270D01*
X108406593Y-125778762D01*
X108484653Y-125774205D01*
X108598994Y-125771863D01*
X108756986Y-125770998D01*
X108966000Y-125770874D01*
X108992262Y-125770874D01*
X109195175Y-125771045D01*
G37*
X109195175Y-125771045D02*
X109347895Y-125772039D01*
X109457792Y-125774593D01*
X109532235Y-125779445D01*
X109578594Y-125787331D01*
X109604239Y-125798988D01*
X109616539Y-125815153D01*
X109622865Y-125836563D01*
X109623047Y-125837332D01*
X109633441Y-125887663D01*
X109652339Y-125984888D01*
X109677802Y-126118810D01*
X109707890Y-126279235D01*
X109740664Y-126455967D01*
X109743337Y-126470428D01*
X109776010Y-126641959D01*
X109806413Y-126792625D01*
X109832568Y-126913267D01*
X109852496Y-126994729D01*
X109864220Y-127027852D01*
X109864282Y-127027905D01*
X109901229Y-127046229D01*
X109977057Y-127076677D01*
X110075425Y-127112685D01*
X110080965Y-127114640D01*
X110206724Y-127162170D01*
X110353011Y-127221783D01*
X110489293Y-127281056D01*
X110713390Y-127382765D01*
X111209618Y-127043897D01*
X111244570Y-127020063D01*
X111394280Y-126918755D01*
X111527867Y-126829575D01*
X111637343Y-126757773D01*
X111714718Y-126708603D01*
X111752004Y-126687317D01*
X111777552Y-126692196D01*
X111835555Y-126730002D01*
X111925195Y-126804870D01*
X112048957Y-126918903D01*
X112209328Y-127074205D01*
X112223679Y-127088341D01*
X112350933Y-127214999D01*
X112463969Y-127329745D01*
X112555867Y-127425391D01*
X112619707Y-127494746D01*
X112648570Y-127530620D01*
X112648664Y-127530794D01*
X112652331Y-127558106D01*
X112638808Y-127602408D01*
X112604684Y-127669761D01*
X112546548Y-127766226D01*
X112460988Y-127897863D01*
X112344594Y-128070734D01*
X112324759Y-128099912D01*
X112224445Y-128247726D01*
X112135923Y-128378577D01*
X112064465Y-128484643D01*
X112015343Y-128558102D01*
X111993831Y-128591130D01*
X111992208Y-128598126D01*
X112002387Y-128650326D01*
X112032879Y-128735561D01*
X112078712Y-128839291D01*
X112141000Y-128974951D01*
X112210548Y-129135921D01*
X112269609Y-129281621D01*
X112284252Y-129319333D01*
X112322600Y-129415622D01*
X112350770Y-129482704D01*
X112363497Y-129507885D01*
X112377545Y-129509767D01*
X112440681Y-129520651D01*
X112544019Y-129539449D01*
X112676809Y-129564115D01*
X112828297Y-129592604D01*
X112987732Y-129622873D01*
X113144361Y-129652875D01*
X113287433Y-129680566D01*
X113406195Y-129703900D01*
X113489896Y-129720833D01*
X113527782Y-129729320D01*
X113534063Y-129731713D01*
X113549373Y-129744619D01*
X113560763Y-129772096D01*
X113568803Y-129821446D01*
X113574064Y-129899973D01*
X113577116Y-130014980D01*
X113578529Y-130173770D01*
X113578873Y-130383645D01*
X113578873Y-131021906D01*
X113425598Y-131052160D01*
X113407057Y-131055785D01*
X113308596Y-131074569D01*
X113172448Y-131100093D01*
X113014087Y-131129468D01*
X112848988Y-131159806D01*
X112783973Y-131172009D01*
X112638697Y-131201697D01*
X112517626Y-131229770D01*
X112431886Y-131253536D01*
X112392601Y-131270301D01*
X112374799Y-131297694D01*
X112342389Y-131370174D01*
X112309234Y-131463977D01*
X112297564Y-131499103D01*
X112254604Y-131614409D01*
X112199192Y-131750876D01*
X112140353Y-131885954D01*
X112108884Y-131956509D01*
X112064051Y-132061895D01*
X112033240Y-132140818D01*
X112021785Y-132180053D01*
X112022422Y-132183014D01*
X112044150Y-132224639D01*
X112093146Y-132304969D01*
X112164438Y-132416220D01*
X112253054Y-132550605D01*
X112354023Y-132700340D01*
X112686261Y-133187931D01*
X112249771Y-133625149D01*
X112207555Y-133667221D01*
X112078470Y-133793153D01*
X111963107Y-133901754D01*
X111868224Y-133986903D01*
X111800582Y-134042482D01*
X111766938Y-134062368D01*
X111730402Y-134047238D01*
X111653890Y-134003801D01*
X111546196Y-133937270D01*
X111415767Y-133852867D01*
X111271052Y-133755816D01*
X111128910Y-133659964D01*
X111000678Y-133575557D01*
X110896054Y-133508850D01*
X110823171Y-133465024D01*
X110790158Y-133449264D01*
X110788223Y-133449408D01*
X110744369Y-133464945D01*
X110666598Y-133501121D01*
X110570392Y-133550785D01*
X110569381Y-133551329D01*
X110441605Y-133615326D01*
X110354051Y-133646591D01*
X110299726Y-133646677D01*
X110271641Y-133617138D01*
X110259752Y-133588061D01*
X110227668Y-133510188D01*
X110178247Y-133390475D01*
X110114118Y-133235286D01*
X110037911Y-133050984D01*
X109952255Y-132843933D01*
X109859781Y-132620496D01*
X109775962Y-132417226D01*
X109690678Y-132208649D01*
X109615222Y-132022263D01*
X109552126Y-131864407D01*
X109503923Y-131741419D01*
X109473144Y-131659639D01*
X109462322Y-131625406D01*
X109482991Y-131594015D01*
X109540409Y-131541602D01*
X109621688Y-131480704D01*
X109816820Y-131321387D01*
X109991445Y-131117807D01*
X110119235Y-130893808D01*
X110199402Y-130656003D01*
X110231160Y-130411007D01*
X110213722Y-130165433D01*
X110146301Y-129925895D01*
X110028111Y-129699007D01*
X109858364Y-129491383D01*
X109769856Y-129410527D01*
X109557804Y-129267559D01*
X109330905Y-129174352D01*
X109095791Y-129128687D01*
X108859094Y-129128344D01*
X108627446Y-129171105D01*
X108407478Y-129254750D01*
X108205822Y-129377061D01*
X108029111Y-129535817D01*
X107883977Y-129728801D01*
X107777050Y-129953793D01*
X107714964Y-130208575D01*
X107703569Y-130331377D01*
X107719246Y-130597434D01*
X107789846Y-130849856D01*
X107913282Y-131084182D01*
X108087466Y-131295952D01*
X108310311Y-131480704D01*
X108388561Y-131539123D01*
X108447244Y-131592110D01*
X108469678Y-131625356D01*
X108460732Y-131654339D01*
X108431703Y-131731996D01*
X108385026Y-131851451D01*
X108323231Y-132006362D01*
X108248850Y-132190392D01*
X108164412Y-132397200D01*
X108072449Y-132620446D01*
X107988771Y-132822742D01*
X107902366Y-133031686D01*
X107825138Y-133218498D01*
X107759716Y-133376814D01*
X107708731Y-133500269D01*
X107674812Y-133582498D01*
X107660590Y-133617138D01*
X107660425Y-133617548D01*
X107631972Y-133646798D01*
X107577382Y-133646463D01*
X107489609Y-133614980D01*
X107361608Y-133550785D01*
X107351532Y-133545380D01*
X107256481Y-133496750D01*
X107181424Y-133462328D01*
X107141842Y-133449264D01*
X107109400Y-133464702D01*
X107036895Y-133508258D01*
X106932565Y-133574751D01*
X106804539Y-133658998D01*
X106660948Y-133755816D01*
X106519468Y-133850734D01*
X106388611Y-133935490D01*
X106280292Y-134002496D01*
X106202960Y-134046529D01*
X106165062Y-134062368D01*
X106158607Y-134060357D01*
X106113609Y-134028658D01*
X106036727Y-133963181D01*
X105934721Y-133870048D01*
X105814351Y-133755381D01*
X105682379Y-133625300D01*
X105246039Y-133188232D01*
X105925733Y-132188440D01*
X105822402Y-131964886D01*
X105822096Y-131964225D01*
X105760046Y-131821714D01*
X105696640Y-131663018D01*
X105645558Y-131522368D01*
X105637827Y-131499683D01*
X105598852Y-131394370D01*
X105563707Y-131312534D01*
X105539195Y-131270301D01*
X105529212Y-131264337D01*
X105469286Y-131244329D01*
X105367532Y-131218442D01*
X105235068Y-131189370D01*
X105083011Y-131159806D01*
X105037466Y-131151467D01*
X104872685Y-131121107D01*
X104718930Y-131092509D01*
X104591678Y-131068564D01*
X104506402Y-131052160D01*
X104353126Y-131021906D01*
X104353126Y-130383645D01*
X104353160Y-130305165D01*
X104353808Y-130113703D01*
X104355720Y-129970812D01*
X104359469Y-129869189D01*
X104365622Y-129801531D01*
X104374751Y-129760536D01*
X104387427Y-129738900D01*
X104404218Y-129729320D01*
X104420474Y-129725439D01*
X104486748Y-129711710D01*
X104592479Y-129690745D01*
X104726915Y-129664588D01*
X104879302Y-129635283D01*
X105038890Y-129604877D01*
X105194925Y-129575413D01*
X105336657Y-129548937D01*
X105453331Y-129527494D01*
X105534197Y-129513128D01*
X105568503Y-129507885D01*
X105570822Y-129504720D01*
X105589474Y-129463642D01*
X105621753Y-129385044D01*
X105662391Y-129281621D01*
X105718788Y-129142273D01*
X105788214Y-128981226D01*
X105853288Y-128839291D01*
X105868202Y-128807432D01*
X105910047Y-128707669D01*
X105935118Y-128630721D01*
X105938426Y-128591130D01*
X105936720Y-128588325D01*
X105909631Y-128547005D01*
X105855927Y-128466740D01*
X105780877Y-128355350D01*
X105689746Y-128220655D01*
X105587800Y-128070476D01*
X105472930Y-127899851D01*
X105386761Y-127767311D01*
X105328131Y-127670112D01*
X105293650Y-127602234D01*
X105279926Y-127557656D01*
X105283568Y-127530361D01*
X105284794Y-127528313D01*
X105317747Y-127488536D01*
X105384927Y-127416052D01*
X105479419Y-127318046D01*
X105594306Y-127201702D01*
X105722672Y-127074205D01*
X105855831Y-126944821D01*
X105986269Y-126823209D01*
X106082119Y-126741156D01*
X106145866Y-126696560D01*
X106179996Y-126687317D01*
X106184456Y-126689393D01*
X106231421Y-126717385D01*
X106316685Y-126772084D01*
X106432259Y-126848237D01*
X106570154Y-126940592D01*
X106722381Y-127043897D01*
X107218610Y-127382765D01*
X107442707Y-127281056D01*
X107449219Y-127278109D01*
X107586804Y-127218504D01*
X107732767Y-127159222D01*
X107856575Y-127112685D01*
X107857122Y-127112493D01*
X107955414Y-127076497D01*
X108031081Y-127046095D01*
X108067780Y-127027852D01*
X108068374Y-127027190D01*
X108080833Y-126989831D01*
X108101336Y-126904871D01*
X108127907Y-126781469D01*
X108158567Y-126628782D01*
X108191336Y-126455967D01*
X108192478Y-126449774D01*
X108225193Y-126273431D01*
X108255155Y-126113743D01*
X108280425Y-125980905D01*
X108299065Y-125885113D01*
X108309135Y-125836563D01*
X108309779Y-125833873D01*
X108316408Y-125813088D01*
X108329841Y-125797466D01*
X108357446Y-125786270D01*
X108406593Y-125778762D01*
X108484653Y-125774205D01*
X108598994Y-125771863D01*
X108756986Y-125770998D01*
X108966000Y-125770874D01*
X108992262Y-125770874D01*
X109195175Y-125771045D01*
G36*
X103213744Y-135926946D02*
G01*
X103206612Y-136080254D01*
X103187948Y-136192441D01*
X103153537Y-136275554D01*
X103099162Y-136341641D01*
X103020610Y-136402747D01*
X102970630Y-136430535D01*
X102890513Y-136449251D01*
X102777970Y-136447774D01*
X102715050Y-136441845D01*
X102639153Y-136423742D01*
X102578487Y-136384391D01*
X102507912Y-136311066D01*
X102498482Y-136300356D01*
X102435034Y-136217938D01*
X102404762Y-136146156D01*
X102397034Y-136061034D01*
X102397034Y-135935946D01*
X102484447Y-135968940D01*
X102548175Y-136007509D01*
X102603567Y-136098008D01*
X102615131Y-136126983D01*
X102679788Y-136209041D01*
X102767804Y-136250347D01*
X102863637Y-136246633D01*
X102951747Y-136193632D01*
X102982028Y-136160582D01*
X103009489Y-136110720D01*
X103000899Y-136065416D01*
X102951463Y-136018790D01*
X102856389Y-135964958D01*
X102710885Y-135898039D01*
X102411632Y-135767056D01*
X102403691Y-135637298D01*
X102406676Y-135554649D01*
X102601652Y-135554649D01*
X102616453Y-135605815D01*
X102683797Y-135660442D01*
X102806027Y-135722597D01*
X102826253Y-135731601D01*
X102922970Y-135773493D01*
X102995334Y-135802958D01*
X103028961Y-135814092D01*
X103034056Y-135805896D01*
X103036101Y-135755853D01*
X103028812Y-135675414D01*
X103010452Y-135596753D01*
X102953188Y-135497651D01*
X102870524Y-135441808D01*
X102771784Y-135434250D01*
X102666289Y-135480000D01*
X102637053Y-135502876D01*
X102601652Y-135554649D01*
X102406676Y-135554649D01*
X102407196Y-135540255D01*
X102451336Y-135417617D01*
X102507050Y-135350034D01*
X102622561Y-135274540D01*
X102759588Y-135236403D01*
X102901237Y-135239422D01*
X103030617Y-135287393D01*
X103059099Y-135305813D01*
X103124428Y-135362811D01*
X103169106Y-135434916D01*
X103196641Y-135532853D01*
X103210541Y-135667351D01*
X103212378Y-135755853D01*
X103214313Y-135849136D01*
X103213744Y-135926946D01*
G37*
X103213744Y-135926946D02*
X103206612Y-136080254D01*
X103187948Y-136192441D01*
X103153537Y-136275554D01*
X103099162Y-136341641D01*
X103020610Y-136402747D01*
X102970630Y-136430535D01*
X102890513Y-136449251D01*
X102777970Y-136447774D01*
X102715050Y-136441845D01*
X102639153Y-136423742D01*
X102578487Y-136384391D01*
X102507912Y-136311066D01*
X102498482Y-136300356D01*
X102435034Y-136217938D01*
X102404762Y-136146156D01*
X102397034Y-136061034D01*
X102397034Y-135935946D01*
X102484447Y-135968940D01*
X102548175Y-136007509D01*
X102603567Y-136098008D01*
X102615131Y-136126983D01*
X102679788Y-136209041D01*
X102767804Y-136250347D01*
X102863637Y-136246633D01*
X102951747Y-136193632D01*
X102982028Y-136160582D01*
X103009489Y-136110720D01*
X103000899Y-136065416D01*
X102951463Y-136018790D01*
X102856389Y-135964958D01*
X102710885Y-135898039D01*
X102411632Y-135767056D01*
X102403691Y-135637298D01*
X102406676Y-135554649D01*
X102601652Y-135554649D01*
X102616453Y-135605815D01*
X102683797Y-135660442D01*
X102806027Y-135722597D01*
X102826253Y-135731601D01*
X102922970Y-135773493D01*
X102995334Y-135802958D01*
X103028961Y-135814092D01*
X103034056Y-135805896D01*
X103036101Y-135755853D01*
X103028812Y-135675414D01*
X103010452Y-135596753D01*
X102953188Y-135497651D01*
X102870524Y-135441808D01*
X102771784Y-135434250D01*
X102666289Y-135480000D01*
X102637053Y-135502876D01*
X102601652Y-135554649D01*
X102406676Y-135554649D01*
X102407196Y-135540255D01*
X102451336Y-135417617D01*
X102507050Y-135350034D01*
X102622561Y-135274540D01*
X102759588Y-135236403D01*
X102901237Y-135239422D01*
X103030617Y-135287393D01*
X103059099Y-135305813D01*
X103124428Y-135362811D01*
X103169106Y-135434916D01*
X103196641Y-135532853D01*
X103210541Y-135667351D01*
X103212378Y-135755853D01*
X103214313Y-135849136D01*
X103213744Y-135926946D01*
G36*
X111844487Y-135175689D02*
G01*
X111980848Y-135239770D01*
X112092598Y-135350584D01*
X112115761Y-135385273D01*
X112134973Y-135424590D01*
X112148598Y-135474145D01*
X112157877Y-135543568D01*
X112164050Y-135642490D01*
X112168357Y-135780539D01*
X112172038Y-135967346D01*
X112181180Y-136485542D01*
X112104383Y-136456344D01*
X112034068Y-136429520D01*
X111981424Y-136403706D01*
X111947060Y-136370431D01*
X111927093Y-136319510D01*
X111917639Y-136240761D01*
X111914814Y-136123999D01*
X111914736Y-135959042D01*
X111914336Y-135827558D01*
X111911951Y-135701394D01*
X111906259Y-135615223D01*
X111895961Y-135558672D01*
X111879755Y-135521370D01*
X111856345Y-135492943D01*
X111798793Y-135452827D01*
X111702112Y-135437706D01*
X111606465Y-135475917D01*
X111600152Y-135480810D01*
X111580477Y-135503413D01*
X111565963Y-135539664D01*
X111555394Y-135598511D01*
X111547555Y-135688901D01*
X111541227Y-135819779D01*
X111535195Y-136000095D01*
X111520598Y-136482907D01*
X111396517Y-136427283D01*
X111272437Y-136371659D01*
X111272437Y-135930851D01*
X111272951Y-135811098D01*
X111277380Y-135644506D01*
X111288594Y-135520468D01*
X111309272Y-135428987D01*
X111342093Y-135360066D01*
X111389736Y-135303707D01*
X111454877Y-135249914D01*
X111548571Y-135195719D01*
X111696175Y-135160339D01*
X111844487Y-135175689D01*
G37*
X111844487Y-135175689D02*
X111980848Y-135239770D01*
X112092598Y-135350584D01*
X112115761Y-135385273D01*
X112134973Y-135424590D01*
X112148598Y-135474145D01*
X112157877Y-135543568D01*
X112164050Y-135642490D01*
X112168357Y-135780539D01*
X112172038Y-135967346D01*
X112181180Y-136485542D01*
X112104383Y-136456344D01*
X112034068Y-136429520D01*
X111981424Y-136403706D01*
X111947060Y-136370431D01*
X111927093Y-136319510D01*
X111917639Y-136240761D01*
X111914814Y-136123999D01*
X111914736Y-135959042D01*
X111914336Y-135827558D01*
X111911951Y-135701394D01*
X111906259Y-135615223D01*
X111895961Y-135558672D01*
X111879755Y-135521370D01*
X111856345Y-135492943D01*
X111798793Y-135452827D01*
X111702112Y-135437706D01*
X111606465Y-135475917D01*
X111600152Y-135480810D01*
X111580477Y-135503413D01*
X111565963Y-135539664D01*
X111555394Y-135598511D01*
X111547555Y-135688901D01*
X111541227Y-135819779D01*
X111535195Y-136000095D01*
X111520598Y-136482907D01*
X111396517Y-136427283D01*
X111272437Y-136371659D01*
X111272437Y-135930851D01*
X111272951Y-135811098D01*
X111277380Y-135644506D01*
X111288594Y-135520468D01*
X111309272Y-135428987D01*
X111342093Y-135360066D01*
X111389736Y-135303707D01*
X111454877Y-135249914D01*
X111548571Y-135195719D01*
X111696175Y-135160339D01*
X111844487Y-135175689D01*
G36*
X106258410Y-135238970D02*
G01*
X106322442Y-135264066D01*
X106396805Y-135297947D01*
X106396805Y-136276727D01*
X106304415Y-136369117D01*
X106283310Y-136389835D01*
X106224847Y-136435885D01*
X106165886Y-136450801D01*
X106078150Y-136443934D01*
X106042429Y-136439494D01*
X105950301Y-136430102D01*
X105885885Y-136426361D01*
X105866778Y-136426933D01*
X105788390Y-136433126D01*
X105693620Y-136443934D01*
X105663298Y-136447647D01*
X105586911Y-136449107D01*
X105531022Y-136426047D01*
X105467355Y-136369117D01*
X105374965Y-136276727D01*
X105374965Y-135753455D01*
X105375685Y-135598821D01*
X105377929Y-135451391D01*
X105381421Y-135334653D01*
X105385876Y-135257840D01*
X105391013Y-135230184D01*
X105392090Y-135230258D01*
X105429407Y-135244019D01*
X105492457Y-135274344D01*
X105577854Y-135318505D01*
X105585893Y-135777965D01*
X105593931Y-136237425D01*
X105769103Y-136237425D01*
X105777092Y-135733805D01*
X105779624Y-135596904D01*
X105783249Y-135450579D01*
X105787177Y-135334411D01*
X105791080Y-135257809D01*
X105794632Y-135230184D01*
X105795653Y-135230281D01*
X105831051Y-135240443D01*
X105896126Y-135262235D01*
X105988069Y-135294287D01*
X105988516Y-135736661D01*
X105988964Y-135813507D01*
X105992069Y-135962834D01*
X105997622Y-136087544D01*
X106005033Y-136176379D01*
X106013714Y-136218083D01*
X106044771Y-136240389D01*
X106108152Y-136247278D01*
X106177839Y-136237425D01*
X106185827Y-135733805D01*
X106188686Y-135605828D01*
X106194614Y-135454348D01*
X106202365Y-135335530D01*
X106211343Y-135257950D01*
X106220948Y-135230184D01*
X106258410Y-135238970D01*
G37*
X106258410Y-135238970D02*
X106322442Y-135264066D01*
X106396805Y-135297947D01*
X106396805Y-136276727D01*
X106304415Y-136369117D01*
X106283310Y-136389835D01*
X106224847Y-136435885D01*
X106165886Y-136450801D01*
X106078150Y-136443934D01*
X106042429Y-136439494D01*
X105950301Y-136430102D01*
X105885885Y-136426361D01*
X105866778Y-136426933D01*
X105788390Y-136433126D01*
X105693620Y-136443934D01*
X105663298Y-136447647D01*
X105586911Y-136449107D01*
X105531022Y-136426047D01*
X105467355Y-136369117D01*
X105374965Y-136276727D01*
X105374965Y-135753455D01*
X105375685Y-135598821D01*
X105377929Y-135451391D01*
X105381421Y-135334653D01*
X105385876Y-135257840D01*
X105391013Y-135230184D01*
X105392090Y-135230258D01*
X105429407Y-135244019D01*
X105492457Y-135274344D01*
X105577854Y-135318505D01*
X105585893Y-135777965D01*
X105593931Y-136237425D01*
X105769103Y-136237425D01*
X105777092Y-135733805D01*
X105779624Y-135596904D01*
X105783249Y-135450579D01*
X105787177Y-135334411D01*
X105791080Y-135257809D01*
X105794632Y-135230184D01*
X105795653Y-135230281D01*
X105831051Y-135240443D01*
X105896126Y-135262235D01*
X105988069Y-135294287D01*
X105988516Y-135736661D01*
X105988964Y-135813507D01*
X105992069Y-135962834D01*
X105997622Y-136087544D01*
X106005033Y-136176379D01*
X106013714Y-136218083D01*
X106044771Y-136240389D01*
X106108152Y-136247278D01*
X106177839Y-136237425D01*
X106185827Y-135733805D01*
X106188686Y-135605828D01*
X106194614Y-135454348D01*
X106202365Y-135335530D01*
X106211343Y-135257950D01*
X106220948Y-135230184D01*
X106258410Y-135238970D01*
G36*
X104877628Y-135232810D02*
G01*
X104940194Y-135248702D01*
X104998446Y-135288322D01*
X105073418Y-135362076D01*
X105121633Y-135414163D01*
X105171858Y-135481786D01*
X105194510Y-135545168D01*
X105199793Y-135625584D01*
X105199793Y-135757201D01*
X105110035Y-135710785D01*
X105038904Y-135654225D01*
X104990183Y-135578040D01*
X104981814Y-135557326D01*
X104918056Y-135477041D01*
X104829470Y-135436784D01*
X104732873Y-135440702D01*
X104645080Y-135492943D01*
X104607936Y-135535370D01*
X104586300Y-135589647D01*
X104609461Y-135637954D01*
X104681479Y-135686545D01*
X104806410Y-135741677D01*
X104825368Y-135749292D01*
X104939105Y-135799125D01*
X105036706Y-135848265D01*
X105098803Y-135887080D01*
X105160999Y-135956411D01*
X105202346Y-136067051D01*
X105197957Y-136185782D01*
X105149037Y-136298148D01*
X105056797Y-136389690D01*
X104982110Y-136428658D01*
X104837832Y-136455944D01*
X104757656Y-136452263D01*
X104683435Y-136432360D01*
X104654960Y-136390598D01*
X104665608Y-136321820D01*
X104668705Y-136312726D01*
X104693268Y-136264498D01*
X104734165Y-136246245D01*
X104812079Y-136247466D01*
X104867091Y-136249126D01*
X104931459Y-136234881D01*
X104975561Y-136192292D01*
X105000680Y-136139857D01*
X105003481Y-136084929D01*
X105003352Y-136084608D01*
X104970785Y-136054928D01*
X104901083Y-136011735D01*
X104810898Y-135963461D01*
X104716883Y-135918539D01*
X104635689Y-135885402D01*
X104583968Y-135872483D01*
X104576274Y-135885134D01*
X104566588Y-135944668D01*
X104559954Y-136041887D01*
X104557494Y-136164437D01*
X104556922Y-136249263D01*
X104554225Y-136356094D01*
X104549821Y-136429257D01*
X104544270Y-136456391D01*
X104515254Y-136447272D01*
X104456684Y-136422509D01*
X104382322Y-136388627D01*
X104382322Y-135953933D01*
X104382797Y-135842508D01*
X104387293Y-135673301D01*
X104398747Y-135547769D01*
X104419828Y-135456363D01*
X104453206Y-135389532D01*
X104501550Y-135337726D01*
X104567531Y-135291393D01*
X104651594Y-135253156D01*
X104806807Y-135230184D01*
X104877628Y-135232810D01*
G37*
X104877628Y-135232810D02*
X104940194Y-135248702D01*
X104998446Y-135288322D01*
X105073418Y-135362076D01*
X105121633Y-135414163D01*
X105171858Y-135481786D01*
X105194510Y-135545168D01*
X105199793Y-135625584D01*
X105199793Y-135757201D01*
X105110035Y-135710785D01*
X105038904Y-135654225D01*
X104990183Y-135578040D01*
X104981814Y-135557326D01*
X104918056Y-135477041D01*
X104829470Y-135436784D01*
X104732873Y-135440702D01*
X104645080Y-135492943D01*
X104607936Y-135535370D01*
X104586300Y-135589647D01*
X104609461Y-135637954D01*
X104681479Y-135686545D01*
X104806410Y-135741677D01*
X104825368Y-135749292D01*
X104939105Y-135799125D01*
X105036706Y-135848265D01*
X105098803Y-135887080D01*
X105160999Y-135956411D01*
X105202346Y-136067051D01*
X105197957Y-136185782D01*
X105149037Y-136298148D01*
X105056797Y-136389690D01*
X104982110Y-136428658D01*
X104837832Y-136455944D01*
X104757656Y-136452263D01*
X104683435Y-136432360D01*
X104654960Y-136390598D01*
X104665608Y-136321820D01*
X104668705Y-136312726D01*
X104693268Y-136264498D01*
X104734165Y-136246245D01*
X104812079Y-136247466D01*
X104867091Y-136249126D01*
X104931459Y-136234881D01*
X104975561Y-136192292D01*
X105000680Y-136139857D01*
X105003481Y-136084929D01*
X105003352Y-136084608D01*
X104970785Y-136054928D01*
X104901083Y-136011735D01*
X104810898Y-135963461D01*
X104716883Y-135918539D01*
X104635689Y-135885402D01*
X104583968Y-135872483D01*
X104576274Y-135885134D01*
X104566588Y-135944668D01*
X104559954Y-136041887D01*
X104557494Y-136164437D01*
X104556922Y-136249263D01*
X104554225Y-136356094D01*
X104549821Y-136429257D01*
X104544270Y-136456391D01*
X104515254Y-136447272D01*
X104456684Y-136422509D01*
X104382322Y-136388627D01*
X104382322Y-135953933D01*
X104382797Y-135842508D01*
X104387293Y-135673301D01*
X104398747Y-135547769D01*
X104419828Y-135456363D01*
X104453206Y-135389532D01*
X104501550Y-135337726D01*
X104567531Y-135291393D01*
X104651594Y-135253156D01*
X104806807Y-135230184D01*
X104877628Y-135232810D01*
G36*
X110330885Y-134836997D02*
G01*
X110425770Y-134877020D01*
X110425770Y-135666706D01*
X110425769Y-135675920D01*
X110425377Y-135883083D01*
X110424329Y-136069432D01*
X110422722Y-136227453D01*
X110420655Y-136349630D01*
X110418225Y-136428448D01*
X110415529Y-136456391D01*
X110414475Y-136456297D01*
X110378647Y-136446144D01*
X110313345Y-136424339D01*
X110221402Y-136392288D01*
X110221402Y-135980991D01*
X110220818Y-135819385D01*
X110218104Y-135702177D01*
X110211858Y-135622415D01*
X110200680Y-135569531D01*
X110183168Y-135532957D01*
X110157922Y-135502123D01*
X110140710Y-135485725D01*
X110047636Y-135440307D01*
X109945051Y-135444328D01*
X109851043Y-135498032D01*
X109837358Y-135511359D01*
X109815439Y-135539032D01*
X109800440Y-135575614D01*
X109791053Y-135631000D01*
X109785968Y-135715088D01*
X109783877Y-135837773D01*
X109783471Y-136008951D01*
X109783276Y-136095769D01*
X109782010Y-136238565D01*
X109779761Y-136352923D01*
X109776758Y-136428860D01*
X109773230Y-136456391D01*
X109772176Y-136456297D01*
X109736348Y-136446144D01*
X109671046Y-136424339D01*
X109579103Y-136392288D01*
X109579149Y-135979109D01*
X109579218Y-135942326D01*
X109583081Y-135750580D01*
X109594950Y-135605586D01*
X109617725Y-135497510D01*
X109654307Y-135416519D01*
X109707595Y-135352778D01*
X109780490Y-135296455D01*
X109851586Y-135261199D01*
X109965255Y-135233946D01*
X110077060Y-135232398D01*
X110163011Y-135258910D01*
X110169473Y-135262571D01*
X110189401Y-135262179D01*
X110203019Y-135231506D01*
X110212846Y-135161188D01*
X110221402Y-135041857D01*
X110236000Y-134796973D01*
X110330885Y-134836997D01*
G37*
X110330885Y-134836997D02*
X110425770Y-134877020D01*
X110425770Y-135666706D01*
X110425769Y-135675920D01*
X110425377Y-135883083D01*
X110424329Y-136069432D01*
X110422722Y-136227453D01*
X110420655Y-136349630D01*
X110418225Y-136428448D01*
X110415529Y-136456391D01*
X110414475Y-136456297D01*
X110378647Y-136446144D01*
X110313345Y-136424339D01*
X110221402Y-136392288D01*
X110221402Y-135980991D01*
X110220818Y-135819385D01*
X110218104Y-135702177D01*
X110211858Y-135622415D01*
X110200680Y-135569531D01*
X110183168Y-135532957D01*
X110157922Y-135502123D01*
X110140710Y-135485725D01*
X110047636Y-135440307D01*
X109945051Y-135444328D01*
X109851043Y-135498032D01*
X109837358Y-135511359D01*
X109815439Y-135539032D01*
X109800440Y-135575614D01*
X109791053Y-135631000D01*
X109785968Y-135715088D01*
X109783877Y-135837773D01*
X109783471Y-136008951D01*
X109783276Y-136095769D01*
X109782010Y-136238565D01*
X109779761Y-136352923D01*
X109776758Y-136428860D01*
X109773230Y-136456391D01*
X109772176Y-136456297D01*
X109736348Y-136446144D01*
X109671046Y-136424339D01*
X109579103Y-136392288D01*
X109579149Y-135979109D01*
X109579218Y-135942326D01*
X109583081Y-135750580D01*
X109594950Y-135605586D01*
X109617725Y-135497510D01*
X109654307Y-135416519D01*
X109707595Y-135352778D01*
X109780490Y-135296455D01*
X109851586Y-135261199D01*
X109965255Y-135233946D01*
X110077060Y-135232398D01*
X110163011Y-135258910D01*
X110169473Y-135262571D01*
X110189401Y-135262179D01*
X110203019Y-135231506D01*
X110212846Y-135161188D01*
X110221402Y-135041857D01*
X110236000Y-134796973D01*
X110330885Y-134836997D01*
G36*
X107416219Y-135957135D02*
G01*
X107399739Y-136112320D01*
X107363883Y-136228612D01*
X107304455Y-136317411D01*
X107217257Y-136390119D01*
X107134195Y-136432150D01*
X106994709Y-136455538D01*
X106855412Y-136429965D01*
X106729510Y-136358694D01*
X106630210Y-136244991D01*
X106618219Y-136224024D01*
X106602384Y-136187291D01*
X106590638Y-136140415D01*
X106582378Y-136075355D01*
X106576998Y-135984070D01*
X106573892Y-135858519D01*
X106573797Y-135847379D01*
X106776345Y-135847379D01*
X106777035Y-135953644D01*
X106781400Y-136049762D01*
X106792192Y-136111811D01*
X106812126Y-136153502D01*
X106843916Y-136188543D01*
X106851364Y-136195279D01*
X106947060Y-136244992D01*
X107048312Y-136239905D01*
X107142614Y-136180362D01*
X107170694Y-136149514D01*
X107194196Y-136108618D01*
X107207322Y-136052080D01*
X107213030Y-135965657D01*
X107214276Y-135835106D01*
X107213661Y-135735487D01*
X107209407Y-135638251D01*
X107198682Y-135575502D01*
X107178707Y-135533382D01*
X107146704Y-135498032D01*
X107127905Y-135482114D01*
X107030492Y-135439235D01*
X106928437Y-135445985D01*
X106839825Y-135502123D01*
X106820749Y-135524382D01*
X106797486Y-135566293D01*
X106784036Y-135624822D01*
X106777841Y-135713880D01*
X106776345Y-135847379D01*
X106573797Y-135847379D01*
X106572457Y-135690661D01*
X106572086Y-135472455D01*
X106571977Y-134795072D01*
X106666862Y-134834819D01*
X106691949Y-134845699D01*
X106731881Y-134870268D01*
X106754739Y-134907475D01*
X106767301Y-134972541D01*
X106776345Y-135080687D01*
X106784605Y-135177788D01*
X106795523Y-135241535D01*
X106811165Y-135265323D01*
X106834736Y-135258943D01*
X106894801Y-135236525D01*
X107002145Y-135230967D01*
X107117624Y-135251728D01*
X107217257Y-135296455D01*
X107272072Y-135337856D01*
X107342452Y-135418632D01*
X107387528Y-135522195D01*
X107411496Y-135659947D01*
X107418239Y-135835106D01*
X107418553Y-135843287D01*
X107416219Y-135957135D01*
G37*
X107416219Y-135957135D02*
X107399739Y-136112320D01*
X107363883Y-136228612D01*
X107304455Y-136317411D01*
X107217257Y-136390119D01*
X107134195Y-136432150D01*
X106994709Y-136455538D01*
X106855412Y-136429965D01*
X106729510Y-136358694D01*
X106630210Y-136244991D01*
X106618219Y-136224024D01*
X106602384Y-136187291D01*
X106590638Y-136140415D01*
X106582378Y-136075355D01*
X106576998Y-135984070D01*
X106573892Y-135858519D01*
X106573797Y-135847379D01*
X106776345Y-135847379D01*
X106777035Y-135953644D01*
X106781400Y-136049762D01*
X106792192Y-136111811D01*
X106812126Y-136153502D01*
X106843916Y-136188543D01*
X106851364Y-136195279D01*
X106947060Y-136244992D01*
X107048312Y-136239905D01*
X107142614Y-136180362D01*
X107170694Y-136149514D01*
X107194196Y-136108618D01*
X107207322Y-136052080D01*
X107213030Y-135965657D01*
X107214276Y-135835106D01*
X107213661Y-135735487D01*
X107209407Y-135638251D01*
X107198682Y-135575502D01*
X107178707Y-135533382D01*
X107146704Y-135498032D01*
X107127905Y-135482114D01*
X107030492Y-135439235D01*
X106928437Y-135445985D01*
X106839825Y-135502123D01*
X106820749Y-135524382D01*
X106797486Y-135566293D01*
X106784036Y-135624822D01*
X106777841Y-135713880D01*
X106776345Y-135847379D01*
X106573797Y-135847379D01*
X106572457Y-135690661D01*
X106572086Y-135472455D01*
X106571977Y-134795072D01*
X106666862Y-134834819D01*
X106691949Y-134845699D01*
X106731881Y-134870268D01*
X106754739Y-134907475D01*
X106767301Y-134972541D01*
X106776345Y-135080687D01*
X106784605Y-135177788D01*
X106795523Y-135241535D01*
X106811165Y-135265323D01*
X106834736Y-135258943D01*
X106894801Y-135236525D01*
X107002145Y-135230967D01*
X107117624Y-135251728D01*
X107217257Y-135296455D01*
X107272072Y-135337856D01*
X107342452Y-135418632D01*
X107387528Y-135522195D01*
X107411496Y-135659947D01*
X107418239Y-135835106D01*
X107418553Y-135843287D01*
X107416219Y-135957135D01*
G36*
X114419668Y-136171736D02*
G01*
X114420471Y-136236785D01*
X114423040Y-136454260D01*
X114423556Y-136620672D01*
X114420437Y-136741846D01*
X114412100Y-136823607D01*
X114396962Y-136871781D01*
X114373441Y-136892194D01*
X114339956Y-136890672D01*
X114294923Y-136873039D01*
X114236761Y-136845121D01*
X114224332Y-136839164D01*
X114172578Y-136810006D01*
X114145550Y-136775314D01*
X114135207Y-136717470D01*
X114133509Y-136618857D01*
X114133433Y-136441793D01*
X113951038Y-136441793D01*
X113838840Y-136436880D01*
X113750620Y-136416953D01*
X113677358Y-136376678D01*
X113671896Y-136372741D01*
X113597558Y-136306243D01*
X113545823Y-136225908D01*
X113513196Y-136120758D01*
X113496182Y-135979815D01*
X113492030Y-135820588D01*
X113783241Y-135820588D01*
X113783291Y-135847276D01*
X113786064Y-135967738D01*
X113794967Y-136046484D01*
X113812617Y-136097618D01*
X113841632Y-136135241D01*
X113843440Y-136137038D01*
X113914753Y-136185720D01*
X113983865Y-136180921D01*
X114061925Y-136121971D01*
X114081019Y-136101823D01*
X114109142Y-136060515D01*
X114125000Y-136006787D01*
X114132009Y-135925326D01*
X114133586Y-135800821D01*
X114132220Y-135725445D01*
X114117402Y-135588362D01*
X114083579Y-135498548D01*
X114027389Y-135449460D01*
X113945472Y-135434552D01*
X113910956Y-135437729D01*
X113851235Y-135469254D01*
X113811752Y-135539505D01*
X113789942Y-135654583D01*
X113783241Y-135820588D01*
X113492030Y-135820588D01*
X113491287Y-135792101D01*
X113492371Y-135655122D01*
X113497307Y-135551364D01*
X113508272Y-135479412D01*
X113527438Y-135425500D01*
X113556977Y-135375864D01*
X113584092Y-135337931D01*
X113682550Y-135235522D01*
X113794100Y-135179903D01*
X113934246Y-135162297D01*
X114094635Y-135179847D01*
X114233288Y-135242797D01*
X114342951Y-135353824D01*
X114351218Y-135365578D01*
X114370499Y-135396813D01*
X114385269Y-135432507D01*
X114396254Y-135480364D01*
X114404174Y-135548087D01*
X114409753Y-135643382D01*
X114413713Y-135773952D01*
X114414188Y-135800821D01*
X114416778Y-135947502D01*
X114419668Y-136171736D01*
G37*
X114419668Y-136171736D02*
X114420471Y-136236785D01*
X114423040Y-136454260D01*
X114423556Y-136620672D01*
X114420437Y-136741846D01*
X114412100Y-136823607D01*
X114396962Y-136871781D01*
X114373441Y-136892194D01*
X114339956Y-136890672D01*
X114294923Y-136873039D01*
X114236761Y-136845121D01*
X114224332Y-136839164D01*
X114172578Y-136810006D01*
X114145550Y-136775314D01*
X114135207Y-136717470D01*
X114133509Y-136618857D01*
X114133433Y-136441793D01*
X113951038Y-136441793D01*
X113838840Y-136436880D01*
X113750620Y-136416953D01*
X113677358Y-136376678D01*
X113671896Y-136372741D01*
X113597558Y-136306243D01*
X113545823Y-136225908D01*
X113513196Y-136120758D01*
X113496182Y-135979815D01*
X113492030Y-135820588D01*
X113783241Y-135820588D01*
X113783291Y-135847276D01*
X113786064Y-135967738D01*
X113794967Y-136046484D01*
X113812617Y-136097618D01*
X113841632Y-136135241D01*
X113843440Y-136137038D01*
X113914753Y-136185720D01*
X113983865Y-136180921D01*
X114061925Y-136121971D01*
X114081019Y-136101823D01*
X114109142Y-136060515D01*
X114125000Y-136006787D01*
X114132009Y-135925326D01*
X114133586Y-135800821D01*
X114132220Y-135725445D01*
X114117402Y-135588362D01*
X114083579Y-135498548D01*
X114027389Y-135449460D01*
X113945472Y-135434552D01*
X113910956Y-135437729D01*
X113851235Y-135469254D01*
X113811752Y-135539505D01*
X113789942Y-135654583D01*
X113783241Y-135820588D01*
X113492030Y-135820588D01*
X113491287Y-135792101D01*
X113492371Y-135655122D01*
X113497307Y-135551364D01*
X113508272Y-135479412D01*
X113527438Y-135425500D01*
X113556977Y-135375864D01*
X113584092Y-135337931D01*
X113682550Y-135235522D01*
X113794100Y-135179903D01*
X113934246Y-135162297D01*
X114094635Y-135179847D01*
X114233288Y-135242797D01*
X114342951Y-135353824D01*
X114351218Y-135365578D01*
X114370499Y-135396813D01*
X114385269Y-135432507D01*
X114396254Y-135480364D01*
X114404174Y-135548087D01*
X114409753Y-135643382D01*
X114413713Y-135773952D01*
X114414188Y-135800821D01*
X114416778Y-135947502D01*
X114419668Y-136171736D01*
G36*
X108176872Y-135273536D02*
G01*
X108186090Y-135278638D01*
X108261381Y-135337080D01*
X108328698Y-135412215D01*
X108340439Y-135429196D01*
X108362883Y-135468825D01*
X108378918Y-135515858D01*
X108389945Y-135580492D01*
X108397365Y-135672923D01*
X108402579Y-135803349D01*
X108406989Y-135981965D01*
X108407614Y-136012162D01*
X108409620Y-136207941D01*
X108406792Y-136346603D01*
X108399088Y-136429103D01*
X108386466Y-136456391D01*
X108348267Y-136448220D01*
X108283374Y-136423463D01*
X108268094Y-136416223D01*
X108244227Y-136399835D01*
X108227769Y-136372893D01*
X108217005Y-136325833D01*
X108210219Y-136249088D01*
X108205693Y-136133095D01*
X108201713Y-135968287D01*
X108200622Y-135920112D01*
X108196407Y-135767960D01*
X108190936Y-135661476D01*
X108182554Y-135590565D01*
X108169606Y-135545129D01*
X108150439Y-135515072D01*
X108123398Y-135490296D01*
X108043337Y-135446861D01*
X107944846Y-135438498D01*
X107856719Y-135471734D01*
X107793314Y-135540548D01*
X107768988Y-135638920D01*
X107768311Y-135665658D01*
X107755024Y-135714065D01*
X107715796Y-135721450D01*
X107638983Y-135692624D01*
X107621192Y-135683378D01*
X107573109Y-135629006D01*
X107572157Y-135548161D01*
X107617968Y-135436352D01*
X107659990Y-135375419D01*
X107767435Y-135288859D01*
X107900057Y-135239920D01*
X108041867Y-135233260D01*
X108176872Y-135273536D01*
G37*
X108176872Y-135273536D02*
X108186090Y-135278638D01*
X108261381Y-135337080D01*
X108328698Y-135412215D01*
X108340439Y-135429196D01*
X108362883Y-135468825D01*
X108378918Y-135515858D01*
X108389945Y-135580492D01*
X108397365Y-135672923D01*
X108402579Y-135803349D01*
X108406989Y-135981965D01*
X108407614Y-136012162D01*
X108409620Y-136207941D01*
X108406792Y-136346603D01*
X108399088Y-136429103D01*
X108386466Y-136456391D01*
X108348267Y-136448220D01*
X108283374Y-136423463D01*
X108268094Y-136416223D01*
X108244227Y-136399835D01*
X108227769Y-136372893D01*
X108217005Y-136325833D01*
X108210219Y-136249088D01*
X108205693Y-136133095D01*
X108201713Y-135968287D01*
X108200622Y-135920112D01*
X108196407Y-135767960D01*
X108190936Y-135661476D01*
X108182554Y-135590565D01*
X108169606Y-135545129D01*
X108150439Y-135515072D01*
X108123398Y-135490296D01*
X108043337Y-135446861D01*
X107944846Y-135438498D01*
X107856719Y-135471734D01*
X107793314Y-135540548D01*
X107768988Y-135638920D01*
X107768311Y-135665658D01*
X107755024Y-135714065D01*
X107715796Y-135721450D01*
X107638983Y-135692624D01*
X107621192Y-135683378D01*
X107573109Y-135629006D01*
X107572157Y-135548161D01*
X107617968Y-135436352D01*
X107659990Y-135375419D01*
X107767435Y-135288859D01*
X107900057Y-135239920D01*
X108041867Y-135233260D01*
X108176872Y-135273536D01*
G36*
X103902725Y-135242619D02*
G01*
X104023261Y-135287393D01*
X104073388Y-135321034D01*
X104124152Y-135369236D01*
X104160362Y-135430551D01*
X104184393Y-135514024D01*
X104198618Y-135628697D01*
X104205412Y-135783613D01*
X104207149Y-135987814D01*
X104206809Y-136093341D01*
X104205101Y-136237541D01*
X104202201Y-136352620D01*
X104198384Y-136428822D01*
X104193925Y-136456391D01*
X104164909Y-136447272D01*
X104106339Y-136422509D01*
X104104581Y-136421707D01*
X104074167Y-136405785D01*
X104053712Y-136383938D01*
X104041240Y-136345672D01*
X104034777Y-136280495D01*
X104032348Y-136177913D01*
X104031977Y-136027433D01*
X104031229Y-135931974D01*
X104023256Y-135752571D01*
X104004998Y-135621163D01*
X103974526Y-135530859D01*
X103929912Y-135474767D01*
X103869226Y-135445994D01*
X103860807Y-135443989D01*
X103747139Y-135442423D01*
X103658492Y-135493348D01*
X103597265Y-135595445D01*
X103586346Y-135624961D01*
X103561458Y-135690283D01*
X103548854Y-135720300D01*
X103522969Y-135716164D01*
X103466439Y-135693717D01*
X103413715Y-135656647D01*
X103389678Y-135586587D01*
X103396847Y-135536406D01*
X103440897Y-135434618D01*
X103512123Y-135339235D01*
X103595415Y-135273269D01*
X103630310Y-135258018D01*
X103762443Y-135232521D01*
X103902725Y-135242619D01*
G37*
X103902725Y-135242619D02*
X104023261Y-135287393D01*
X104073388Y-135321034D01*
X104124152Y-135369236D01*
X104160362Y-135430551D01*
X104184393Y-135514024D01*
X104198618Y-135628697D01*
X104205412Y-135783613D01*
X104207149Y-135987814D01*
X104206809Y-136093341D01*
X104205101Y-136237541D01*
X104202201Y-136352620D01*
X104198384Y-136428822D01*
X104193925Y-136456391D01*
X104164909Y-136447272D01*
X104106339Y-136422509D01*
X104104581Y-136421707D01*
X104074167Y-136405785D01*
X104053712Y-136383938D01*
X104041240Y-136345672D01*
X104034777Y-136280495D01*
X104032348Y-136177913D01*
X104031977Y-136027433D01*
X104031229Y-135931974D01*
X104023256Y-135752571D01*
X104004998Y-135621163D01*
X103974526Y-135530859D01*
X103929912Y-135474767D01*
X103869226Y-135445994D01*
X103860807Y-135443989D01*
X103747139Y-135442423D01*
X103658492Y-135493348D01*
X103597265Y-135595445D01*
X103586346Y-135624961D01*
X103561458Y-135690283D01*
X103548854Y-135720300D01*
X103522969Y-135716164D01*
X103466439Y-135693717D01*
X103413715Y-135656647D01*
X103389678Y-135586587D01*
X103396847Y-135536406D01*
X103440897Y-135434618D01*
X103512123Y-135339235D01*
X103595415Y-135273269D01*
X103630310Y-135258018D01*
X103762443Y-135232521D01*
X103902725Y-135242619D01*
D13*
X149096000Y-119741733D02*
X149096000Y-120034267D01*
X150116000Y-119741733D02*
X150116000Y-120034267D01*
X131806000Y-94742000D02*
X131806000Y-92792000D01*
X131806000Y-94742000D02*
X131806000Y-96692000D01*
X136926000Y-94742000D02*
X136926000Y-98192000D01*
X136926000Y-94742000D02*
X136926000Y-92792000D01*
X145365000Y-112600000D02*
X146090000Y-112600000D01*
X145365000Y-109105000D02*
X145365000Y-108380000D01*
X149585000Y-109105000D02*
X149585000Y-108380000D01*
X149585000Y-108380000D02*
X148860000Y-108380000D01*
X149585000Y-112600000D02*
X148860000Y-112600000D01*
X145365000Y-111875000D02*
X145365000Y-112600000D01*
X149585000Y-111875000D02*
X149585000Y-112600000D01*
X135820000Y-107140000D02*
X135820000Y-108880000D01*
X135820000Y-112940000D02*
X135820000Y-111600000D01*
X134330000Y-112940000D02*
X135820000Y-112940000D01*
X110020000Y-112940000D02*
X110020000Y-111600000D01*
X110020000Y-107140000D02*
X135820000Y-107140000D01*
X110020000Y-108880000D02*
X110020000Y-107140000D01*
X111510000Y-112940000D02*
X111510000Y-114140000D01*
X111510000Y-112940000D02*
X110020000Y-112940000D01*
X139806000Y-114265064D02*
X139806000Y-112810936D01*
X141626000Y-114265064D02*
X141626000Y-112810936D01*
X142111000Y-107080267D02*
X142111000Y-106787733D01*
X143131000Y-107080267D02*
X143131000Y-106787733D01*
X153670724Y-112253500D02*
X153161276Y-112253500D01*
X153670724Y-113298500D02*
X153161276Y-113298500D01*
X106375252Y-108040000D02*
X104952748Y-108040000D01*
X106375252Y-105320000D02*
X104952748Y-105320000D01*
X188570000Y-105440000D02*
X188570000Y-104100000D01*
X182270000Y-99640000D02*
X188570000Y-99640000D01*
X183760000Y-105440000D02*
X183760000Y-106640000D01*
X182270000Y-101380000D02*
X182270000Y-99640000D01*
X187080000Y-105440000D02*
X188570000Y-105440000D01*
X182270000Y-105440000D02*
X182270000Y-104100000D01*
X188570000Y-99640000D02*
X188570000Y-101380000D01*
X183760000Y-105440000D02*
X182270000Y-105440000D01*
X189864276Y-111901500D02*
X190373724Y-111901500D01*
X189864276Y-110856500D02*
X190373724Y-110856500D01*
X145617000Y-105130000D02*
X145617000Y-96730000D01*
X139117000Y-105130000D02*
X145617000Y-105130000D01*
X139117000Y-105130000D02*
X139117000Y-96730000D01*
X151188052Y-103909800D02*
X150665548Y-103909800D01*
X151188052Y-102439800D02*
X150665548Y-102439800D01*
X189864276Y-108189500D02*
X190373724Y-108189500D01*
X189864276Y-109234500D02*
X190373724Y-109234500D01*
X150621276Y-105141500D02*
X151130724Y-105141500D01*
X150621276Y-106186500D02*
X151130724Y-106186500D01*
X141986724Y-109078500D02*
X141477276Y-109078500D01*
X141986724Y-110123500D02*
X141477276Y-110123500D01*
X153269733Y-109980000D02*
X153562267Y-109980000D01*
X153269733Y-111000000D02*
X153562267Y-111000000D01*
X118966064Y-79904000D02*
X117761936Y-79904000D01*
X118966064Y-78084000D02*
X117761936Y-78084000D01*
X136422224Y-118378500D02*
X135912776Y-118378500D01*
X136422224Y-117333500D02*
X135912776Y-117333500D01*
X136375224Y-115174500D02*
X135865776Y-115174500D01*
X136375224Y-116219500D02*
X135865776Y-116219500D01*
X114390000Y-83743748D02*
X114390000Y-85166252D01*
X111670000Y-83743748D02*
X111670000Y-85166252D01*
X139446724Y-106411500D02*
X138937276Y-106411500D01*
X139446724Y-107456500D02*
X138937276Y-107456500D01*
X113552500Y-78994724D02*
X113552500Y-78485276D01*
X112507500Y-78994724D02*
X112507500Y-78485276D01*
X147588500Y-116331276D02*
X147588500Y-116840724D01*
X146543500Y-116331276D02*
X146543500Y-116840724D01*
X137018500Y-102997724D02*
X137018500Y-102488276D01*
X138063500Y-102997724D02*
X138063500Y-102488276D01*
X129505064Y-91546000D02*
X128050936Y-91546000D01*
X129505064Y-93366000D02*
X128050936Y-93366000D01*
X149083500Y-116331276D02*
X149083500Y-116840724D01*
X150128500Y-116331276D02*
X150128500Y-116840724D01*
%LPC*%
D14*
X101890000Y-141224000D03*
X106390000Y-141224000D03*
X105730990Y-142814990D03*
X102549010Y-142814990D03*
X104140000Y-138974000D03*
X105730990Y-139633010D03*
X102549010Y-139633010D03*
X104140000Y-143474000D03*
D15*
X104140000Y-141224000D03*
D16*
X171450000Y-140970000D03*
D17*
X168910000Y-140970000D03*
X166370000Y-140970000D03*
D16*
X128255000Y-140970000D03*
D17*
X125715000Y-140970000D03*
X123175000Y-140970000D03*
D18*
X176320000Y-132820000D03*
X118320000Y-132820000D03*
X118320000Y-83820000D03*
X176320000Y-83820000D03*
D16*
X143520000Y-140970000D03*
D17*
X146060000Y-140970000D03*
X148600000Y-140970000D03*
X151140000Y-140970000D03*
D14*
X105730990Y-74609010D03*
D15*
X104140000Y-76200000D03*
D14*
X102549010Y-74609010D03*
X104140000Y-73950000D03*
X101890000Y-76200000D03*
X106390000Y-76200000D03*
X102549010Y-77790990D03*
X105730990Y-77790990D03*
X104140000Y-78450000D03*
X197424990Y-139633010D03*
X194243010Y-139633010D03*
X198084000Y-141224000D03*
X193584000Y-141224000D03*
X195834000Y-143474000D03*
X194243010Y-142814990D03*
X195834000Y-138974000D03*
D15*
X195834000Y-141224000D03*
D14*
X197424990Y-142814990D03*
D15*
X195834000Y-76200000D03*
D14*
X197424990Y-74609010D03*
X195834000Y-73950000D03*
X194243010Y-74609010D03*
X198084000Y-76200000D03*
X197424990Y-77790990D03*
X194243010Y-77790990D03*
X195834000Y-78450000D03*
X193584000Y-76200000D03*
D19*
X149606000Y-119025500D03*
X149606000Y-120750500D03*
D20*
X136271000Y-97217000D03*
X135001000Y-97217000D03*
X133731000Y-97217000D03*
X132461000Y-97217000D03*
X132461000Y-92267000D03*
X133731000Y-92267000D03*
X135001000Y-92267000D03*
X136271000Y-92267000D03*
D21*
X146475000Y-108552500D03*
X146975000Y-108552500D03*
X147475000Y-108552500D03*
X147975000Y-108552500D03*
X148475000Y-108552500D03*
D22*
X149412500Y-109490000D03*
X149412500Y-109990000D03*
X149412500Y-110490000D03*
X149412500Y-110990000D03*
X149412500Y-111490000D03*
D21*
X148475000Y-112427500D03*
X147975000Y-112427500D03*
X147475000Y-112427500D03*
X146975000Y-112427500D03*
X146475000Y-112427500D03*
D22*
X145537500Y-111490000D03*
X145537500Y-110990000D03*
X145537500Y-110490000D03*
X145537500Y-109990000D03*
X145537500Y-109490000D03*
D23*
X147475000Y-110490000D03*
D24*
X111920000Y-113490000D03*
X112420000Y-113490000D03*
X112920000Y-113490000D03*
X113420000Y-113490000D03*
X113920000Y-113490000D03*
X114420000Y-113490000D03*
X114920000Y-113490000D03*
X115420000Y-113490000D03*
X115920000Y-113490000D03*
X116420000Y-113490000D03*
X116920000Y-113490000D03*
X117420000Y-113490000D03*
X117920000Y-113490000D03*
X118420000Y-113490000D03*
X118920000Y-113490000D03*
X119420000Y-113490000D03*
X119920000Y-113490000D03*
X120420000Y-113490000D03*
X120920000Y-113490000D03*
X121420000Y-113490000D03*
X121920000Y-113490000D03*
X122420000Y-113490000D03*
X122920000Y-113490000D03*
X123420000Y-113490000D03*
X123920000Y-113490000D03*
X124420000Y-113490000D03*
X124920000Y-113490000D03*
X125420000Y-113490000D03*
X125920000Y-113490000D03*
X126420000Y-113490000D03*
X126920000Y-113490000D03*
X127420000Y-113490000D03*
X127920000Y-113490000D03*
X128420000Y-113490000D03*
X128920000Y-113490000D03*
X129420000Y-113490000D03*
X129920000Y-113490000D03*
X130420000Y-113490000D03*
X130920000Y-113490000D03*
X131420000Y-113490000D03*
X131920000Y-113490000D03*
X132420000Y-113490000D03*
X132920000Y-113490000D03*
X133420000Y-113490000D03*
X133920000Y-113490000D03*
D25*
X110020000Y-110240000D03*
X135820000Y-110240000D03*
D26*
X140716000Y-115088000D03*
X140716000Y-111988000D03*
D27*
X142621000Y-107796500D03*
X142621000Y-106071500D03*
D28*
X154328500Y-112776000D03*
X152503500Y-112776000D03*
D29*
X107226500Y-106680000D03*
X104101500Y-106680000D03*
D24*
X184170000Y-105990000D03*
X184670000Y-105990000D03*
X185170000Y-105990000D03*
X185670000Y-105990000D03*
X186170000Y-105990000D03*
X186670000Y-105990000D03*
D25*
X188570000Y-102740000D03*
X182270000Y-102740000D03*
D30*
X189206500Y-111379000D03*
X191031500Y-111379000D03*
D31*
X142367000Y-103730000D03*
X142367000Y-96930000D03*
D32*
X151964300Y-103174800D03*
X149889300Y-103174800D03*
D30*
X189206500Y-108712000D03*
X191031500Y-108712000D03*
X149963500Y-105664000D03*
X151788500Y-105664000D03*
D28*
X142644500Y-109601000D03*
X140819500Y-109601000D03*
D33*
X152553500Y-110490000D03*
X154278500Y-110490000D03*
D34*
X119851500Y-78994000D03*
X116876500Y-78994000D03*
D28*
X137080000Y-117856000D03*
X135255000Y-117856000D03*
X137033000Y-115697000D03*
X135208000Y-115697000D03*
D35*
X113030000Y-82892500D03*
X113030000Y-86017500D03*
D28*
X140104500Y-106934000D03*
X138279500Y-106934000D03*
D36*
X113030000Y-79652500D03*
X113030000Y-77827500D03*
D37*
X147066000Y-115673500D03*
X147066000Y-117498500D03*
D36*
X137541000Y-103655500D03*
X137541000Y-101830500D03*
D38*
X130328000Y-92456000D03*
X127228000Y-92456000D03*
D37*
X149606000Y-115673500D03*
X149606000Y-117498500D03*
M02*
