%FSLAX45Y45*%
G04 Gerber Fmt 4.5, Leading zero omitted, Abs format (unit mm)*
G04 Created by KiCad (PCBNEW (6.0.5)) date 2022-06-02 10:53:18*
%MOMM*%
%LPD*%
G01*
G04 APERTURE LIST*
%TA.AperFunction,Profile*%
%ADD10C,0.100000*%
%TD*%
%ADD11C,0.200000*%
%ADD12C,0.250000*%
G04 APERTURE END LIST*
D10*
X19974390Y-7620000D02*
G75*
G03*
X19593392Y-7239000I-381000J0D01*
G01*
X10033000Y-7620000D02*
X10033000Y-14132392D01*
X19974392Y-14132392D02*
X19974392Y-7620000D01*
X19593392Y-14513392D02*
G75*
G03*
X19974392Y-14132392I-2J381002D01*
G01*
X19593392Y-7239000D02*
X10414000Y-7239000D01*
X10032998Y-14132392D02*
G75*
G03*
X10414000Y-14513392I381002J2D01*
G01*
X10414000Y-7239000D02*
G75*
G03*
X10033000Y-7620000I0J-381000D01*
G01*
X10414000Y-14513392D02*
X19593392Y-14513392D01*
D11*
D12*
X11707000Y-8257000D02*
X11957000Y-8507000D01*
X11957000Y-8257000D02*
X11707000Y-8507000D01*
X11707000Y-13157000D02*
X11957000Y-13407000D01*
X11957000Y-13157000D02*
X11707000Y-13407000D01*
X17507000Y-8257000D02*
X17757000Y-8507000D01*
X17757000Y-8257000D02*
X17507000Y-8507000D01*
X17507000Y-13157000D02*
X17757000Y-13407000D01*
X17757000Y-13157000D02*
X17507000Y-13407000D01*
D11*
X10285619Y-14828868D02*
X10285619Y-14628868D01*
X10333238Y-14628868D01*
X10361810Y-14638392D01*
X10380857Y-14657440D01*
X10390381Y-14676487D01*
X10399905Y-14714583D01*
X10399905Y-14743154D01*
X10390381Y-14781249D01*
X10380857Y-14800297D01*
X10361810Y-14819345D01*
X10333238Y-14828868D01*
X10285619Y-14828868D01*
X10485619Y-14828868D02*
X10485619Y-14695535D01*
X10485619Y-14733630D02*
X10495143Y-14714583D01*
X10504667Y-14705059D01*
X10523714Y-14695535D01*
X10542762Y-14695535D01*
X10609429Y-14828868D02*
X10609429Y-14695535D01*
X10609429Y-14628868D02*
X10599905Y-14638392D01*
X10609429Y-14647916D01*
X10618952Y-14638392D01*
X10609429Y-14628868D01*
X10609429Y-14647916D01*
X10733238Y-14828868D02*
X10714190Y-14819345D01*
X10704667Y-14800297D01*
X10704667Y-14628868D01*
X10838000Y-14828868D02*
X10818952Y-14819345D01*
X10809429Y-14800297D01*
X10809429Y-14628868D01*
X11066571Y-14828868D02*
X11066571Y-14628868D01*
X11133238Y-14771726D01*
X11199905Y-14628868D01*
X11199905Y-14828868D01*
X11380857Y-14828868D02*
X11380857Y-14724106D01*
X11371333Y-14705059D01*
X11352286Y-14695535D01*
X11314190Y-14695535D01*
X11295143Y-14705059D01*
X11380857Y-14819345D02*
X11361809Y-14828868D01*
X11314190Y-14828868D01*
X11295143Y-14819345D01*
X11285619Y-14800297D01*
X11285619Y-14781249D01*
X11295143Y-14762202D01*
X11314190Y-14752678D01*
X11361809Y-14752678D01*
X11380857Y-14743154D01*
X11476095Y-14695535D02*
X11476095Y-14895535D01*
X11476095Y-14705059D02*
X11495143Y-14695535D01*
X11533238Y-14695535D01*
X11552286Y-14705059D01*
X11561809Y-14714583D01*
X11571333Y-14733630D01*
X11571333Y-14790773D01*
X11561809Y-14809821D01*
X11552286Y-14819345D01*
X11533238Y-14828868D01*
X11495143Y-14828868D01*
X11476095Y-14819345D01*
X11657048Y-14809821D02*
X11666571Y-14819345D01*
X11657048Y-14828868D01*
X11647524Y-14819345D01*
X11657048Y-14809821D01*
X11657048Y-14828868D01*
X11657048Y-14705059D02*
X11666571Y-14714583D01*
X11657048Y-14724106D01*
X11647524Y-14714583D01*
X11657048Y-14705059D01*
X11657048Y-14724106D01*
X9828000Y-15058392D02*
X10028000Y-15258392D01*
X10028000Y-15058392D02*
X9828000Y-15258392D01*
X10276095Y-15067916D02*
X10285619Y-15058392D01*
X10304667Y-15048868D01*
X10352286Y-15048868D01*
X10371333Y-15058392D01*
X10380857Y-15067916D01*
X10390381Y-15086964D01*
X10390381Y-15106011D01*
X10380857Y-15134583D01*
X10266571Y-15248868D01*
X10390381Y-15248868D01*
X10476095Y-15229821D02*
X10485619Y-15239345D01*
X10476095Y-15248868D01*
X10466571Y-15239345D01*
X10476095Y-15229821D01*
X10476095Y-15248868D01*
X10666571Y-15048868D02*
X10571333Y-15048868D01*
X10561810Y-15144106D01*
X10571333Y-15134583D01*
X10590381Y-15125059D01*
X10638000Y-15125059D01*
X10657048Y-15134583D01*
X10666571Y-15144106D01*
X10676095Y-15163154D01*
X10676095Y-15210773D01*
X10666571Y-15229821D01*
X10657048Y-15239345D01*
X10638000Y-15248868D01*
X10590381Y-15248868D01*
X10571333Y-15239345D01*
X10561810Y-15229821D01*
X10799905Y-15048868D02*
X10818952Y-15048868D01*
X10838000Y-15058392D01*
X10847524Y-15067916D01*
X10857048Y-15086964D01*
X10866571Y-15125059D01*
X10866571Y-15172678D01*
X10857048Y-15210773D01*
X10847524Y-15229821D01*
X10838000Y-15239345D01*
X10818952Y-15248868D01*
X10799905Y-15248868D01*
X10780857Y-15239345D01*
X10771333Y-15229821D01*
X10761810Y-15210773D01*
X10752286Y-15172678D01*
X10752286Y-15125059D01*
X10761810Y-15086964D01*
X10771333Y-15067916D01*
X10780857Y-15058392D01*
X10799905Y-15048868D01*
X10990381Y-15048868D02*
X11009429Y-15048868D01*
X11028476Y-15058392D01*
X11038000Y-15067916D01*
X11047524Y-15086964D01*
X11057048Y-15125059D01*
X11057048Y-15172678D01*
X11047524Y-15210773D01*
X11038000Y-15229821D01*
X11028476Y-15239345D01*
X11009429Y-15248868D01*
X10990381Y-15248868D01*
X10971333Y-15239345D01*
X10961810Y-15229821D01*
X10952286Y-15210773D01*
X10942762Y-15172678D01*
X10942762Y-15125059D01*
X10952286Y-15086964D01*
X10961810Y-15067916D01*
X10971333Y-15058392D01*
X10990381Y-15048868D01*
X11142762Y-15248868D02*
X11142762Y-15115535D01*
X11142762Y-15134583D02*
X11152286Y-15125059D01*
X11171333Y-15115535D01*
X11199905Y-15115535D01*
X11218952Y-15125059D01*
X11228476Y-15144106D01*
X11228476Y-15248868D01*
X11228476Y-15144106D02*
X11238000Y-15125059D01*
X11257048Y-15115535D01*
X11285619Y-15115535D01*
X11304667Y-15125059D01*
X11314190Y-15144106D01*
X11314190Y-15248868D01*
X11409428Y-15248868D02*
X11409428Y-15115535D01*
X11409428Y-15134583D02*
X11418952Y-15125059D01*
X11438000Y-15115535D01*
X11466571Y-15115535D01*
X11485619Y-15125059D01*
X11495143Y-15144106D01*
X11495143Y-15248868D01*
X11495143Y-15144106D02*
X11504667Y-15125059D01*
X11523714Y-15115535D01*
X11552286Y-15115535D01*
X11571333Y-15125059D01*
X11580857Y-15144106D01*
X11580857Y-15248868D01*
X11971333Y-15039345D02*
X11799905Y-15296487D01*
X12228476Y-15048868D02*
X12247524Y-15048868D01*
X12266571Y-15058392D01*
X12276095Y-15067916D01*
X12285619Y-15086964D01*
X12295143Y-15125059D01*
X12295143Y-15172678D01*
X12285619Y-15210773D01*
X12276095Y-15229821D01*
X12266571Y-15239345D01*
X12247524Y-15248868D01*
X12228476Y-15248868D01*
X12209428Y-15239345D01*
X12199905Y-15229821D01*
X12190381Y-15210773D01*
X12180857Y-15172678D01*
X12180857Y-15125059D01*
X12190381Y-15086964D01*
X12199905Y-15067916D01*
X12209428Y-15058392D01*
X12228476Y-15048868D01*
X12380857Y-15229821D02*
X12390381Y-15239345D01*
X12380857Y-15248868D01*
X12371333Y-15239345D01*
X12380857Y-15229821D01*
X12380857Y-15248868D01*
X12514190Y-15048868D02*
X12533238Y-15048868D01*
X12552286Y-15058392D01*
X12561809Y-15067916D01*
X12571333Y-15086964D01*
X12580857Y-15125059D01*
X12580857Y-15172678D01*
X12571333Y-15210773D01*
X12561809Y-15229821D01*
X12552286Y-15239345D01*
X12533238Y-15248868D01*
X12514190Y-15248868D01*
X12495143Y-15239345D01*
X12485619Y-15229821D01*
X12476095Y-15210773D01*
X12466571Y-15172678D01*
X12466571Y-15125059D01*
X12476095Y-15086964D01*
X12485619Y-15067916D01*
X12495143Y-15058392D01*
X12514190Y-15048868D01*
X12676095Y-15248868D02*
X12714190Y-15248868D01*
X12733238Y-15239345D01*
X12742762Y-15229821D01*
X12761809Y-15201249D01*
X12771333Y-15163154D01*
X12771333Y-15086964D01*
X12761809Y-15067916D01*
X12752286Y-15058392D01*
X12733238Y-15048868D01*
X12695143Y-15048868D01*
X12676095Y-15058392D01*
X12666571Y-15067916D01*
X12657048Y-15086964D01*
X12657048Y-15134583D01*
X12666571Y-15153630D01*
X12676095Y-15163154D01*
X12695143Y-15172678D01*
X12733238Y-15172678D01*
X12752286Y-15163154D01*
X12761809Y-15153630D01*
X12771333Y-15134583D01*
X12885619Y-15134583D02*
X12866571Y-15125059D01*
X12857048Y-15115535D01*
X12847524Y-15096487D01*
X12847524Y-15086964D01*
X12857048Y-15067916D01*
X12866571Y-15058392D01*
X12885619Y-15048868D01*
X12923714Y-15048868D01*
X12942762Y-15058392D01*
X12952286Y-15067916D01*
X12961809Y-15086964D01*
X12961809Y-15096487D01*
X12952286Y-15115535D01*
X12942762Y-15125059D01*
X12923714Y-15134583D01*
X12885619Y-15134583D01*
X12866571Y-15144106D01*
X12857048Y-15153630D01*
X12847524Y-15172678D01*
X12847524Y-15210773D01*
X12857048Y-15229821D01*
X12866571Y-15239345D01*
X12885619Y-15248868D01*
X12923714Y-15248868D01*
X12942762Y-15239345D01*
X12952286Y-15229821D01*
X12961809Y-15210773D01*
X12961809Y-15172678D01*
X12952286Y-15153630D01*
X12942762Y-15144106D01*
X12923714Y-15134583D01*
X13133238Y-15115535D02*
X13133238Y-15248868D01*
X13085619Y-15039345D02*
X13038000Y-15182202D01*
X13161809Y-15182202D01*
X13228476Y-15048868D02*
X13228476Y-15086964D01*
X13304667Y-15048868D02*
X13304667Y-15086964D01*
X13599905Y-15325059D02*
X13590381Y-15315535D01*
X13571333Y-15286964D01*
X13561809Y-15267916D01*
X13552286Y-15239345D01*
X13542762Y-15191726D01*
X13542762Y-15153630D01*
X13552286Y-15106011D01*
X13561809Y-15077440D01*
X13571333Y-15058392D01*
X13590381Y-15029821D01*
X13599905Y-15020297D01*
X13761809Y-15115535D02*
X13761809Y-15248868D01*
X13714190Y-15039345D02*
X13666571Y-15182202D01*
X13790381Y-15182202D01*
X14018952Y-15248868D02*
X14018952Y-15048868D01*
X14104667Y-15248868D02*
X14104667Y-15144106D01*
X14095143Y-15125059D01*
X14076095Y-15115535D01*
X14047524Y-15115535D01*
X14028476Y-15125059D01*
X14018952Y-15134583D01*
X14228476Y-15248868D02*
X14209428Y-15239345D01*
X14199905Y-15229821D01*
X14190381Y-15210773D01*
X14190381Y-15153630D01*
X14199905Y-15134583D01*
X14209428Y-15125059D01*
X14228476Y-15115535D01*
X14257048Y-15115535D01*
X14276095Y-15125059D01*
X14285619Y-15134583D01*
X14295143Y-15153630D01*
X14295143Y-15210773D01*
X14285619Y-15229821D01*
X14276095Y-15239345D01*
X14257048Y-15248868D01*
X14228476Y-15248868D01*
X14409428Y-15248868D02*
X14390381Y-15239345D01*
X14380857Y-15220297D01*
X14380857Y-15048868D01*
X14561809Y-15239345D02*
X14542762Y-15248868D01*
X14504667Y-15248868D01*
X14485619Y-15239345D01*
X14476095Y-15220297D01*
X14476095Y-15144106D01*
X14485619Y-15125059D01*
X14504667Y-15115535D01*
X14542762Y-15115535D01*
X14561809Y-15125059D01*
X14571333Y-15144106D01*
X14571333Y-15163154D01*
X14476095Y-15182202D01*
X14647524Y-15239345D02*
X14666571Y-15248868D01*
X14704667Y-15248868D01*
X14723714Y-15239345D01*
X14733238Y-15220297D01*
X14733238Y-15210773D01*
X14723714Y-15191726D01*
X14704667Y-15182202D01*
X14676095Y-15182202D01*
X14657048Y-15172678D01*
X14647524Y-15153630D01*
X14647524Y-15144106D01*
X14657048Y-15125059D01*
X14676095Y-15115535D01*
X14704667Y-15115535D01*
X14723714Y-15125059D01*
X14799905Y-15325059D02*
X14809428Y-15315535D01*
X14828476Y-15286964D01*
X14838000Y-15267916D01*
X14847524Y-15239345D01*
X14857048Y-15191726D01*
X14857048Y-15153630D01*
X14847524Y-15106011D01*
X14838000Y-15077440D01*
X14828476Y-15058392D01*
X14809428Y-15029821D01*
X14799905Y-15020297D01*
X15161809Y-15325059D02*
X15152286Y-15315535D01*
X15133238Y-15286964D01*
X15123714Y-15267916D01*
X15114190Y-15239345D01*
X15104667Y-15191726D01*
X15104667Y-15153630D01*
X15114190Y-15106011D01*
X15123714Y-15077440D01*
X15133238Y-15058392D01*
X15152286Y-15029821D01*
X15161809Y-15020297D01*
X15238000Y-15115535D02*
X15238000Y-15248868D01*
X15238000Y-15134583D02*
X15247524Y-15125059D01*
X15266571Y-15115535D01*
X15295143Y-15115535D01*
X15314190Y-15125059D01*
X15323714Y-15144106D01*
X15323714Y-15248868D01*
X15447524Y-15248868D02*
X15428476Y-15239345D01*
X15418952Y-15229821D01*
X15409428Y-15210773D01*
X15409428Y-15153630D01*
X15418952Y-15134583D01*
X15428476Y-15125059D01*
X15447524Y-15115535D01*
X15476095Y-15115535D01*
X15495143Y-15125059D01*
X15504667Y-15134583D01*
X15514190Y-15153630D01*
X15514190Y-15210773D01*
X15504667Y-15229821D01*
X15495143Y-15239345D01*
X15476095Y-15248868D01*
X15447524Y-15248868D01*
X15571333Y-15115535D02*
X15647524Y-15115535D01*
X15599905Y-15048868D02*
X15599905Y-15220297D01*
X15609428Y-15239345D01*
X15628476Y-15248868D01*
X15647524Y-15248868D01*
X15866571Y-15115535D02*
X15866571Y-15315535D01*
X15866571Y-15125059D02*
X15885619Y-15115535D01*
X15923714Y-15115535D01*
X15942762Y-15125059D01*
X15952286Y-15134583D01*
X15961809Y-15153630D01*
X15961809Y-15210773D01*
X15952286Y-15229821D01*
X15942762Y-15239345D01*
X15923714Y-15248868D01*
X15885619Y-15248868D01*
X15866571Y-15239345D01*
X16076095Y-15248868D02*
X16057048Y-15239345D01*
X16047524Y-15220297D01*
X16047524Y-15048868D01*
X16238000Y-15248868D02*
X16238000Y-15144106D01*
X16228476Y-15125059D01*
X16209428Y-15115535D01*
X16171333Y-15115535D01*
X16152286Y-15125059D01*
X16238000Y-15239345D02*
X16218952Y-15248868D01*
X16171333Y-15248868D01*
X16152286Y-15239345D01*
X16142762Y-15220297D01*
X16142762Y-15201249D01*
X16152286Y-15182202D01*
X16171333Y-15172678D01*
X16218952Y-15172678D01*
X16238000Y-15163154D01*
X16304667Y-15115535D02*
X16380857Y-15115535D01*
X16333238Y-15048868D02*
X16333238Y-15220297D01*
X16342762Y-15239345D01*
X16361809Y-15248868D01*
X16380857Y-15248868D01*
X16523714Y-15239345D02*
X16504667Y-15248868D01*
X16466571Y-15248868D01*
X16447524Y-15239345D01*
X16438000Y-15220297D01*
X16438000Y-15144106D01*
X16447524Y-15125059D01*
X16466571Y-15115535D01*
X16504667Y-15115535D01*
X16523714Y-15125059D01*
X16533238Y-15144106D01*
X16533238Y-15163154D01*
X16438000Y-15182202D01*
X16704667Y-15248868D02*
X16704667Y-15048868D01*
X16704667Y-15239345D02*
X16685619Y-15248868D01*
X16647524Y-15248868D01*
X16628476Y-15239345D01*
X16618952Y-15229821D01*
X16609428Y-15210773D01*
X16609428Y-15153630D01*
X16618952Y-15134583D01*
X16628476Y-15125059D01*
X16647524Y-15115535D01*
X16685619Y-15115535D01*
X16704667Y-15125059D01*
X16780857Y-15325059D02*
X16790381Y-15315535D01*
X16809429Y-15286964D01*
X16818952Y-15267916D01*
X16828476Y-15239345D01*
X16838000Y-15191726D01*
X16838000Y-15153630D01*
X16828476Y-15106011D01*
X16818952Y-15077440D01*
X16809429Y-15058392D01*
X16790381Y-15029821D01*
X16780857Y-15020297D01*
M02*
