%TF.GenerationSoftware,KiCad,Pcbnew,(6.0.5)*%
%TF.CreationDate,2022-06-02T10:53:14+02:00*%
%TF.ProjectId,Helios-Display,48656c69-6f73-42d4-9469-73706c61792e,5*%
%TF.SameCoordinates,Original*%
%TF.FileFunction,Legend,Top*%
%TF.FilePolarity,Positive*%
%FSLAX46Y46*%
G04 Gerber Fmt 4.6, Leading zero omitted, Abs format (unit mm)*
G04 Created by KiCad (PCBNEW (6.0.5)) date 2022-06-02 10:53:14*
%MOMM*%
%LPD*%
G01*
G04 APERTURE LIST*
G04 Aperture macros list*
%AMRoundRect*
0 Rectangle with rounded corners*
0 $1 Rounding radius*
0 $2 $3 $4 $5 $6 $7 $8 $9 X,Y pos of 4 corners*
0 Add a 4 corners polygon primitive as box body*
4,1,4,$2,$3,$4,$5,$6,$7,$8,$9,$2,$3,0*
0 Add four circle primitives for the rounded corners*
1,1,$1+$1,$2,$3*
1,1,$1+$1,$4,$5*
1,1,$1+$1,$6,$7*
1,1,$1+$1,$8,$9*
0 Add four rect primitives between the rounded corners*
20,1,$1+$1,$2,$3,$4,$5,0*
20,1,$1+$1,$4,$5,$6,$7,0*
20,1,$1+$1,$6,$7,$8,$9,0*
20,1,$1+$1,$8,$9,$2,$3,0*%
G04 Aperture macros list end*
%ADD10C,0.300000*%
%ADD11C,0.150000*%
%ADD12C,0.120000*%
%ADD13C,0.010000*%
%ADD14C,0.800000*%
%ADD15C,6.000000*%
%ADD16R,1.700000X1.700000*%
%ADD17O,1.700000X1.700000*%
%ADD18RoundRect,0.250000X1.500000X0.550000X-1.500000X0.550000X-1.500000X-0.550000X1.500000X-0.550000X0*%
%ADD19C,2.500000*%
%ADD20R,1.000000X3.150000*%
%ADD21RoundRect,0.250000X-0.550000X1.500000X-0.550000X-1.500000X0.550000X-1.500000X0.550000X1.500000X0*%
%ADD22R,5.400000X2.900000*%
G04 APERTURE END LIST*
D10*
X156888571Y-94452142D02*
X155388571Y-94452142D01*
X155388571Y-93880714D01*
X155460000Y-93737857D01*
X155531428Y-93666428D01*
X155674285Y-93595000D01*
X155888571Y-93595000D01*
X156031428Y-93666428D01*
X156102857Y-93737857D01*
X156174285Y-93880714D01*
X156174285Y-94452142D01*
X156745714Y-92095000D02*
X156817142Y-92166428D01*
X156888571Y-92380714D01*
X156888571Y-92523571D01*
X156817142Y-92737857D01*
X156674285Y-92880714D01*
X156531428Y-92952142D01*
X156245714Y-93023571D01*
X156031428Y-93023571D01*
X155745714Y-92952142D01*
X155602857Y-92880714D01*
X155460000Y-92737857D01*
X155388571Y-92523571D01*
X155388571Y-92380714D01*
X155460000Y-92166428D01*
X155531428Y-92095000D01*
X156888571Y-90737857D02*
X156888571Y-91452142D01*
X155388571Y-91452142D01*
X156888571Y-90237857D02*
X155388571Y-90237857D01*
X156888571Y-89380714D02*
X156031428Y-90023571D01*
X155388571Y-89380714D02*
X156245714Y-90237857D01*
X137680000Y-77910142D02*
X137608571Y-78053000D01*
X137608571Y-78267285D01*
X137680000Y-78481571D01*
X137822857Y-78624428D01*
X137965714Y-78695857D01*
X138251428Y-78767285D01*
X138465714Y-78767285D01*
X138751428Y-78695857D01*
X138894285Y-78624428D01*
X139037142Y-78481571D01*
X139108571Y-78267285D01*
X139108571Y-78124428D01*
X139037142Y-77910142D01*
X138965714Y-77838714D01*
X138465714Y-77838714D01*
X138465714Y-78124428D01*
X139108571Y-77195857D02*
X137608571Y-77195857D01*
X139108571Y-76338714D01*
X137608571Y-76338714D01*
X139108571Y-75624428D02*
X137608571Y-75624428D01*
X137608571Y-75267285D01*
X137680000Y-75053000D01*
X137822857Y-74910142D01*
X137965714Y-74838714D01*
X138251428Y-74767285D01*
X138465714Y-74767285D01*
X138751428Y-74838714D01*
X138894285Y-74910142D01*
X139037142Y-75053000D01*
X139108571Y-75267285D01*
X139108571Y-75624428D01*
X152920000Y-92523571D02*
X152848571Y-92666428D01*
X152848571Y-92880714D01*
X152920000Y-93095000D01*
X153062857Y-93237857D01*
X153205714Y-93309285D01*
X153491428Y-93380714D01*
X153705714Y-93380714D01*
X153991428Y-93309285D01*
X154134285Y-93237857D01*
X154277142Y-93095000D01*
X154348571Y-92880714D01*
X154348571Y-92737857D01*
X154277142Y-92523571D01*
X154205714Y-92452142D01*
X153705714Y-92452142D01*
X153705714Y-92737857D01*
X154348571Y-91809285D02*
X152848571Y-91809285D01*
X154348571Y-90952142D01*
X152848571Y-90952142D01*
X154348571Y-90237857D02*
X152848571Y-90237857D01*
X152848571Y-89880714D01*
X152920000Y-89666428D01*
X153062857Y-89523571D01*
X153205714Y-89452142D01*
X153491428Y-89380714D01*
X153705714Y-89380714D01*
X153991428Y-89452142D01*
X154134285Y-89523571D01*
X154277142Y-89666428D01*
X154348571Y-89880714D01*
X154348571Y-90237857D01*
X148443398Y-127344857D02*
X148514826Y-127130571D01*
X148586255Y-127059142D01*
X148729112Y-126987714D01*
X148943398Y-126987714D01*
X149086255Y-127059142D01*
X149157683Y-127130571D01*
X149229112Y-127273428D01*
X149229112Y-127844857D01*
X147729112Y-127844857D01*
X147729112Y-127344857D01*
X147800541Y-127202000D01*
X147871969Y-127130571D01*
X148014826Y-127059142D01*
X148157683Y-127059142D01*
X148300541Y-127130571D01*
X148371969Y-127202000D01*
X148443398Y-127344857D01*
X148443398Y-127844857D01*
X147729112Y-126487714D02*
X147729112Y-125487714D01*
X149229112Y-126130571D01*
X136568571Y-77838714D02*
X135854285Y-78338714D01*
X136568571Y-78695857D02*
X135068571Y-78695857D01*
X135068571Y-78124428D01*
X135140000Y-77981571D01*
X135211428Y-77910142D01*
X135354285Y-77838714D01*
X135568571Y-77838714D01*
X135711428Y-77910142D01*
X135782857Y-77981571D01*
X135854285Y-78124428D01*
X135854285Y-78695857D01*
X135568571Y-76553000D02*
X136568571Y-76553000D01*
X134997142Y-76910142D02*
X136068571Y-77267285D01*
X136068571Y-76338714D01*
X169231857Y-137426000D02*
X169089000Y-137354571D01*
X168874714Y-137354571D01*
X168660428Y-137426000D01*
X168517571Y-137568857D01*
X168446142Y-137711714D01*
X168374714Y-137997428D01*
X168374714Y-138211714D01*
X168446142Y-138497428D01*
X168517571Y-138640285D01*
X168660428Y-138783142D01*
X168874714Y-138854571D01*
X169017571Y-138854571D01*
X169231857Y-138783142D01*
X169303285Y-138711714D01*
X169303285Y-138211714D01*
X169017571Y-138211714D01*
X169946142Y-138854571D02*
X169946142Y-137354571D01*
X170517571Y-137354571D01*
X170660428Y-137426000D01*
X170731857Y-137497428D01*
X170803285Y-137640285D01*
X170803285Y-137854571D01*
X170731857Y-137997428D01*
X170660428Y-138068857D01*
X170517571Y-138140285D01*
X169946142Y-138140285D01*
X171446142Y-138854571D02*
X171446142Y-137354571D01*
X172446142Y-137354571D02*
X172731857Y-137354571D01*
X172874714Y-137426000D01*
X173017571Y-137568857D01*
X173089000Y-137854571D01*
X173089000Y-138354571D01*
X173017571Y-138640285D01*
X172874714Y-138783142D01*
X172731857Y-138854571D01*
X172446142Y-138854571D01*
X172303285Y-138783142D01*
X172160428Y-138640285D01*
X172089000Y-138354571D01*
X172089000Y-137854571D01*
X172160428Y-137568857D01*
X172303285Y-137426000D01*
X172446142Y-137354571D01*
X173660428Y-137497428D02*
X173731857Y-137426000D01*
X173874714Y-137354571D01*
X174231857Y-137354571D01*
X174374714Y-137426000D01*
X174446142Y-137497428D01*
X174517571Y-137640285D01*
X174517571Y-137783142D01*
X174446142Y-137997428D01*
X173589000Y-138854571D01*
X174517571Y-138854571D01*
X175803285Y-137354571D02*
X175517571Y-137354571D01*
X175374714Y-137426000D01*
X175303285Y-137497428D01*
X175160428Y-137711714D01*
X175089000Y-137997428D01*
X175089000Y-138568857D01*
X175160428Y-138711714D01*
X175231857Y-138783142D01*
X175374714Y-138854571D01*
X175660428Y-138854571D01*
X175803285Y-138783142D01*
X175874714Y-138711714D01*
X175946142Y-138568857D01*
X175946142Y-138211714D01*
X175874714Y-138068857D01*
X175803285Y-137997428D01*
X175660428Y-137926000D01*
X175374714Y-137926000D01*
X175231857Y-137997428D01*
X175160428Y-138068857D01*
X175089000Y-138211714D01*
X156888571Y-78695857D02*
X155388571Y-78695857D01*
X155388571Y-78338714D01*
X155460000Y-78124428D01*
X155602857Y-77981571D01*
X155745714Y-77910142D01*
X156031428Y-77838714D01*
X156245714Y-77838714D01*
X156531428Y-77910142D01*
X156674285Y-77981571D01*
X156817142Y-78124428D01*
X156888571Y-78338714D01*
X156888571Y-78695857D01*
X156102857Y-77195857D02*
X156102857Y-76695857D01*
X156888571Y-76481571D02*
X156888571Y-77195857D01*
X155388571Y-77195857D01*
X155388571Y-76481571D01*
X149268571Y-78695857D02*
X147768571Y-78695857D01*
X147768571Y-77695857D02*
X147768571Y-77410142D01*
X147840000Y-77267285D01*
X147982857Y-77124428D01*
X148268571Y-77053000D01*
X148768571Y-77053000D01*
X149054285Y-77124428D01*
X149197142Y-77267285D01*
X149268571Y-77410142D01*
X149268571Y-77695857D01*
X149197142Y-77838714D01*
X149054285Y-77981571D01*
X148768571Y-78053000D01*
X148268571Y-78053000D01*
X147982857Y-77981571D01*
X147840000Y-77838714D01*
X147768571Y-77695857D01*
X147911428Y-76481571D02*
X147840000Y-76410142D01*
X147768571Y-76267285D01*
X147768571Y-75910142D01*
X147840000Y-75767285D01*
X147911428Y-75695857D01*
X148054285Y-75624428D01*
X148197142Y-75624428D01*
X148411428Y-75695857D01*
X149268571Y-76553000D01*
X149268571Y-75624428D01*
X147768571Y-74267285D02*
X147768571Y-74981571D01*
X148482857Y-75053000D01*
X148411428Y-74981571D01*
X148340000Y-74838714D01*
X148340000Y-74481571D01*
X148411428Y-74338714D01*
X148482857Y-74267285D01*
X148625714Y-74195857D01*
X148982857Y-74195857D01*
X149125714Y-74267285D01*
X149197142Y-74338714D01*
X149268571Y-74481571D01*
X149268571Y-74838714D01*
X149197142Y-74981571D01*
X149125714Y-75053000D01*
X153571285Y-140108432D02*
X154499857Y-140108432D01*
X153999857Y-140679861D01*
X154214142Y-140679861D01*
X154357000Y-140751289D01*
X154428428Y-140822718D01*
X154499857Y-140965575D01*
X154499857Y-141322718D01*
X154428428Y-141465575D01*
X154357000Y-141537003D01*
X154214142Y-141608432D01*
X153785571Y-141608432D01*
X153642714Y-141537003D01*
X153571285Y-141465575D01*
X154999857Y-140608432D02*
X155357000Y-141608432D01*
X155714142Y-140608432D01*
X156142714Y-140108432D02*
X157071285Y-140108432D01*
X156571285Y-140679861D01*
X156785571Y-140679861D01*
X156928428Y-140751289D01*
X156999857Y-140822718D01*
X157071285Y-140965575D01*
X157071285Y-141322718D01*
X156999857Y-141465575D01*
X156928428Y-141537003D01*
X156785571Y-141608432D01*
X156357000Y-141608432D01*
X156214142Y-141537003D01*
X156142714Y-141465575D01*
X153562857Y-78195857D02*
X153634285Y-77981571D01*
X153705714Y-77910142D01*
X153848571Y-77838714D01*
X154062857Y-77838714D01*
X154205714Y-77910142D01*
X154277142Y-77981571D01*
X154348571Y-78124428D01*
X154348571Y-78695857D01*
X152848571Y-78695857D01*
X152848571Y-78195857D01*
X152920000Y-78053000D01*
X152991428Y-77981571D01*
X153134285Y-77910142D01*
X153277142Y-77910142D01*
X153420000Y-77981571D01*
X153491428Y-78053000D01*
X153562857Y-78195857D01*
X153562857Y-78695857D01*
X152848571Y-76481571D02*
X152848571Y-77195857D01*
X153562857Y-77267285D01*
X153491428Y-77195857D01*
X153420000Y-77053000D01*
X153420000Y-76695857D01*
X153491428Y-76553000D01*
X153562857Y-76481571D01*
X153705714Y-76410142D01*
X154062857Y-76410142D01*
X154205714Y-76481571D01*
X154277142Y-76553000D01*
X154348571Y-76695857D01*
X154348571Y-77053000D01*
X154277142Y-77195857D01*
X154205714Y-77267285D01*
X141648571Y-92523571D02*
X140148571Y-92523571D01*
X141648571Y-90952142D02*
X140934285Y-91452142D01*
X141648571Y-91809285D02*
X140148571Y-91809285D01*
X140148571Y-91237857D01*
X140220000Y-91095000D01*
X140291428Y-91023571D01*
X140434285Y-90952142D01*
X140648571Y-90952142D01*
X140791428Y-91023571D01*
X140862857Y-91095000D01*
X140934285Y-91237857D01*
X140934285Y-91809285D01*
X141791428Y-89309285D02*
X141720000Y-89452142D01*
X141577142Y-89595000D01*
X141362857Y-89809285D01*
X141291428Y-89952142D01*
X141291428Y-90095000D01*
X141648571Y-90023571D02*
X141577142Y-90166428D01*
X141434285Y-90309285D01*
X141148571Y-90380714D01*
X140648571Y-90380714D01*
X140362857Y-90309285D01*
X140220000Y-90166428D01*
X140148571Y-90023571D01*
X140148571Y-89737857D01*
X140220000Y-89595000D01*
X140362857Y-89452142D01*
X140648571Y-89380714D01*
X141148571Y-89380714D01*
X141434285Y-89452142D01*
X141577142Y-89595000D01*
X141648571Y-89737857D01*
X141648571Y-90023571D01*
X160540000Y-78037142D02*
X160468571Y-78180000D01*
X160468571Y-78394285D01*
X160540000Y-78608571D01*
X160682857Y-78751428D01*
X160825714Y-78822857D01*
X161111428Y-78894285D01*
X161325714Y-78894285D01*
X161611428Y-78822857D01*
X161754285Y-78751428D01*
X161897142Y-78608571D01*
X161968571Y-78394285D01*
X161968571Y-78251428D01*
X161897142Y-78037142D01*
X161825714Y-77965714D01*
X161325714Y-77965714D01*
X161325714Y-78251428D01*
X160968571Y-76680000D02*
X161968571Y-76680000D01*
X160397142Y-77037142D02*
X161468571Y-77394285D01*
X161468571Y-76465714D01*
X168160000Y-96095000D02*
X168088571Y-96237857D01*
X168088571Y-96452142D01*
X168160000Y-96666428D01*
X168302857Y-96809285D01*
X168445714Y-96880714D01*
X168731428Y-96952142D01*
X168945714Y-96952142D01*
X169231428Y-96880714D01*
X169374285Y-96809285D01*
X169517142Y-96666428D01*
X169588571Y-96452142D01*
X169588571Y-96309285D01*
X169517142Y-96095000D01*
X169445714Y-96023571D01*
X168945714Y-96023571D01*
X168945714Y-96309285D01*
X169588571Y-95380714D02*
X168088571Y-95380714D01*
X168088571Y-94809285D01*
X168160000Y-94666428D01*
X168231428Y-94595000D01*
X168374285Y-94523571D01*
X168588571Y-94523571D01*
X168731428Y-94595000D01*
X168802857Y-94666428D01*
X168874285Y-94809285D01*
X168874285Y-95380714D01*
X169588571Y-93880714D02*
X168088571Y-93880714D01*
X168088571Y-92880714D02*
X168088571Y-92595000D01*
X168160000Y-92452142D01*
X168302857Y-92309285D01*
X168588571Y-92237857D01*
X169088571Y-92237857D01*
X169374285Y-92309285D01*
X169517142Y-92452142D01*
X169588571Y-92595000D01*
X169588571Y-92880714D01*
X169517142Y-93023571D01*
X169374285Y-93166428D01*
X169088571Y-93237857D01*
X168588571Y-93237857D01*
X168302857Y-93166428D01*
X168160000Y-93023571D01*
X168088571Y-92880714D01*
X168231428Y-91666428D02*
X168160000Y-91595000D01*
X168088571Y-91452142D01*
X168088571Y-91095000D01*
X168160000Y-90952142D01*
X168231428Y-90880714D01*
X168374285Y-90809285D01*
X168517142Y-90809285D01*
X168731428Y-90880714D01*
X169588571Y-91737857D01*
X169588571Y-90809285D01*
X168088571Y-89523571D02*
X168088571Y-89809285D01*
X168160000Y-89952142D01*
X168231428Y-90023571D01*
X168445714Y-90166428D01*
X168731428Y-90237857D01*
X169302857Y-90237857D01*
X169445714Y-90166428D01*
X169517142Y-90095000D01*
X169588571Y-89952142D01*
X169588571Y-89666428D01*
X169517142Y-89523571D01*
X169445714Y-89452142D01*
X169302857Y-89380714D01*
X168945714Y-89380714D01*
X168802857Y-89452142D01*
X168731428Y-89523571D01*
X168660000Y-89666428D01*
X168660000Y-89952142D01*
X168731428Y-90095000D01*
X168802857Y-90166428D01*
X168945714Y-90237857D01*
X140109112Y-128059142D02*
X140109112Y-127202000D01*
X141609112Y-127630571D02*
X140109112Y-127630571D01*
X141609112Y-126487714D02*
X141537683Y-126630571D01*
X141466255Y-126702000D01*
X141323398Y-126773428D01*
X140894826Y-126773428D01*
X140751969Y-126702000D01*
X140680541Y-126630571D01*
X140609112Y-126487714D01*
X140609112Y-126273428D01*
X140680541Y-126130571D01*
X140751969Y-126059142D01*
X140894826Y-125987714D01*
X141323398Y-125987714D01*
X141466255Y-126059142D01*
X141537683Y-126130571D01*
X141609112Y-126273428D01*
X141609112Y-126487714D01*
X140609112Y-124702000D02*
X141609112Y-124702000D01*
X140609112Y-125344857D02*
X141394826Y-125344857D01*
X141537683Y-125273428D01*
X141609112Y-125130571D01*
X141609112Y-124916285D01*
X141537683Y-124773428D01*
X141466255Y-124702000D01*
X141537683Y-123344857D02*
X141609112Y-123487714D01*
X141609112Y-123773428D01*
X141537683Y-123916285D01*
X141466255Y-123987714D01*
X141323398Y-124059142D01*
X140894826Y-124059142D01*
X140751969Y-123987714D01*
X140680541Y-123916285D01*
X140609112Y-123773428D01*
X140609112Y-123487714D01*
X140680541Y-123344857D01*
X141609112Y-122702000D02*
X140109112Y-122702000D01*
X141609112Y-122059142D02*
X140823398Y-122059142D01*
X140680541Y-122130571D01*
X140609112Y-122273428D01*
X140609112Y-122487714D01*
X140680541Y-122630571D01*
X140751969Y-122702000D01*
X141751969Y-121702000D02*
X141751969Y-120559142D01*
X141609112Y-120202000D02*
X140109112Y-120202000D01*
X141609112Y-118630571D02*
X140894826Y-119130571D01*
X141609112Y-119487714D02*
X140109112Y-119487714D01*
X140109112Y-118916285D01*
X140180541Y-118773428D01*
X140251969Y-118702000D01*
X140394826Y-118630571D01*
X140609112Y-118630571D01*
X140751969Y-118702000D01*
X140823398Y-118773428D01*
X140894826Y-118916285D01*
X140894826Y-119487714D01*
X141751969Y-116987714D02*
X141680541Y-117130571D01*
X141537683Y-117273428D01*
X141323398Y-117487714D01*
X141251969Y-117630571D01*
X141251969Y-117773428D01*
X141609112Y-117702000D02*
X141537683Y-117844857D01*
X141394826Y-117987714D01*
X141109112Y-118059142D01*
X140609112Y-118059142D01*
X140323398Y-117987714D01*
X140180541Y-117844857D01*
X140109112Y-117702000D01*
X140109112Y-117416285D01*
X140180541Y-117273428D01*
X140323398Y-117130571D01*
X140609112Y-117059142D01*
X141109112Y-117059142D01*
X141394826Y-117130571D01*
X141537683Y-117273428D01*
X141609112Y-117416285D01*
X141609112Y-117702000D01*
X170660541Y-127059142D02*
X170589112Y-127202000D01*
X170589112Y-127416285D01*
X170660541Y-127630571D01*
X170803398Y-127773428D01*
X170946255Y-127844857D01*
X171231969Y-127916285D01*
X171446255Y-127916285D01*
X171731969Y-127844857D01*
X171874826Y-127773428D01*
X172017683Y-127630571D01*
X172089112Y-127416285D01*
X172089112Y-127273428D01*
X172017683Y-127059142D01*
X171946255Y-126987714D01*
X171446255Y-126987714D01*
X171446255Y-127273428D01*
X172089112Y-126344857D02*
X170589112Y-126344857D01*
X172089112Y-125487714D01*
X170589112Y-125487714D01*
X172089112Y-124773428D02*
X170589112Y-124773428D01*
X170589112Y-124416285D01*
X170660541Y-124202000D01*
X170803398Y-124059142D01*
X170946255Y-123987714D01*
X171231969Y-123916285D01*
X171446255Y-123916285D01*
X171731969Y-123987714D01*
X171874826Y-124059142D01*
X172017683Y-124202000D01*
X172089112Y-124416285D01*
X172089112Y-124773428D01*
X134647704Y-140220000D02*
X134504847Y-140148571D01*
X134290561Y-140148571D01*
X134076275Y-140220000D01*
X133933418Y-140362857D01*
X133861989Y-140505714D01*
X133790561Y-140791428D01*
X133790561Y-141005714D01*
X133861989Y-141291428D01*
X133933418Y-141434285D01*
X134076275Y-141577142D01*
X134290561Y-141648571D01*
X134433418Y-141648571D01*
X134647704Y-141577142D01*
X134719132Y-141505714D01*
X134719132Y-141005714D01*
X134433418Y-141005714D01*
X135361989Y-141648571D02*
X135361989Y-140148571D01*
X136219132Y-141648571D01*
X136219132Y-140148571D01*
X136933418Y-141648571D02*
X136933418Y-140148571D01*
X137290561Y-140148571D01*
X137504847Y-140220000D01*
X137647704Y-140362857D01*
X137719132Y-140505714D01*
X137790561Y-140791428D01*
X137790561Y-141005714D01*
X137719132Y-141291428D01*
X137647704Y-141434285D01*
X137504847Y-141577142D01*
X137290561Y-141648571D01*
X136933418Y-141648571D01*
X169588571Y-77965714D02*
X168874285Y-78465714D01*
X169588571Y-78822857D02*
X168088571Y-78822857D01*
X168088571Y-78251428D01*
X168160000Y-78108571D01*
X168231428Y-78037142D01*
X168374285Y-77965714D01*
X168588571Y-77965714D01*
X168731428Y-78037142D01*
X168802857Y-78108571D01*
X168874285Y-78251428D01*
X168874285Y-78822857D01*
X168088571Y-76680000D02*
X168088571Y-76965714D01*
X168160000Y-77108571D01*
X168231428Y-77180000D01*
X168445714Y-77322857D01*
X168731428Y-77394285D01*
X169302857Y-77394285D01*
X169445714Y-77322857D01*
X169517142Y-77251428D01*
X169588571Y-77108571D01*
X169588571Y-76822857D01*
X169517142Y-76680000D01*
X169445714Y-76608571D01*
X169302857Y-76537142D01*
X168945714Y-76537142D01*
X168802857Y-76608571D01*
X168731428Y-76680000D01*
X168660000Y-76822857D01*
X168660000Y-77108571D01*
X168731428Y-77251428D01*
X168802857Y-77322857D01*
X168945714Y-77394285D01*
X148308714Y-138783142D02*
X148523000Y-138854571D01*
X148880142Y-138854571D01*
X149023000Y-138783142D01*
X149094428Y-138711714D01*
X149165857Y-138568857D01*
X149165857Y-138426000D01*
X149094428Y-138283142D01*
X149023000Y-138211714D01*
X148880142Y-138140285D01*
X148594428Y-138068857D01*
X148451571Y-137997428D01*
X148380142Y-137926000D01*
X148308714Y-137783142D01*
X148308714Y-137640285D01*
X148380142Y-137497428D01*
X148451571Y-137426000D01*
X148594428Y-137354571D01*
X148951571Y-137354571D01*
X149165857Y-137426000D01*
X150665857Y-138711714D02*
X150594428Y-138783142D01*
X150380142Y-138854571D01*
X150237285Y-138854571D01*
X150023000Y-138783142D01*
X149880142Y-138640285D01*
X149808714Y-138497428D01*
X149737285Y-138211714D01*
X149737285Y-137997428D01*
X149808714Y-137711714D01*
X149880142Y-137568857D01*
X150023000Y-137426000D01*
X150237285Y-137354571D01*
X150380142Y-137354571D01*
X150594428Y-137426000D01*
X150665857Y-137497428D01*
X152023000Y-138854571D02*
X151308714Y-138854571D01*
X151308714Y-137354571D01*
X150380000Y-90880714D02*
X150308571Y-91023571D01*
X150308571Y-91237857D01*
X150380000Y-91452142D01*
X150522857Y-91595000D01*
X150665714Y-91666428D01*
X150951428Y-91737857D01*
X151165714Y-91737857D01*
X151451428Y-91666428D01*
X151594285Y-91595000D01*
X151737142Y-91452142D01*
X151808571Y-91237857D01*
X151808571Y-91095000D01*
X151737142Y-90880714D01*
X151665714Y-90809285D01*
X151165714Y-90809285D01*
X151165714Y-91095000D01*
X150308571Y-90309285D02*
X150308571Y-89380714D01*
X150880000Y-89880714D01*
X150880000Y-89666428D01*
X150951428Y-89523571D01*
X151022857Y-89452142D01*
X151165714Y-89380714D01*
X151522857Y-89380714D01*
X151665714Y-89452142D01*
X151737142Y-89523571D01*
X151808571Y-89666428D01*
X151808571Y-90095000D01*
X151737142Y-90237857D01*
X151665714Y-90309285D01*
X130060000Y-77910142D02*
X129988571Y-78053000D01*
X129988571Y-78267285D01*
X130060000Y-78481571D01*
X130202857Y-78624428D01*
X130345714Y-78695857D01*
X130631428Y-78767285D01*
X130845714Y-78767285D01*
X131131428Y-78695857D01*
X131274285Y-78624428D01*
X131417142Y-78481571D01*
X131488571Y-78267285D01*
X131488571Y-78124428D01*
X131417142Y-77910142D01*
X131345714Y-77838714D01*
X130845714Y-77838714D01*
X130845714Y-78124428D01*
X129988571Y-76553000D02*
X129988571Y-76838714D01*
X130060000Y-76981571D01*
X130131428Y-77053000D01*
X130345714Y-77195857D01*
X130631428Y-77267285D01*
X131202857Y-77267285D01*
X131345714Y-77195857D01*
X131417142Y-77124428D01*
X131488571Y-76981571D01*
X131488571Y-76695857D01*
X131417142Y-76553000D01*
X131345714Y-76481571D01*
X131202857Y-76410142D01*
X130845714Y-76410142D01*
X130702857Y-76481571D01*
X130631428Y-76553000D01*
X130560000Y-76695857D01*
X130560000Y-76981571D01*
X130631428Y-77124428D01*
X130702857Y-77195857D01*
X130845714Y-77267285D01*
X161143398Y-127344857D02*
X161214826Y-127130571D01*
X161286255Y-127059142D01*
X161429112Y-126987714D01*
X161643398Y-126987714D01*
X161786255Y-127059142D01*
X161857683Y-127130571D01*
X161929112Y-127273428D01*
X161929112Y-127844857D01*
X160429112Y-127844857D01*
X160429112Y-127344857D01*
X160500541Y-127202000D01*
X160571969Y-127130571D01*
X160714826Y-127059142D01*
X160857683Y-127059142D01*
X161000541Y-127130571D01*
X161071969Y-127202000D01*
X161143398Y-127344857D01*
X161143398Y-127844857D01*
X160929112Y-125702000D02*
X161929112Y-125702000D01*
X160357683Y-126059142D02*
X161429112Y-126416285D01*
X161429112Y-125487714D01*
X137680000Y-96095000D02*
X137608571Y-96237857D01*
X137608571Y-96452142D01*
X137680000Y-96666428D01*
X137822857Y-96809285D01*
X137965714Y-96880714D01*
X138251428Y-96952142D01*
X138465714Y-96952142D01*
X138751428Y-96880714D01*
X138894285Y-96809285D01*
X139037142Y-96666428D01*
X139108571Y-96452142D01*
X139108571Y-96309285D01*
X139037142Y-96095000D01*
X138965714Y-96023571D01*
X138465714Y-96023571D01*
X138465714Y-96309285D01*
X139108571Y-95380714D02*
X137608571Y-95380714D01*
X137608571Y-94809285D01*
X137680000Y-94666428D01*
X137751428Y-94595000D01*
X137894285Y-94523571D01*
X138108571Y-94523571D01*
X138251428Y-94595000D01*
X138322857Y-94666428D01*
X138394285Y-94809285D01*
X138394285Y-95380714D01*
X139108571Y-93880714D02*
X137608571Y-93880714D01*
X137608571Y-92880714D02*
X137608571Y-92595000D01*
X137680000Y-92452142D01*
X137822857Y-92309285D01*
X138108571Y-92237857D01*
X138608571Y-92237857D01*
X138894285Y-92309285D01*
X139037142Y-92452142D01*
X139108571Y-92595000D01*
X139108571Y-92880714D01*
X139037142Y-93023571D01*
X138894285Y-93166428D01*
X138608571Y-93237857D01*
X138108571Y-93237857D01*
X137822857Y-93166428D01*
X137680000Y-93023571D01*
X137608571Y-92880714D01*
X137751428Y-91666428D02*
X137680000Y-91595000D01*
X137608571Y-91452142D01*
X137608571Y-91095000D01*
X137680000Y-90952142D01*
X137751428Y-90880714D01*
X137894285Y-90809285D01*
X138037142Y-90809285D01*
X138251428Y-90880714D01*
X139108571Y-91737857D01*
X139108571Y-90809285D01*
X137608571Y-90309285D02*
X137608571Y-89309285D01*
X139108571Y-89952142D01*
X136529112Y-126987714D02*
X135814826Y-127487714D01*
X136529112Y-127844857D02*
X135029112Y-127844857D01*
X135029112Y-127273428D01*
X135100541Y-127130571D01*
X135171969Y-127059142D01*
X135314826Y-126987714D01*
X135529112Y-126987714D01*
X135671969Y-127059142D01*
X135743398Y-127130571D01*
X135814826Y-127273428D01*
X135814826Y-127844857D01*
X135029112Y-126487714D02*
X135029112Y-125559142D01*
X135600541Y-126059142D01*
X135600541Y-125844857D01*
X135671969Y-125702000D01*
X135743398Y-125630571D01*
X135886255Y-125559142D01*
X136243398Y-125559142D01*
X136386255Y-125630571D01*
X136457683Y-125702000D01*
X136529112Y-125844857D01*
X136529112Y-126273428D01*
X136457683Y-126416285D01*
X136386255Y-126487714D01*
X161182857Y-91166428D02*
X161254285Y-90952142D01*
X161325714Y-90880714D01*
X161468571Y-90809285D01*
X161682857Y-90809285D01*
X161825714Y-90880714D01*
X161897142Y-90952142D01*
X161968571Y-91095000D01*
X161968571Y-91666428D01*
X160468571Y-91666428D01*
X160468571Y-91166428D01*
X160540000Y-91023571D01*
X160611428Y-90952142D01*
X160754285Y-90880714D01*
X160897142Y-90880714D01*
X161040000Y-90952142D01*
X161111428Y-91023571D01*
X161182857Y-91166428D01*
X161182857Y-91666428D01*
X160968571Y-89523571D02*
X161968571Y-89523571D01*
X160397142Y-89880714D02*
X161468571Y-90237857D01*
X161468571Y-89309285D01*
X195051071Y-122307142D02*
X193551071Y-122307142D01*
X194265357Y-122307142D02*
X194265357Y-121450000D01*
X195051071Y-121450000D02*
X193551071Y-121450000D01*
X194979642Y-120164285D02*
X195051071Y-120307142D01*
X195051071Y-120592857D01*
X194979642Y-120735714D01*
X194836785Y-120807142D01*
X194265357Y-120807142D01*
X194122500Y-120735714D01*
X194051071Y-120592857D01*
X194051071Y-120307142D01*
X194122500Y-120164285D01*
X194265357Y-120092857D01*
X194408214Y-120092857D01*
X194551071Y-120807142D01*
X195051071Y-119235714D02*
X194979642Y-119378571D01*
X194836785Y-119450000D01*
X193551071Y-119450000D01*
X195051071Y-118664285D02*
X194051071Y-118664285D01*
X193551071Y-118664285D02*
X193622500Y-118735714D01*
X193693928Y-118664285D01*
X193622500Y-118592857D01*
X193551071Y-118664285D01*
X193693928Y-118664285D01*
X195051071Y-117735714D02*
X194979642Y-117878571D01*
X194908214Y-117950000D01*
X194765357Y-118021428D01*
X194336785Y-118021428D01*
X194193928Y-117950000D01*
X194122500Y-117878571D01*
X194051071Y-117735714D01*
X194051071Y-117521428D01*
X194122500Y-117378571D01*
X194193928Y-117307142D01*
X194336785Y-117235714D01*
X194765357Y-117235714D01*
X194908214Y-117307142D01*
X194979642Y-117378571D01*
X195051071Y-117521428D01*
X195051071Y-117735714D01*
X194979642Y-116664285D02*
X195051071Y-116521428D01*
X195051071Y-116235714D01*
X194979642Y-116092857D01*
X194836785Y-116021428D01*
X194765357Y-116021428D01*
X194622500Y-116092857D01*
X194551071Y-116235714D01*
X194551071Y-116450000D01*
X194479642Y-116592857D01*
X194336785Y-116664285D01*
X194265357Y-116664285D01*
X194122500Y-116592857D01*
X194051071Y-116450000D01*
X194051071Y-116235714D01*
X194122500Y-116092857D01*
X195051071Y-115378571D02*
X193551071Y-115378571D01*
X193551071Y-115021428D01*
X193622500Y-114807142D01*
X193765357Y-114664285D01*
X193908214Y-114592857D01*
X194193928Y-114521428D01*
X194408214Y-114521428D01*
X194693928Y-114592857D01*
X194836785Y-114664285D01*
X194979642Y-114807142D01*
X195051071Y-115021428D01*
X195051071Y-115378571D01*
X195051071Y-113878571D02*
X194051071Y-113878571D01*
X193551071Y-113878571D02*
X193622500Y-113950000D01*
X193693928Y-113878571D01*
X193622500Y-113807142D01*
X193551071Y-113878571D01*
X193693928Y-113878571D01*
X194979642Y-113235714D02*
X195051071Y-113092857D01*
X195051071Y-112807142D01*
X194979642Y-112664285D01*
X194836785Y-112592857D01*
X194765357Y-112592857D01*
X194622500Y-112664285D01*
X194551071Y-112807142D01*
X194551071Y-113021428D01*
X194479642Y-113164285D01*
X194336785Y-113235714D01*
X194265357Y-113235714D01*
X194122500Y-113164285D01*
X194051071Y-113021428D01*
X194051071Y-112807142D01*
X194122500Y-112664285D01*
X194051071Y-111950000D02*
X195551071Y-111950000D01*
X194122500Y-111950000D02*
X194051071Y-111807142D01*
X194051071Y-111521428D01*
X194122500Y-111378571D01*
X194193928Y-111307142D01*
X194336785Y-111235714D01*
X194765357Y-111235714D01*
X194908214Y-111307142D01*
X194979642Y-111378571D01*
X195051071Y-111521428D01*
X195051071Y-111807142D01*
X194979642Y-111950000D01*
X195051071Y-110378571D02*
X194979642Y-110521428D01*
X194836785Y-110592857D01*
X193551071Y-110592857D01*
X195051071Y-109164285D02*
X194265357Y-109164285D01*
X194122500Y-109235714D01*
X194051071Y-109378571D01*
X194051071Y-109664285D01*
X194122500Y-109807142D01*
X194979642Y-109164285D02*
X195051071Y-109307142D01*
X195051071Y-109664285D01*
X194979642Y-109807142D01*
X194836785Y-109878571D01*
X194693928Y-109878571D01*
X194551071Y-109807142D01*
X194479642Y-109664285D01*
X194479642Y-109307142D01*
X194408214Y-109164285D01*
X194051071Y-108592857D02*
X195051071Y-108235714D01*
X194051071Y-107878571D02*
X195051071Y-108235714D01*
X195408214Y-108378571D01*
X195479642Y-108450000D01*
X195551071Y-108592857D01*
X194622500Y-106235714D02*
X194622500Y-105521428D01*
X195051071Y-106378571D02*
X193551071Y-105878571D01*
X195051071Y-105378571D01*
X195051071Y-104235714D02*
X193551071Y-104235714D01*
X194979642Y-104235714D02*
X195051071Y-104378571D01*
X195051071Y-104664285D01*
X194979642Y-104807142D01*
X194908214Y-104878571D01*
X194765357Y-104950000D01*
X194336785Y-104950000D01*
X194193928Y-104878571D01*
X194122500Y-104807142D01*
X194051071Y-104664285D01*
X194051071Y-104378571D01*
X194122500Y-104235714D01*
X195051071Y-102878571D02*
X194265357Y-102878571D01*
X194122500Y-102950000D01*
X194051071Y-103092857D01*
X194051071Y-103378571D01*
X194122500Y-103521428D01*
X194979642Y-102878571D02*
X195051071Y-103021428D01*
X195051071Y-103378571D01*
X194979642Y-103521428D01*
X194836785Y-103592857D01*
X194693928Y-103592857D01*
X194551071Y-103521428D01*
X194479642Y-103378571D01*
X194479642Y-103021428D01*
X194408214Y-102878571D01*
X194051071Y-102164285D02*
X195551071Y-102164285D01*
X194122500Y-102164285D02*
X194051071Y-102021428D01*
X194051071Y-101735714D01*
X194122500Y-101592857D01*
X194193928Y-101521428D01*
X194336785Y-101450000D01*
X194765357Y-101450000D01*
X194908214Y-101521428D01*
X194979642Y-101592857D01*
X195051071Y-101735714D01*
X195051071Y-102021428D01*
X194979642Y-102164285D01*
X194051071Y-101021428D02*
X194051071Y-100450000D01*
X193551071Y-100807142D02*
X194836785Y-100807142D01*
X194979642Y-100735714D01*
X195051071Y-100592857D01*
X195051071Y-100450000D01*
X194979642Y-99378571D02*
X195051071Y-99521428D01*
X195051071Y-99807142D01*
X194979642Y-99950000D01*
X194836785Y-100021428D01*
X194265357Y-100021428D01*
X194122500Y-99950000D01*
X194051071Y-99807142D01*
X194051071Y-99521428D01*
X194122500Y-99378571D01*
X194265357Y-99307142D01*
X194408214Y-99307142D01*
X194551071Y-100021428D01*
X195051071Y-98664285D02*
X194051071Y-98664285D01*
X194336785Y-98664285D02*
X194193928Y-98592857D01*
X194122500Y-98521428D01*
X194051071Y-98378571D01*
X194051071Y-98235714D01*
X195051071Y-95735714D02*
X194336785Y-96235714D01*
X195051071Y-96592857D02*
X193551071Y-96592857D01*
X193551071Y-96021428D01*
X193622500Y-95878571D01*
X193693928Y-95807142D01*
X193836785Y-95735714D01*
X194051071Y-95735714D01*
X194193928Y-95807142D01*
X194265357Y-95878571D01*
X194336785Y-96021428D01*
X194336785Y-96592857D01*
X195051071Y-95092857D02*
X193551071Y-95092857D01*
X193551071Y-94521428D01*
X193622500Y-94378571D01*
X193693928Y-94307142D01*
X193836785Y-94235714D01*
X194051071Y-94235714D01*
X194193928Y-94307142D01*
X194265357Y-94378571D01*
X194336785Y-94521428D01*
X194336785Y-95092857D01*
X195051071Y-93592857D02*
X194051071Y-93592857D01*
X193551071Y-93592857D02*
X193622500Y-93664285D01*
X193693928Y-93592857D01*
X193622500Y-93521428D01*
X193551071Y-93592857D01*
X193693928Y-93592857D01*
X196108928Y-125878571D02*
X196037500Y-125807142D01*
X195966071Y-125664285D01*
X195966071Y-125307142D01*
X196037500Y-125164285D01*
X196108928Y-125092857D01*
X196251785Y-125021428D01*
X196394642Y-125021428D01*
X196608928Y-125092857D01*
X197466071Y-125950000D01*
X197466071Y-125021428D01*
X195966071Y-124092857D02*
X195966071Y-123950000D01*
X196037500Y-123807142D01*
X196108928Y-123735714D01*
X196251785Y-123664285D01*
X196537500Y-123592857D01*
X196894642Y-123592857D01*
X197180357Y-123664285D01*
X197323214Y-123735714D01*
X197394642Y-123807142D01*
X197466071Y-123950000D01*
X197466071Y-124092857D01*
X197394642Y-124235714D01*
X197323214Y-124307142D01*
X197180357Y-124378571D01*
X196894642Y-124450000D01*
X196537500Y-124450000D01*
X196251785Y-124378571D01*
X196108928Y-124307142D01*
X196037500Y-124235714D01*
X195966071Y-124092857D01*
X196108928Y-123021428D02*
X196037500Y-122950000D01*
X195966071Y-122807142D01*
X195966071Y-122450000D01*
X196037500Y-122307142D01*
X196108928Y-122235714D01*
X196251785Y-122164285D01*
X196394642Y-122164285D01*
X196608928Y-122235714D01*
X197466071Y-123092857D01*
X197466071Y-122164285D01*
X196108928Y-121592857D02*
X196037500Y-121521428D01*
X195966071Y-121378571D01*
X195966071Y-121021428D01*
X196037500Y-120878571D01*
X196108928Y-120807142D01*
X196251785Y-120735714D01*
X196394642Y-120735714D01*
X196608928Y-120807142D01*
X197466071Y-121664285D01*
X197466071Y-120735714D01*
X195894642Y-119021428D02*
X197823214Y-120307142D01*
X195966071Y-118235714D02*
X195966071Y-118092857D01*
X196037500Y-117950000D01*
X196108928Y-117878571D01*
X196251785Y-117807142D01*
X196537500Y-117735714D01*
X196894642Y-117735714D01*
X197180357Y-117807142D01*
X197323214Y-117878571D01*
X197394642Y-117950000D01*
X197466071Y-118092857D01*
X197466071Y-118235714D01*
X197394642Y-118378571D01*
X197323214Y-118450000D01*
X197180357Y-118521428D01*
X196894642Y-118592857D01*
X196537500Y-118592857D01*
X196251785Y-118521428D01*
X196108928Y-118450000D01*
X196037500Y-118378571D01*
X195966071Y-118235714D01*
X195966071Y-116450000D02*
X195966071Y-116735714D01*
X196037500Y-116878571D01*
X196108928Y-116950000D01*
X196323214Y-117092857D01*
X196608928Y-117164285D01*
X197180357Y-117164285D01*
X197323214Y-117092857D01*
X197394642Y-117021428D01*
X197466071Y-116878571D01*
X197466071Y-116592857D01*
X197394642Y-116450000D01*
X197323214Y-116378571D01*
X197180357Y-116307142D01*
X196823214Y-116307142D01*
X196680357Y-116378571D01*
X196608928Y-116450000D01*
X196537500Y-116592857D01*
X196537500Y-116878571D01*
X196608928Y-117021428D01*
X196680357Y-117092857D01*
X196823214Y-117164285D01*
X195894642Y-114592857D02*
X197823214Y-115878571D01*
X195966071Y-113807142D02*
X195966071Y-113664285D01*
X196037500Y-113521428D01*
X196108928Y-113450000D01*
X196251785Y-113378571D01*
X196537500Y-113307142D01*
X196894642Y-113307142D01*
X197180357Y-113378571D01*
X197323214Y-113450000D01*
X197394642Y-113521428D01*
X197466071Y-113664285D01*
X197466071Y-113807142D01*
X197394642Y-113950000D01*
X197323214Y-114021428D01*
X197180357Y-114092857D01*
X196894642Y-114164285D01*
X196537500Y-114164285D01*
X196251785Y-114092857D01*
X196108928Y-114021428D01*
X196037500Y-113950000D01*
X195966071Y-113807142D01*
X196108928Y-112735714D02*
X196037500Y-112664285D01*
X195966071Y-112521428D01*
X195966071Y-112164285D01*
X196037500Y-112021428D01*
X196108928Y-111950000D01*
X196251785Y-111878571D01*
X196394642Y-111878571D01*
X196608928Y-111950000D01*
X197466071Y-112807142D01*
X197466071Y-111878571D01*
X197466071Y-110092857D02*
X196466071Y-110092857D01*
X196608928Y-110092857D02*
X196537500Y-110021428D01*
X196466071Y-109878571D01*
X196466071Y-109664285D01*
X196537500Y-109521428D01*
X196680357Y-109450000D01*
X197466071Y-109450000D01*
X196680357Y-109450000D02*
X196537500Y-109378571D01*
X196466071Y-109235714D01*
X196466071Y-109021428D01*
X196537500Y-108878571D01*
X196680357Y-108807142D01*
X197466071Y-108807142D01*
X197466071Y-107878571D02*
X197394642Y-108021428D01*
X197323214Y-108092857D01*
X197180357Y-108164285D01*
X196751785Y-108164285D01*
X196608928Y-108092857D01*
X196537500Y-108021428D01*
X196466071Y-107878571D01*
X196466071Y-107664285D01*
X196537500Y-107521428D01*
X196608928Y-107450000D01*
X196751785Y-107378571D01*
X197180357Y-107378571D01*
X197323214Y-107450000D01*
X197394642Y-107521428D01*
X197466071Y-107664285D01*
X197466071Y-107878571D01*
X197466071Y-106735714D02*
X196466071Y-106735714D01*
X196751785Y-106735714D02*
X196608928Y-106664285D01*
X196537500Y-106592857D01*
X196466071Y-106450000D01*
X196466071Y-106307142D01*
X197466071Y-105592857D02*
X197394642Y-105735714D01*
X197251785Y-105807142D01*
X195966071Y-105807142D01*
X197466071Y-104378571D02*
X196680357Y-104378571D01*
X196537500Y-104450000D01*
X196466071Y-104592857D01*
X196466071Y-104878571D01*
X196537500Y-105021428D01*
X197394642Y-104378571D02*
X197466071Y-104521428D01*
X197466071Y-104878571D01*
X197394642Y-105021428D01*
X197251785Y-105092857D01*
X197108928Y-105092857D01*
X196966071Y-105021428D01*
X196894642Y-104878571D01*
X196894642Y-104521428D01*
X196823214Y-104378571D01*
X197394642Y-103021428D02*
X197466071Y-103164285D01*
X197466071Y-103450000D01*
X197394642Y-103592857D01*
X197323214Y-103664285D01*
X197180357Y-103735714D01*
X196751785Y-103735714D01*
X196608928Y-103664285D01*
X196537500Y-103592857D01*
X196466071Y-103450000D01*
X196466071Y-103164285D01*
X196537500Y-103021428D01*
X196751785Y-101449999D02*
X196680357Y-101521428D01*
X196608928Y-101664285D01*
X196608928Y-101807142D01*
X196680357Y-101949999D01*
X196751785Y-102021428D01*
X196894642Y-102092857D01*
X197037500Y-102092857D01*
X197180357Y-102021428D01*
X197251785Y-101949999D01*
X197323214Y-101807142D01*
X197323214Y-101664285D01*
X197251785Y-101521428D01*
X197180357Y-101449999D01*
X196608928Y-101449999D02*
X197180357Y-101449999D01*
X197251785Y-101378571D01*
X197251785Y-101307142D01*
X197180357Y-101164285D01*
X197037500Y-101092857D01*
X196680357Y-101092857D01*
X196466071Y-101235714D01*
X196323214Y-101449999D01*
X196251785Y-101735714D01*
X196323214Y-102021428D01*
X196466071Y-102235714D01*
X196680357Y-102378571D01*
X196966071Y-102449999D01*
X197251785Y-102378571D01*
X197466071Y-102235714D01*
X197608928Y-102021428D01*
X197680357Y-101735714D01*
X197608928Y-101449999D01*
X197466071Y-101235714D01*
X197466071Y-100449999D02*
X196466071Y-100449999D01*
X196608928Y-100449999D02*
X196537500Y-100378571D01*
X196466071Y-100235714D01*
X196466071Y-100021428D01*
X196537500Y-99878571D01*
X196680357Y-99807142D01*
X197466071Y-99807142D01*
X196680357Y-99807142D02*
X196537500Y-99735714D01*
X196466071Y-99592857D01*
X196466071Y-99378571D01*
X196537500Y-99235714D01*
X196680357Y-99164285D01*
X197466071Y-99164285D01*
X197466071Y-98235714D02*
X197394642Y-98378571D01*
X197323214Y-98449999D01*
X197180357Y-98521428D01*
X196751785Y-98521428D01*
X196608928Y-98449999D01*
X196537500Y-98378571D01*
X196466071Y-98235714D01*
X196466071Y-98021428D01*
X196537500Y-97878571D01*
X196608928Y-97807142D01*
X196751785Y-97735714D01*
X197180357Y-97735714D01*
X197323214Y-97807142D01*
X197394642Y-97878571D01*
X197466071Y-98021428D01*
X197466071Y-98235714D01*
X197466071Y-97092857D02*
X196466071Y-97092857D01*
X196751785Y-97092857D02*
X196608928Y-97021428D01*
X196537500Y-96949999D01*
X196466071Y-96807142D01*
X196466071Y-96664285D01*
X197466071Y-95949999D02*
X197394642Y-96092857D01*
X197251785Y-96164285D01*
X195966071Y-96164285D01*
X197466071Y-94735714D02*
X196680357Y-94735714D01*
X196537500Y-94807142D01*
X196466071Y-94949999D01*
X196466071Y-95235714D01*
X196537500Y-95378571D01*
X197394642Y-94735714D02*
X197466071Y-94878571D01*
X197466071Y-95235714D01*
X197394642Y-95378571D01*
X197251785Y-95449999D01*
X197108928Y-95449999D01*
X196966071Y-95378571D01*
X196894642Y-95235714D01*
X196894642Y-94878571D01*
X196823214Y-94735714D01*
X197394642Y-93378571D02*
X197466071Y-93521428D01*
X197466071Y-93807142D01*
X197394642Y-93949999D01*
X197323214Y-94021428D01*
X197180357Y-94092857D01*
X196751785Y-94092857D01*
X196608928Y-94021428D01*
X196537500Y-93949999D01*
X196466071Y-93807142D01*
X196466071Y-93521428D01*
X196537500Y-93378571D01*
X197323214Y-92735714D02*
X197394642Y-92664285D01*
X197466071Y-92735714D01*
X197394642Y-92807142D01*
X197323214Y-92735714D01*
X197466071Y-92735714D01*
X197466071Y-91378571D02*
X195966071Y-91378571D01*
X197394642Y-91378571D02*
X197466071Y-91521428D01*
X197466071Y-91807142D01*
X197394642Y-91949999D01*
X197323214Y-92021428D01*
X197180357Y-92092857D01*
X196751785Y-92092857D01*
X196608928Y-92021428D01*
X196537500Y-91949999D01*
X196466071Y-91807142D01*
X196466071Y-91521428D01*
X196537500Y-91378571D01*
X197394642Y-90092857D02*
X197466071Y-90235714D01*
X197466071Y-90521428D01*
X197394642Y-90664285D01*
X197251785Y-90735714D01*
X196680357Y-90735714D01*
X196537500Y-90664285D01*
X196466071Y-90521428D01*
X196466071Y-90235714D01*
X196537500Y-90092857D01*
X196680357Y-90021428D01*
X196823214Y-90021428D01*
X196966071Y-90735714D01*
X172125267Y-77965714D02*
X171410981Y-78465714D01*
X172125267Y-78822857D02*
X170625267Y-78822857D01*
X170625267Y-78251428D01*
X170696696Y-78108571D01*
X170768124Y-78037142D01*
X170910981Y-77965714D01*
X171125267Y-77965714D01*
X171268124Y-78037142D01*
X171339553Y-78108571D01*
X171410981Y-78251428D01*
X171410981Y-78822857D01*
X170625267Y-77465714D02*
X170625267Y-76465714D01*
X172125267Y-77108571D01*
X124908571Y-96023571D02*
X126408571Y-95523571D01*
X124908571Y-95023571D01*
X126337142Y-94595000D02*
X126408571Y-94380714D01*
X126408571Y-94023571D01*
X126337142Y-93880714D01*
X126265714Y-93809285D01*
X126122857Y-93737857D01*
X125980000Y-93737857D01*
X125837142Y-93809285D01*
X125765714Y-93880714D01*
X125694285Y-94023571D01*
X125622857Y-94309285D01*
X125551428Y-94452142D01*
X125480000Y-94523571D01*
X125337142Y-94595000D01*
X125194285Y-94595000D01*
X125051428Y-94523571D01*
X124980000Y-94452142D01*
X124908571Y-94309285D01*
X124908571Y-93952142D01*
X124980000Y-93737857D01*
X125694285Y-92809285D02*
X126408571Y-92809285D01*
X124908571Y-93309285D02*
X125694285Y-92809285D01*
X124908571Y-92309285D01*
X126408571Y-91809285D02*
X124908571Y-91809285D01*
X126408571Y-90952142D01*
X124908571Y-90952142D01*
X126265714Y-89380714D02*
X126337142Y-89452142D01*
X126408571Y-89666428D01*
X126408571Y-89809285D01*
X126337142Y-90023571D01*
X126194285Y-90166428D01*
X126051428Y-90237857D01*
X125765714Y-90309285D01*
X125551428Y-90309285D01*
X125265714Y-90237857D01*
X125122857Y-90166428D01*
X124980000Y-90023571D01*
X124908571Y-89809285D01*
X124908571Y-89666428D01*
X124980000Y-89452142D01*
X125051428Y-89380714D01*
X115868142Y-141077141D02*
X117011000Y-141077141D01*
X116439571Y-141648570D02*
X116439571Y-140505713D01*
X117582428Y-140148570D02*
X118511000Y-140148570D01*
X118011000Y-140719999D01*
X118225285Y-140719999D01*
X118368142Y-140791427D01*
X118439571Y-140862856D01*
X118511000Y-141005713D01*
X118511000Y-141362856D01*
X118439571Y-141505713D01*
X118368142Y-141577141D01*
X118225285Y-141648570D01*
X117796714Y-141648570D01*
X117653857Y-141577141D01*
X117582428Y-141505713D01*
X119011000Y-140648570D02*
X119368142Y-141648570D01*
X119725285Y-140648570D01*
X120153857Y-140148570D02*
X121082428Y-140148570D01*
X120582428Y-140719999D01*
X120796714Y-140719999D01*
X120939571Y-140791427D01*
X121011000Y-140862856D01*
X121082428Y-141005713D01*
X121082428Y-141362856D01*
X121011000Y-141505713D01*
X120939571Y-141577141D01*
X120796714Y-141648570D01*
X120368142Y-141648570D01*
X120225285Y-141577141D01*
X120153857Y-141505713D01*
X163080000Y-90880714D02*
X163008571Y-91023571D01*
X163008571Y-91237857D01*
X163080000Y-91452142D01*
X163222857Y-91595000D01*
X163365714Y-91666428D01*
X163651428Y-91737857D01*
X163865714Y-91737857D01*
X164151428Y-91666428D01*
X164294285Y-91595000D01*
X164437142Y-91452142D01*
X164508571Y-91237857D01*
X164508571Y-91095000D01*
X164437142Y-90880714D01*
X164365714Y-90809285D01*
X163865714Y-90809285D01*
X163865714Y-91095000D01*
X163008571Y-89452142D02*
X163008571Y-90166428D01*
X163722857Y-90237857D01*
X163651428Y-90166428D01*
X163580000Y-90023571D01*
X163580000Y-89666428D01*
X163651428Y-89523571D01*
X163722857Y-89452142D01*
X163865714Y-89380714D01*
X164222857Y-89380714D01*
X164365714Y-89452142D01*
X164437142Y-89523571D01*
X164508571Y-89666428D01*
X164508571Y-90023571D01*
X164437142Y-90166428D01*
X164365714Y-90237857D01*
X168120541Y-127059142D02*
X168049112Y-127202000D01*
X168049112Y-127416285D01*
X168120541Y-127630571D01*
X168263398Y-127773428D01*
X168406255Y-127844857D01*
X168691969Y-127916285D01*
X168906255Y-127916285D01*
X169191969Y-127844857D01*
X169334826Y-127773428D01*
X169477683Y-127630571D01*
X169549112Y-127416285D01*
X169549112Y-127273428D01*
X169477683Y-127059142D01*
X169406255Y-126987714D01*
X168906255Y-126987714D01*
X168906255Y-127273428D01*
X169549112Y-126344857D02*
X168049112Y-126344857D01*
X168049112Y-125773428D01*
X168120541Y-125630571D01*
X168191969Y-125559142D01*
X168334826Y-125487714D01*
X168549112Y-125487714D01*
X168691969Y-125559142D01*
X168763398Y-125630571D01*
X168834826Y-125773428D01*
X168834826Y-126344857D01*
X169549112Y-124844857D02*
X168049112Y-124844857D01*
X168049112Y-123844857D02*
X168049112Y-123559142D01*
X168120541Y-123416285D01*
X168263398Y-123273428D01*
X168549112Y-123202000D01*
X169049112Y-123202000D01*
X169334826Y-123273428D01*
X169477683Y-123416285D01*
X169549112Y-123559142D01*
X169549112Y-123844857D01*
X169477683Y-123987714D01*
X169334826Y-124130571D01*
X169049112Y-124202000D01*
X168549112Y-124202000D01*
X168263398Y-124130571D01*
X168120541Y-123987714D01*
X168049112Y-123844857D01*
X168191969Y-122630571D02*
X168120541Y-122559142D01*
X168049112Y-122416285D01*
X168049112Y-122059142D01*
X168120541Y-121916285D01*
X168191969Y-121844857D01*
X168334826Y-121773428D01*
X168477683Y-121773428D01*
X168691969Y-121844857D01*
X169549112Y-122702000D01*
X169549112Y-121773428D01*
X168049112Y-120487714D02*
X168049112Y-120773428D01*
X168120541Y-120916285D01*
X168191969Y-120987714D01*
X168406255Y-121130571D01*
X168691969Y-121202000D01*
X169263398Y-121202000D01*
X169406255Y-121130571D01*
X169477683Y-121059142D01*
X169549112Y-120916285D01*
X169549112Y-120630571D01*
X169477683Y-120487714D01*
X169406255Y-120416285D01*
X169263398Y-120344857D01*
X168906255Y-120344857D01*
X168763398Y-120416285D01*
X168691969Y-120487714D01*
X168620541Y-120630571D01*
X168620541Y-120916285D01*
X168691969Y-121059142D01*
X168763398Y-121130571D01*
X168906255Y-121202000D01*
X148482857Y-91166428D02*
X148554285Y-90952142D01*
X148625714Y-90880714D01*
X148768571Y-90809285D01*
X148982857Y-90809285D01*
X149125714Y-90880714D01*
X149197142Y-90952142D01*
X149268571Y-91095000D01*
X149268571Y-91666428D01*
X147768571Y-91666428D01*
X147768571Y-91166428D01*
X147840000Y-91023571D01*
X147911428Y-90952142D01*
X148054285Y-90880714D01*
X148197142Y-90880714D01*
X148340000Y-90952142D01*
X148411428Y-91023571D01*
X148482857Y-91166428D01*
X148482857Y-91666428D01*
X147768571Y-90309285D02*
X147768571Y-89309285D01*
X149268571Y-89952142D01*
X144117142Y-78767285D02*
X144188571Y-78553000D01*
X144188571Y-78195857D01*
X144117142Y-78053000D01*
X144045714Y-77981571D01*
X143902857Y-77910142D01*
X143760000Y-77910142D01*
X143617142Y-77981571D01*
X143545714Y-78053000D01*
X143474285Y-78195857D01*
X143402857Y-78481571D01*
X143331428Y-78624428D01*
X143260000Y-78695857D01*
X143117142Y-78767285D01*
X142974285Y-78767285D01*
X142831428Y-78695857D01*
X142760000Y-78624428D01*
X142688571Y-78481571D01*
X142688571Y-78124428D01*
X142760000Y-77910142D01*
X144045714Y-76410142D02*
X144117142Y-76481571D01*
X144188571Y-76695857D01*
X144188571Y-76838714D01*
X144117142Y-77053000D01*
X143974285Y-77195857D01*
X143831428Y-77267285D01*
X143545714Y-77338714D01*
X143331428Y-77338714D01*
X143045714Y-77267285D01*
X142902857Y-77195857D01*
X142760000Y-77053000D01*
X142688571Y-76838714D01*
X142688571Y-76695857D01*
X142760000Y-76481571D01*
X142831428Y-76410142D01*
X144188571Y-75053000D02*
X144188571Y-75767285D01*
X142688571Y-75767285D01*
X167048571Y-90809285D02*
X166334285Y-91309285D01*
X167048571Y-91666428D02*
X165548571Y-91666428D01*
X165548571Y-91095000D01*
X165620000Y-90952142D01*
X165691428Y-90880714D01*
X165834285Y-90809285D01*
X166048571Y-90809285D01*
X166191428Y-90880714D01*
X166262857Y-90952142D01*
X166334285Y-91095000D01*
X166334285Y-91666428D01*
X165548571Y-89452142D02*
X165548571Y-90166428D01*
X166262857Y-90237857D01*
X166191428Y-90166428D01*
X166120000Y-90023571D01*
X166120000Y-89666428D01*
X166191428Y-89523571D01*
X166262857Y-89452142D01*
X166405714Y-89380714D01*
X166762857Y-89380714D01*
X166905714Y-89452142D01*
X166977142Y-89523571D01*
X167048571Y-89666428D01*
X167048571Y-90023571D01*
X166977142Y-90166428D01*
X166905714Y-90237857D01*
X145260541Y-127059142D02*
X145189112Y-127202000D01*
X145189112Y-127416285D01*
X145260541Y-127630571D01*
X145403398Y-127773428D01*
X145546255Y-127844857D01*
X145831969Y-127916285D01*
X146046255Y-127916285D01*
X146331969Y-127844857D01*
X146474826Y-127773428D01*
X146617683Y-127630571D01*
X146689112Y-127416285D01*
X146689112Y-127273428D01*
X146617683Y-127059142D01*
X146546255Y-126987714D01*
X146046255Y-126987714D01*
X146046255Y-127273428D01*
X145331969Y-126416285D02*
X145260541Y-126344857D01*
X145189112Y-126202000D01*
X145189112Y-125844857D01*
X145260541Y-125702000D01*
X145331969Y-125630571D01*
X145474826Y-125559142D01*
X145617683Y-125559142D01*
X145831969Y-125630571D01*
X146689112Y-126487714D01*
X146689112Y-125559142D01*
X158000000Y-78037142D02*
X157928571Y-78180000D01*
X157928571Y-78394285D01*
X158000000Y-78608571D01*
X158142857Y-78751428D01*
X158285714Y-78822857D01*
X158571428Y-78894285D01*
X158785714Y-78894285D01*
X159071428Y-78822857D01*
X159214285Y-78751428D01*
X159357142Y-78608571D01*
X159428571Y-78394285D01*
X159428571Y-78251428D01*
X159357142Y-78037142D01*
X159285714Y-77965714D01*
X158785714Y-77965714D01*
X158785714Y-78251428D01*
X159428571Y-77322857D02*
X157928571Y-77322857D01*
X159428571Y-76465714D01*
X157928571Y-76465714D01*
X159428571Y-75751428D02*
X157928571Y-75751428D01*
X157928571Y-75394285D01*
X158000000Y-75180000D01*
X158142857Y-75037142D01*
X158285714Y-74965714D01*
X158571428Y-74894285D01*
X158785714Y-74894285D01*
X159071428Y-74965714D01*
X159214285Y-75037142D01*
X159357142Y-75180000D01*
X159428571Y-75394285D01*
X159428571Y-75751428D01*
X130663398Y-127344857D02*
X130734826Y-127130571D01*
X130806255Y-127059142D01*
X130949112Y-126987714D01*
X131163398Y-126987714D01*
X131306255Y-127059142D01*
X131377683Y-127130571D01*
X131449112Y-127273428D01*
X131449112Y-127844857D01*
X129949112Y-127844857D01*
X129949112Y-127344857D01*
X130020541Y-127202000D01*
X130091969Y-127130571D01*
X130234826Y-127059142D01*
X130377683Y-127059142D01*
X130520541Y-127130571D01*
X130591969Y-127202000D01*
X130663398Y-127344857D01*
X130663398Y-127844857D01*
X130091969Y-126416285D02*
X130020541Y-126344857D01*
X129949112Y-126202000D01*
X129949112Y-125844857D01*
X130020541Y-125702000D01*
X130091969Y-125630571D01*
X130234826Y-125559142D01*
X130377683Y-125559142D01*
X130591969Y-125630571D01*
X131449112Y-126487714D01*
X131449112Y-125559142D01*
X145300000Y-90880714D02*
X145228571Y-91023571D01*
X145228571Y-91237857D01*
X145300000Y-91452142D01*
X145442857Y-91595000D01*
X145585714Y-91666428D01*
X145871428Y-91737857D01*
X146085714Y-91737857D01*
X146371428Y-91666428D01*
X146514285Y-91595000D01*
X146657142Y-91452142D01*
X146728571Y-91237857D01*
X146728571Y-91095000D01*
X146657142Y-90880714D01*
X146585714Y-90809285D01*
X146085714Y-90809285D01*
X146085714Y-91095000D01*
X145371428Y-90237857D02*
X145300000Y-90166428D01*
X145228571Y-90023571D01*
X145228571Y-89666428D01*
X145300000Y-89523571D01*
X145371428Y-89452142D01*
X145514285Y-89380714D01*
X145657142Y-89380714D01*
X145871428Y-89452142D01*
X146728571Y-90309285D01*
X146728571Y-89380714D01*
X130702857Y-91166428D02*
X130774285Y-90952142D01*
X130845714Y-90880714D01*
X130988571Y-90809285D01*
X131202857Y-90809285D01*
X131345714Y-90880714D01*
X131417142Y-90952142D01*
X131488571Y-91095000D01*
X131488571Y-91666428D01*
X129988571Y-91666428D01*
X129988571Y-91166428D01*
X130060000Y-91023571D01*
X130131428Y-90952142D01*
X130274285Y-90880714D01*
X130417142Y-90880714D01*
X130560000Y-90952142D01*
X130631428Y-91023571D01*
X130702857Y-91166428D01*
X130702857Y-91666428D01*
X130131428Y-90237857D02*
X130060000Y-90166428D01*
X129988571Y-90023571D01*
X129988571Y-89666428D01*
X130060000Y-89523571D01*
X130131428Y-89452142D01*
X130274285Y-89380714D01*
X130417142Y-89380714D01*
X130631428Y-89452142D01*
X131488571Y-90309285D01*
X131488571Y-89380714D01*
X150340541Y-127059142D02*
X150269112Y-127202000D01*
X150269112Y-127416285D01*
X150340541Y-127630571D01*
X150483398Y-127773428D01*
X150626255Y-127844857D01*
X150911969Y-127916285D01*
X151126255Y-127916285D01*
X151411969Y-127844857D01*
X151554826Y-127773428D01*
X151697683Y-127630571D01*
X151769112Y-127416285D01*
X151769112Y-127273428D01*
X151697683Y-127059142D01*
X151626255Y-126987714D01*
X151126255Y-126987714D01*
X151126255Y-127273428D01*
X150269112Y-126487714D02*
X150269112Y-125559142D01*
X150840541Y-126059142D01*
X150840541Y-125844857D01*
X150911969Y-125702000D01*
X150983398Y-125630571D01*
X151126255Y-125559142D01*
X151483398Y-125559142D01*
X151626255Y-125630571D01*
X151697683Y-125702000D01*
X151769112Y-125844857D01*
X151769112Y-126273428D01*
X151697683Y-126416285D01*
X151626255Y-126487714D01*
X158642857Y-91166428D02*
X158714285Y-90952142D01*
X158785714Y-90880714D01*
X158928571Y-90809285D01*
X159142857Y-90809285D01*
X159285714Y-90880714D01*
X159357142Y-90952142D01*
X159428571Y-91095000D01*
X159428571Y-91666428D01*
X157928571Y-91666428D01*
X157928571Y-91166428D01*
X158000000Y-91023571D01*
X158071428Y-90952142D01*
X158214285Y-90880714D01*
X158357142Y-90880714D01*
X158500000Y-90952142D01*
X158571428Y-91023571D01*
X158642857Y-91166428D01*
X158642857Y-91666428D01*
X157928571Y-90309285D02*
X157928571Y-89380714D01*
X158500000Y-89880714D01*
X158500000Y-89666428D01*
X158571428Y-89523571D01*
X158642857Y-89452142D01*
X158785714Y-89380714D01*
X159142857Y-89380714D01*
X159285714Y-89452142D01*
X159357142Y-89523571D01*
X159428571Y-89666428D01*
X159428571Y-90095000D01*
X159357142Y-90237857D01*
X159285714Y-90309285D01*
X143617142Y-94595000D02*
X143617142Y-93452142D01*
X144188571Y-94023571D02*
X143045714Y-94023571D01*
X142688571Y-92880714D02*
X142688571Y-91952142D01*
X143260000Y-92452142D01*
X143260000Y-92237857D01*
X143331428Y-92095000D01*
X143402857Y-92023571D01*
X143545714Y-91952142D01*
X143902857Y-91952142D01*
X144045714Y-92023571D01*
X144117142Y-92095000D01*
X144188571Y-92237857D01*
X144188571Y-92666428D01*
X144117142Y-92809285D01*
X144045714Y-92880714D01*
X143188571Y-91452142D02*
X144188571Y-91095000D01*
X143188571Y-90737857D01*
X142688571Y-90309285D02*
X142688571Y-89380714D01*
X143260000Y-89880714D01*
X143260000Y-89666428D01*
X143331428Y-89523571D01*
X143402857Y-89452142D01*
X143545714Y-89380714D01*
X143902857Y-89380714D01*
X144045714Y-89452142D01*
X144117142Y-89523571D01*
X144188571Y-89666428D01*
X144188571Y-90095000D01*
X144117142Y-90237857D01*
X144045714Y-90309285D01*
X123488142Y-138283142D02*
X124631000Y-138283142D01*
X124059571Y-138854571D02*
X124059571Y-137711714D01*
X126059571Y-137354571D02*
X125345285Y-137354571D01*
X125273857Y-138068857D01*
X125345285Y-137997428D01*
X125488142Y-137926000D01*
X125845285Y-137926000D01*
X125988142Y-137997428D01*
X126059571Y-138068857D01*
X126131000Y-138211714D01*
X126131000Y-138568857D01*
X126059571Y-138711714D01*
X125988142Y-138783142D01*
X125845285Y-138854571D01*
X125488142Y-138854571D01*
X125345285Y-138783142D01*
X125273857Y-138711714D01*
X126631000Y-137854571D02*
X126988142Y-138854571D01*
X127345285Y-137854571D01*
X132600000Y-92523571D02*
X132528571Y-92666428D01*
X132528571Y-92880714D01*
X132600000Y-93095000D01*
X132742857Y-93237857D01*
X132885714Y-93309285D01*
X133171428Y-93380714D01*
X133385714Y-93380714D01*
X133671428Y-93309285D01*
X133814285Y-93237857D01*
X133957142Y-93095000D01*
X134028571Y-92880714D01*
X134028571Y-92737857D01*
X133957142Y-92523571D01*
X133885714Y-92452142D01*
X133385714Y-92452142D01*
X133385714Y-92737857D01*
X134028571Y-91809285D02*
X132528571Y-91809285D01*
X134028571Y-90952142D01*
X132528571Y-90952142D01*
X134028571Y-90237857D02*
X132528571Y-90237857D01*
X132528571Y-89880714D01*
X132600000Y-89666428D01*
X132742857Y-89523571D01*
X132885714Y-89452142D01*
X133171428Y-89380714D01*
X133385714Y-89380714D01*
X133671428Y-89452142D01*
X133814285Y-89523571D01*
X133957142Y-89666428D01*
X134028571Y-89880714D01*
X134028571Y-90237857D01*
X132600000Y-77910142D02*
X132528571Y-78053000D01*
X132528571Y-78267285D01*
X132600000Y-78481571D01*
X132742857Y-78624428D01*
X132885714Y-78695857D01*
X133171428Y-78767285D01*
X133385714Y-78767285D01*
X133671428Y-78695857D01*
X133814285Y-78624428D01*
X133957142Y-78481571D01*
X134028571Y-78267285D01*
X134028571Y-78124428D01*
X133957142Y-77910142D01*
X133885714Y-77838714D01*
X133385714Y-77838714D01*
X133385714Y-78124428D01*
X132528571Y-77338714D02*
X132528571Y-76338714D01*
X134028571Y-76981571D01*
X163080000Y-78037142D02*
X163008571Y-78180000D01*
X163008571Y-78394285D01*
X163080000Y-78608571D01*
X163222857Y-78751428D01*
X163365714Y-78822857D01*
X163651428Y-78894285D01*
X163865714Y-78894285D01*
X164151428Y-78822857D01*
X164294285Y-78751428D01*
X164437142Y-78608571D01*
X164508571Y-78394285D01*
X164508571Y-78251428D01*
X164437142Y-78037142D01*
X164365714Y-77965714D01*
X163865714Y-77965714D01*
X163865714Y-78251428D01*
X164508571Y-77322857D02*
X163008571Y-77322857D01*
X164508571Y-76465714D01*
X163008571Y-76465714D01*
X164508571Y-75751428D02*
X163008571Y-75751428D01*
X163008571Y-75394285D01*
X163080000Y-75180000D01*
X163222857Y-75037142D01*
X163365714Y-74965714D01*
X163651428Y-74894285D01*
X163865714Y-74894285D01*
X164151428Y-74965714D01*
X164294285Y-75037142D01*
X164437142Y-75180000D01*
X164508571Y-75394285D01*
X164508571Y-75751428D01*
X143577683Y-127844857D02*
X143577683Y-126702000D01*
X144149112Y-127273428D02*
X143006255Y-127273428D01*
X142649112Y-126130571D02*
X142649112Y-125202000D01*
X143220541Y-125702000D01*
X143220541Y-125487714D01*
X143291969Y-125344857D01*
X143363398Y-125273428D01*
X143506255Y-125202000D01*
X143863398Y-125202000D01*
X144006255Y-125273428D01*
X144077683Y-125344857D01*
X144149112Y-125487714D01*
X144149112Y-125916285D01*
X144077683Y-126059142D01*
X144006255Y-126130571D01*
X143149112Y-124702000D02*
X144149112Y-124344857D01*
X143149112Y-123987714D01*
X142649112Y-123559142D02*
X142649112Y-122630571D01*
X143220541Y-123130571D01*
X143220541Y-122916285D01*
X143291969Y-122773428D01*
X143363398Y-122702000D01*
X143506255Y-122630571D01*
X143863398Y-122630571D01*
X144006255Y-122702000D01*
X144077683Y-122773428D01*
X144149112Y-122916285D01*
X144149112Y-123344857D01*
X144077683Y-123487714D01*
X144006255Y-123559142D01*
X174819857Y-140220000D02*
X174677000Y-140148571D01*
X174462714Y-140148571D01*
X174248428Y-140220000D01*
X174105571Y-140362857D01*
X174034142Y-140505714D01*
X173962714Y-140791428D01*
X173962714Y-141005714D01*
X174034142Y-141291428D01*
X174105571Y-141434285D01*
X174248428Y-141577142D01*
X174462714Y-141648571D01*
X174605571Y-141648571D01*
X174819857Y-141577142D01*
X174891285Y-141505714D01*
X174891285Y-141005714D01*
X174605571Y-141005714D01*
X175534142Y-141648571D02*
X175534142Y-140148571D01*
X176105571Y-140148571D01*
X176248428Y-140220000D01*
X176319857Y-140291428D01*
X176391285Y-140434285D01*
X176391285Y-140648571D01*
X176319857Y-140791428D01*
X176248428Y-140862857D01*
X176105571Y-140934285D01*
X175534142Y-140934285D01*
X177034142Y-141648571D02*
X177034142Y-140148571D01*
X178034142Y-140148571D02*
X178319857Y-140148571D01*
X178462714Y-140220000D01*
X178605571Y-140362857D01*
X178677000Y-140648571D01*
X178677000Y-141148571D01*
X178605571Y-141434285D01*
X178462714Y-141577142D01*
X178319857Y-141648571D01*
X178034142Y-141648571D01*
X177891285Y-141577142D01*
X177748428Y-141434285D01*
X177677000Y-141148571D01*
X177677000Y-140648571D01*
X177748428Y-140362857D01*
X177891285Y-140220000D01*
X178034142Y-140148571D01*
X179248428Y-140291428D02*
X179319857Y-140220000D01*
X179462714Y-140148571D01*
X179819857Y-140148571D01*
X179962714Y-140220000D01*
X180034142Y-140291428D01*
X180105571Y-140434285D01*
X180105571Y-140577142D01*
X180034142Y-140791428D01*
X179177000Y-141648571D01*
X180105571Y-141648571D01*
X181462714Y-140148571D02*
X180748428Y-140148571D01*
X180677000Y-140862857D01*
X180748428Y-140791428D01*
X180891285Y-140720000D01*
X181248428Y-140720000D01*
X181391285Y-140791428D01*
X181462714Y-140862857D01*
X181534142Y-141005714D01*
X181534142Y-141362857D01*
X181462714Y-141505714D01*
X181391285Y-141577142D01*
X181248428Y-141648571D01*
X180891285Y-141648571D01*
X180748428Y-141577142D01*
X180677000Y-141505714D01*
X128909112Y-127844857D02*
X127409112Y-127844857D01*
X128123398Y-127844857D02*
X128123398Y-126987714D01*
X128909112Y-126987714D02*
X127409112Y-126987714D01*
X128837683Y-126344857D02*
X128909112Y-126130571D01*
X128909112Y-125773428D01*
X128837683Y-125630571D01*
X128766255Y-125559142D01*
X128623398Y-125487714D01*
X128480541Y-125487714D01*
X128337683Y-125559142D01*
X128266255Y-125630571D01*
X128194826Y-125773428D01*
X128123398Y-126059142D01*
X128051969Y-126202000D01*
X127980541Y-126273428D01*
X127837683Y-126344857D01*
X127694826Y-126344857D01*
X127551969Y-126273428D01*
X127480541Y-126202000D01*
X127409112Y-126059142D01*
X127409112Y-125702000D01*
X127480541Y-125487714D01*
X128194826Y-124559142D02*
X128909112Y-124559142D01*
X127409112Y-125059142D02*
X128194826Y-124559142D01*
X127409112Y-124059142D01*
X128909112Y-123559142D02*
X127409112Y-123559142D01*
X128909112Y-122702000D01*
X127409112Y-122702000D01*
X128766255Y-121130571D02*
X128837683Y-121202000D01*
X128909112Y-121416285D01*
X128909112Y-121559142D01*
X128837683Y-121773428D01*
X128694826Y-121916285D01*
X128551969Y-121987714D01*
X128266255Y-122059142D01*
X128051969Y-122059142D01*
X127766255Y-121987714D01*
X127623398Y-121916285D01*
X127480541Y-121773428D01*
X127409112Y-121559142D01*
X127409112Y-121416285D01*
X127480541Y-121202000D01*
X127551969Y-121130571D01*
X170700000Y-92523571D02*
X170628571Y-92666428D01*
X170628571Y-92880714D01*
X170700000Y-93095000D01*
X170842857Y-93237857D01*
X170985714Y-93309285D01*
X171271428Y-93380714D01*
X171485714Y-93380714D01*
X171771428Y-93309285D01*
X171914285Y-93237857D01*
X172057142Y-93095000D01*
X172128571Y-92880714D01*
X172128571Y-92737857D01*
X172057142Y-92523571D01*
X171985714Y-92452142D01*
X171485714Y-92452142D01*
X171485714Y-92737857D01*
X172128571Y-91809285D02*
X170628571Y-91809285D01*
X172128571Y-90952142D01*
X170628571Y-90952142D01*
X172128571Y-90237857D02*
X170628571Y-90237857D01*
X170628571Y-89880714D01*
X170700000Y-89666428D01*
X170842857Y-89523571D01*
X170985714Y-89452142D01*
X171271428Y-89380714D01*
X171485714Y-89380714D01*
X171771428Y-89452142D01*
X171914285Y-89523571D01*
X172057142Y-89666428D01*
X172128571Y-89880714D01*
X172128571Y-90237857D01*
X132560541Y-127059142D02*
X132489112Y-127202000D01*
X132489112Y-127416285D01*
X132560541Y-127630571D01*
X132703398Y-127773428D01*
X132846255Y-127844857D01*
X133131969Y-127916285D01*
X133346255Y-127916285D01*
X133631969Y-127844857D01*
X133774826Y-127773428D01*
X133917683Y-127630571D01*
X133989112Y-127416285D01*
X133989112Y-127273428D01*
X133917683Y-127059142D01*
X133846255Y-126987714D01*
X133346255Y-126987714D01*
X133346255Y-127273428D01*
X133989112Y-126344857D02*
X132489112Y-126344857D01*
X133989112Y-125487714D01*
X132489112Y-125487714D01*
X133989112Y-124773428D02*
X132489112Y-124773428D01*
X132489112Y-124416285D01*
X132560541Y-124202000D01*
X132703398Y-124059142D01*
X132846255Y-123987714D01*
X133131969Y-123916285D01*
X133346255Y-123916285D01*
X133631969Y-123987714D01*
X133774826Y-124059142D01*
X133917683Y-124202000D01*
X133989112Y-124416285D01*
X133989112Y-124773428D01*
X151022857Y-78195857D02*
X151094285Y-77981571D01*
X151165714Y-77910142D01*
X151308571Y-77838714D01*
X151522857Y-77838714D01*
X151665714Y-77910142D01*
X151737142Y-77981571D01*
X151808571Y-78124428D01*
X151808571Y-78695857D01*
X150308571Y-78695857D01*
X150308571Y-78195857D01*
X150380000Y-78053000D01*
X150451428Y-77981571D01*
X150594285Y-77910142D01*
X150737142Y-77910142D01*
X150880000Y-77981571D01*
X150951428Y-78053000D01*
X151022857Y-78195857D01*
X151022857Y-78695857D01*
X150308571Y-76553000D02*
X150308571Y-76838714D01*
X150380000Y-76981571D01*
X150451428Y-77053000D01*
X150665714Y-77195857D01*
X150951428Y-77267285D01*
X151522857Y-77267285D01*
X151665714Y-77195857D01*
X151737142Y-77124428D01*
X151808571Y-76981571D01*
X151808571Y-76695857D01*
X151737142Y-76553000D01*
X151665714Y-76481571D01*
X151522857Y-76410142D01*
X151165714Y-76410142D01*
X151022857Y-76481571D01*
X150951428Y-76553000D01*
X150880000Y-76695857D01*
X150880000Y-76981571D01*
X150951428Y-77124428D01*
X151022857Y-77195857D01*
X151165714Y-77267285D01*
X123297142Y-94595000D02*
X123297142Y-93452142D01*
X123868571Y-94023571D02*
X122725714Y-94023571D01*
X122368571Y-92880714D02*
X122368571Y-91952142D01*
X122940000Y-92452142D01*
X122940000Y-92237857D01*
X123011428Y-92095000D01*
X123082857Y-92023571D01*
X123225714Y-91952142D01*
X123582857Y-91952142D01*
X123725714Y-92023571D01*
X123797142Y-92095000D01*
X123868571Y-92237857D01*
X123868571Y-92666428D01*
X123797142Y-92809285D01*
X123725714Y-92880714D01*
X122868571Y-91452142D02*
X123868571Y-91095000D01*
X122868571Y-90737857D01*
X122368571Y-90309285D02*
X122368571Y-89380714D01*
X122940000Y-89880714D01*
X122940000Y-89666428D01*
X123011428Y-89523571D01*
X123082857Y-89452142D01*
X123225714Y-89380714D01*
X123582857Y-89380714D01*
X123725714Y-89452142D01*
X123797142Y-89523571D01*
X123868571Y-89666428D01*
X123868571Y-90095000D01*
X123797142Y-90237857D01*
X123725714Y-90309285D01*
X137640541Y-127059142D02*
X137569112Y-127202000D01*
X137569112Y-127416285D01*
X137640541Y-127630571D01*
X137783398Y-127773428D01*
X137926255Y-127844857D01*
X138211969Y-127916285D01*
X138426255Y-127916285D01*
X138711969Y-127844857D01*
X138854826Y-127773428D01*
X138997683Y-127630571D01*
X139069112Y-127416285D01*
X139069112Y-127273428D01*
X138997683Y-127059142D01*
X138926255Y-126987714D01*
X138426255Y-126987714D01*
X138426255Y-127273428D01*
X139069112Y-126344857D02*
X137569112Y-126344857D01*
X137569112Y-125773428D01*
X137640541Y-125630571D01*
X137711969Y-125559142D01*
X137854826Y-125487714D01*
X138069112Y-125487714D01*
X138211969Y-125559142D01*
X138283398Y-125630571D01*
X138354826Y-125773428D01*
X138354826Y-126344857D01*
X139069112Y-124844857D02*
X137569112Y-124844857D01*
X137569112Y-123844857D02*
X137569112Y-123559142D01*
X137640541Y-123416285D01*
X137783398Y-123273428D01*
X138069112Y-123202000D01*
X138569112Y-123202000D01*
X138854826Y-123273428D01*
X138997683Y-123416285D01*
X139069112Y-123559142D01*
X139069112Y-123844857D01*
X138997683Y-123987714D01*
X138854826Y-124130571D01*
X138569112Y-124202000D01*
X138069112Y-124202000D01*
X137783398Y-124130571D01*
X137640541Y-123987714D01*
X137569112Y-123844857D01*
X137711969Y-122630571D02*
X137640541Y-122559142D01*
X137569112Y-122416285D01*
X137569112Y-122059142D01*
X137640541Y-121916285D01*
X137711969Y-121844857D01*
X137854826Y-121773428D01*
X137997683Y-121773428D01*
X138211969Y-121844857D01*
X139069112Y-122702000D01*
X139069112Y-121773428D01*
X137569112Y-121273428D02*
X137569112Y-120273428D01*
X139069112Y-120916285D01*
X123257683Y-127844857D02*
X123257683Y-126702000D01*
X123829112Y-127273428D02*
X122686255Y-127273428D01*
X122329112Y-126130571D02*
X122329112Y-125202000D01*
X122900541Y-125702000D01*
X122900541Y-125487714D01*
X122971969Y-125344857D01*
X123043398Y-125273428D01*
X123186255Y-125202000D01*
X123543398Y-125202000D01*
X123686255Y-125273428D01*
X123757683Y-125344857D01*
X123829112Y-125487714D01*
X123829112Y-125916285D01*
X123757683Y-126059142D01*
X123686255Y-126130571D01*
X122829112Y-124702000D02*
X123829112Y-124344857D01*
X122829112Y-123987714D01*
X122329112Y-123559142D02*
X122329112Y-122630571D01*
X122900541Y-123130571D01*
X122900541Y-122916285D01*
X122971969Y-122773428D01*
X123043398Y-122702000D01*
X123186255Y-122630571D01*
X123543398Y-122630571D01*
X123686255Y-122702000D01*
X123757683Y-122773428D01*
X123829112Y-122916285D01*
X123829112Y-123344857D01*
X123757683Y-123487714D01*
X123686255Y-123559142D01*
X152880541Y-127059142D02*
X152809112Y-127202000D01*
X152809112Y-127416285D01*
X152880541Y-127630571D01*
X153023398Y-127773428D01*
X153166255Y-127844857D01*
X153451969Y-127916285D01*
X153666255Y-127916285D01*
X153951969Y-127844857D01*
X154094826Y-127773428D01*
X154237683Y-127630571D01*
X154309112Y-127416285D01*
X154309112Y-127273428D01*
X154237683Y-127059142D01*
X154166255Y-126987714D01*
X153666255Y-126987714D01*
X153666255Y-127273428D01*
X154309112Y-126344857D02*
X152809112Y-126344857D01*
X154309112Y-125487714D01*
X152809112Y-125487714D01*
X154309112Y-124773428D02*
X152809112Y-124773428D01*
X152809112Y-124416285D01*
X152880541Y-124202000D01*
X153023398Y-124059142D01*
X153166255Y-123987714D01*
X153451969Y-123916285D01*
X153666255Y-123916285D01*
X153951969Y-123987714D01*
X154094826Y-124059142D01*
X154237683Y-124202000D01*
X154309112Y-124416285D01*
X154309112Y-124773428D01*
X123297142Y-78695857D02*
X123297142Y-77553000D01*
X123868571Y-78124428D02*
X122725714Y-78124428D01*
X122368571Y-76124428D02*
X122368571Y-76838714D01*
X123082857Y-76910142D01*
X123011428Y-76838714D01*
X122940000Y-76695857D01*
X122940000Y-76338714D01*
X123011428Y-76195857D01*
X123082857Y-76124428D01*
X123225714Y-76053000D01*
X123582857Y-76053000D01*
X123725714Y-76124428D01*
X123797142Y-76195857D01*
X123868571Y-76338714D01*
X123868571Y-76695857D01*
X123797142Y-76838714D01*
X123725714Y-76910142D01*
X122868571Y-75553000D02*
X123868571Y-75195857D01*
X122868571Y-74838714D01*
X125837142Y-78695857D02*
X125837142Y-77553000D01*
X126408571Y-78124428D02*
X125265714Y-78124428D01*
X124908571Y-76124428D02*
X124908571Y-76838714D01*
X125622857Y-76910142D01*
X125551428Y-76838714D01*
X125480000Y-76695857D01*
X125480000Y-76338714D01*
X125551428Y-76195857D01*
X125622857Y-76124428D01*
X125765714Y-76053000D01*
X126122857Y-76053000D01*
X126265714Y-76124428D01*
X126337142Y-76195857D01*
X126408571Y-76338714D01*
X126408571Y-76695857D01*
X126337142Y-76838714D01*
X126265714Y-76910142D01*
X125408571Y-75553000D02*
X126408571Y-75195857D01*
X125408571Y-74838714D01*
X163040541Y-127059142D02*
X162969112Y-127202000D01*
X162969112Y-127416285D01*
X163040541Y-127630571D01*
X163183398Y-127773428D01*
X163326255Y-127844857D01*
X163611969Y-127916285D01*
X163826255Y-127916285D01*
X164111969Y-127844857D01*
X164254826Y-127773428D01*
X164397683Y-127630571D01*
X164469112Y-127416285D01*
X164469112Y-127273428D01*
X164397683Y-127059142D01*
X164326255Y-126987714D01*
X163826255Y-126987714D01*
X163826255Y-127273428D01*
X162969112Y-125630571D02*
X162969112Y-126344857D01*
X163683398Y-126416285D01*
X163611969Y-126344857D01*
X163540541Y-126202000D01*
X163540541Y-125844857D01*
X163611969Y-125702000D01*
X163683398Y-125630571D01*
X163826255Y-125559142D01*
X164183398Y-125559142D01*
X164326255Y-125630571D01*
X164397683Y-125702000D01*
X164469112Y-125844857D01*
X164469112Y-126202000D01*
X164397683Y-126344857D01*
X164326255Y-126416285D01*
X167048571Y-77965714D02*
X166334285Y-78465714D01*
X167048571Y-78822857D02*
X165548571Y-78822857D01*
X165548571Y-78251428D01*
X165620000Y-78108571D01*
X165691428Y-78037142D01*
X165834285Y-77965714D01*
X166048571Y-77965714D01*
X166191428Y-78037142D01*
X166262857Y-78108571D01*
X166334285Y-78251428D01*
X166334285Y-78822857D01*
X165691428Y-77394285D02*
X165620000Y-77322857D01*
X165548571Y-77180000D01*
X165548571Y-76822857D01*
X165620000Y-76680000D01*
X165691428Y-76608571D01*
X165834285Y-76537142D01*
X165977142Y-76537142D01*
X166191428Y-76608571D01*
X167048571Y-77465714D01*
X167048571Y-76537142D01*
X145300000Y-77910142D02*
X145228571Y-78053000D01*
X145228571Y-78267285D01*
X145300000Y-78481571D01*
X145442857Y-78624428D01*
X145585714Y-78695857D01*
X145871428Y-78767285D01*
X146085714Y-78767285D01*
X146371428Y-78695857D01*
X146514285Y-78624428D01*
X146657142Y-78481571D01*
X146728571Y-78267285D01*
X146728571Y-78124428D01*
X146657142Y-77910142D01*
X146585714Y-77838714D01*
X146085714Y-77838714D01*
X146085714Y-78124428D01*
X146728571Y-77195857D02*
X145228571Y-77195857D01*
X146728571Y-76338714D01*
X145228571Y-76338714D01*
X146728571Y-75624428D02*
X145228571Y-75624428D01*
X145228571Y-75267285D01*
X145300000Y-75053000D01*
X145442857Y-74910142D01*
X145585714Y-74838714D01*
X145871428Y-74767285D01*
X146085714Y-74767285D01*
X146371428Y-74838714D01*
X146514285Y-74910142D01*
X146657142Y-75053000D01*
X146728571Y-75267285D01*
X146728571Y-75624428D01*
X167009112Y-126987714D02*
X166294826Y-127487714D01*
X167009112Y-127844857D02*
X165509112Y-127844857D01*
X165509112Y-127273428D01*
X165580541Y-127130571D01*
X165651969Y-127059142D01*
X165794826Y-126987714D01*
X166009112Y-126987714D01*
X166151969Y-127059142D01*
X166223398Y-127130571D01*
X166294826Y-127273428D01*
X166294826Y-127844857D01*
X165509112Y-125630571D02*
X165509112Y-126344857D01*
X166223398Y-126416285D01*
X166151969Y-126344857D01*
X166080541Y-126202000D01*
X166080541Y-125844857D01*
X166151969Y-125702000D01*
X166223398Y-125630571D01*
X166366255Y-125559142D01*
X166723398Y-125559142D01*
X166866255Y-125630571D01*
X166937683Y-125702000D01*
X167009112Y-125844857D01*
X167009112Y-126202000D01*
X166937683Y-126344857D01*
X166866255Y-126416285D01*
X128948571Y-96095000D02*
X127448571Y-96095000D01*
X128162857Y-96095000D02*
X128162857Y-95237857D01*
X128948571Y-95237857D02*
X127448571Y-95237857D01*
X128877142Y-94595000D02*
X128948571Y-94380714D01*
X128948571Y-94023571D01*
X128877142Y-93880714D01*
X128805714Y-93809285D01*
X128662857Y-93737857D01*
X128520000Y-93737857D01*
X128377142Y-93809285D01*
X128305714Y-93880714D01*
X128234285Y-94023571D01*
X128162857Y-94309285D01*
X128091428Y-94452142D01*
X128020000Y-94523571D01*
X127877142Y-94595000D01*
X127734285Y-94595000D01*
X127591428Y-94523571D01*
X127520000Y-94452142D01*
X127448571Y-94309285D01*
X127448571Y-93952142D01*
X127520000Y-93737857D01*
X128234285Y-92809285D02*
X128948571Y-92809285D01*
X127448571Y-93309285D02*
X128234285Y-92809285D01*
X127448571Y-92309285D01*
X128948571Y-91809285D02*
X127448571Y-91809285D01*
X128948571Y-90952142D01*
X127448571Y-90952142D01*
X128805714Y-89380714D02*
X128877142Y-89452142D01*
X128948571Y-89666428D01*
X128948571Y-89809285D01*
X128877142Y-90023571D01*
X128734285Y-90166428D01*
X128591428Y-90237857D01*
X128305714Y-90309285D01*
X128091428Y-90309285D01*
X127805714Y-90237857D01*
X127662857Y-90166428D01*
X127520000Y-90023571D01*
X127448571Y-89809285D01*
X127448571Y-89666428D01*
X127520000Y-89452142D01*
X127591428Y-89380714D01*
X127520000Y-77910142D02*
X127448571Y-78053000D01*
X127448571Y-78267285D01*
X127520000Y-78481571D01*
X127662857Y-78624428D01*
X127805714Y-78695857D01*
X128091428Y-78767285D01*
X128305714Y-78767285D01*
X128591428Y-78695857D01*
X128734285Y-78624428D01*
X128877142Y-78481571D01*
X128948571Y-78267285D01*
X128948571Y-78124428D01*
X128877142Y-77910142D01*
X128805714Y-77838714D01*
X128305714Y-77838714D01*
X128305714Y-78124428D01*
X128948571Y-77195857D02*
X127448571Y-77195857D01*
X128948571Y-76338714D01*
X127448571Y-76338714D01*
X128948571Y-75624428D02*
X127448571Y-75624428D01*
X127448571Y-75267285D01*
X127520000Y-75053000D01*
X127662857Y-74910142D01*
X127805714Y-74838714D01*
X128091428Y-74767285D01*
X128305714Y-74767285D01*
X128591428Y-74838714D01*
X128734285Y-74910142D01*
X128877142Y-75053000D01*
X128948571Y-75267285D01*
X128948571Y-75624428D01*
X142974714Y-138770355D02*
X143189000Y-138841784D01*
X143546142Y-138841784D01*
X143689000Y-138770355D01*
X143760428Y-138698927D01*
X143831857Y-138556070D01*
X143831857Y-138413213D01*
X143760428Y-138270355D01*
X143689000Y-138198927D01*
X143546142Y-138127498D01*
X143260428Y-138056070D01*
X143117571Y-137984641D01*
X143046142Y-137913213D01*
X142974714Y-137770355D01*
X142974714Y-137627498D01*
X143046142Y-137484641D01*
X143117571Y-137413213D01*
X143260428Y-137341784D01*
X143617571Y-137341784D01*
X143831857Y-137413213D01*
X144474714Y-138841784D02*
X144474714Y-137341784D01*
X144831857Y-137341784D01*
X145046142Y-137413213D01*
X145189000Y-137556070D01*
X145260428Y-137698927D01*
X145331857Y-137984641D01*
X145331857Y-138198927D01*
X145260428Y-138484641D01*
X145189000Y-138627498D01*
X145046142Y-138770355D01*
X144831857Y-138841784D01*
X144474714Y-138841784D01*
X145903285Y-138413213D02*
X146617571Y-138413213D01*
X145760428Y-138841784D02*
X146260428Y-137341784D01*
X146760428Y-138841784D01*
X158603398Y-127344857D02*
X158674826Y-127130571D01*
X158746255Y-127059142D01*
X158889112Y-126987714D01*
X159103398Y-126987714D01*
X159246255Y-127059142D01*
X159317683Y-127130571D01*
X159389112Y-127273428D01*
X159389112Y-127844857D01*
X157889112Y-127844857D01*
X157889112Y-127344857D01*
X157960541Y-127202000D01*
X158031969Y-127130571D01*
X158174826Y-127059142D01*
X158317683Y-127059142D01*
X158460541Y-127130571D01*
X158531969Y-127202000D01*
X158603398Y-127344857D01*
X158603398Y-127844857D01*
X157889112Y-126487714D02*
X157889112Y-125559142D01*
X158460541Y-126059142D01*
X158460541Y-125844857D01*
X158531969Y-125702000D01*
X158603398Y-125630571D01*
X158746255Y-125559142D01*
X159103398Y-125559142D01*
X159246255Y-125630571D01*
X159317683Y-125702000D01*
X159389112Y-125844857D01*
X159389112Y-126273428D01*
X159317683Y-126416285D01*
X159246255Y-126487714D01*
X141577142Y-78767285D02*
X141648571Y-78553000D01*
X141648571Y-78195857D01*
X141577142Y-78053000D01*
X141505714Y-77981571D01*
X141362857Y-77910142D01*
X141220000Y-77910142D01*
X141077142Y-77981571D01*
X141005714Y-78053000D01*
X140934285Y-78195857D01*
X140862857Y-78481571D01*
X140791428Y-78624428D01*
X140720000Y-78695857D01*
X140577142Y-78767285D01*
X140434285Y-78767285D01*
X140291428Y-78695857D01*
X140220000Y-78624428D01*
X140148571Y-78481571D01*
X140148571Y-78124428D01*
X140220000Y-77910142D01*
X141648571Y-77267285D02*
X140148571Y-77267285D01*
X140148571Y-76910142D01*
X140220000Y-76695857D01*
X140362857Y-76553000D01*
X140505714Y-76481571D01*
X140791428Y-76410142D01*
X141005714Y-76410142D01*
X141291428Y-76481571D01*
X141434285Y-76553000D01*
X141577142Y-76695857D01*
X141648571Y-76910142D01*
X141648571Y-77267285D01*
X141220000Y-75838714D02*
X141220000Y-75124428D01*
X141648571Y-75981571D02*
X140148571Y-75481571D01*
X141648571Y-74981571D01*
X156849112Y-127844857D02*
X155349112Y-127844857D01*
X155349112Y-127273428D01*
X155420541Y-127130571D01*
X155491969Y-127059142D01*
X155634826Y-126987714D01*
X155849112Y-126987714D01*
X155991969Y-127059142D01*
X156063398Y-127130571D01*
X156134826Y-127273428D01*
X156134826Y-127844857D01*
X156706255Y-125487714D02*
X156777683Y-125559142D01*
X156849112Y-125773428D01*
X156849112Y-125916285D01*
X156777683Y-126130571D01*
X156634826Y-126273428D01*
X156491969Y-126344857D01*
X156206255Y-126416285D01*
X155991969Y-126416285D01*
X155706255Y-126344857D01*
X155563398Y-126273428D01*
X155420541Y-126130571D01*
X155349112Y-125916285D01*
X155349112Y-125773428D01*
X155420541Y-125559142D01*
X155491969Y-125487714D01*
X156849112Y-124130571D02*
X156849112Y-124844857D01*
X155349112Y-124844857D01*
X156849112Y-123630571D02*
X155349112Y-123630571D01*
X156849112Y-122773428D02*
X155991969Y-123416285D01*
X155349112Y-122773428D02*
X156206255Y-123630571D01*
X160087857Y-137426000D02*
X159945000Y-137354571D01*
X159730714Y-137354571D01*
X159516428Y-137426000D01*
X159373571Y-137568857D01*
X159302142Y-137711714D01*
X159230714Y-137997428D01*
X159230714Y-138211714D01*
X159302142Y-138497428D01*
X159373571Y-138640285D01*
X159516428Y-138783142D01*
X159730714Y-138854571D01*
X159873571Y-138854571D01*
X160087857Y-138783142D01*
X160159285Y-138711714D01*
X160159285Y-138211714D01*
X159873571Y-138211714D01*
X160802142Y-138854571D02*
X160802142Y-137354571D01*
X161373571Y-137354571D01*
X161516428Y-137426000D01*
X161587857Y-137497428D01*
X161659285Y-137640285D01*
X161659285Y-137854571D01*
X161587857Y-137997428D01*
X161516428Y-138068857D01*
X161373571Y-138140285D01*
X160802142Y-138140285D01*
X162302142Y-138854571D02*
X162302142Y-137354571D01*
X163302142Y-137354571D02*
X163587857Y-137354571D01*
X163730714Y-137426000D01*
X163873571Y-137568857D01*
X163945000Y-137854571D01*
X163945000Y-138354571D01*
X163873571Y-138640285D01*
X163730714Y-138783142D01*
X163587857Y-138854571D01*
X163302142Y-138854571D01*
X163159285Y-138783142D01*
X163016428Y-138640285D01*
X162945000Y-138354571D01*
X162945000Y-137854571D01*
X163016428Y-137568857D01*
X163159285Y-137426000D01*
X163302142Y-137354571D01*
X164516428Y-137497428D02*
X164587857Y-137426000D01*
X164730714Y-137354571D01*
X165087857Y-137354571D01*
X165230714Y-137426000D01*
X165302142Y-137497428D01*
X165373571Y-137640285D01*
X165373571Y-137783142D01*
X165302142Y-137997428D01*
X164445000Y-138854571D01*
X165373571Y-138854571D01*
X165873571Y-137354571D02*
X166873571Y-137354571D01*
X166230714Y-138854571D01*
X124869112Y-128059142D02*
X126369112Y-127559142D01*
X124869112Y-127059142D01*
X126297683Y-126630571D02*
X126369112Y-126416285D01*
X126369112Y-126059142D01*
X126297683Y-125916285D01*
X126226255Y-125844857D01*
X126083398Y-125773428D01*
X125940541Y-125773428D01*
X125797683Y-125844857D01*
X125726255Y-125916285D01*
X125654826Y-126059142D01*
X125583398Y-126344857D01*
X125511969Y-126487714D01*
X125440541Y-126559142D01*
X125297683Y-126630571D01*
X125154826Y-126630571D01*
X125011969Y-126559142D01*
X124940541Y-126487714D01*
X124869112Y-126344857D01*
X124869112Y-125987714D01*
X124940541Y-125773428D01*
X125654826Y-124844857D02*
X126369112Y-124844857D01*
X124869112Y-125344857D02*
X125654826Y-124844857D01*
X124869112Y-124344857D01*
X126369112Y-123844857D02*
X124869112Y-123844857D01*
X126369112Y-122987714D01*
X124869112Y-122987714D01*
X126226255Y-121416285D02*
X126297683Y-121487714D01*
X126369112Y-121702000D01*
X126369112Y-121844857D01*
X126297683Y-122059142D01*
X126154826Y-122202000D01*
X126011969Y-122273428D01*
X125726255Y-122344857D01*
X125511969Y-122344857D01*
X125226255Y-122273428D01*
X125083398Y-122202000D01*
X124940541Y-122059142D01*
X124869112Y-121844857D01*
X124869112Y-121702000D01*
X124940541Y-121487714D01*
X125011969Y-121416285D01*
X136568571Y-90809285D02*
X135854285Y-91309285D01*
X136568571Y-91666428D02*
X135068571Y-91666428D01*
X135068571Y-91095000D01*
X135140000Y-90952142D01*
X135211428Y-90880714D01*
X135354285Y-90809285D01*
X135568571Y-90809285D01*
X135711428Y-90880714D01*
X135782857Y-90952142D01*
X135854285Y-91095000D01*
X135854285Y-91666428D01*
X135068571Y-90309285D02*
X135068571Y-89380714D01*
X135640000Y-89880714D01*
X135640000Y-89666428D01*
X135711428Y-89523571D01*
X135782857Y-89452142D01*
X135925714Y-89380714D01*
X136282857Y-89380714D01*
X136425714Y-89452142D01*
X136497142Y-89523571D01*
X136568571Y-89666428D01*
X136568571Y-90095000D01*
X136497142Y-90237857D01*
X136425714Y-90309285D01*
D11*
X106607333Y-114943142D02*
X106559714Y-114990761D01*
X106416857Y-115038380D01*
X106321619Y-115038380D01*
X106178761Y-114990761D01*
X106083523Y-114895523D01*
X106035904Y-114800285D01*
X105988285Y-114609809D01*
X105988285Y-114466952D01*
X106035904Y-114276476D01*
X106083523Y-114181238D01*
X106178761Y-114086000D01*
X106321619Y-114038380D01*
X106416857Y-114038380D01*
X106559714Y-114086000D01*
X106607333Y-114133619D01*
X107178761Y-114466952D02*
X107083523Y-114419333D01*
X107035904Y-114371714D01*
X106988285Y-114276476D01*
X106988285Y-114228857D01*
X107035904Y-114133619D01*
X107083523Y-114086000D01*
X107178761Y-114038380D01*
X107369238Y-114038380D01*
X107464476Y-114086000D01*
X107512095Y-114133619D01*
X107559714Y-114228857D01*
X107559714Y-114276476D01*
X107512095Y-114371714D01*
X107464476Y-114419333D01*
X107369238Y-114466952D01*
X107178761Y-114466952D01*
X107083523Y-114514571D01*
X107035904Y-114562190D01*
X106988285Y-114657428D01*
X106988285Y-114847904D01*
X107035904Y-114943142D01*
X107083523Y-114990761D01*
X107178761Y-115038380D01*
X107369238Y-115038380D01*
X107464476Y-114990761D01*
X107512095Y-114943142D01*
X107559714Y-114847904D01*
X107559714Y-114657428D01*
X107512095Y-114562190D01*
X107464476Y-114514571D01*
X107369238Y-114466952D01*
X110323333Y-81256142D02*
X110275714Y-81303761D01*
X110132857Y-81351380D01*
X110037619Y-81351380D01*
X109894761Y-81303761D01*
X109799523Y-81208523D01*
X109751904Y-81113285D01*
X109704285Y-80922809D01*
X109704285Y-80779952D01*
X109751904Y-80589476D01*
X109799523Y-80494238D01*
X109894761Y-80399000D01*
X110037619Y-80351380D01*
X110132857Y-80351380D01*
X110275714Y-80399000D01*
X110323333Y-80446619D01*
X110656666Y-80351380D02*
X111275714Y-80351380D01*
X110942380Y-80732333D01*
X111085238Y-80732333D01*
X111180476Y-80779952D01*
X111228095Y-80827571D01*
X111275714Y-80922809D01*
X111275714Y-81160904D01*
X111228095Y-81256142D01*
X111180476Y-81303761D01*
X111085238Y-81351380D01*
X110799523Y-81351380D01*
X110704285Y-81303761D01*
X110656666Y-81256142D01*
X116546333Y-96972380D02*
X116070142Y-96972380D01*
X116070142Y-95972380D01*
X117403476Y-96972380D02*
X116832047Y-96972380D01*
X117117761Y-96972380D02*
X117117761Y-95972380D01*
X117022523Y-96115238D01*
X116927285Y-96210476D01*
X116832047Y-96258095D01*
D12*
X171450000Y-139640000D02*
X172780000Y-139640000D01*
X172780000Y-139640000D02*
X172780000Y-140970000D01*
X170180000Y-139640000D02*
X170180000Y-142300000D01*
X170180000Y-142300000D02*
X165040000Y-142300000D01*
X170180000Y-139640000D02*
X165040000Y-139640000D01*
X165040000Y-139640000D02*
X165040000Y-142300000D01*
X128255000Y-139640000D02*
X129585000Y-139640000D01*
X126985000Y-142300000D02*
X121845000Y-142300000D01*
X126985000Y-139640000D02*
X126985000Y-142300000D01*
X126985000Y-139640000D02*
X121845000Y-139640000D01*
X121845000Y-139640000D02*
X121845000Y-142300000D01*
X129585000Y-139640000D02*
X129585000Y-140970000D01*
X110817750Y-112477250D02*
X110817750Y-111689750D01*
X110184000Y-107890437D02*
X110184000Y-109176000D01*
X109119563Y-106826000D02*
X103364000Y-106826000D01*
X110184000Y-107890437D02*
X109119563Y-106826000D01*
X103364000Y-113646000D02*
X103364000Y-111296000D01*
X103364000Y-106826000D02*
X103364000Y-109176000D01*
X109119563Y-113646000D02*
X103364000Y-113646000D01*
X110184000Y-112581563D02*
X110184000Y-111296000D01*
X110184000Y-112581563D02*
X109119563Y-113646000D01*
X111211500Y-112083500D02*
X110424000Y-112083500D01*
X169670000Y-81220000D02*
X170690000Y-81220000D01*
X144270000Y-81220000D02*
X145290000Y-81220000D01*
X131570000Y-81220000D02*
X132590000Y-81220000D01*
X123950000Y-86420000D02*
X124970000Y-86420000D01*
X154430000Y-86420000D02*
X155450000Y-86420000D01*
X156970000Y-86420000D02*
X157990000Y-86420000D01*
X172210000Y-86420000D02*
X172780000Y-86420000D01*
X121860000Y-86420000D02*
X121860000Y-81220000D01*
X139190000Y-81220000D02*
X140210000Y-81220000D01*
X169670000Y-86420000D02*
X170690000Y-86420000D01*
X151890000Y-81220000D02*
X152910000Y-81220000D01*
X164590000Y-81220000D02*
X165610000Y-81220000D01*
X131570000Y-86420000D02*
X132590000Y-86420000D01*
X167130000Y-81220000D02*
X168150000Y-81220000D01*
X149350000Y-81220000D02*
X150370000Y-81220000D01*
X136650000Y-81220000D02*
X137670000Y-81220000D01*
X172780000Y-86420000D02*
X172780000Y-81220000D01*
X126490000Y-86420000D02*
X127510000Y-86420000D01*
X167130000Y-86420000D02*
X168150000Y-86420000D01*
X122430000Y-87860000D02*
X122430000Y-86420000D01*
X151890000Y-86420000D02*
X152910000Y-86420000D01*
X156970000Y-81220000D02*
X157990000Y-81220000D01*
X146810000Y-81220000D02*
X147830000Y-81220000D01*
X129030000Y-86420000D02*
X130050000Y-86420000D01*
X139190000Y-86420000D02*
X140210000Y-86420000D01*
X172210000Y-81220000D02*
X172780000Y-81220000D01*
X162050000Y-81220000D02*
X163070000Y-81220000D01*
X164590000Y-86420000D02*
X165610000Y-86420000D01*
X134110000Y-86420000D02*
X135130000Y-86420000D01*
X141730000Y-86420000D02*
X142750000Y-86420000D01*
X121860000Y-86420000D02*
X122430000Y-86420000D01*
X149350000Y-86420000D02*
X150370000Y-86420000D01*
X129030000Y-81220000D02*
X130050000Y-81220000D01*
X141730000Y-81220000D02*
X142750000Y-81220000D01*
X146810000Y-86420000D02*
X147830000Y-86420000D01*
X144270000Y-86420000D02*
X145290000Y-86420000D01*
X136650000Y-86420000D02*
X137670000Y-86420000D01*
X134110000Y-81220000D02*
X135130000Y-81220000D01*
X154430000Y-81220000D02*
X155450000Y-81220000D01*
X123950000Y-81220000D02*
X124970000Y-81220000D01*
X159510000Y-81220000D02*
X160530000Y-81220000D01*
X159510000Y-86420000D02*
X160530000Y-86420000D01*
X126490000Y-81220000D02*
X127510000Y-81220000D01*
X121860000Y-81220000D02*
X122430000Y-81220000D01*
X162050000Y-86420000D02*
X163070000Y-86420000D01*
G36*
X109175014Y-125770998D02*
G01*
X109333006Y-125771863D01*
X109447347Y-125774205D01*
X109525407Y-125778762D01*
X109574554Y-125786270D01*
X109602159Y-125797466D01*
X109615592Y-125813088D01*
X109622221Y-125833873D01*
X109622865Y-125836563D01*
X109632935Y-125885113D01*
X109651575Y-125980905D01*
X109676845Y-126113743D01*
X109706807Y-126273431D01*
X109739522Y-126449774D01*
X109740664Y-126455967D01*
X109773433Y-126628782D01*
X109804093Y-126781469D01*
X109830664Y-126904871D01*
X109851167Y-126989831D01*
X109863626Y-127027190D01*
X109864220Y-127027852D01*
X109900919Y-127046095D01*
X109976586Y-127076497D01*
X110074878Y-127112493D01*
X110075425Y-127112685D01*
X110199233Y-127159222D01*
X110345196Y-127218504D01*
X110482781Y-127278109D01*
X110489293Y-127281056D01*
X110713390Y-127382765D01*
X111209619Y-127043897D01*
X111361846Y-126940592D01*
X111499741Y-126848237D01*
X111615315Y-126772084D01*
X111700579Y-126717385D01*
X111747544Y-126689393D01*
X111752004Y-126687317D01*
X111786134Y-126696560D01*
X111849881Y-126741156D01*
X111945731Y-126823209D01*
X112076169Y-126944821D01*
X112209328Y-127074205D01*
X112337694Y-127201702D01*
X112452581Y-127318046D01*
X112547073Y-127416052D01*
X112614253Y-127488536D01*
X112647206Y-127528313D01*
X112648432Y-127530361D01*
X112652074Y-127557656D01*
X112638350Y-127602234D01*
X112603869Y-127670112D01*
X112545239Y-127767311D01*
X112459070Y-127899851D01*
X112344200Y-128070476D01*
X112242254Y-128220655D01*
X112151123Y-128355350D01*
X112076073Y-128466740D01*
X112022369Y-128547005D01*
X111995280Y-128588325D01*
X111993574Y-128591130D01*
X111996882Y-128630721D01*
X112021953Y-128707669D01*
X112063798Y-128807432D01*
X112078712Y-128839291D01*
X112143786Y-128981226D01*
X112213212Y-129142273D01*
X112269609Y-129281621D01*
X112310247Y-129385044D01*
X112342526Y-129463642D01*
X112361178Y-129504720D01*
X112363497Y-129507885D01*
X112397803Y-129513128D01*
X112478669Y-129527494D01*
X112595343Y-129548937D01*
X112737075Y-129575413D01*
X112893110Y-129604877D01*
X113052698Y-129635283D01*
X113205085Y-129664588D01*
X113339521Y-129690745D01*
X113445252Y-129711710D01*
X113511526Y-129725439D01*
X113527782Y-129729320D01*
X113544573Y-129738900D01*
X113557249Y-129760536D01*
X113566378Y-129801531D01*
X113572531Y-129869189D01*
X113576280Y-129970812D01*
X113578192Y-130113703D01*
X113578840Y-130305165D01*
X113578874Y-130383645D01*
X113578874Y-131021906D01*
X113425598Y-131052160D01*
X113340322Y-131068564D01*
X113213070Y-131092509D01*
X113059315Y-131121107D01*
X112894534Y-131151467D01*
X112848989Y-131159806D01*
X112696932Y-131189370D01*
X112564468Y-131218442D01*
X112462714Y-131244329D01*
X112402788Y-131264337D01*
X112392805Y-131270301D01*
X112368293Y-131312534D01*
X112333148Y-131394370D01*
X112294173Y-131499683D01*
X112286442Y-131522368D01*
X112235360Y-131663018D01*
X112171954Y-131821714D01*
X112109904Y-131964225D01*
X112109598Y-131964886D01*
X112006267Y-132188440D01*
X112685961Y-133188232D01*
X112249621Y-133625300D01*
X112117649Y-133755381D01*
X111997279Y-133870048D01*
X111895273Y-133963181D01*
X111818391Y-134028658D01*
X111773393Y-134060357D01*
X111766938Y-134062368D01*
X111729040Y-134046529D01*
X111651708Y-134002496D01*
X111543389Y-133935490D01*
X111412532Y-133850734D01*
X111271052Y-133755816D01*
X111127461Y-133658998D01*
X110999435Y-133574751D01*
X110895105Y-133508258D01*
X110822600Y-133464702D01*
X110790158Y-133449264D01*
X110750576Y-133462328D01*
X110675519Y-133496750D01*
X110580468Y-133545380D01*
X110570392Y-133550785D01*
X110442391Y-133614980D01*
X110354618Y-133646463D01*
X110300028Y-133646798D01*
X110271575Y-133617548D01*
X110271410Y-133617138D01*
X110257188Y-133582498D01*
X110223269Y-133500269D01*
X110172284Y-133376814D01*
X110106862Y-133218498D01*
X110029634Y-133031686D01*
X109943229Y-132822742D01*
X109859551Y-132620446D01*
X109767588Y-132397200D01*
X109683150Y-132190392D01*
X109608769Y-132006362D01*
X109546974Y-131851451D01*
X109500297Y-131731996D01*
X109471268Y-131654339D01*
X109462322Y-131625356D01*
X109484756Y-131592110D01*
X109543439Y-131539123D01*
X109621689Y-131480704D01*
X109844534Y-131295952D01*
X110018718Y-131084182D01*
X110142154Y-130849856D01*
X110212754Y-130597434D01*
X110228431Y-130331377D01*
X110217036Y-130208575D01*
X110154950Y-129953793D01*
X110048023Y-129728801D01*
X109902889Y-129535817D01*
X109726178Y-129377061D01*
X109524522Y-129254750D01*
X109304554Y-129171105D01*
X109072906Y-129128344D01*
X108836209Y-129128687D01*
X108601095Y-129174352D01*
X108374196Y-129267559D01*
X108162144Y-129410527D01*
X108073636Y-129491383D01*
X107903889Y-129699007D01*
X107785699Y-129925895D01*
X107718278Y-130165433D01*
X107700840Y-130411007D01*
X107732598Y-130656003D01*
X107812765Y-130893808D01*
X107940555Y-131117807D01*
X108115180Y-131321387D01*
X108310312Y-131480704D01*
X108391591Y-131541602D01*
X108449009Y-131594015D01*
X108469678Y-131625406D01*
X108458856Y-131659639D01*
X108428077Y-131741419D01*
X108379874Y-131864407D01*
X108316778Y-132022263D01*
X108241322Y-132208649D01*
X108156038Y-132417226D01*
X108072219Y-132620496D01*
X107979745Y-132843933D01*
X107894089Y-133050984D01*
X107817882Y-133235286D01*
X107753753Y-133390475D01*
X107704332Y-133510188D01*
X107672248Y-133588061D01*
X107660359Y-133617138D01*
X107632274Y-133646677D01*
X107577949Y-133646591D01*
X107490395Y-133615326D01*
X107362619Y-133551329D01*
X107361608Y-133550785D01*
X107265402Y-133501121D01*
X107187631Y-133464945D01*
X107143777Y-133449408D01*
X107141842Y-133449264D01*
X107108829Y-133465024D01*
X107035946Y-133508850D01*
X106931322Y-133575557D01*
X106803090Y-133659964D01*
X106660948Y-133755816D01*
X106516233Y-133852867D01*
X106385804Y-133937270D01*
X106278110Y-134003801D01*
X106201598Y-134047238D01*
X106165062Y-134062368D01*
X106131418Y-134042482D01*
X106063776Y-133986903D01*
X105968893Y-133901754D01*
X105853530Y-133793153D01*
X105724445Y-133667221D01*
X105682229Y-133625149D01*
X105245739Y-133187931D01*
X105577977Y-132700340D01*
X105678946Y-132550605D01*
X105767562Y-132416220D01*
X105838854Y-132304969D01*
X105887850Y-132224639D01*
X105909578Y-132183014D01*
X105910215Y-132180053D01*
X105898760Y-132140818D01*
X105867949Y-132061895D01*
X105823116Y-131956509D01*
X105791647Y-131885954D01*
X105732808Y-131750876D01*
X105677396Y-131614409D01*
X105634436Y-131499103D01*
X105622766Y-131463977D01*
X105589611Y-131370174D01*
X105557201Y-131297694D01*
X105539399Y-131270301D01*
X105500114Y-131253536D01*
X105414374Y-131229770D01*
X105293303Y-131201697D01*
X105148027Y-131172009D01*
X105083012Y-131159806D01*
X104917913Y-131129468D01*
X104759552Y-131100093D01*
X104623404Y-131074569D01*
X104524943Y-131055785D01*
X104506402Y-131052160D01*
X104353127Y-131021906D01*
X104353127Y-130383645D01*
X104353471Y-130173770D01*
X104354884Y-130014980D01*
X104357936Y-129899973D01*
X104363197Y-129821446D01*
X104371237Y-129772096D01*
X104382627Y-129744619D01*
X104397937Y-129731713D01*
X104404218Y-129729320D01*
X104442104Y-129720833D01*
X104525805Y-129703900D01*
X104644567Y-129680566D01*
X104787639Y-129652875D01*
X104944268Y-129622873D01*
X105103703Y-129592604D01*
X105255191Y-129564115D01*
X105387981Y-129539449D01*
X105491319Y-129520651D01*
X105554455Y-129509767D01*
X105568503Y-129507885D01*
X105581230Y-129482704D01*
X105609400Y-129415622D01*
X105647748Y-129319333D01*
X105662391Y-129281621D01*
X105721452Y-129135921D01*
X105791000Y-128974951D01*
X105853288Y-128839291D01*
X105899121Y-128735561D01*
X105929613Y-128650326D01*
X105939792Y-128598126D01*
X105938169Y-128591130D01*
X105916657Y-128558102D01*
X105867535Y-128484643D01*
X105796077Y-128378577D01*
X105707555Y-128247726D01*
X105607241Y-128099912D01*
X105587406Y-128070734D01*
X105471012Y-127897863D01*
X105385452Y-127766226D01*
X105327316Y-127669761D01*
X105293192Y-127602408D01*
X105279669Y-127558106D01*
X105283336Y-127530794D01*
X105283430Y-127530620D01*
X105312293Y-127494746D01*
X105376133Y-127425391D01*
X105468031Y-127329745D01*
X105581067Y-127214999D01*
X105708321Y-127088341D01*
X105722672Y-127074205D01*
X105883043Y-126918903D01*
X106006805Y-126804870D01*
X106096445Y-126730002D01*
X106154448Y-126692196D01*
X106179996Y-126687317D01*
X106217282Y-126708603D01*
X106294657Y-126757773D01*
X106404133Y-126829575D01*
X106537720Y-126918755D01*
X106687430Y-127020063D01*
X106722382Y-127043897D01*
X107218610Y-127382765D01*
X107442707Y-127281056D01*
X107578989Y-127221783D01*
X107725276Y-127162170D01*
X107851035Y-127114640D01*
X107856575Y-127112685D01*
X107954943Y-127076677D01*
X108030771Y-127046229D01*
X108067718Y-127027905D01*
X108067780Y-127027852D01*
X108079504Y-126994729D01*
X108099432Y-126913267D01*
X108125587Y-126792625D01*
X108155990Y-126641959D01*
X108188663Y-126470428D01*
X108191336Y-126455967D01*
X108224110Y-126279235D01*
X108254198Y-126118810D01*
X108279661Y-125984888D01*
X108298559Y-125887663D01*
X108308953Y-125837332D01*
X108309135Y-125836563D01*
X108315461Y-125815153D01*
X108327761Y-125798988D01*
X108353406Y-125787331D01*
X108399765Y-125779445D01*
X108474208Y-125774593D01*
X108584105Y-125772039D01*
X108736825Y-125771045D01*
X108939738Y-125770874D01*
X108966000Y-125770874D01*
X109175014Y-125770998D01*
G37*
D13*
X109175014Y-125770998D02*
X109333006Y-125771863D01*
X109447347Y-125774205D01*
X109525407Y-125778762D01*
X109574554Y-125786270D01*
X109602159Y-125797466D01*
X109615592Y-125813088D01*
X109622221Y-125833873D01*
X109622865Y-125836563D01*
X109632935Y-125885113D01*
X109651575Y-125980905D01*
X109676845Y-126113743D01*
X109706807Y-126273431D01*
X109739522Y-126449774D01*
X109740664Y-126455967D01*
X109773433Y-126628782D01*
X109804093Y-126781469D01*
X109830664Y-126904871D01*
X109851167Y-126989831D01*
X109863626Y-127027190D01*
X109864220Y-127027852D01*
X109900919Y-127046095D01*
X109976586Y-127076497D01*
X110074878Y-127112493D01*
X110075425Y-127112685D01*
X110199233Y-127159222D01*
X110345196Y-127218504D01*
X110482781Y-127278109D01*
X110489293Y-127281056D01*
X110713390Y-127382765D01*
X111209619Y-127043897D01*
X111361846Y-126940592D01*
X111499741Y-126848237D01*
X111615315Y-126772084D01*
X111700579Y-126717385D01*
X111747544Y-126689393D01*
X111752004Y-126687317D01*
X111786134Y-126696560D01*
X111849881Y-126741156D01*
X111945731Y-126823209D01*
X112076169Y-126944821D01*
X112209328Y-127074205D01*
X112337694Y-127201702D01*
X112452581Y-127318046D01*
X112547073Y-127416052D01*
X112614253Y-127488536D01*
X112647206Y-127528313D01*
X112648432Y-127530361D01*
X112652074Y-127557656D01*
X112638350Y-127602234D01*
X112603869Y-127670112D01*
X112545239Y-127767311D01*
X112459070Y-127899851D01*
X112344200Y-128070476D01*
X112242254Y-128220655D01*
X112151123Y-128355350D01*
X112076073Y-128466740D01*
X112022369Y-128547005D01*
X111995280Y-128588325D01*
X111993574Y-128591130D01*
X111996882Y-128630721D01*
X112021953Y-128707669D01*
X112063798Y-128807432D01*
X112078712Y-128839291D01*
X112143786Y-128981226D01*
X112213212Y-129142273D01*
X112269609Y-129281621D01*
X112310247Y-129385044D01*
X112342526Y-129463642D01*
X112361178Y-129504720D01*
X112363497Y-129507885D01*
X112397803Y-129513128D01*
X112478669Y-129527494D01*
X112595343Y-129548937D01*
X112737075Y-129575413D01*
X112893110Y-129604877D01*
X113052698Y-129635283D01*
X113205085Y-129664588D01*
X113339521Y-129690745D01*
X113445252Y-129711710D01*
X113511526Y-129725439D01*
X113527782Y-129729320D01*
X113544573Y-129738900D01*
X113557249Y-129760536D01*
X113566378Y-129801531D01*
X113572531Y-129869189D01*
X113576280Y-129970812D01*
X113578192Y-130113703D01*
X113578840Y-130305165D01*
X113578874Y-130383645D01*
X113578874Y-131021906D01*
X113425598Y-131052160D01*
X113340322Y-131068564D01*
X113213070Y-131092509D01*
X113059315Y-131121107D01*
X112894534Y-131151467D01*
X112848989Y-131159806D01*
X112696932Y-131189370D01*
X112564468Y-131218442D01*
X112462714Y-131244329D01*
X112402788Y-131264337D01*
X112392805Y-131270301D01*
X112368293Y-131312534D01*
X112333148Y-131394370D01*
X112294173Y-131499683D01*
X112286442Y-131522368D01*
X112235360Y-131663018D01*
X112171954Y-131821714D01*
X112109904Y-131964225D01*
X112109598Y-131964886D01*
X112006267Y-132188440D01*
X112685961Y-133188232D01*
X112249621Y-133625300D01*
X112117649Y-133755381D01*
X111997279Y-133870048D01*
X111895273Y-133963181D01*
X111818391Y-134028658D01*
X111773393Y-134060357D01*
X111766938Y-134062368D01*
X111729040Y-134046529D01*
X111651708Y-134002496D01*
X111543389Y-133935490D01*
X111412532Y-133850734D01*
X111271052Y-133755816D01*
X111127461Y-133658998D01*
X110999435Y-133574751D01*
X110895105Y-133508258D01*
X110822600Y-133464702D01*
X110790158Y-133449264D01*
X110750576Y-133462328D01*
X110675519Y-133496750D01*
X110580468Y-133545380D01*
X110570392Y-133550785D01*
X110442391Y-133614980D01*
X110354618Y-133646463D01*
X110300028Y-133646798D01*
X110271575Y-133617548D01*
X110271410Y-133617138D01*
X110257188Y-133582498D01*
X110223269Y-133500269D01*
X110172284Y-133376814D01*
X110106862Y-133218498D01*
X110029634Y-133031686D01*
X109943229Y-132822742D01*
X109859551Y-132620446D01*
X109767588Y-132397200D01*
X109683150Y-132190392D01*
X109608769Y-132006362D01*
X109546974Y-131851451D01*
X109500297Y-131731996D01*
X109471268Y-131654339D01*
X109462322Y-131625356D01*
X109484756Y-131592110D01*
X109543439Y-131539123D01*
X109621689Y-131480704D01*
X109844534Y-131295952D01*
X110018718Y-131084182D01*
X110142154Y-130849856D01*
X110212754Y-130597434D01*
X110228431Y-130331377D01*
X110217036Y-130208575D01*
X110154950Y-129953793D01*
X110048023Y-129728801D01*
X109902889Y-129535817D01*
X109726178Y-129377061D01*
X109524522Y-129254750D01*
X109304554Y-129171105D01*
X109072906Y-129128344D01*
X108836209Y-129128687D01*
X108601095Y-129174352D01*
X108374196Y-129267559D01*
X108162144Y-129410527D01*
X108073636Y-129491383D01*
X107903889Y-129699007D01*
X107785699Y-129925895D01*
X107718278Y-130165433D01*
X107700840Y-130411007D01*
X107732598Y-130656003D01*
X107812765Y-130893808D01*
X107940555Y-131117807D01*
X108115180Y-131321387D01*
X108310312Y-131480704D01*
X108391591Y-131541602D01*
X108449009Y-131594015D01*
X108469678Y-131625406D01*
X108458856Y-131659639D01*
X108428077Y-131741419D01*
X108379874Y-131864407D01*
X108316778Y-132022263D01*
X108241322Y-132208649D01*
X108156038Y-132417226D01*
X108072219Y-132620496D01*
X107979745Y-132843933D01*
X107894089Y-133050984D01*
X107817882Y-133235286D01*
X107753753Y-133390475D01*
X107704332Y-133510188D01*
X107672248Y-133588061D01*
X107660359Y-133617138D01*
X107632274Y-133646677D01*
X107577949Y-133646591D01*
X107490395Y-133615326D01*
X107362619Y-133551329D01*
X107361608Y-133550785D01*
X107265402Y-133501121D01*
X107187631Y-133464945D01*
X107143777Y-133449408D01*
X107141842Y-133449264D01*
X107108829Y-133465024D01*
X107035946Y-133508850D01*
X106931322Y-133575557D01*
X106803090Y-133659964D01*
X106660948Y-133755816D01*
X106516233Y-133852867D01*
X106385804Y-133937270D01*
X106278110Y-134003801D01*
X106201598Y-134047238D01*
X106165062Y-134062368D01*
X106131418Y-134042482D01*
X106063776Y-133986903D01*
X105968893Y-133901754D01*
X105853530Y-133793153D01*
X105724445Y-133667221D01*
X105682229Y-133625149D01*
X105245739Y-133187931D01*
X105577977Y-132700340D01*
X105678946Y-132550605D01*
X105767562Y-132416220D01*
X105838854Y-132304969D01*
X105887850Y-132224639D01*
X105909578Y-132183014D01*
X105910215Y-132180053D01*
X105898760Y-132140818D01*
X105867949Y-132061895D01*
X105823116Y-131956509D01*
X105791647Y-131885954D01*
X105732808Y-131750876D01*
X105677396Y-131614409D01*
X105634436Y-131499103D01*
X105622766Y-131463977D01*
X105589611Y-131370174D01*
X105557201Y-131297694D01*
X105539399Y-131270301D01*
X105500114Y-131253536D01*
X105414374Y-131229770D01*
X105293303Y-131201697D01*
X105148027Y-131172009D01*
X105083012Y-131159806D01*
X104917913Y-131129468D01*
X104759552Y-131100093D01*
X104623404Y-131074569D01*
X104524943Y-131055785D01*
X104506402Y-131052160D01*
X104353127Y-131021906D01*
X104353127Y-130383645D01*
X104353471Y-130173770D01*
X104354884Y-130014980D01*
X104357936Y-129899973D01*
X104363197Y-129821446D01*
X104371237Y-129772096D01*
X104382627Y-129744619D01*
X104397937Y-129731713D01*
X104404218Y-129729320D01*
X104442104Y-129720833D01*
X104525805Y-129703900D01*
X104644567Y-129680566D01*
X104787639Y-129652875D01*
X104944268Y-129622873D01*
X105103703Y-129592604D01*
X105255191Y-129564115D01*
X105387981Y-129539449D01*
X105491319Y-129520651D01*
X105554455Y-129509767D01*
X105568503Y-129507885D01*
X105581230Y-129482704D01*
X105609400Y-129415622D01*
X105647748Y-129319333D01*
X105662391Y-129281621D01*
X105721452Y-129135921D01*
X105791000Y-128974951D01*
X105853288Y-128839291D01*
X105899121Y-128735561D01*
X105929613Y-128650326D01*
X105939792Y-128598126D01*
X105938169Y-128591130D01*
X105916657Y-128558102D01*
X105867535Y-128484643D01*
X105796077Y-128378577D01*
X105707555Y-128247726D01*
X105607241Y-128099912D01*
X105587406Y-128070734D01*
X105471012Y-127897863D01*
X105385452Y-127766226D01*
X105327316Y-127669761D01*
X105293192Y-127602408D01*
X105279669Y-127558106D01*
X105283336Y-127530794D01*
X105283430Y-127530620D01*
X105312293Y-127494746D01*
X105376133Y-127425391D01*
X105468031Y-127329745D01*
X105581067Y-127214999D01*
X105708321Y-127088341D01*
X105722672Y-127074205D01*
X105883043Y-126918903D01*
X106006805Y-126804870D01*
X106096445Y-126730002D01*
X106154448Y-126692196D01*
X106179996Y-126687317D01*
X106217282Y-126708603D01*
X106294657Y-126757773D01*
X106404133Y-126829575D01*
X106537720Y-126918755D01*
X106687430Y-127020063D01*
X106722382Y-127043897D01*
X107218610Y-127382765D01*
X107442707Y-127281056D01*
X107578989Y-127221783D01*
X107725276Y-127162170D01*
X107851035Y-127114640D01*
X107856575Y-127112685D01*
X107954943Y-127076677D01*
X108030771Y-127046229D01*
X108067718Y-127027905D01*
X108067780Y-127027852D01*
X108079504Y-126994729D01*
X108099432Y-126913267D01*
X108125587Y-126792625D01*
X108155990Y-126641959D01*
X108188663Y-126470428D01*
X108191336Y-126455967D01*
X108224110Y-126279235D01*
X108254198Y-126118810D01*
X108279661Y-125984888D01*
X108298559Y-125887663D01*
X108308953Y-125837332D01*
X108309135Y-125836563D01*
X108315461Y-125815153D01*
X108327761Y-125798988D01*
X108353406Y-125787331D01*
X108399765Y-125779445D01*
X108474208Y-125774593D01*
X108584105Y-125772039D01*
X108736825Y-125771045D01*
X108939738Y-125770874D01*
X108966000Y-125770874D01*
X109175014Y-125770998D01*
G36*
X102402688Y-135558549D02*
G01*
X102412688Y-135485714D01*
X102430079Y-135432108D01*
X102456816Y-135384681D01*
X102462724Y-135375864D01*
X102562032Y-135257007D01*
X102670242Y-135188008D01*
X102801981Y-135160619D01*
X102846717Y-135159281D01*
X103014221Y-135184015D01*
X103151061Y-135255968D01*
X103252051Y-135371766D01*
X103287925Y-135446213D01*
X103315839Y-135557992D01*
X103330129Y-135699227D01*
X103331484Y-135853371D01*
X103320595Y-136003879D01*
X103298153Y-136134205D01*
X103264850Y-136227803D01*
X103254615Y-136243922D01*
X103133382Y-136364249D01*
X102989387Y-136436317D01*
X102833139Y-136457408D01*
X102675148Y-136424802D01*
X102631180Y-136405253D01*
X102545556Y-136345012D01*
X102470408Y-136265135D01*
X102463306Y-136255004D01*
X102434439Y-136206181D01*
X102415357Y-136153990D01*
X102404084Y-136085285D01*
X102398645Y-135986918D01*
X102397062Y-135845744D01*
X102397035Y-135814092D01*
X102397107Y-135804019D01*
X102688989Y-135804019D01*
X102690687Y-135937256D01*
X102697372Y-136025674D01*
X102711425Y-136082785D01*
X102735229Y-136122102D01*
X102747379Y-136135241D01*
X102817236Y-136185172D01*
X102885059Y-136182895D01*
X102953635Y-136139584D01*
X102994535Y-136093346D01*
X103018758Y-136025857D01*
X103032361Y-135919433D01*
X103033294Y-135907020D01*
X103035616Y-135714147D01*
X103011350Y-135570900D01*
X102960824Y-135478160D01*
X102884368Y-135436807D01*
X102857076Y-135434552D01*
X102785411Y-135445893D01*
X102736390Y-135485184D01*
X102706418Y-135560326D01*
X102691899Y-135679222D01*
X102688989Y-135804019D01*
X102397107Y-135804019D01*
X102398122Y-135663659D01*
X102402688Y-135558549D01*
G37*
X102402688Y-135558549D02*
X102412688Y-135485714D01*
X102430079Y-135432108D01*
X102456816Y-135384681D01*
X102462724Y-135375864D01*
X102562032Y-135257007D01*
X102670242Y-135188008D01*
X102801981Y-135160619D01*
X102846717Y-135159281D01*
X103014221Y-135184015D01*
X103151061Y-135255968D01*
X103252051Y-135371766D01*
X103287925Y-135446213D01*
X103315839Y-135557992D01*
X103330129Y-135699227D01*
X103331484Y-135853371D01*
X103320595Y-136003879D01*
X103298153Y-136134205D01*
X103264850Y-136227803D01*
X103254615Y-136243922D01*
X103133382Y-136364249D01*
X102989387Y-136436317D01*
X102833139Y-136457408D01*
X102675148Y-136424802D01*
X102631180Y-136405253D01*
X102545556Y-136345012D01*
X102470408Y-136265135D01*
X102463306Y-136255004D01*
X102434439Y-136206181D01*
X102415357Y-136153990D01*
X102404084Y-136085285D01*
X102398645Y-135986918D01*
X102397062Y-135845744D01*
X102397035Y-135814092D01*
X102397107Y-135804019D01*
X102688989Y-135804019D01*
X102690687Y-135937256D01*
X102697372Y-136025674D01*
X102711425Y-136082785D01*
X102735229Y-136122102D01*
X102747379Y-136135241D01*
X102817236Y-136185172D01*
X102885059Y-136182895D01*
X102953635Y-136139584D01*
X102994535Y-136093346D01*
X103018758Y-136025857D01*
X103032361Y-135919433D01*
X103033294Y-135907020D01*
X103035616Y-135714147D01*
X103011350Y-135570900D01*
X102960824Y-135478160D01*
X102884368Y-135436807D01*
X102857076Y-135434552D01*
X102785411Y-135445893D01*
X102736390Y-135485184D01*
X102706418Y-135560326D01*
X102691899Y-135679222D01*
X102688989Y-135804019D01*
X102397107Y-135804019D01*
X102398122Y-135663659D01*
X102402688Y-135558549D01*
G36*
X106383429Y-135195719D02*
G01*
X106477123Y-135249914D01*
X106542264Y-135303707D01*
X106589907Y-135360066D01*
X106622728Y-135428987D01*
X106643406Y-135520468D01*
X106654620Y-135644506D01*
X106659049Y-135811098D01*
X106659563Y-135930851D01*
X106659563Y-136371659D01*
X106535483Y-136427283D01*
X106411402Y-136482907D01*
X106396805Y-136000095D01*
X106390773Y-135819779D01*
X106384445Y-135688901D01*
X106376606Y-135598511D01*
X106366037Y-135539664D01*
X106351523Y-135503413D01*
X106331848Y-135480810D01*
X106325535Y-135475917D01*
X106229888Y-135437706D01*
X106133207Y-135452827D01*
X106075655Y-135492943D01*
X106052245Y-135521370D01*
X106036039Y-135558672D01*
X106025741Y-135615223D01*
X106020049Y-135701394D01*
X106017664Y-135827558D01*
X106017264Y-135959042D01*
X106017186Y-136123999D01*
X106014361Y-136240761D01*
X106004907Y-136319510D01*
X105984940Y-136370431D01*
X105950576Y-136403706D01*
X105897932Y-136429520D01*
X105827617Y-136456344D01*
X105750820Y-136485542D01*
X105759962Y-135967346D01*
X105763643Y-135780539D01*
X105767950Y-135642490D01*
X105774123Y-135543568D01*
X105783402Y-135474145D01*
X105797027Y-135424590D01*
X105816239Y-135385273D01*
X105839402Y-135350584D01*
X105951152Y-135239770D01*
X106087513Y-135175689D01*
X106235825Y-135160339D01*
X106383429Y-135195719D01*
G37*
X106383429Y-135195719D02*
X106477123Y-135249914D01*
X106542264Y-135303707D01*
X106589907Y-135360066D01*
X106622728Y-135428987D01*
X106643406Y-135520468D01*
X106654620Y-135644506D01*
X106659049Y-135811098D01*
X106659563Y-135930851D01*
X106659563Y-136371659D01*
X106535483Y-136427283D01*
X106411402Y-136482907D01*
X106396805Y-136000095D01*
X106390773Y-135819779D01*
X106384445Y-135688901D01*
X106376606Y-135598511D01*
X106366037Y-135539664D01*
X106351523Y-135503413D01*
X106331848Y-135480810D01*
X106325535Y-135475917D01*
X106229888Y-135437706D01*
X106133207Y-135452827D01*
X106075655Y-135492943D01*
X106052245Y-135521370D01*
X106036039Y-135558672D01*
X106025741Y-135615223D01*
X106020049Y-135701394D01*
X106017664Y-135827558D01*
X106017264Y-135959042D01*
X106017186Y-136123999D01*
X106014361Y-136240761D01*
X106004907Y-136319510D01*
X105984940Y-136370431D01*
X105950576Y-136403706D01*
X105897932Y-136429520D01*
X105827617Y-136456344D01*
X105750820Y-136485542D01*
X105759962Y-135967346D01*
X105763643Y-135780539D01*
X105767950Y-135642490D01*
X105774123Y-135543568D01*
X105783402Y-135474145D01*
X105797027Y-135424590D01*
X105816239Y-135385273D01*
X105839402Y-135350584D01*
X105951152Y-135239770D01*
X106087513Y-135175689D01*
X106235825Y-135160339D01*
X106383429Y-135195719D01*
G36*
X104684634Y-135413829D02*
G01*
X104752836Y-135315447D01*
X104875935Y-135216030D01*
X105011528Y-135166711D01*
X105149955Y-135163568D01*
X105281552Y-135202676D01*
X105396658Y-135280111D01*
X105485611Y-135391949D01*
X105538749Y-135534265D01*
X105549497Y-135639015D01*
X105548276Y-135682726D01*
X105538056Y-135716194D01*
X105509961Y-135746179D01*
X105455116Y-135779440D01*
X105364645Y-135822738D01*
X105229672Y-135882833D01*
X105228989Y-135883134D01*
X105104751Y-135940037D01*
X105002873Y-135990565D01*
X104933767Y-136029280D01*
X104907846Y-136050740D01*
X104907839Y-136050913D01*
X104930685Y-136097644D01*
X104984109Y-136149154D01*
X105045442Y-136186261D01*
X105076515Y-136193632D01*
X105161289Y-136168138D01*
X105234293Y-136104291D01*
X105269913Y-136034094D01*
X105304180Y-135982343D01*
X105371303Y-135923409D01*
X105450208Y-135872496D01*
X105519821Y-135844809D01*
X105534377Y-135843287D01*
X105550763Y-135868321D01*
X105551750Y-135932311D01*
X105539708Y-136018593D01*
X105517007Y-136110501D01*
X105486014Y-136191369D01*
X105484448Y-136194509D01*
X105391181Y-136324734D01*
X105270304Y-136413311D01*
X105133027Y-136456786D01*
X104990560Y-136451706D01*
X104854112Y-136394616D01*
X104848045Y-136390602D01*
X104740710Y-136293326D01*
X104670132Y-136166409D01*
X104631074Y-135999526D01*
X104625832Y-135952639D01*
X104616548Y-135731329D01*
X104627678Y-135628124D01*
X104907839Y-135628124D01*
X104911479Y-135692503D01*
X104931389Y-135711291D01*
X104981026Y-135697235D01*
X105059267Y-135664009D01*
X105146726Y-135622359D01*
X105148899Y-135621256D01*
X105223030Y-135582265D01*
X105252781Y-135556244D01*
X105245445Y-135528965D01*
X105214553Y-135493121D01*
X105135960Y-135441251D01*
X105051323Y-135437439D01*
X104975403Y-135475189D01*
X104922965Y-135548001D01*
X104907839Y-135628124D01*
X104627678Y-135628124D01*
X104635644Y-135554261D01*
X104684634Y-135413829D01*
G37*
X104684634Y-135413829D02*
X104752836Y-135315447D01*
X104875935Y-135216030D01*
X105011528Y-135166711D01*
X105149955Y-135163568D01*
X105281552Y-135202676D01*
X105396658Y-135280111D01*
X105485611Y-135391949D01*
X105538749Y-135534265D01*
X105549497Y-135639015D01*
X105548276Y-135682726D01*
X105538056Y-135716194D01*
X105509961Y-135746179D01*
X105455116Y-135779440D01*
X105364645Y-135822738D01*
X105229672Y-135882833D01*
X105228989Y-135883134D01*
X105104751Y-135940037D01*
X105002873Y-135990565D01*
X104933767Y-136029280D01*
X104907846Y-136050740D01*
X104907839Y-136050913D01*
X104930685Y-136097644D01*
X104984109Y-136149154D01*
X105045442Y-136186261D01*
X105076515Y-136193632D01*
X105161289Y-136168138D01*
X105234293Y-136104291D01*
X105269913Y-136034094D01*
X105304180Y-135982343D01*
X105371303Y-135923409D01*
X105450208Y-135872496D01*
X105519821Y-135844809D01*
X105534377Y-135843287D01*
X105550763Y-135868321D01*
X105551750Y-135932311D01*
X105539708Y-136018593D01*
X105517007Y-136110501D01*
X105486014Y-136191369D01*
X105484448Y-136194509D01*
X105391181Y-136324734D01*
X105270304Y-136413311D01*
X105133027Y-136456786D01*
X104990560Y-136451706D01*
X104854112Y-136394616D01*
X104848045Y-136390602D01*
X104740710Y-136293326D01*
X104670132Y-136166409D01*
X104631074Y-135999526D01*
X104625832Y-135952639D01*
X104616548Y-135731329D01*
X104627678Y-135628124D01*
X104907839Y-135628124D01*
X104911479Y-135692503D01*
X104931389Y-135711291D01*
X104981026Y-135697235D01*
X105059267Y-135664009D01*
X105146726Y-135622359D01*
X105148899Y-135621256D01*
X105223030Y-135582265D01*
X105252781Y-135556244D01*
X105245445Y-135528965D01*
X105214553Y-135493121D01*
X105135960Y-135441251D01*
X105051323Y-135437439D01*
X104975403Y-135475189D01*
X104922965Y-135548001D01*
X104907839Y-135628124D01*
X104627678Y-135628124D01*
X104635644Y-135554261D01*
X104684634Y-135413829D01*
G36*
X107710598Y-135041857D02*
G01*
X107719154Y-135161188D01*
X107728981Y-135231506D01*
X107742599Y-135262179D01*
X107762527Y-135262571D01*
X107768989Y-135258910D01*
X107854940Y-135232398D01*
X107966745Y-135233946D01*
X108080414Y-135261199D01*
X108151510Y-135296455D01*
X108224405Y-135352778D01*
X108277693Y-135416519D01*
X108314275Y-135497510D01*
X108337050Y-135605586D01*
X108348919Y-135750580D01*
X108352782Y-135942326D01*
X108352851Y-135979109D01*
X108352897Y-136392288D01*
X108260954Y-136424339D01*
X108195652Y-136446144D01*
X108159824Y-136456297D01*
X108158770Y-136456391D01*
X108155242Y-136428860D01*
X108152239Y-136352923D01*
X108149990Y-136238565D01*
X108148724Y-136095769D01*
X108148529Y-136008951D01*
X108148123Y-135837773D01*
X108146032Y-135715088D01*
X108140947Y-135631000D01*
X108131560Y-135575614D01*
X108116561Y-135539032D01*
X108094642Y-135511359D01*
X108080957Y-135498032D01*
X107986949Y-135444328D01*
X107884364Y-135440307D01*
X107791290Y-135485725D01*
X107774078Y-135502123D01*
X107748832Y-135532957D01*
X107731320Y-135569531D01*
X107720142Y-135622415D01*
X107713896Y-135702177D01*
X107711182Y-135819385D01*
X107710598Y-135980991D01*
X107710598Y-136392288D01*
X107618655Y-136424339D01*
X107553353Y-136446144D01*
X107517525Y-136456297D01*
X107516471Y-136456391D01*
X107513775Y-136428448D01*
X107511345Y-136349630D01*
X107509278Y-136227453D01*
X107507671Y-136069432D01*
X107506623Y-135883083D01*
X107506231Y-135675920D01*
X107506230Y-135666706D01*
X107506230Y-134877020D01*
X107601115Y-134836997D01*
X107696000Y-134796973D01*
X107710598Y-135041857D01*
G37*
X107710598Y-135041857D02*
X107719154Y-135161188D01*
X107728981Y-135231506D01*
X107742599Y-135262179D01*
X107762527Y-135262571D01*
X107768989Y-135258910D01*
X107854940Y-135232398D01*
X107966745Y-135233946D01*
X108080414Y-135261199D01*
X108151510Y-135296455D01*
X108224405Y-135352778D01*
X108277693Y-135416519D01*
X108314275Y-135497510D01*
X108337050Y-135605586D01*
X108348919Y-135750580D01*
X108352782Y-135942326D01*
X108352851Y-135979109D01*
X108352897Y-136392288D01*
X108260954Y-136424339D01*
X108195652Y-136446144D01*
X108159824Y-136456297D01*
X108158770Y-136456391D01*
X108155242Y-136428860D01*
X108152239Y-136352923D01*
X108149990Y-136238565D01*
X108148724Y-136095769D01*
X108148529Y-136008951D01*
X108148123Y-135837773D01*
X108146032Y-135715088D01*
X108140947Y-135631000D01*
X108131560Y-135575614D01*
X108116561Y-135539032D01*
X108094642Y-135511359D01*
X108080957Y-135498032D01*
X107986949Y-135444328D01*
X107884364Y-135440307D01*
X107791290Y-135485725D01*
X107774078Y-135502123D01*
X107748832Y-135532957D01*
X107731320Y-135569531D01*
X107720142Y-135622415D01*
X107713896Y-135702177D01*
X107711182Y-135819385D01*
X107710598Y-135980991D01*
X107710598Y-136392288D01*
X107618655Y-136424339D01*
X107553353Y-136446144D01*
X107517525Y-136456297D01*
X107516471Y-136456391D01*
X107513775Y-136428448D01*
X107511345Y-136349630D01*
X107509278Y-136227453D01*
X107507671Y-136069432D01*
X107506623Y-135883083D01*
X107506231Y-135675920D01*
X107506230Y-135666706D01*
X107506230Y-134877020D01*
X107601115Y-134836997D01*
X107696000Y-134796973D01*
X107710598Y-135041857D01*
G36*
X114301690Y-135258018D02*
G01*
X114336585Y-135273269D01*
X114419877Y-135339235D01*
X114491103Y-135434618D01*
X114535153Y-135536406D01*
X114542322Y-135586587D01*
X114518285Y-135656647D01*
X114465561Y-135693717D01*
X114409031Y-135716164D01*
X114383146Y-135720300D01*
X114370542Y-135690283D01*
X114345654Y-135624961D01*
X114334735Y-135595445D01*
X114273508Y-135493348D01*
X114184861Y-135442423D01*
X114071193Y-135443989D01*
X114062774Y-135445994D01*
X114002088Y-135474767D01*
X113957474Y-135530859D01*
X113927002Y-135621163D01*
X113908744Y-135752571D01*
X113900771Y-135931974D01*
X113900023Y-136027433D01*
X113899652Y-136177913D01*
X113897223Y-136280495D01*
X113890760Y-136345672D01*
X113878288Y-136383938D01*
X113857833Y-136405785D01*
X113827419Y-136421707D01*
X113825661Y-136422509D01*
X113767091Y-136447272D01*
X113738075Y-136456391D01*
X113733616Y-136428822D01*
X113729799Y-136352620D01*
X113726899Y-136237541D01*
X113725191Y-136093341D01*
X113724851Y-135987814D01*
X113726588Y-135783613D01*
X113733382Y-135628697D01*
X113747607Y-135514024D01*
X113771638Y-135430551D01*
X113807848Y-135369236D01*
X113858612Y-135321034D01*
X113908739Y-135287393D01*
X114029275Y-135242619D01*
X114169557Y-135232521D01*
X114301690Y-135258018D01*
G37*
X114301690Y-135258018D02*
X114336585Y-135273269D01*
X114419877Y-135339235D01*
X114491103Y-135434618D01*
X114535153Y-135536406D01*
X114542322Y-135586587D01*
X114518285Y-135656647D01*
X114465561Y-135693717D01*
X114409031Y-135716164D01*
X114383146Y-135720300D01*
X114370542Y-135690283D01*
X114345654Y-135624961D01*
X114334735Y-135595445D01*
X114273508Y-135493348D01*
X114184861Y-135442423D01*
X114071193Y-135443989D01*
X114062774Y-135445994D01*
X114002088Y-135474767D01*
X113957474Y-135530859D01*
X113927002Y-135621163D01*
X113908744Y-135752571D01*
X113900771Y-135931974D01*
X113900023Y-136027433D01*
X113899652Y-136177913D01*
X113897223Y-136280495D01*
X113890760Y-136345672D01*
X113878288Y-136383938D01*
X113857833Y-136405785D01*
X113827419Y-136421707D01*
X113825661Y-136422509D01*
X113767091Y-136447272D01*
X113738075Y-136456391D01*
X113733616Y-136428822D01*
X113729799Y-136352620D01*
X113726899Y-136237541D01*
X113725191Y-136093341D01*
X113724851Y-135987814D01*
X113726588Y-135783613D01*
X113733382Y-135628697D01*
X113747607Y-135514024D01*
X113771638Y-135430551D01*
X113807848Y-135369236D01*
X113858612Y-135321034D01*
X113908739Y-135287393D01*
X114029275Y-135242619D01*
X114169557Y-135232521D01*
X114301690Y-135258018D01*
G36*
X112546124Y-135257840D02*
G01*
X112550579Y-135334653D01*
X112554071Y-135451391D01*
X112556315Y-135598821D01*
X112557035Y-135753455D01*
X112557035Y-136276727D01*
X112464645Y-136369117D01*
X112400978Y-136426047D01*
X112345089Y-136449107D01*
X112268702Y-136447647D01*
X112238380Y-136443934D01*
X112143610Y-136433126D01*
X112065222Y-136426933D01*
X112046115Y-136426361D01*
X111981699Y-136430102D01*
X111889571Y-136439494D01*
X111853850Y-136443934D01*
X111766114Y-136450801D01*
X111707153Y-136435885D01*
X111648690Y-136389835D01*
X111627585Y-136369117D01*
X111535195Y-136276727D01*
X111535195Y-135297947D01*
X111609558Y-135264066D01*
X111673590Y-135238970D01*
X111711052Y-135230184D01*
X111720657Y-135257950D01*
X111729635Y-135335530D01*
X111737386Y-135454348D01*
X111743314Y-135605828D01*
X111746173Y-135733805D01*
X111754161Y-136237425D01*
X111823848Y-136247278D01*
X111887229Y-136240389D01*
X111918286Y-136218083D01*
X111926967Y-136176379D01*
X111934378Y-136087544D01*
X111939931Y-135962834D01*
X111943036Y-135813507D01*
X111943484Y-135736661D01*
X111943931Y-135294287D01*
X112035874Y-135262235D01*
X112100949Y-135240443D01*
X112136347Y-135230281D01*
X112137368Y-135230184D01*
X112140920Y-135257809D01*
X112144823Y-135334411D01*
X112148751Y-135450579D01*
X112152376Y-135596904D01*
X112154908Y-135733805D01*
X112162897Y-136237425D01*
X112338069Y-136237425D01*
X112346107Y-135777965D01*
X112354146Y-135318505D01*
X112439543Y-135274344D01*
X112502593Y-135244019D01*
X112539910Y-135230258D01*
X112540987Y-135230184D01*
X112546124Y-135257840D01*
G37*
X112546124Y-135257840D02*
X112550579Y-135334653D01*
X112554071Y-135451391D01*
X112556315Y-135598821D01*
X112557035Y-135753455D01*
X112557035Y-136276727D01*
X112464645Y-136369117D01*
X112400978Y-136426047D01*
X112345089Y-136449107D01*
X112268702Y-136447647D01*
X112238380Y-136443934D01*
X112143610Y-136433126D01*
X112065222Y-136426933D01*
X112046115Y-136426361D01*
X111981699Y-136430102D01*
X111889571Y-136439494D01*
X111853850Y-136443934D01*
X111766114Y-136450801D01*
X111707153Y-136435885D01*
X111648690Y-136389835D01*
X111627585Y-136369117D01*
X111535195Y-136276727D01*
X111535195Y-135297947D01*
X111609558Y-135264066D01*
X111673590Y-135238970D01*
X111711052Y-135230184D01*
X111720657Y-135257950D01*
X111729635Y-135335530D01*
X111737386Y-135454348D01*
X111743314Y-135605828D01*
X111746173Y-135733805D01*
X111754161Y-136237425D01*
X111823848Y-136247278D01*
X111887229Y-136240389D01*
X111918286Y-136218083D01*
X111926967Y-136176379D01*
X111934378Y-136087544D01*
X111939931Y-135962834D01*
X111943036Y-135813507D01*
X111943484Y-135736661D01*
X111943931Y-135294287D01*
X112035874Y-135262235D01*
X112100949Y-135240443D01*
X112136347Y-135230281D01*
X112137368Y-135230184D01*
X112140920Y-135257809D01*
X112144823Y-135334411D01*
X112148751Y-135450579D01*
X112152376Y-135596904D01*
X112154908Y-135733805D01*
X112162897Y-136237425D01*
X112338069Y-136237425D01*
X112346107Y-135777965D01*
X112354146Y-135318505D01*
X112439543Y-135274344D01*
X112502593Y-135244019D01*
X112539910Y-135230258D01*
X112540987Y-135230184D01*
X112546124Y-135257840D01*
G36*
X110544472Y-135522195D02*
G01*
X110589548Y-135418632D01*
X110659928Y-135337856D01*
X110714743Y-135296455D01*
X110814376Y-135251728D01*
X110929855Y-135230967D01*
X111037199Y-135236525D01*
X111097264Y-135258943D01*
X111120835Y-135265323D01*
X111136477Y-135241535D01*
X111147395Y-135177788D01*
X111155655Y-135080687D01*
X111164699Y-134972541D01*
X111177261Y-134907475D01*
X111200119Y-134870268D01*
X111240051Y-134845699D01*
X111265138Y-134834819D01*
X111360023Y-134795072D01*
X111359914Y-135472455D01*
X111359543Y-135690661D01*
X111358108Y-135858519D01*
X111355002Y-135984070D01*
X111349622Y-136075355D01*
X111341362Y-136140415D01*
X111329616Y-136187291D01*
X111313781Y-136224024D01*
X111301790Y-136244991D01*
X111202490Y-136358694D01*
X111076588Y-136429965D01*
X110937291Y-136455538D01*
X110797805Y-136432150D01*
X110714743Y-136390119D01*
X110627545Y-136317411D01*
X110568117Y-136228612D01*
X110532261Y-136112320D01*
X110515781Y-135957135D01*
X110513447Y-135843287D01*
X110513761Y-135835106D01*
X110717724Y-135835106D01*
X110718970Y-135965657D01*
X110724678Y-136052080D01*
X110737804Y-136108618D01*
X110761306Y-136149514D01*
X110789386Y-136180362D01*
X110883688Y-136239905D01*
X110984940Y-136244992D01*
X111080636Y-136195279D01*
X111088084Y-136188543D01*
X111119874Y-136153502D01*
X111139808Y-136111811D01*
X111150600Y-136049762D01*
X111154965Y-135953644D01*
X111155655Y-135847379D01*
X111154159Y-135713880D01*
X111147964Y-135624822D01*
X111134514Y-135566293D01*
X111111251Y-135524382D01*
X111092175Y-135502123D01*
X111003563Y-135445985D01*
X110901508Y-135439235D01*
X110804095Y-135482114D01*
X110785296Y-135498032D01*
X110753293Y-135533382D01*
X110733318Y-135575502D01*
X110722593Y-135638251D01*
X110718339Y-135735487D01*
X110717724Y-135835106D01*
X110513761Y-135835106D01*
X110520504Y-135659947D01*
X110544472Y-135522195D01*
G37*
X110544472Y-135522195D02*
X110589548Y-135418632D01*
X110659928Y-135337856D01*
X110714743Y-135296455D01*
X110814376Y-135251728D01*
X110929855Y-135230967D01*
X111037199Y-135236525D01*
X111097264Y-135258943D01*
X111120835Y-135265323D01*
X111136477Y-135241535D01*
X111147395Y-135177788D01*
X111155655Y-135080687D01*
X111164699Y-134972541D01*
X111177261Y-134907475D01*
X111200119Y-134870268D01*
X111240051Y-134845699D01*
X111265138Y-134834819D01*
X111360023Y-134795072D01*
X111359914Y-135472455D01*
X111359543Y-135690661D01*
X111358108Y-135858519D01*
X111355002Y-135984070D01*
X111349622Y-136075355D01*
X111341362Y-136140415D01*
X111329616Y-136187291D01*
X111313781Y-136224024D01*
X111301790Y-136244991D01*
X111202490Y-136358694D01*
X111076588Y-136429965D01*
X110937291Y-136455538D01*
X110797805Y-136432150D01*
X110714743Y-136390119D01*
X110627545Y-136317411D01*
X110568117Y-136228612D01*
X110532261Y-136112320D01*
X110515781Y-135957135D01*
X110513447Y-135843287D01*
X110513761Y-135835106D01*
X110717724Y-135835106D01*
X110718970Y-135965657D01*
X110724678Y-136052080D01*
X110737804Y-136108618D01*
X110761306Y-136149514D01*
X110789386Y-136180362D01*
X110883688Y-136239905D01*
X110984940Y-136244992D01*
X111080636Y-136195279D01*
X111088084Y-136188543D01*
X111119874Y-136153502D01*
X111139808Y-136111811D01*
X111150600Y-136049762D01*
X111154965Y-135953644D01*
X111155655Y-135847379D01*
X111154159Y-135713880D01*
X111147964Y-135624822D01*
X111134514Y-135566293D01*
X111111251Y-135524382D01*
X111092175Y-135502123D01*
X111003563Y-135445985D01*
X110901508Y-135439235D01*
X110804095Y-135482114D01*
X110785296Y-135498032D01*
X110753293Y-135533382D01*
X110733318Y-135575502D01*
X110722593Y-135638251D01*
X110718339Y-135735487D01*
X110717724Y-135835106D01*
X110513761Y-135835106D01*
X110520504Y-135659947D01*
X110544472Y-135522195D01*
G36*
X113280406Y-135253156D02*
G01*
X113364469Y-135291393D01*
X113430450Y-135337726D01*
X113478794Y-135389532D01*
X113512172Y-135456363D01*
X113533253Y-135547769D01*
X113544707Y-135673301D01*
X113549203Y-135842508D01*
X113549678Y-135953933D01*
X113549678Y-136388627D01*
X113475316Y-136422509D01*
X113416746Y-136447272D01*
X113387730Y-136456391D01*
X113382179Y-136429257D01*
X113377775Y-136356094D01*
X113375078Y-136249263D01*
X113374506Y-136164437D01*
X113372046Y-136041887D01*
X113365412Y-135944668D01*
X113355726Y-135885134D01*
X113348032Y-135872483D01*
X113296311Y-135885402D01*
X113215117Y-135918539D01*
X113121102Y-135963461D01*
X113030917Y-136011735D01*
X112961215Y-136054928D01*
X112928648Y-136084608D01*
X112928519Y-136084929D01*
X112931320Y-136139857D01*
X112956439Y-136192292D01*
X113000541Y-136234881D01*
X113064909Y-136249126D01*
X113119921Y-136247466D01*
X113197835Y-136246245D01*
X113238732Y-136264498D01*
X113263295Y-136312726D01*
X113266392Y-136321820D01*
X113277040Y-136390598D01*
X113248565Y-136432360D01*
X113174344Y-136452263D01*
X113094168Y-136455944D01*
X112949890Y-136428658D01*
X112875203Y-136389690D01*
X112782963Y-136298148D01*
X112734043Y-136185782D01*
X112729654Y-136067051D01*
X112771001Y-135956411D01*
X112833197Y-135887080D01*
X112895294Y-135848265D01*
X112992895Y-135799125D01*
X113106632Y-135749292D01*
X113125590Y-135741677D01*
X113250521Y-135686545D01*
X113322539Y-135637954D01*
X113345700Y-135589647D01*
X113324064Y-135535370D01*
X113286920Y-135492943D01*
X113199127Y-135440702D01*
X113102530Y-135436784D01*
X113013944Y-135477041D01*
X112950186Y-135557326D01*
X112941817Y-135578040D01*
X112893096Y-135654225D01*
X112821965Y-135710785D01*
X112732207Y-135757201D01*
X112732207Y-135625584D01*
X112737490Y-135545168D01*
X112760142Y-135481786D01*
X112810367Y-135414163D01*
X112858582Y-135362076D01*
X112933554Y-135288322D01*
X112991806Y-135248702D01*
X113054372Y-135232810D01*
X113125193Y-135230184D01*
X113280406Y-135253156D01*
G37*
X113280406Y-135253156D02*
X113364469Y-135291393D01*
X113430450Y-135337726D01*
X113478794Y-135389532D01*
X113512172Y-135456363D01*
X113533253Y-135547769D01*
X113544707Y-135673301D01*
X113549203Y-135842508D01*
X113549678Y-135953933D01*
X113549678Y-136388627D01*
X113475316Y-136422509D01*
X113416746Y-136447272D01*
X113387730Y-136456391D01*
X113382179Y-136429257D01*
X113377775Y-136356094D01*
X113375078Y-136249263D01*
X113374506Y-136164437D01*
X113372046Y-136041887D01*
X113365412Y-135944668D01*
X113355726Y-135885134D01*
X113348032Y-135872483D01*
X113296311Y-135885402D01*
X113215117Y-135918539D01*
X113121102Y-135963461D01*
X113030917Y-136011735D01*
X112961215Y-136054928D01*
X112928648Y-136084608D01*
X112928519Y-136084929D01*
X112931320Y-136139857D01*
X112956439Y-136192292D01*
X113000541Y-136234881D01*
X113064909Y-136249126D01*
X113119921Y-136247466D01*
X113197835Y-136246245D01*
X113238732Y-136264498D01*
X113263295Y-136312726D01*
X113266392Y-136321820D01*
X113277040Y-136390598D01*
X113248565Y-136432360D01*
X113174344Y-136452263D01*
X113094168Y-136455944D01*
X112949890Y-136428658D01*
X112875203Y-136389690D01*
X112782963Y-136298148D01*
X112734043Y-136185782D01*
X112729654Y-136067051D01*
X112771001Y-135956411D01*
X112833197Y-135887080D01*
X112895294Y-135848265D01*
X112992895Y-135799125D01*
X113106632Y-135749292D01*
X113125590Y-135741677D01*
X113250521Y-135686545D01*
X113322539Y-135637954D01*
X113345700Y-135589647D01*
X113324064Y-135535370D01*
X113286920Y-135492943D01*
X113199127Y-135440702D01*
X113102530Y-135436784D01*
X113013944Y-135477041D01*
X112950186Y-135557326D01*
X112941817Y-135578040D01*
X112893096Y-135654225D01*
X112821965Y-135710785D01*
X112732207Y-135757201D01*
X112732207Y-135625584D01*
X112737490Y-135545168D01*
X112760142Y-135481786D01*
X112810367Y-135414163D01*
X112858582Y-135362076D01*
X112933554Y-135288322D01*
X112991806Y-135248702D01*
X113054372Y-135232810D01*
X113125193Y-135230184D01*
X113280406Y-135253156D01*
G36*
X110031943Y-135239920D02*
G01*
X110164565Y-135288859D01*
X110272010Y-135375419D01*
X110314032Y-135436352D01*
X110359843Y-135548161D01*
X110358891Y-135629006D01*
X110310808Y-135683378D01*
X110293017Y-135692624D01*
X110216204Y-135721450D01*
X110176976Y-135714065D01*
X110163689Y-135665658D01*
X110163012Y-135638920D01*
X110138686Y-135540548D01*
X110075281Y-135471734D01*
X109987154Y-135438498D01*
X109888663Y-135446861D01*
X109808602Y-135490296D01*
X109781561Y-135515072D01*
X109762394Y-135545129D01*
X109749446Y-135590565D01*
X109741064Y-135661476D01*
X109735593Y-135767960D01*
X109731378Y-135920112D01*
X109730287Y-135968287D01*
X109726307Y-136133095D01*
X109721781Y-136249088D01*
X109714995Y-136325833D01*
X109704231Y-136372893D01*
X109687773Y-136399835D01*
X109663906Y-136416223D01*
X109648626Y-136423463D01*
X109583733Y-136448220D01*
X109545534Y-136456391D01*
X109532912Y-136429103D01*
X109525208Y-136346603D01*
X109522380Y-136207941D01*
X109524386Y-136012162D01*
X109525011Y-135981965D01*
X109529421Y-135803349D01*
X109534635Y-135672923D01*
X109542055Y-135580492D01*
X109553082Y-135515858D01*
X109569117Y-135468825D01*
X109591561Y-135429196D01*
X109603302Y-135412215D01*
X109670619Y-135337080D01*
X109745910Y-135278638D01*
X109755128Y-135273536D01*
X109890133Y-135233260D01*
X110031943Y-135239920D01*
G37*
X110031943Y-135239920D02*
X110164565Y-135288859D01*
X110272010Y-135375419D01*
X110314032Y-135436352D01*
X110359843Y-135548161D01*
X110358891Y-135629006D01*
X110310808Y-135683378D01*
X110293017Y-135692624D01*
X110216204Y-135721450D01*
X110176976Y-135714065D01*
X110163689Y-135665658D01*
X110163012Y-135638920D01*
X110138686Y-135540548D01*
X110075281Y-135471734D01*
X109987154Y-135438498D01*
X109888663Y-135446861D01*
X109808602Y-135490296D01*
X109781561Y-135515072D01*
X109762394Y-135545129D01*
X109749446Y-135590565D01*
X109741064Y-135661476D01*
X109735593Y-135767960D01*
X109731378Y-135920112D01*
X109730287Y-135968287D01*
X109726307Y-136133095D01*
X109721781Y-136249088D01*
X109714995Y-136325833D01*
X109704231Y-136372893D01*
X109687773Y-136399835D01*
X109663906Y-136416223D01*
X109648626Y-136423463D01*
X109583733Y-136448220D01*
X109545534Y-136456391D01*
X109532912Y-136429103D01*
X109525208Y-136346603D01*
X109522380Y-136207941D01*
X109524386Y-136012162D01*
X109525011Y-135981965D01*
X109529421Y-135803349D01*
X109534635Y-135672923D01*
X109542055Y-135580492D01*
X109553082Y-135515858D01*
X109569117Y-135468825D01*
X109591561Y-135429196D01*
X109603302Y-135412215D01*
X109670619Y-135337080D01*
X109745910Y-135278638D01*
X109755128Y-135273536D01*
X109890133Y-135233260D01*
X110031943Y-135239920D01*
G36*
X109045944Y-135242360D02*
G01*
X109160343Y-135284842D01*
X109161652Y-135285658D01*
X109232403Y-135337730D01*
X109284636Y-135398584D01*
X109321371Y-135477887D01*
X109345634Y-135585309D01*
X109360445Y-135730517D01*
X109368829Y-135923179D01*
X109369564Y-135950628D01*
X109380120Y-136364521D01*
X109291291Y-136410456D01*
X109227018Y-136441498D01*
X109188210Y-136456206D01*
X109186415Y-136456391D01*
X109179700Y-136429250D01*
X109174365Y-136356041D01*
X109171083Y-136249081D01*
X109170368Y-136162469D01*
X109170351Y-136022162D01*
X109163937Y-135934051D01*
X109141580Y-135892025D01*
X109093732Y-135889975D01*
X109010849Y-135921790D01*
X108885713Y-135980272D01*
X108793697Y-136028845D01*
X108746371Y-136070986D01*
X108732458Y-136116916D01*
X108732437Y-136119189D01*
X108755395Y-136198311D01*
X108823370Y-136241055D01*
X108927398Y-136247246D01*
X109002330Y-136246172D01*
X109041839Y-136267753D01*
X109066478Y-136319591D01*
X109080659Y-136385632D01*
X109060223Y-136423104D01*
X109052528Y-136428467D01*
X108980083Y-136450006D01*
X108878633Y-136453055D01*
X108774157Y-136438778D01*
X108700125Y-136412688D01*
X108597772Y-136325785D01*
X108539591Y-136204816D01*
X108528069Y-136110308D01*
X108536862Y-136025062D01*
X108568680Y-135955476D01*
X108631684Y-135893672D01*
X108734031Y-135831772D01*
X108883882Y-135761897D01*
X108893012Y-135757948D01*
X109027997Y-135695588D01*
X109111294Y-135644446D01*
X109146997Y-135598488D01*
X109139203Y-135551683D01*
X109092007Y-135497998D01*
X109077894Y-135485644D01*
X108983359Y-135437741D01*
X108885406Y-135439758D01*
X108800097Y-135486724D01*
X108743496Y-135573669D01*
X108738237Y-135590734D01*
X108687023Y-135673504D01*
X108622037Y-135713372D01*
X108528069Y-135752882D01*
X108528069Y-135650658D01*
X108556653Y-135502072D01*
X108641495Y-135365784D01*
X108685645Y-135320191D01*
X108786005Y-135261674D01*
X108913635Y-135235184D01*
X109045944Y-135242360D01*
G37*
X109045944Y-135242360D02*
X109160343Y-135284842D01*
X109161652Y-135285658D01*
X109232403Y-135337730D01*
X109284636Y-135398584D01*
X109321371Y-135477887D01*
X109345634Y-135585309D01*
X109360445Y-135730517D01*
X109368829Y-135923179D01*
X109369564Y-135950628D01*
X109380120Y-136364521D01*
X109291291Y-136410456D01*
X109227018Y-136441498D01*
X109188210Y-136456206D01*
X109186415Y-136456391D01*
X109179700Y-136429250D01*
X109174365Y-136356041D01*
X109171083Y-136249081D01*
X109170368Y-136162469D01*
X109170351Y-136022162D01*
X109163937Y-135934051D01*
X109141580Y-135892025D01*
X109093732Y-135889975D01*
X109010849Y-135921790D01*
X108885713Y-135980272D01*
X108793697Y-136028845D01*
X108746371Y-136070986D01*
X108732458Y-136116916D01*
X108732437Y-136119189D01*
X108755395Y-136198311D01*
X108823370Y-136241055D01*
X108927398Y-136247246D01*
X109002330Y-136246172D01*
X109041839Y-136267753D01*
X109066478Y-136319591D01*
X109080659Y-136385632D01*
X109060223Y-136423104D01*
X109052528Y-136428467D01*
X108980083Y-136450006D01*
X108878633Y-136453055D01*
X108774157Y-136438778D01*
X108700125Y-136412688D01*
X108597772Y-136325785D01*
X108539591Y-136204816D01*
X108528069Y-136110308D01*
X108536862Y-136025062D01*
X108568680Y-135955476D01*
X108631684Y-135893672D01*
X108734031Y-135831772D01*
X108883882Y-135761897D01*
X108893012Y-135757948D01*
X109027997Y-135695588D01*
X109111294Y-135644446D01*
X109146997Y-135598488D01*
X109139203Y-135551683D01*
X109092007Y-135497998D01*
X109077894Y-135485644D01*
X108983359Y-135437741D01*
X108885406Y-135439758D01*
X108800097Y-135486724D01*
X108743496Y-135573669D01*
X108738237Y-135590734D01*
X108687023Y-135673504D01*
X108622037Y-135713372D01*
X108528069Y-135752882D01*
X108528069Y-135650658D01*
X108556653Y-135502072D01*
X108641495Y-135365784D01*
X108685645Y-135320191D01*
X108786005Y-135261674D01*
X108913635Y-135235184D01*
X109045944Y-135242360D01*
G36*
X103522247Y-135643382D02*
G01*
X103527826Y-135548087D01*
X103535746Y-135480364D01*
X103546731Y-135432507D01*
X103561501Y-135396813D01*
X103580782Y-135365578D01*
X103589049Y-135353824D01*
X103698712Y-135242797D01*
X103837365Y-135179847D01*
X103997754Y-135162297D01*
X104137900Y-135179903D01*
X104249450Y-135235522D01*
X104347908Y-135337931D01*
X104375023Y-135375864D01*
X104404562Y-135425500D01*
X104423728Y-135479412D01*
X104434693Y-135551364D01*
X104439629Y-135655122D01*
X104440713Y-135792101D01*
X104435818Y-135979815D01*
X104418804Y-136120758D01*
X104386177Y-136225908D01*
X104334442Y-136306243D01*
X104260104Y-136372741D01*
X104254642Y-136376678D01*
X104181380Y-136416953D01*
X104093160Y-136436880D01*
X103980962Y-136441793D01*
X103798567Y-136441793D01*
X103798491Y-136618857D01*
X103796793Y-136717470D01*
X103786450Y-136775314D01*
X103759422Y-136810006D01*
X103707668Y-136839164D01*
X103695239Y-136845121D01*
X103637077Y-136873039D01*
X103592044Y-136890672D01*
X103558559Y-136892194D01*
X103535038Y-136871781D01*
X103519900Y-136823607D01*
X103511563Y-136741846D01*
X103508444Y-136620672D01*
X103508960Y-136454260D01*
X103511529Y-136236785D01*
X103512332Y-136171736D01*
X103515222Y-135947502D01*
X103517812Y-135800821D01*
X103798414Y-135800821D01*
X103799991Y-135925326D01*
X103807000Y-136006787D01*
X103822858Y-136060515D01*
X103850981Y-136101823D01*
X103870075Y-136121971D01*
X103948135Y-136180921D01*
X104017247Y-136185720D01*
X104088560Y-136137038D01*
X104090368Y-136135241D01*
X104119383Y-136097618D01*
X104137033Y-136046484D01*
X104145936Y-135967738D01*
X104148709Y-135847276D01*
X104148759Y-135820588D01*
X104142058Y-135654583D01*
X104120248Y-135539505D01*
X104080765Y-135469254D01*
X104021044Y-135437729D01*
X103986528Y-135434552D01*
X103904611Y-135449460D01*
X103848421Y-135498548D01*
X103814598Y-135588362D01*
X103799780Y-135725445D01*
X103798414Y-135800821D01*
X103517812Y-135800821D01*
X103518287Y-135773952D01*
X103522247Y-135643382D01*
G37*
X103522247Y-135643382D02*
X103527826Y-135548087D01*
X103535746Y-135480364D01*
X103546731Y-135432507D01*
X103561501Y-135396813D01*
X103580782Y-135365578D01*
X103589049Y-135353824D01*
X103698712Y-135242797D01*
X103837365Y-135179847D01*
X103997754Y-135162297D01*
X104137900Y-135179903D01*
X104249450Y-135235522D01*
X104347908Y-135337931D01*
X104375023Y-135375864D01*
X104404562Y-135425500D01*
X104423728Y-135479412D01*
X104434693Y-135551364D01*
X104439629Y-135655122D01*
X104440713Y-135792101D01*
X104435818Y-135979815D01*
X104418804Y-136120758D01*
X104386177Y-136225908D01*
X104334442Y-136306243D01*
X104260104Y-136372741D01*
X104254642Y-136376678D01*
X104181380Y-136416953D01*
X104093160Y-136436880D01*
X103980962Y-136441793D01*
X103798567Y-136441793D01*
X103798491Y-136618857D01*
X103796793Y-136717470D01*
X103786450Y-136775314D01*
X103759422Y-136810006D01*
X103707668Y-136839164D01*
X103695239Y-136845121D01*
X103637077Y-136873039D01*
X103592044Y-136890672D01*
X103558559Y-136892194D01*
X103535038Y-136871781D01*
X103519900Y-136823607D01*
X103511563Y-136741846D01*
X103508444Y-136620672D01*
X103508960Y-136454260D01*
X103511529Y-136236785D01*
X103512332Y-136171736D01*
X103515222Y-135947502D01*
X103517812Y-135800821D01*
X103798414Y-135800821D01*
X103799991Y-135925326D01*
X103807000Y-136006787D01*
X103822858Y-136060515D01*
X103850981Y-136101823D01*
X103870075Y-136121971D01*
X103948135Y-136180921D01*
X104017247Y-136185720D01*
X104088560Y-136137038D01*
X104090368Y-136135241D01*
X104119383Y-136097618D01*
X104137033Y-136046484D01*
X104145936Y-135967738D01*
X104148709Y-135847276D01*
X104148759Y-135820588D01*
X104142058Y-135654583D01*
X104120248Y-135539505D01*
X104080765Y-135469254D01*
X104021044Y-135437729D01*
X103986528Y-135434552D01*
X103904611Y-135449460D01*
X103848421Y-135498548D01*
X103814598Y-135588362D01*
X103799780Y-135725445D01*
X103798414Y-135800821D01*
X103517812Y-135800821D01*
X103518287Y-135773952D01*
X103522247Y-135643382D01*
G36*
X114735359Y-135532853D02*
G01*
X114762894Y-135434916D01*
X114807572Y-135362811D01*
X114872901Y-135305813D01*
X114901383Y-135287393D01*
X115030763Y-135239422D01*
X115172412Y-135236403D01*
X115309439Y-135274540D01*
X115424950Y-135350034D01*
X115480664Y-135417617D01*
X115524804Y-135540255D01*
X115528309Y-135637298D01*
X115520368Y-135767056D01*
X115221115Y-135898039D01*
X115075611Y-135964958D01*
X114980537Y-136018790D01*
X114931101Y-136065416D01*
X114922511Y-136110720D01*
X114949972Y-136160582D01*
X114980253Y-136193632D01*
X115068363Y-136246633D01*
X115164196Y-136250347D01*
X115252212Y-136209041D01*
X115316869Y-136126983D01*
X115328433Y-136098008D01*
X115383825Y-136007509D01*
X115447553Y-135968940D01*
X115534966Y-135935946D01*
X115534966Y-136061034D01*
X115527238Y-136146156D01*
X115496966Y-136217938D01*
X115433518Y-136300356D01*
X115424088Y-136311066D01*
X115353513Y-136384391D01*
X115292847Y-136423742D01*
X115216950Y-136441845D01*
X115154030Y-136447774D01*
X115041487Y-136449251D01*
X114961370Y-136430535D01*
X114911390Y-136402747D01*
X114832838Y-136341641D01*
X114778463Y-136275554D01*
X114744052Y-136192441D01*
X114725388Y-136080254D01*
X114718256Y-135926946D01*
X114717687Y-135849136D01*
X114719622Y-135755853D01*
X114895899Y-135755853D01*
X114897944Y-135805896D01*
X114903039Y-135814092D01*
X114936666Y-135802958D01*
X115009030Y-135773493D01*
X115105747Y-135731601D01*
X115125973Y-135722597D01*
X115248203Y-135660442D01*
X115315547Y-135605815D01*
X115330348Y-135554649D01*
X115294947Y-135502876D01*
X115265711Y-135480000D01*
X115160216Y-135434250D01*
X115061476Y-135441808D01*
X114978812Y-135497651D01*
X114921548Y-135596753D01*
X114903188Y-135675414D01*
X114895899Y-135755853D01*
X114719622Y-135755853D01*
X114721459Y-135667351D01*
X114735359Y-135532853D01*
G37*
X114735359Y-135532853D02*
X114762894Y-135434916D01*
X114807572Y-135362811D01*
X114872901Y-135305813D01*
X114901383Y-135287393D01*
X115030763Y-135239422D01*
X115172412Y-135236403D01*
X115309439Y-135274540D01*
X115424950Y-135350034D01*
X115480664Y-135417617D01*
X115524804Y-135540255D01*
X115528309Y-135637298D01*
X115520368Y-135767056D01*
X115221115Y-135898039D01*
X115075611Y-135964958D01*
X114980537Y-136018790D01*
X114931101Y-136065416D01*
X114922511Y-136110720D01*
X114949972Y-136160582D01*
X114980253Y-136193632D01*
X115068363Y-136246633D01*
X115164196Y-136250347D01*
X115252212Y-136209041D01*
X115316869Y-136126983D01*
X115328433Y-136098008D01*
X115383825Y-136007509D01*
X115447553Y-135968940D01*
X115534966Y-135935946D01*
X115534966Y-136061034D01*
X115527238Y-136146156D01*
X115496966Y-136217938D01*
X115433518Y-136300356D01*
X115424088Y-136311066D01*
X115353513Y-136384391D01*
X115292847Y-136423742D01*
X115216950Y-136441845D01*
X115154030Y-136447774D01*
X115041487Y-136449251D01*
X114961370Y-136430535D01*
X114911390Y-136402747D01*
X114832838Y-136341641D01*
X114778463Y-136275554D01*
X114744052Y-136192441D01*
X114725388Y-136080254D01*
X114718256Y-135926946D01*
X114717687Y-135849136D01*
X114719622Y-135755853D01*
X114895899Y-135755853D01*
X114897944Y-135805896D01*
X114903039Y-135814092D01*
X114936666Y-135802958D01*
X115009030Y-135773493D01*
X115105747Y-135731601D01*
X115125973Y-135722597D01*
X115248203Y-135660442D01*
X115315547Y-135605815D01*
X115330348Y-135554649D01*
X115294947Y-135502876D01*
X115265711Y-135480000D01*
X115160216Y-135434250D01*
X115061476Y-135441808D01*
X114978812Y-135497651D01*
X114921548Y-135596753D01*
X114903188Y-135675414D01*
X114895899Y-135755853D01*
X114719622Y-135755853D01*
X114721459Y-135667351D01*
X114735359Y-135532853D01*
D12*
X103270000Y-87865000D02*
X105620000Y-87865000D01*
X110090000Y-87865000D02*
X107740000Y-87865000D01*
X104334437Y-81045000D02*
X103270000Y-82109437D01*
X109025563Y-81045000D02*
X107740000Y-81045000D01*
X104334437Y-81045000D02*
X105620000Y-81045000D01*
X110090000Y-82109437D02*
X110090000Y-87865000D01*
X108527500Y-80017500D02*
X108527500Y-80805000D01*
X108921250Y-80411250D02*
X108133750Y-80411250D01*
X103270000Y-82109437D02*
X103270000Y-87865000D01*
X109025563Y-81045000D02*
X110090000Y-82109437D01*
X162050000Y-130220000D02*
X163070000Y-130220000D01*
X162050000Y-135420000D02*
X163070000Y-135420000D01*
X164590000Y-135420000D02*
X165610000Y-135420000D01*
X156970000Y-135420000D02*
X157990000Y-135420000D01*
X141730000Y-130220000D02*
X142750000Y-130220000D01*
X172210000Y-130220000D02*
X172780000Y-130220000D01*
X126490000Y-135420000D02*
X127510000Y-135420000D01*
X172210000Y-135420000D02*
X172780000Y-135420000D01*
X122430000Y-128780000D02*
X122430000Y-130220000D01*
X123950000Y-130220000D02*
X124970000Y-130220000D01*
X129030000Y-135420000D02*
X130050000Y-135420000D01*
X134110000Y-135420000D02*
X135130000Y-135420000D01*
X121860000Y-130220000D02*
X122430000Y-130220000D01*
X146810000Y-135420000D02*
X147830000Y-135420000D01*
X159510000Y-135420000D02*
X160530000Y-135420000D01*
X129030000Y-130220000D02*
X130050000Y-130220000D01*
X144270000Y-135420000D02*
X145290000Y-135420000D01*
X139190000Y-130220000D02*
X140210000Y-130220000D01*
X141730000Y-135420000D02*
X142750000Y-135420000D01*
X131570000Y-135420000D02*
X132590000Y-135420000D01*
X169670000Y-135420000D02*
X170690000Y-135420000D01*
X151890000Y-130220000D02*
X152910000Y-130220000D01*
X151890000Y-135420000D02*
X152910000Y-135420000D01*
X131570000Y-130220000D02*
X132590000Y-130220000D01*
X149350000Y-130220000D02*
X150370000Y-130220000D01*
X159510000Y-130220000D02*
X160530000Y-130220000D01*
X144270000Y-130220000D02*
X145290000Y-130220000D01*
X172780000Y-130220000D02*
X172780000Y-135420000D01*
X167130000Y-135420000D02*
X168150000Y-135420000D01*
X149350000Y-135420000D02*
X150370000Y-135420000D01*
X169670000Y-130220000D02*
X170690000Y-130220000D01*
X126490000Y-130220000D02*
X127510000Y-130220000D01*
X121860000Y-135420000D02*
X122430000Y-135420000D01*
X167130000Y-130220000D02*
X168150000Y-130220000D01*
X136650000Y-135420000D02*
X137670000Y-135420000D01*
X139190000Y-135420000D02*
X140210000Y-135420000D01*
X146810000Y-130220000D02*
X147830000Y-130220000D01*
X136650000Y-130220000D02*
X137670000Y-130220000D01*
X154430000Y-130220000D02*
X155450000Y-130220000D01*
X134110000Y-130220000D02*
X135130000Y-130220000D01*
X123950000Y-135420000D02*
X124970000Y-135420000D01*
X164590000Y-130220000D02*
X165610000Y-130220000D01*
X121860000Y-130220000D02*
X121860000Y-135420000D01*
X154430000Y-135420000D02*
X155450000Y-135420000D01*
X156970000Y-130220000D02*
X157990000Y-130220000D01*
X105920000Y-102820000D02*
X102920000Y-102820000D01*
X115520000Y-102820000D02*
X112520000Y-102820000D01*
X102920000Y-102820000D02*
X102920000Y-90220000D01*
X115520000Y-90220000D02*
X115520000Y-102820000D01*
X102920000Y-90220000D02*
X105920000Y-90220000D01*
X112520000Y-90220000D02*
X115520000Y-90220000D01*
X152470000Y-142300000D02*
X152470000Y-139640000D01*
X143520000Y-142300000D02*
X142190000Y-142300000D01*
X144790000Y-139640000D02*
X152470000Y-139640000D01*
X144790000Y-142300000D02*
X144790000Y-139640000D01*
X142190000Y-142300000D02*
X142190000Y-140970000D01*
X144790000Y-142300000D02*
X152470000Y-142300000D01*
%LPC*%
D14*
X101890000Y-141224000D03*
X106390000Y-141224000D03*
X105730990Y-142814990D03*
X102549010Y-142814990D03*
X104140000Y-138974000D03*
X105730990Y-139633010D03*
X102549010Y-139633010D03*
X104140000Y-143474000D03*
D15*
X104140000Y-141224000D03*
D16*
X171450000Y-140970000D03*
D17*
X168910000Y-140970000D03*
X166370000Y-140970000D03*
D16*
X128255000Y-140970000D03*
D17*
X125715000Y-140970000D03*
X123175000Y-140970000D03*
D18*
X109474000Y-110236000D03*
X104074000Y-110236000D03*
D19*
X176320000Y-132820000D03*
X118320000Y-132820000D03*
D20*
X123190000Y-86345000D03*
X123190000Y-81295000D03*
X125730000Y-86345000D03*
X125730000Y-81295000D03*
X128270000Y-86345000D03*
X128270000Y-81295000D03*
X130810000Y-86345000D03*
X130810000Y-81295000D03*
X133350000Y-86345000D03*
X133350000Y-81295000D03*
X135890000Y-86345000D03*
X135890000Y-81295000D03*
X138430000Y-86345000D03*
X138430000Y-81295000D03*
X140970000Y-86345000D03*
X140970000Y-81295000D03*
X143510000Y-86345000D03*
X143510000Y-81295000D03*
X146050000Y-86345000D03*
X146050000Y-81295000D03*
X148590000Y-86345000D03*
X148590000Y-81295000D03*
X151130000Y-86345000D03*
X151130000Y-81295000D03*
X153670000Y-86345000D03*
X153670000Y-81295000D03*
X156210000Y-86345000D03*
X156210000Y-81295000D03*
X158750000Y-86345000D03*
X158750000Y-81295000D03*
X161290000Y-86345000D03*
X161290000Y-81295000D03*
X163830000Y-86345000D03*
X163830000Y-81295000D03*
X166370000Y-86345000D03*
X166370000Y-81295000D03*
X168910000Y-86345000D03*
X168910000Y-81295000D03*
X171450000Y-86345000D03*
X171450000Y-81295000D03*
D19*
X118320000Y-83820000D03*
D21*
X106680000Y-81755000D03*
X106680000Y-87155000D03*
D20*
X123190000Y-130295000D03*
X123190000Y-135345000D03*
X125730000Y-130295000D03*
X125730000Y-135345000D03*
X128270000Y-130295000D03*
X128270000Y-135345000D03*
X130810000Y-130295000D03*
X130810000Y-135345000D03*
X133350000Y-130295000D03*
X133350000Y-135345000D03*
X135890000Y-130295000D03*
X135890000Y-135345000D03*
X138430000Y-130295000D03*
X138430000Y-135345000D03*
X140970000Y-130295000D03*
X140970000Y-135345000D03*
X143510000Y-130295000D03*
X143510000Y-135345000D03*
X146050000Y-130295000D03*
X146050000Y-135345000D03*
X148590000Y-130295000D03*
X148590000Y-135345000D03*
X151130000Y-130295000D03*
X151130000Y-135345000D03*
X153670000Y-130295000D03*
X153670000Y-135345000D03*
X156210000Y-130295000D03*
X156210000Y-135345000D03*
X158750000Y-130295000D03*
X158750000Y-135345000D03*
X161290000Y-130295000D03*
X161290000Y-135345000D03*
X163830000Y-130295000D03*
X163830000Y-135345000D03*
X166370000Y-130295000D03*
X166370000Y-135345000D03*
X168910000Y-130295000D03*
X168910000Y-135345000D03*
X171450000Y-130295000D03*
X171450000Y-135345000D03*
D22*
X109220000Y-91570000D03*
X109220000Y-101470000D03*
D19*
X176320000Y-83820000D03*
D16*
X143520000Y-140970000D03*
D17*
X146060000Y-140970000D03*
X148600000Y-140970000D03*
X151140000Y-140970000D03*
D14*
X105730990Y-74609010D03*
D15*
X104140000Y-76200000D03*
D14*
X102549010Y-74609010D03*
X104140000Y-73950000D03*
X101890000Y-76200000D03*
X106390000Y-76200000D03*
X102549010Y-77790990D03*
X105730990Y-77790990D03*
X104140000Y-78450000D03*
X197424990Y-139633010D03*
X194243010Y-139633010D03*
X198084000Y-141224000D03*
X193584000Y-141224000D03*
X195834000Y-143474000D03*
X194243010Y-142814990D03*
X195834000Y-138974000D03*
D15*
X195834000Y-141224000D03*
D14*
X197424990Y-142814990D03*
D15*
X195834000Y-76200000D03*
D14*
X197424990Y-74609010D03*
X195834000Y-73950000D03*
X194243010Y-74609010D03*
X198084000Y-76200000D03*
X197424990Y-77790990D03*
X194243010Y-77790990D03*
X195834000Y-78450000D03*
X193584000Y-76200000D03*
M02*
