%TF.GenerationSoftware,KiCad,Pcbnew,(6.0.5)*%
%TF.CreationDate,2022-06-02T10:53:14+02:00*%
%TF.ProjectId,Helios-Display,48656c69-6f73-42d4-9469-73706c61792e,5*%
%TF.SameCoordinates,Original*%
%TF.FileFunction,Soldermask,Bot*%
%TF.FilePolarity,Negative*%
%FSLAX46Y46*%
G04 Gerber Fmt 4.6, Leading zero omitted, Abs format (unit mm)*
G04 Created by KiCad (PCBNEW (6.0.5)) date 2022-06-02 10:53:14*
%MOMM*%
%LPD*%
G01*
G04 APERTURE LIST*
G04 Aperture macros list*
%AMRoundRect*
0 Rectangle with rounded corners*
0 $1 Rounding radius*
0 $2 $3 $4 $5 $6 $7 $8 $9 X,Y pos of 4 corners*
0 Add a 4 corners polygon primitive as box body*
4,1,4,$2,$3,$4,$5,$6,$7,$8,$9,$2,$3,0*
0 Add four circle primitives for the rounded corners*
1,1,$1+$1,$2,$3*
1,1,$1+$1,$4,$5*
1,1,$1+$1,$6,$7*
1,1,$1+$1,$8,$9*
0 Add four rect primitives between the rounded corners*
20,1,$1+$1,$2,$3,$4,$5,0*
20,1,$1+$1,$4,$5,$6,$7,0*
20,1,$1+$1,$6,$7,$8,$9,0*
20,1,$1+$1,$8,$9,$2,$3,0*%
G04 Aperture macros list end*
%ADD10C,0.800000*%
%ADD11C,6.000000*%
%ADD12R,1.700000X1.700000*%
%ADD13O,1.700000X1.700000*%
%ADD14C,2.500000*%
%ADD15RoundRect,0.237500X-0.237500X0.300000X-0.237500X-0.300000X0.237500X-0.300000X0.237500X0.300000X0*%
%ADD16RoundRect,0.150000X0.150000X-0.825000X0.150000X0.825000X-0.150000X0.825000X-0.150000X-0.825000X0*%
%ADD17RoundRect,0.062500X-0.062500X0.350000X-0.062500X-0.350000X0.062500X-0.350000X0.062500X0.350000X0*%
%ADD18RoundRect,0.062500X-0.350000X0.062500X-0.350000X-0.062500X0.350000X-0.062500X0.350000X0.062500X0*%
%ADD19R,2.500000X2.500000*%
%ADD20R,0.300000X1.300000*%
%ADD21R,1.800000X2.200000*%
%ADD22RoundRect,0.250000X0.625000X-0.400000X0.625000X0.400000X-0.625000X0.400000X-0.625000X-0.400000X0*%
%ADD23RoundRect,0.237500X0.237500X-0.300000X0.237500X0.300000X-0.237500X0.300000X-0.237500X-0.300000X0*%
%ADD24RoundRect,0.237500X0.250000X0.237500X-0.250000X0.237500X-0.250000X-0.237500X0.250000X-0.237500X0*%
%ADD25RoundRect,0.250000X0.412500X1.100000X-0.412500X1.100000X-0.412500X-1.100000X0.412500X-1.100000X0*%
%ADD26RoundRect,0.237500X-0.250000X-0.237500X0.250000X-0.237500X0.250000X0.237500X-0.250000X0.237500X0*%
%ADD27R,3.300000X2.500000*%
%ADD28RoundRect,0.250000X0.337500X0.475000X-0.337500X0.475000X-0.337500X-0.475000X0.337500X-0.475000X0*%
%ADD29RoundRect,0.237500X-0.300000X-0.237500X0.300000X-0.237500X0.300000X0.237500X-0.300000X0.237500X0*%
%ADD30RoundRect,0.250001X0.462499X0.624999X-0.462499X0.624999X-0.462499X-0.624999X0.462499X-0.624999X0*%
%ADD31RoundRect,0.250000X-1.100000X0.412500X-1.100000X-0.412500X1.100000X-0.412500X1.100000X0.412500X0*%
%ADD32RoundRect,0.237500X0.237500X-0.250000X0.237500X0.250000X-0.237500X0.250000X-0.237500X-0.250000X0*%
%ADD33RoundRect,0.237500X-0.237500X0.250000X-0.237500X-0.250000X0.237500X-0.250000X0.237500X0.250000X0*%
%ADD34RoundRect,0.250000X0.400000X0.625000X-0.400000X0.625000X-0.400000X-0.625000X0.400000X-0.625000X0*%
G04 APERTURE END LIST*
D10*
X101890000Y-141224000D03*
X106390000Y-141224000D03*
X105730990Y-142814990D03*
X102549010Y-142814990D03*
X104140000Y-138974000D03*
X105730990Y-139633010D03*
X102549010Y-139633010D03*
X104140000Y-143474000D03*
D11*
X104140000Y-141224000D03*
D12*
X171450000Y-140970000D03*
D13*
X168910000Y-140970000D03*
X166370000Y-140970000D03*
D12*
X128255000Y-140970000D03*
D13*
X125715000Y-140970000D03*
X123175000Y-140970000D03*
D14*
X176320000Y-132820000D03*
X118320000Y-132820000D03*
X118320000Y-83820000D03*
X176320000Y-83820000D03*
D12*
X143520000Y-140970000D03*
D13*
X146060000Y-140970000D03*
X148600000Y-140970000D03*
X151140000Y-140970000D03*
D10*
X105730990Y-74609010D03*
D11*
X104140000Y-76200000D03*
D10*
X102549010Y-74609010D03*
X104140000Y-73950000D03*
X101890000Y-76200000D03*
X106390000Y-76200000D03*
X102549010Y-77790990D03*
X105730990Y-77790990D03*
X104140000Y-78450000D03*
X197424990Y-139633010D03*
X194243010Y-139633010D03*
X198084000Y-141224000D03*
X193584000Y-141224000D03*
X195834000Y-143474000D03*
X194243010Y-142814990D03*
X195834000Y-138974000D03*
D11*
X195834000Y-141224000D03*
D10*
X197424990Y-142814990D03*
D11*
X195834000Y-76200000D03*
D10*
X197424990Y-74609010D03*
X195834000Y-73950000D03*
X194243010Y-74609010D03*
X198084000Y-76200000D03*
X197424990Y-77790990D03*
X194243010Y-77790990D03*
X195834000Y-78450000D03*
X193584000Y-76200000D03*
D15*
X149606000Y-119025500D03*
X149606000Y-120750500D03*
D16*
X136271000Y-97217000D03*
X135001000Y-97217000D03*
X133731000Y-97217000D03*
X132461000Y-97217000D03*
X132461000Y-92267000D03*
X133731000Y-92267000D03*
X135001000Y-92267000D03*
X136271000Y-92267000D03*
D17*
X146475000Y-108552500D03*
X146975000Y-108552500D03*
X147475000Y-108552500D03*
X147975000Y-108552500D03*
X148475000Y-108552500D03*
D18*
X149412500Y-109490000D03*
X149412500Y-109990000D03*
X149412500Y-110490000D03*
X149412500Y-110990000D03*
X149412500Y-111490000D03*
D17*
X148475000Y-112427500D03*
X147975000Y-112427500D03*
X147475000Y-112427500D03*
X146975000Y-112427500D03*
X146475000Y-112427500D03*
D18*
X145537500Y-111490000D03*
X145537500Y-110990000D03*
X145537500Y-110490000D03*
X145537500Y-109990000D03*
X145537500Y-109490000D03*
D19*
X147475000Y-110490000D03*
D20*
X111920000Y-113490000D03*
X112420000Y-113490000D03*
X112920000Y-113490000D03*
X113420000Y-113490000D03*
X113920000Y-113490000D03*
X114420000Y-113490000D03*
X114920000Y-113490000D03*
X115420000Y-113490000D03*
X115920000Y-113490000D03*
X116420000Y-113490000D03*
X116920000Y-113490000D03*
X117420000Y-113490000D03*
X117920000Y-113490000D03*
X118420000Y-113490000D03*
X118920000Y-113490000D03*
X119420000Y-113490000D03*
X119920000Y-113490000D03*
X120420000Y-113490000D03*
X120920000Y-113490000D03*
X121420000Y-113490000D03*
X121920000Y-113490000D03*
X122420000Y-113490000D03*
X122920000Y-113490000D03*
X123420000Y-113490000D03*
X123920000Y-113490000D03*
X124420000Y-113490000D03*
X124920000Y-113490000D03*
X125420000Y-113490000D03*
X125920000Y-113490000D03*
X126420000Y-113490000D03*
X126920000Y-113490000D03*
X127420000Y-113490000D03*
X127920000Y-113490000D03*
X128420000Y-113490000D03*
X128920000Y-113490000D03*
X129420000Y-113490000D03*
X129920000Y-113490000D03*
X130420000Y-113490000D03*
X130920000Y-113490000D03*
X131420000Y-113490000D03*
X131920000Y-113490000D03*
X132420000Y-113490000D03*
X132920000Y-113490000D03*
X133420000Y-113490000D03*
X133920000Y-113490000D03*
D21*
X110020000Y-110240000D03*
X135820000Y-110240000D03*
D22*
X140716000Y-115088000D03*
X140716000Y-111988000D03*
D23*
X142621000Y-107796500D03*
X142621000Y-106071500D03*
D24*
X154328500Y-112776000D03*
X152503500Y-112776000D03*
D25*
X107226500Y-106680000D03*
X104101500Y-106680000D03*
D20*
X184170000Y-105990000D03*
X184670000Y-105990000D03*
X185170000Y-105990000D03*
X185670000Y-105990000D03*
X186170000Y-105990000D03*
X186670000Y-105990000D03*
D21*
X188570000Y-102740000D03*
X182270000Y-102740000D03*
D26*
X189206500Y-111379000D03*
X191031500Y-111379000D03*
D27*
X142367000Y-103730000D03*
X142367000Y-96930000D03*
D28*
X151964300Y-103174800D03*
X149889300Y-103174800D03*
D26*
X189206500Y-108712000D03*
X191031500Y-108712000D03*
X149963500Y-105664000D03*
X151788500Y-105664000D03*
D24*
X142644500Y-109601000D03*
X140819500Y-109601000D03*
D29*
X152553500Y-110490000D03*
X154278500Y-110490000D03*
D30*
X119851500Y-78994000D03*
X116876500Y-78994000D03*
D24*
X137080000Y-117856000D03*
X135255000Y-117856000D03*
X137033000Y-115697000D03*
X135208000Y-115697000D03*
D31*
X113030000Y-82892500D03*
X113030000Y-86017500D03*
D24*
X140104500Y-106934000D03*
X138279500Y-106934000D03*
D32*
X113030000Y-79652500D03*
X113030000Y-77827500D03*
D33*
X147066000Y-115673500D03*
X147066000Y-117498500D03*
D32*
X137541000Y-103655500D03*
X137541000Y-101830500D03*
D34*
X130328000Y-92456000D03*
X127228000Y-92456000D03*
D33*
X149606000Y-115673500D03*
X149606000Y-117498500D03*
M02*
