%FSLAX45Y45*%
G04 Gerber Fmt 4.5, Leading zero omitted, Abs format (unit mm)*
G04 Created by KiCad (PCBNEW (6.0.5)) date 2022-06-02 10:53:18*
%MOMM*%
%LPD*%
G01*
G04 APERTURE LIST*
%TA.AperFunction,Profile*%
%ADD10C,0.100000*%
%TD*%
%ADD11C,0.200000*%
%ADD12C,0.020000*%
%ADD13C,0.040000*%
%ADD14C,0.050000*%
%ADD15C,0.100000*%
%ADD16C,0.300000*%
G04 APERTURE END LIST*
D10*
X19974390Y-7620000D02*
G75*
G03*
X19593392Y-7239000I-381000J0D01*
G01*
X10033000Y-7620000D02*
X10033000Y-14132392D01*
X19974392Y-14132392D02*
X19974392Y-7620000D01*
X19593392Y-14513392D02*
G75*
G03*
X19974392Y-14132392I-2J381002D01*
G01*
X19593392Y-7239000D02*
X10414000Y-7239000D01*
X10032998Y-14132392D02*
G75*
G03*
X10414000Y-14513392I381002J2D01*
G01*
X10414000Y-7239000D02*
G75*
G03*
X10033000Y-7620000I0J-381000D01*
G01*
X10414000Y-14513392D02*
X19593392Y-14513392D01*
D11*
D12*
X10150000Y-7991000D02*
X10170000Y-8011000D01*
X10170000Y-7991000D02*
X10150000Y-8011000D01*
X10150000Y-8118000D02*
X10170000Y-8138000D01*
X10170000Y-8118000D02*
X10150000Y-8138000D01*
X10150000Y-8245000D02*
X10170000Y-8265000D01*
X10170000Y-8245000D02*
X10150000Y-8265000D01*
X10150000Y-8372000D02*
X10170000Y-8392000D01*
X10170000Y-8372000D02*
X10150000Y-8392000D01*
X10150000Y-8499000D02*
X10170000Y-8519000D01*
X10170000Y-8499000D02*
X10150000Y-8519000D01*
X10150000Y-8626000D02*
X10170000Y-8646000D01*
X10170000Y-8626000D02*
X10150000Y-8646000D01*
X10150000Y-8753000D02*
X10170000Y-8773000D01*
X10170000Y-8753000D02*
X10150000Y-8773000D01*
X10150000Y-8880000D02*
X10170000Y-8900000D01*
X10170000Y-8880000D02*
X10150000Y-8900000D01*
X10150000Y-9007000D02*
X10170000Y-9027000D01*
X10170000Y-9007000D02*
X10150000Y-9027000D01*
X10150000Y-9134000D02*
X10170000Y-9154000D01*
X10170000Y-9134000D02*
X10150000Y-9154000D01*
X10150000Y-9261000D02*
X10170000Y-9281000D01*
X10170000Y-9261000D02*
X10150000Y-9281000D01*
X10150000Y-9388000D02*
X10170000Y-9408000D01*
X10170000Y-9388000D02*
X10150000Y-9408000D01*
X10150000Y-9515000D02*
X10170000Y-9535000D01*
X10170000Y-9515000D02*
X10150000Y-9535000D01*
X10150000Y-9642000D02*
X10170000Y-9662000D01*
X10170000Y-9642000D02*
X10150000Y-9662000D01*
X10150000Y-9769000D02*
X10170000Y-9789000D01*
X10170000Y-9769000D02*
X10150000Y-9789000D01*
X10150000Y-9896000D02*
X10170000Y-9916000D01*
X10170000Y-9896000D02*
X10150000Y-9916000D01*
X10150000Y-10023000D02*
X10170000Y-10043000D01*
X10170000Y-10023000D02*
X10150000Y-10043000D01*
X10150000Y-10150000D02*
X10170000Y-10170000D01*
X10170000Y-10150000D02*
X10150000Y-10170000D01*
X10150000Y-10277000D02*
X10170000Y-10297000D01*
X10170000Y-10277000D02*
X10150000Y-10297000D01*
X10150000Y-10404000D02*
X10170000Y-10424000D01*
X10170000Y-10404000D02*
X10150000Y-10424000D01*
X10150000Y-10531000D02*
X10170000Y-10551000D01*
X10170000Y-10531000D02*
X10150000Y-10551000D01*
X10150000Y-10658000D02*
X10170000Y-10678000D01*
X10170000Y-10658000D02*
X10150000Y-10678000D01*
X10150000Y-10785000D02*
X10170000Y-10805000D01*
X10170000Y-10785000D02*
X10150000Y-10805000D01*
X10150000Y-10912000D02*
X10170000Y-10932000D01*
X10170000Y-10912000D02*
X10150000Y-10932000D01*
X10150000Y-11039000D02*
X10170000Y-11059000D01*
X10170000Y-11039000D02*
X10150000Y-11059000D01*
X10150000Y-11166000D02*
X10170000Y-11186000D01*
X10170000Y-11166000D02*
X10150000Y-11186000D01*
X10150000Y-11293000D02*
X10170000Y-11313000D01*
X10170000Y-11293000D02*
X10150000Y-11313000D01*
X10150000Y-11420000D02*
X10170000Y-11440000D01*
X10170000Y-11420000D02*
X10150000Y-11440000D01*
X10150000Y-11547000D02*
X10170000Y-11567000D01*
X10170000Y-11547000D02*
X10150000Y-11567000D01*
X10150000Y-11674000D02*
X10170000Y-11694000D01*
X10170000Y-11674000D02*
X10150000Y-11694000D01*
X10150000Y-11801000D02*
X10170000Y-11821000D01*
X10170000Y-11801000D02*
X10150000Y-11821000D01*
X10150000Y-11928000D02*
X10170000Y-11948000D01*
X10170000Y-11928000D02*
X10150000Y-11948000D01*
X10150000Y-12055000D02*
X10170000Y-12075000D01*
X10170000Y-12055000D02*
X10150000Y-12075000D01*
X10150000Y-12182000D02*
X10170000Y-12202000D01*
X10170000Y-12182000D02*
X10150000Y-12202000D01*
X10150000Y-12309000D02*
X10170000Y-12329000D01*
X10170000Y-12309000D02*
X10150000Y-12329000D01*
X10150000Y-12436000D02*
X10170000Y-12456000D01*
X10170000Y-12436000D02*
X10150000Y-12456000D01*
X10150000Y-12563000D02*
X10170000Y-12583000D01*
X10170000Y-12563000D02*
X10150000Y-12583000D01*
X10150000Y-12690000D02*
X10170000Y-12710000D01*
X10170000Y-12690000D02*
X10150000Y-12710000D01*
X10150000Y-12817000D02*
X10170000Y-12837000D01*
X10170000Y-12817000D02*
X10150000Y-12837000D01*
X10150000Y-12944000D02*
X10170000Y-12964000D01*
X10170000Y-12944000D02*
X10150000Y-12964000D01*
X10150000Y-13071000D02*
X10170000Y-13091000D01*
X10170000Y-13071000D02*
X10150000Y-13091000D01*
X10150000Y-13198000D02*
X10170000Y-13218000D01*
X10170000Y-13198000D02*
X10150000Y-13218000D01*
X10150000Y-13325000D02*
X10170000Y-13345000D01*
X10170000Y-13325000D02*
X10150000Y-13345000D01*
X10150000Y-13452000D02*
X10170000Y-13472000D01*
X10170000Y-13452000D02*
X10150000Y-13472000D01*
X10150000Y-13579000D02*
X10170000Y-13599000D01*
X10170000Y-13579000D02*
X10150000Y-13599000D01*
X10150000Y-13706000D02*
X10170000Y-13726000D01*
X10170000Y-13706000D02*
X10150000Y-13726000D01*
X10277000Y-7991000D02*
X10297000Y-8011000D01*
X10297000Y-7991000D02*
X10277000Y-8011000D01*
X10277000Y-11293000D02*
X10297000Y-11313000D01*
X10297000Y-11293000D02*
X10277000Y-11313000D01*
X10277000Y-11420000D02*
X10297000Y-11440000D01*
X10297000Y-11420000D02*
X10277000Y-11440000D01*
X10277000Y-11547000D02*
X10297000Y-11567000D01*
X10297000Y-11547000D02*
X10277000Y-11567000D01*
X10277000Y-13706000D02*
X10297000Y-13726000D01*
X10297000Y-13706000D02*
X10277000Y-13726000D01*
X10365900Y-13032900D02*
X10385900Y-13052900D01*
X10385900Y-13032900D02*
X10365900Y-13052900D01*
X10404000Y-7991000D02*
X10424000Y-8011000D01*
X10424000Y-7991000D02*
X10404000Y-8011000D01*
X10404000Y-10429400D02*
X10424000Y-10449400D01*
X10424000Y-10429400D02*
X10404000Y-10449400D01*
X10404000Y-10861200D02*
X10424000Y-10881200D01*
X10424000Y-10861200D02*
X10404000Y-10881200D01*
X10404000Y-11191400D02*
X10424000Y-11211400D01*
X10424000Y-11191400D02*
X10404000Y-11211400D01*
X10404000Y-11420000D02*
X10424000Y-11440000D01*
X10424000Y-11420000D02*
X10404000Y-11440000D01*
X10404000Y-11547000D02*
X10424000Y-11567000D01*
X10424000Y-11547000D02*
X10404000Y-11567000D01*
X10404000Y-13706000D02*
X10424000Y-13726000D01*
X10424000Y-13706000D02*
X10404000Y-13726000D01*
X10480200Y-8168800D02*
X10500200Y-8188800D01*
X10500200Y-8168800D02*
X10480200Y-8188800D01*
X10480200Y-8702200D02*
X10500200Y-8722200D01*
X10500200Y-8702200D02*
X10480200Y-8722200D01*
X10480200Y-13032900D02*
X10500200Y-13052900D01*
X10500200Y-13032900D02*
X10480200Y-13052900D01*
X10518300Y-12651900D02*
X10538300Y-12671900D01*
X10538300Y-12651900D02*
X10518300Y-12671900D01*
X10518300Y-13388500D02*
X10538300Y-13408500D01*
X10538300Y-13388500D02*
X10518300Y-13408500D01*
X10531000Y-11420000D02*
X10551000Y-11440000D01*
X10551000Y-11420000D02*
X10531000Y-11440000D01*
X10531000Y-11547000D02*
X10551000Y-11567000D01*
X10551000Y-11547000D02*
X10531000Y-11567000D01*
X10531000Y-13706000D02*
X10551000Y-13726000D01*
X10551000Y-13706000D02*
X10531000Y-13726000D01*
X10594500Y-13312300D02*
X10614500Y-13332300D01*
X10614500Y-13312300D02*
X10594500Y-13332300D01*
X10607200Y-12740800D02*
X10627200Y-12760800D01*
X10627200Y-12740800D02*
X10607200Y-12760800D01*
X10658000Y-7864000D02*
X10678000Y-7884000D01*
X10678000Y-7864000D02*
X10658000Y-7884000D01*
X10658000Y-11547000D02*
X10678000Y-11567000D01*
X10678000Y-11547000D02*
X10658000Y-11567000D01*
X10658000Y-13833000D02*
X10678000Y-13853000D01*
X10678000Y-13833000D02*
X10658000Y-13853000D01*
X10785000Y-7356000D02*
X10805000Y-7376000D01*
X10805000Y-7356000D02*
X10785000Y-7376000D01*
X10785000Y-7483000D02*
X10805000Y-7503000D01*
X10805000Y-7483000D02*
X10785000Y-7503000D01*
X10785000Y-7610000D02*
X10805000Y-7630000D01*
X10805000Y-7610000D02*
X10785000Y-7630000D01*
X10785000Y-7737000D02*
X10805000Y-7757000D01*
X10805000Y-7737000D02*
X10785000Y-7757000D01*
X10785000Y-11547000D02*
X10805000Y-11567000D01*
X10805000Y-11547000D02*
X10785000Y-11567000D01*
X10785000Y-13960000D02*
X10805000Y-13980000D01*
X10805000Y-13960000D02*
X10785000Y-13980000D01*
X10785000Y-14087000D02*
X10805000Y-14107000D01*
X10805000Y-14087000D02*
X10785000Y-14107000D01*
X10785000Y-14214000D02*
X10805000Y-14234000D01*
X10805000Y-14214000D02*
X10785000Y-14234000D01*
X10785000Y-14341000D02*
X10805000Y-14361000D01*
X10805000Y-14341000D02*
X10785000Y-14361000D01*
X10810400Y-8702200D02*
X10830400Y-8722200D01*
X10830400Y-8702200D02*
X10810400Y-8722200D01*
X10835800Y-8168800D02*
X10855800Y-8188800D01*
X10855800Y-8168800D02*
X10835800Y-8188800D01*
X10886600Y-10429400D02*
X10906600Y-10449400D01*
X10906600Y-10429400D02*
X10886600Y-10449400D01*
X10886600Y-12512200D02*
X10906600Y-12532200D01*
X10906600Y-12512200D02*
X10886600Y-12532200D01*
X10886600Y-12626500D02*
X10906600Y-12646500D01*
X10906600Y-12626500D02*
X10886600Y-12646500D01*
X10912000Y-7356000D02*
X10932000Y-7376000D01*
X10932000Y-7356000D02*
X10912000Y-7376000D01*
X10912000Y-11547000D02*
X10932000Y-11567000D01*
X10932000Y-11547000D02*
X10912000Y-11567000D01*
X10912000Y-11674000D02*
X10932000Y-11694000D01*
X10932000Y-11674000D02*
X10912000Y-11694000D01*
X10912000Y-11801000D02*
X10932000Y-11821000D01*
X10932000Y-11801000D02*
X10912000Y-11821000D01*
X10912000Y-11928000D02*
X10932000Y-11948000D01*
X10932000Y-11928000D02*
X10912000Y-11948000D01*
X10912000Y-12055000D02*
X10932000Y-12075000D01*
X10932000Y-12055000D02*
X10912000Y-12075000D01*
X10912000Y-12182000D02*
X10932000Y-12202000D01*
X10932000Y-12182000D02*
X10912000Y-12202000D01*
X10912000Y-14341000D02*
X10932000Y-14361000D01*
X10932000Y-14341000D02*
X10912000Y-14361000D01*
X11039000Y-7356000D02*
X11059000Y-7376000D01*
X11059000Y-7356000D02*
X11039000Y-7376000D01*
X11039000Y-12309000D02*
X11059000Y-12329000D01*
X11059000Y-12309000D02*
X11039000Y-12329000D01*
X11039000Y-14341000D02*
X11059000Y-14361000D01*
X11059000Y-14341000D02*
X11039000Y-14361000D01*
X11064400Y-10569100D02*
X11084400Y-10589100D01*
X11084400Y-10569100D02*
X11064400Y-10589100D01*
X11077100Y-8435500D02*
X11097100Y-8455500D01*
X11097100Y-8435500D02*
X11077100Y-8455500D01*
X11077100Y-8740300D02*
X11097100Y-8760300D01*
X11097100Y-8740300D02*
X11077100Y-8760300D01*
X11166000Y-7356000D02*
X11186000Y-7376000D01*
X11186000Y-7356000D02*
X11166000Y-7376000D01*
X11166000Y-8092600D02*
X11186000Y-8112600D01*
X11186000Y-8092600D02*
X11166000Y-8112600D01*
X11166000Y-12436000D02*
X11186000Y-12456000D01*
X11186000Y-12436000D02*
X11166000Y-12456000D01*
X11166000Y-12740800D02*
X11186000Y-12760800D01*
X11186000Y-12740800D02*
X11166000Y-12760800D01*
X11166000Y-13312300D02*
X11186000Y-13332300D01*
X11186000Y-13312300D02*
X11166000Y-13332300D01*
X11166000Y-14341000D02*
X11186000Y-14361000D01*
X11186000Y-14341000D02*
X11166000Y-14361000D01*
X11204100Y-11216800D02*
X11224100Y-11236800D01*
X11224100Y-11216800D02*
X11204100Y-11236800D01*
X11229500Y-11877200D02*
X11249500Y-11897200D01*
X11249500Y-11877200D02*
X11229500Y-11897200D01*
X11242200Y-10962800D02*
X11262200Y-10982800D01*
X11262200Y-10962800D02*
X11242200Y-10982800D01*
X11242200Y-11115200D02*
X11262200Y-11135200D01*
X11262200Y-11115200D02*
X11242200Y-11135200D01*
X11254900Y-12651900D02*
X11274900Y-12671900D01*
X11274900Y-12651900D02*
X11254900Y-12671900D01*
X11254900Y-13401200D02*
X11274900Y-13421200D01*
X11274900Y-13401200D02*
X11254900Y-13421200D01*
X11280300Y-10569100D02*
X11300300Y-10589100D01*
X11300300Y-10569100D02*
X11280300Y-10589100D01*
X11293000Y-7356000D02*
X11313000Y-7376000D01*
X11313000Y-7356000D02*
X11293000Y-7376000D01*
X11293000Y-8740300D02*
X11313000Y-8760300D01*
X11313000Y-8740300D02*
X11293000Y-8760300D01*
X11293000Y-12563000D02*
X11313000Y-12583000D01*
X11313000Y-12563000D02*
X11293000Y-12583000D01*
X11293000Y-13032900D02*
X11313000Y-13052900D01*
X11313000Y-13032900D02*
X11293000Y-13052900D01*
X11293000Y-14341000D02*
X11313000Y-14361000D01*
X11313000Y-14341000D02*
X11293000Y-14361000D01*
X11420000Y-7356000D02*
X11440000Y-7376000D01*
X11440000Y-7356000D02*
X11420000Y-7376000D01*
X11420000Y-12055000D02*
X11440000Y-12075000D01*
X11440000Y-12055000D02*
X11420000Y-12075000D01*
X11420000Y-12182000D02*
X11440000Y-12202000D01*
X11440000Y-12182000D02*
X11420000Y-12202000D01*
X11420000Y-12690000D02*
X11440000Y-12710000D01*
X11440000Y-12690000D02*
X11420000Y-12710000D01*
X11420000Y-13032900D02*
X11440000Y-13052900D01*
X11440000Y-13032900D02*
X11420000Y-13052900D01*
X11420000Y-14341000D02*
X11440000Y-14361000D01*
X11440000Y-14341000D02*
X11420000Y-14361000D01*
X11432700Y-10899300D02*
X11452700Y-10919300D01*
X11452700Y-10899300D02*
X11432700Y-10919300D01*
X11432700Y-11051700D02*
X11452700Y-11071700D01*
X11452700Y-11051700D02*
X11432700Y-11071700D01*
X11432700Y-11648600D02*
X11452700Y-11668600D01*
X11452700Y-11648600D02*
X11432700Y-11668600D01*
X11445400Y-8029100D02*
X11465400Y-8049100D01*
X11465400Y-8029100D02*
X11445400Y-8049100D01*
X11508900Y-8435500D02*
X11528900Y-8455500D01*
X11528900Y-8435500D02*
X11508900Y-8455500D01*
X11508900Y-8740300D02*
X11528900Y-8760300D01*
X11528900Y-8740300D02*
X11508900Y-8760300D01*
X11547000Y-7356000D02*
X11567000Y-7376000D01*
X11567000Y-7356000D02*
X11547000Y-7376000D01*
X11547000Y-8181500D02*
X11567000Y-8201500D01*
X11567000Y-8181500D02*
X11547000Y-8201500D01*
X11547000Y-12182000D02*
X11567000Y-12202000D01*
X11567000Y-12182000D02*
X11547000Y-12202000D01*
X11547000Y-12309000D02*
X11567000Y-12329000D01*
X11567000Y-12309000D02*
X11547000Y-12329000D01*
X11547000Y-12817000D02*
X11567000Y-12837000D01*
X11567000Y-12817000D02*
X11547000Y-12837000D01*
X11547000Y-14341000D02*
X11567000Y-14361000D01*
X11567000Y-14341000D02*
X11547000Y-14361000D01*
X11661300Y-8079900D02*
X11681300Y-8099900D01*
X11681300Y-8079900D02*
X11661300Y-8099900D01*
X11674000Y-7356000D02*
X11694000Y-7376000D01*
X11694000Y-7356000D02*
X11674000Y-7376000D01*
X11674000Y-12309000D02*
X11694000Y-12329000D01*
X11694000Y-12309000D02*
X11674000Y-12329000D01*
X11674000Y-12436000D02*
X11694000Y-12456000D01*
X11694000Y-12436000D02*
X11674000Y-12456000D01*
X11674000Y-12944000D02*
X11694000Y-12964000D01*
X11694000Y-12944000D02*
X11674000Y-12964000D01*
X11674000Y-14341000D02*
X11694000Y-14361000D01*
X11694000Y-14341000D02*
X11674000Y-14361000D01*
X11686219Y-10972960D02*
X11706219Y-10992960D01*
X11706219Y-10972960D02*
X11686219Y-10992960D01*
X11686700Y-10899300D02*
X11706700Y-10919300D01*
X11706700Y-10899300D02*
X11686700Y-10919300D01*
X11760360Y-10899300D02*
X11780360Y-10919300D01*
X11780360Y-10899300D02*
X11760360Y-10919300D01*
X11801000Y-7356000D02*
X11821000Y-7376000D01*
X11821000Y-7356000D02*
X11801000Y-7376000D01*
X11801000Y-9896000D02*
X11821000Y-9916000D01*
X11821000Y-9896000D02*
X11801000Y-9916000D01*
X11801000Y-10023000D02*
X11821000Y-10043000D01*
X11821000Y-10023000D02*
X11801000Y-10043000D01*
X11801000Y-11674000D02*
X11821000Y-11694000D01*
X11821000Y-11674000D02*
X11801000Y-11694000D01*
X11801000Y-11801000D02*
X11821000Y-11821000D01*
X11821000Y-11801000D02*
X11801000Y-11821000D01*
X11801000Y-11928000D02*
X11821000Y-11948000D01*
X11821000Y-11928000D02*
X11801000Y-11948000D01*
X11801000Y-12436000D02*
X11821000Y-12456000D01*
X11821000Y-12436000D02*
X11801000Y-12456000D01*
X11801000Y-12563000D02*
X11821000Y-12583000D01*
X11821000Y-12563000D02*
X11801000Y-12583000D01*
X11801000Y-14341000D02*
X11821000Y-14361000D01*
X11821000Y-14341000D02*
X11801000Y-14361000D01*
X11826400Y-8054500D02*
X11846400Y-8074500D01*
X11846400Y-8054500D02*
X11826400Y-8074500D01*
X11839100Y-11178700D02*
X11859100Y-11198700D01*
X11859100Y-11178700D02*
X11839100Y-11198700D01*
X11928000Y-7356000D02*
X11948000Y-7376000D01*
X11948000Y-7356000D02*
X11928000Y-7376000D01*
X11928000Y-8880000D02*
X11948000Y-8900000D01*
X11948000Y-8880000D02*
X11928000Y-8900000D01*
X11928000Y-9007000D02*
X11948000Y-9027000D01*
X11948000Y-9007000D02*
X11928000Y-9027000D01*
X11928000Y-9134000D02*
X11948000Y-9154000D01*
X11948000Y-9134000D02*
X11928000Y-9154000D01*
X11928000Y-9261000D02*
X11948000Y-9281000D01*
X11948000Y-9261000D02*
X11928000Y-9281000D01*
X11928000Y-9388000D02*
X11948000Y-9408000D01*
X11948000Y-9388000D02*
X11928000Y-9408000D01*
X11928000Y-9515000D02*
X11948000Y-9535000D01*
X11948000Y-9515000D02*
X11928000Y-9535000D01*
X11928000Y-9642000D02*
X11948000Y-9662000D01*
X11948000Y-9642000D02*
X11928000Y-9662000D01*
X11928000Y-9769000D02*
X11948000Y-9789000D01*
X11948000Y-9769000D02*
X11928000Y-9789000D01*
X11928000Y-9896000D02*
X11948000Y-9916000D01*
X11948000Y-9896000D02*
X11928000Y-9916000D01*
X11928000Y-11089800D02*
X11948000Y-11109800D01*
X11948000Y-11089800D02*
X11928000Y-11109800D01*
X11928000Y-11178700D02*
X11948000Y-11198700D01*
X11948000Y-11178700D02*
X11928000Y-11198700D01*
X11928000Y-12563000D02*
X11948000Y-12583000D01*
X11948000Y-12563000D02*
X11928000Y-12583000D01*
X11928000Y-12690000D02*
X11948000Y-12710000D01*
X11948000Y-12690000D02*
X11928000Y-12710000D01*
X11928000Y-14341000D02*
X11948000Y-14361000D01*
X11948000Y-14341000D02*
X11928000Y-14361000D01*
X11940700Y-10569100D02*
X11960700Y-10589100D01*
X11960700Y-10569100D02*
X11940700Y-10589100D01*
X12004200Y-8079900D02*
X12024200Y-8099900D01*
X12024200Y-8079900D02*
X12004200Y-8099900D01*
X12055000Y-7356000D02*
X12075000Y-7376000D01*
X12075000Y-7356000D02*
X12055000Y-7376000D01*
X12055000Y-12690000D02*
X12075000Y-12710000D01*
X12075000Y-12690000D02*
X12055000Y-12710000D01*
X12055000Y-14341000D02*
X12075000Y-14361000D01*
X12075000Y-14341000D02*
X12055000Y-14361000D01*
X12080400Y-10569100D02*
X12100400Y-10589100D01*
X12100400Y-10569100D02*
X12080400Y-10589100D01*
X12085480Y-10947560D02*
X12105480Y-10967560D01*
X12105480Y-10947560D02*
X12085480Y-10967560D01*
X12131200Y-7876700D02*
X12151200Y-7896700D01*
X12151200Y-7876700D02*
X12131200Y-7896700D01*
X12131200Y-10404000D02*
X12151200Y-10424000D01*
X12151200Y-10404000D02*
X12131200Y-10424000D01*
X12131200Y-13909200D02*
X12151200Y-13929200D01*
X12151200Y-13909200D02*
X12131200Y-13929200D01*
X12131200Y-14087000D02*
X12151200Y-14107000D01*
X12151200Y-14087000D02*
X12131200Y-14107000D01*
X12156600Y-12842400D02*
X12176600Y-12862400D01*
X12176600Y-12842400D02*
X12156600Y-12862400D01*
X12182000Y-7356000D02*
X12202000Y-7376000D01*
X12202000Y-7356000D02*
X12182000Y-7376000D01*
X12182000Y-14341000D02*
X12202000Y-14361000D01*
X12202000Y-14341000D02*
X12182000Y-14361000D01*
X12207400Y-11712100D02*
X12227400Y-11732100D01*
X12227400Y-11712100D02*
X12207400Y-11732100D01*
X12207400Y-11928000D02*
X12227400Y-11948000D01*
X12227400Y-11928000D02*
X12207400Y-11948000D01*
X12212434Y-11220348D02*
X12232434Y-11240348D01*
X12232434Y-11220348D02*
X12212434Y-11240348D01*
X12258200Y-12309000D02*
X12278200Y-12329000D01*
X12278200Y-12309000D02*
X12258200Y-12329000D01*
X12283600Y-10404000D02*
X12303600Y-10424000D01*
X12303600Y-10404000D02*
X12283600Y-10424000D01*
X12309000Y-7356000D02*
X12329000Y-7376000D01*
X12329000Y-7356000D02*
X12309000Y-7376000D01*
X12309000Y-8372000D02*
X12329000Y-8392000D01*
X12329000Y-8372000D02*
X12309000Y-8392000D01*
X12309000Y-9261000D02*
X12329000Y-9281000D01*
X12329000Y-9261000D02*
X12309000Y-9281000D01*
X12309000Y-9388000D02*
X12329000Y-9408000D01*
X12329000Y-9388000D02*
X12309000Y-9408000D01*
X12309000Y-9515000D02*
X12329000Y-9535000D01*
X12329000Y-9515000D02*
X12309000Y-9535000D01*
X12309000Y-9642000D02*
X12329000Y-9662000D01*
X12329000Y-9642000D02*
X12309000Y-9662000D01*
X12309000Y-14341000D02*
X12329000Y-14361000D01*
X12329000Y-14341000D02*
X12309000Y-14361000D01*
X12321700Y-8981600D02*
X12341700Y-9001600D01*
X12341700Y-8981600D02*
X12321700Y-9001600D01*
X12334400Y-13820300D02*
X12354400Y-13840300D01*
X12354400Y-13820300D02*
X12334400Y-13840300D01*
X12385200Y-12436000D02*
X12405200Y-12456000D01*
X12405200Y-12436000D02*
X12385200Y-12456000D01*
X12410600Y-10899300D02*
X12430600Y-10919300D01*
X12430600Y-10899300D02*
X12410600Y-10919300D01*
X12423300Y-8333900D02*
X12443300Y-8353900D01*
X12443300Y-8333900D02*
X12423300Y-8353900D01*
X12436000Y-7356000D02*
X12456000Y-7376000D01*
X12456000Y-7356000D02*
X12436000Y-7376000D01*
X12436000Y-7902100D02*
X12456000Y-7922100D01*
X12456000Y-7902100D02*
X12436000Y-7922100D01*
X12436000Y-8016400D02*
X12456000Y-8036400D01*
X12456000Y-8016400D02*
X12436000Y-8036400D01*
X12436000Y-8219600D02*
X12456000Y-8239600D01*
X12456000Y-8219600D02*
X12436000Y-8239600D01*
X12436000Y-8575200D02*
X12456000Y-8595200D01*
X12456000Y-8575200D02*
X12436000Y-8595200D01*
X12436000Y-13134500D02*
X12456000Y-13154500D01*
X12456000Y-13134500D02*
X12436000Y-13154500D01*
X12436000Y-13629800D02*
X12456000Y-13649800D01*
X12456000Y-13629800D02*
X12436000Y-13649800D01*
X12436000Y-13921900D02*
X12456000Y-13941900D01*
X12456000Y-13921900D02*
X12436000Y-13941900D01*
X12436000Y-14341000D02*
X12456000Y-14361000D01*
X12456000Y-14341000D02*
X12436000Y-14361000D01*
X12461400Y-11051700D02*
X12481400Y-11071700D01*
X12481400Y-11051700D02*
X12461400Y-11071700D01*
X12512200Y-12563000D02*
X12532200Y-12583000D01*
X12532200Y-12563000D02*
X12512200Y-12583000D01*
X12563000Y-7356000D02*
X12583000Y-7376000D01*
X12583000Y-7356000D02*
X12563000Y-7376000D01*
X12563000Y-11674000D02*
X12583000Y-11694000D01*
X12583000Y-11674000D02*
X12563000Y-11694000D01*
X12563000Y-11801000D02*
X12583000Y-11821000D01*
X12583000Y-11801000D02*
X12563000Y-11821000D01*
X12563000Y-12309000D02*
X12583000Y-12329000D01*
X12583000Y-12309000D02*
X12563000Y-12329000D01*
X12563000Y-13274200D02*
X12583000Y-13294200D01*
X12583000Y-13274200D02*
X12563000Y-13294200D01*
X12563000Y-14341000D02*
X12583000Y-14361000D01*
X12583000Y-14341000D02*
X12563000Y-14361000D01*
X12651900Y-12702700D02*
X12671900Y-12722700D01*
X12671900Y-12702700D02*
X12651900Y-12722700D01*
X12664600Y-7902100D02*
X12684600Y-7922100D01*
X12684600Y-7902100D02*
X12664600Y-7922100D01*
X12664600Y-10899300D02*
X12684600Y-10919300D01*
X12684600Y-10899300D02*
X12664600Y-10919300D01*
X12677300Y-8384700D02*
X12697300Y-8404700D01*
X12697300Y-8384700D02*
X12677300Y-8404700D01*
X12690000Y-7356000D02*
X12710000Y-7376000D01*
X12710000Y-7356000D02*
X12690000Y-7376000D01*
X12690000Y-9515000D02*
X12710000Y-9535000D01*
X12710000Y-9515000D02*
X12690000Y-9535000D01*
X12690000Y-9896000D02*
X12710000Y-9916000D01*
X12710000Y-9896000D02*
X12690000Y-9916000D01*
X12690000Y-10023000D02*
X12710000Y-10043000D01*
X12710000Y-10023000D02*
X12690000Y-10043000D01*
X12690000Y-10150000D02*
X12710000Y-10170000D01*
X12710000Y-10150000D02*
X12690000Y-10170000D01*
X12690000Y-12436000D02*
X12710000Y-12456000D01*
X12710000Y-12436000D02*
X12690000Y-12456000D01*
X12690000Y-13401200D02*
X12710000Y-13421200D01*
X12710000Y-13401200D02*
X12690000Y-13421200D01*
X12690000Y-14341000D02*
X12710000Y-14361000D01*
X12710000Y-14341000D02*
X12690000Y-14361000D01*
X12702700Y-8981600D02*
X12722700Y-9001600D01*
X12722700Y-8981600D02*
X12702700Y-9001600D01*
X12702700Y-10404000D02*
X12722700Y-10424000D01*
X12722700Y-10404000D02*
X12702700Y-10424000D01*
X12740800Y-10988200D02*
X12760800Y-11008200D01*
X12760800Y-10988200D02*
X12740800Y-11008200D01*
X12817000Y-7356000D02*
X12837000Y-7376000D01*
X12837000Y-7356000D02*
X12817000Y-7376000D01*
X12817000Y-12563000D02*
X12837000Y-12583000D01*
X12837000Y-12563000D02*
X12817000Y-12583000D01*
X12817000Y-13756800D02*
X12837000Y-13776800D01*
X12837000Y-13756800D02*
X12817000Y-13776800D01*
X12817000Y-13858400D02*
X12837000Y-13878400D01*
X12837000Y-13858400D02*
X12817000Y-13878400D01*
X12817000Y-14341000D02*
X12837000Y-14361000D01*
X12837000Y-14341000D02*
X12817000Y-14361000D01*
X12944000Y-7356000D02*
X12964000Y-7376000D01*
X12964000Y-7356000D02*
X12944000Y-7376000D01*
X12944000Y-8118000D02*
X12964000Y-8138000D01*
X12964000Y-8118000D02*
X12944000Y-8138000D01*
X12944000Y-8702200D02*
X12964000Y-8722200D01*
X12964000Y-8702200D02*
X12944000Y-8722200D01*
X12944000Y-11674000D02*
X12964000Y-11694000D01*
X12964000Y-11674000D02*
X12944000Y-11694000D01*
X12944000Y-11801000D02*
X12964000Y-11821000D01*
X12964000Y-11801000D02*
X12944000Y-11821000D01*
X12944000Y-11928000D02*
X12964000Y-11948000D01*
X12964000Y-11928000D02*
X12944000Y-11948000D01*
X12944000Y-12969400D02*
X12964000Y-12989400D01*
X12964000Y-12969400D02*
X12944000Y-12989400D01*
X12944000Y-13528200D02*
X12964000Y-13548200D01*
X12964000Y-13528200D02*
X12944000Y-13548200D01*
X12944000Y-13807600D02*
X12964000Y-13827600D01*
X12964000Y-13807600D02*
X12944000Y-13827600D01*
X12944000Y-14341000D02*
X12964000Y-14361000D01*
X12964000Y-14341000D02*
X12944000Y-14361000D01*
X12982100Y-10886600D02*
X13002100Y-10906600D01*
X13002100Y-10886600D02*
X12982100Y-10906600D01*
X12994800Y-14087000D02*
X13014800Y-14107000D01*
X13014800Y-14087000D02*
X12994800Y-14107000D01*
X13007500Y-9642000D02*
X13027500Y-9662000D01*
X13027500Y-9642000D02*
X13007500Y-9662000D01*
X13007500Y-9769000D02*
X13027500Y-9789000D01*
X13027500Y-9769000D02*
X13007500Y-9789000D01*
X13007500Y-9896000D02*
X13027500Y-9916000D01*
X13027500Y-9896000D02*
X13007500Y-9916000D01*
X13007500Y-10023000D02*
X13027500Y-10043000D01*
X13027500Y-10023000D02*
X13007500Y-10043000D01*
X13045600Y-12766200D02*
X13065600Y-12786200D01*
X13065600Y-12766200D02*
X13045600Y-12786200D01*
X13071000Y-7356000D02*
X13091000Y-7376000D01*
X13091000Y-7356000D02*
X13071000Y-7376000D01*
X13071000Y-9007000D02*
X13091000Y-9027000D01*
X13091000Y-9007000D02*
X13071000Y-9027000D01*
X13071000Y-11801000D02*
X13091000Y-11821000D01*
X13091000Y-11801000D02*
X13071000Y-11821000D01*
X13071000Y-11928000D02*
X13091000Y-11948000D01*
X13091000Y-11928000D02*
X13071000Y-11948000D01*
X13071000Y-13756800D02*
X13091000Y-13776800D01*
X13091000Y-13756800D02*
X13071000Y-13776800D01*
X13071000Y-13858400D02*
X13091000Y-13878400D01*
X13091000Y-13858400D02*
X13071000Y-13878400D01*
X13071000Y-14341000D02*
X13091000Y-14361000D01*
X13091000Y-14341000D02*
X13071000Y-14361000D01*
X13121800Y-13337700D02*
X13141800Y-13357700D01*
X13141800Y-13337700D02*
X13121800Y-13357700D01*
X13162901Y-11231503D02*
X13182901Y-11251503D01*
X13182901Y-11231503D02*
X13162901Y-11251503D01*
X13198000Y-7356000D02*
X13218000Y-7376000D01*
X13218000Y-7356000D02*
X13198000Y-7376000D01*
X13198000Y-8041800D02*
X13218000Y-8061800D01*
X13218000Y-8041800D02*
X13198000Y-8061800D01*
X13198000Y-8549800D02*
X13218000Y-8569800D01*
X13218000Y-8549800D02*
X13198000Y-8569800D01*
X13198000Y-8702200D02*
X13218000Y-8722200D01*
X13218000Y-8702200D02*
X13198000Y-8722200D01*
X13198000Y-8867300D02*
X13218000Y-8887300D01*
X13218000Y-8867300D02*
X13198000Y-8887300D01*
X13198000Y-9007000D02*
X13218000Y-9027000D01*
X13218000Y-9007000D02*
X13198000Y-9027000D01*
X13198000Y-10531000D02*
X13218000Y-10551000D01*
X13218000Y-10531000D02*
X13198000Y-10551000D01*
X13198000Y-11674000D02*
X13218000Y-11694000D01*
X13218000Y-11674000D02*
X13198000Y-11694000D01*
X13198000Y-11928000D02*
X13218000Y-11948000D01*
X13218000Y-11928000D02*
X13198000Y-11948000D01*
X13198000Y-12931300D02*
X13218000Y-12951300D01*
X13218000Y-12931300D02*
X13198000Y-12951300D01*
X13198000Y-13109100D02*
X13218000Y-13129100D01*
X13218000Y-13109100D02*
X13198000Y-13129100D01*
X13198000Y-13807600D02*
X13218000Y-13827600D01*
X13218000Y-13807600D02*
X13198000Y-13827600D01*
X13198000Y-14341000D02*
X13218000Y-14361000D01*
X13218000Y-14341000D02*
X13198000Y-14361000D01*
X13210700Y-13337700D02*
X13230700Y-13357700D01*
X13230700Y-13337700D02*
X13210700Y-13357700D01*
X13261500Y-10899300D02*
X13281500Y-10919300D01*
X13281500Y-10899300D02*
X13261500Y-10919300D01*
X13299600Y-9464200D02*
X13319600Y-9484200D01*
X13319600Y-9464200D02*
X13299600Y-9484200D01*
X13325000Y-7356000D02*
X13345000Y-7376000D01*
X13345000Y-7356000D02*
X13325000Y-7376000D01*
X13325000Y-8867300D02*
X13345000Y-8887300D01*
X13345000Y-8867300D02*
X13325000Y-8887300D01*
X13325000Y-11674000D02*
X13345000Y-11694000D01*
X13345000Y-11674000D02*
X13325000Y-11694000D01*
X13325000Y-11801000D02*
X13345000Y-11821000D01*
X13345000Y-11801000D02*
X13325000Y-11821000D01*
X13325000Y-12436000D02*
X13345000Y-12456000D01*
X13345000Y-12436000D02*
X13325000Y-12456000D01*
X13325000Y-12563000D02*
X13345000Y-12583000D01*
X13345000Y-12563000D02*
X13325000Y-12583000D01*
X13325000Y-13756800D02*
X13345000Y-13776800D01*
X13345000Y-13756800D02*
X13325000Y-13776800D01*
X13325000Y-13858400D02*
X13345000Y-13878400D01*
X13345000Y-13858400D02*
X13325000Y-13878400D01*
X13325000Y-14341000D02*
X13345000Y-14361000D01*
X13345000Y-14341000D02*
X13325000Y-14361000D01*
X13426600Y-9464200D02*
X13446600Y-9484200D01*
X13446600Y-9464200D02*
X13426600Y-9484200D01*
X13452000Y-7356000D02*
X13472000Y-7376000D01*
X13472000Y-7356000D02*
X13452000Y-7376000D01*
X13452000Y-8041800D02*
X13472000Y-8061800D01*
X13472000Y-8041800D02*
X13452000Y-8061800D01*
X13452000Y-8194200D02*
X13472000Y-8214200D01*
X13472000Y-8194200D02*
X13452000Y-8214200D01*
X13452000Y-8702200D02*
X13472000Y-8722200D01*
X13472000Y-8702200D02*
X13452000Y-8722200D01*
X13452000Y-11928000D02*
X13472000Y-11948000D01*
X13472000Y-11928000D02*
X13452000Y-11948000D01*
X13452000Y-12436000D02*
X13472000Y-12456000D01*
X13472000Y-12436000D02*
X13452000Y-12456000D01*
X13452000Y-12563000D02*
X13472000Y-12583000D01*
X13472000Y-12563000D02*
X13452000Y-12583000D01*
X13452000Y-12690000D02*
X13472000Y-12710000D01*
X13472000Y-12690000D02*
X13452000Y-12710000D01*
X13452000Y-13286900D02*
X13472000Y-13306900D01*
X13472000Y-13286900D02*
X13452000Y-13306900D01*
X13452000Y-13426600D02*
X13472000Y-13446600D01*
X13472000Y-13426600D02*
X13452000Y-13446600D01*
X13452000Y-13807600D02*
X13472000Y-13827600D01*
X13472000Y-13807600D02*
X13452000Y-13827600D01*
X13452000Y-14341000D02*
X13472000Y-14361000D01*
X13472000Y-14341000D02*
X13452000Y-14361000D01*
X13502800Y-8372000D02*
X13522800Y-8392000D01*
X13522800Y-8372000D02*
X13502800Y-8392000D01*
X13502800Y-10670700D02*
X13522800Y-10690700D01*
X13522800Y-10670700D02*
X13502800Y-10690700D01*
X13502800Y-10785000D02*
X13522800Y-10805000D01*
X13522800Y-10785000D02*
X13502800Y-10805000D01*
X13502800Y-11280300D02*
X13522800Y-11300300D01*
X13522800Y-11280300D02*
X13502800Y-11300300D01*
X13515500Y-10238900D02*
X13535500Y-10258900D01*
X13535500Y-10238900D02*
X13515500Y-10258900D01*
X13553600Y-9464200D02*
X13573600Y-9484200D01*
X13573600Y-9464200D02*
X13553600Y-9484200D01*
X13579000Y-7356000D02*
X13599000Y-7376000D01*
X13599000Y-7356000D02*
X13579000Y-7376000D01*
X13579000Y-9007000D02*
X13599000Y-9027000D01*
X13599000Y-9007000D02*
X13579000Y-9027000D01*
X13579000Y-11928000D02*
X13599000Y-11948000D01*
X13599000Y-11928000D02*
X13579000Y-11948000D01*
X13579000Y-12436000D02*
X13599000Y-12456000D01*
X13599000Y-12436000D02*
X13579000Y-12456000D01*
X13579000Y-12563000D02*
X13599000Y-12583000D01*
X13599000Y-12563000D02*
X13579000Y-12583000D01*
X13579000Y-12690000D02*
X13599000Y-12710000D01*
X13599000Y-12690000D02*
X13579000Y-12710000D01*
X13579000Y-13274200D02*
X13599000Y-13294200D01*
X13599000Y-13274200D02*
X13579000Y-13294200D01*
X13579000Y-13756800D02*
X13599000Y-13776800D01*
X13599000Y-13756800D02*
X13579000Y-13776800D01*
X13579000Y-13858400D02*
X13599000Y-13878400D01*
X13599000Y-13858400D02*
X13579000Y-13878400D01*
X13579000Y-14341000D02*
X13599000Y-14361000D01*
X13599000Y-14341000D02*
X13579000Y-14361000D01*
X13604400Y-10150000D02*
X13624400Y-10170000D01*
X13624400Y-10150000D02*
X13604400Y-10170000D01*
X13655200Y-11280300D02*
X13675200Y-11300300D01*
X13675200Y-11280300D02*
X13655200Y-11300300D01*
X13706000Y-7356000D02*
X13726000Y-7376000D01*
X13726000Y-7356000D02*
X13706000Y-7376000D01*
X13706000Y-8880000D02*
X13726000Y-8900000D01*
X13726000Y-8880000D02*
X13706000Y-8900000D01*
X13706000Y-9007000D02*
X13726000Y-9027000D01*
X13726000Y-9007000D02*
X13706000Y-9027000D01*
X13706000Y-11928000D02*
X13726000Y-11948000D01*
X13726000Y-11928000D02*
X13706000Y-11948000D01*
X13706000Y-12436000D02*
X13726000Y-12456000D01*
X13726000Y-12436000D02*
X13706000Y-12456000D01*
X13706000Y-12563000D02*
X13726000Y-12583000D01*
X13726000Y-12563000D02*
X13706000Y-12583000D01*
X13706000Y-12690000D02*
X13726000Y-12710000D01*
X13726000Y-12690000D02*
X13706000Y-12710000D01*
X13706000Y-12791600D02*
X13726000Y-12811600D01*
X13726000Y-12791600D02*
X13706000Y-12811600D01*
X13706000Y-12918600D02*
X13726000Y-12938600D01*
X13726000Y-12918600D02*
X13706000Y-12938600D01*
X13706000Y-13426600D02*
X13726000Y-13446600D01*
X13726000Y-13426600D02*
X13706000Y-13446600D01*
X13706000Y-13807600D02*
X13726000Y-13827600D01*
X13726000Y-13807600D02*
X13706000Y-13827600D01*
X13706000Y-14341000D02*
X13726000Y-14361000D01*
X13726000Y-14341000D02*
X13706000Y-14361000D01*
X13744100Y-10023000D02*
X13764100Y-10043000D01*
X13764100Y-10023000D02*
X13744100Y-10043000D01*
X13756800Y-10937400D02*
X13776800Y-10957400D01*
X13776800Y-10937400D02*
X13756800Y-10957400D01*
X13820300Y-8372000D02*
X13840300Y-8392000D01*
X13840300Y-8372000D02*
X13820300Y-8392000D01*
X13820300Y-11280300D02*
X13840300Y-11300300D01*
X13840300Y-11280300D02*
X13820300Y-11300300D01*
X13833000Y-7356000D02*
X13853000Y-7376000D01*
X13853000Y-7356000D02*
X13833000Y-7376000D01*
X13833000Y-7889400D02*
X13853000Y-7909400D01*
X13853000Y-7889400D02*
X13833000Y-7909400D01*
X13833000Y-9007000D02*
X13853000Y-9027000D01*
X13853000Y-9007000D02*
X13833000Y-9027000D01*
X13833000Y-9134000D02*
X13853000Y-9154000D01*
X13853000Y-9134000D02*
X13833000Y-9154000D01*
X13833000Y-9261000D02*
X13853000Y-9281000D01*
X13853000Y-9261000D02*
X13833000Y-9281000D01*
X13833000Y-9388000D02*
X13853000Y-9408000D01*
X13853000Y-9388000D02*
X13833000Y-9408000D01*
X13833000Y-9921400D02*
X13853000Y-9941400D01*
X13853000Y-9921400D02*
X13833000Y-9941400D01*
X13833000Y-11801000D02*
X13853000Y-11821000D01*
X13853000Y-11801000D02*
X13833000Y-11821000D01*
X13833000Y-11928000D02*
X13853000Y-11948000D01*
X13853000Y-11928000D02*
X13833000Y-11948000D01*
X13833000Y-12563000D02*
X13853000Y-12583000D01*
X13853000Y-12563000D02*
X13833000Y-12583000D01*
X13833000Y-12690000D02*
X13853000Y-12710000D01*
X13853000Y-12690000D02*
X13833000Y-12710000D01*
X13833000Y-13756800D02*
X13853000Y-13776800D01*
X13853000Y-13756800D02*
X13833000Y-13776800D01*
X13833000Y-13858400D02*
X13853000Y-13878400D01*
X13853000Y-13858400D02*
X13833000Y-13878400D01*
X13833000Y-14341000D02*
X13853000Y-14361000D01*
X13853000Y-14341000D02*
X13833000Y-14361000D01*
X13947300Y-11013600D02*
X13967300Y-11033600D01*
X13967300Y-11013600D02*
X13947300Y-11033600D01*
X13960000Y-7356000D02*
X13980000Y-7376000D01*
X13980000Y-7356000D02*
X13960000Y-7376000D01*
X13960000Y-7914800D02*
X13980000Y-7934800D01*
X13980000Y-7914800D02*
X13960000Y-7934800D01*
X13960000Y-8016400D02*
X13980000Y-8036400D01*
X13980000Y-8016400D02*
X13960000Y-8036400D01*
X13960000Y-9134000D02*
X13980000Y-9154000D01*
X13980000Y-9134000D02*
X13960000Y-9154000D01*
X13960000Y-9261000D02*
X13980000Y-9281000D01*
X13980000Y-9261000D02*
X13960000Y-9281000D01*
X13960000Y-10150000D02*
X13980000Y-10170000D01*
X13980000Y-10150000D02*
X13960000Y-10170000D01*
X13960000Y-11674000D02*
X13980000Y-11694000D01*
X13980000Y-11674000D02*
X13960000Y-11694000D01*
X13960000Y-11801000D02*
X13980000Y-11821000D01*
X13980000Y-11801000D02*
X13960000Y-11821000D01*
X13960000Y-11928000D02*
X13980000Y-11948000D01*
X13980000Y-11928000D02*
X13960000Y-11948000D01*
X13960000Y-12309000D02*
X13980000Y-12329000D01*
X13980000Y-12309000D02*
X13960000Y-12329000D01*
X13960000Y-12690000D02*
X13980000Y-12710000D01*
X13980000Y-12690000D02*
X13960000Y-12710000D01*
X13960000Y-12791600D02*
X13980000Y-12811600D01*
X13980000Y-12791600D02*
X13960000Y-12811600D01*
X13960000Y-12918600D02*
X13980000Y-12938600D01*
X13980000Y-12918600D02*
X13960000Y-12938600D01*
X13960000Y-13096400D02*
X13980000Y-13116400D01*
X13980000Y-13096400D02*
X13960000Y-13116400D01*
X13960000Y-13807600D02*
X13980000Y-13827600D01*
X13980000Y-13807600D02*
X13960000Y-13827600D01*
X13960000Y-14341000D02*
X13980000Y-14361000D01*
X13980000Y-14341000D02*
X13960000Y-14361000D01*
X13998100Y-10556400D02*
X14018100Y-10576400D01*
X14018100Y-10556400D02*
X13998100Y-10576400D01*
X14087000Y-7356000D02*
X14107000Y-7376000D01*
X14107000Y-7356000D02*
X14087000Y-7376000D01*
X14087000Y-10023000D02*
X14107000Y-10043000D01*
X14107000Y-10023000D02*
X14087000Y-10043000D01*
X14087000Y-11674000D02*
X14107000Y-11694000D01*
X14107000Y-11674000D02*
X14087000Y-11694000D01*
X14087000Y-11801000D02*
X14107000Y-11821000D01*
X14107000Y-11801000D02*
X14087000Y-11821000D01*
X14087000Y-11928000D02*
X14107000Y-11948000D01*
X14107000Y-11928000D02*
X14087000Y-11948000D01*
X14087000Y-12563000D02*
X14107000Y-12583000D01*
X14107000Y-12563000D02*
X14087000Y-12583000D01*
X14087000Y-13858400D02*
X14107000Y-13878400D01*
X14107000Y-13858400D02*
X14087000Y-13878400D01*
X14087000Y-14341000D02*
X14107000Y-14361000D01*
X14107000Y-14341000D02*
X14087000Y-14361000D01*
X14112400Y-8892700D02*
X14132400Y-8912700D01*
X14132400Y-8892700D02*
X14112400Y-8912700D01*
X14112400Y-10581800D02*
X14132400Y-10601800D01*
X14132400Y-10581800D02*
X14112400Y-10601800D01*
X14150500Y-14087000D02*
X14170500Y-14107000D01*
X14170500Y-14087000D02*
X14150500Y-14107000D01*
X14163200Y-8346600D02*
X14183200Y-8366600D01*
X14183200Y-8346600D02*
X14163200Y-8366600D01*
X14214000Y-7356000D02*
X14234000Y-7376000D01*
X14234000Y-7356000D02*
X14214000Y-7376000D01*
X14214000Y-7914800D02*
X14234000Y-7934800D01*
X14234000Y-7914800D02*
X14214000Y-7934800D01*
X14214000Y-8016400D02*
X14234000Y-8036400D01*
X14234000Y-8016400D02*
X14214000Y-8036400D01*
X14214000Y-9896000D02*
X14234000Y-9916000D01*
X14234000Y-9896000D02*
X14214000Y-9916000D01*
X14214000Y-11801000D02*
X14234000Y-11821000D01*
X14234000Y-11801000D02*
X14214000Y-11821000D01*
X14214000Y-11928000D02*
X14234000Y-11948000D01*
X14234000Y-11928000D02*
X14214000Y-11948000D01*
X14214000Y-12309000D02*
X14234000Y-12329000D01*
X14234000Y-12309000D02*
X14214000Y-12329000D01*
X14214000Y-12563000D02*
X14234000Y-12583000D01*
X14234000Y-12563000D02*
X14214000Y-12583000D01*
X14214000Y-12690000D02*
X14234000Y-12710000D01*
X14234000Y-12690000D02*
X14214000Y-12710000D01*
X14214000Y-12918600D02*
X14234000Y-12938600D01*
X14234000Y-12918600D02*
X14214000Y-12938600D01*
X14214000Y-13096400D02*
X14234000Y-13116400D01*
X14234000Y-13096400D02*
X14214000Y-13116400D01*
X14214000Y-14341000D02*
X14234000Y-14361000D01*
X14234000Y-14341000D02*
X14214000Y-14361000D01*
X14277500Y-9476900D02*
X14297500Y-9496900D01*
X14297500Y-9476900D02*
X14277500Y-9496900D01*
X14277500Y-11432700D02*
X14297500Y-11452700D01*
X14297500Y-11432700D02*
X14277500Y-11452700D01*
X14302900Y-8956200D02*
X14322900Y-8976200D01*
X14322900Y-8956200D02*
X14302900Y-8976200D01*
X14341000Y-7356000D02*
X14361000Y-7376000D01*
X14361000Y-7356000D02*
X14341000Y-7376000D01*
X14341000Y-11928000D02*
X14361000Y-11948000D01*
X14361000Y-11928000D02*
X14341000Y-11948000D01*
X14341000Y-12182000D02*
X14361000Y-12202000D01*
X14361000Y-12182000D02*
X14341000Y-12202000D01*
X14341000Y-12690000D02*
X14361000Y-12710000D01*
X14361000Y-12690000D02*
X14341000Y-12710000D01*
X14341000Y-14341000D02*
X14361000Y-14361000D01*
X14361000Y-14341000D02*
X14341000Y-14361000D01*
X14366400Y-10861200D02*
X14386400Y-10881200D01*
X14386400Y-10861200D02*
X14366400Y-10881200D01*
X14366400Y-11343800D02*
X14386400Y-11363800D01*
X14386400Y-11343800D02*
X14366400Y-11363800D01*
X14391800Y-10594500D02*
X14411800Y-10614500D01*
X14411800Y-10594500D02*
X14391800Y-10614500D01*
X14391800Y-11547000D02*
X14411800Y-11567000D01*
X14411800Y-11547000D02*
X14391800Y-11567000D01*
X14417200Y-13782200D02*
X14437200Y-13802200D01*
X14437200Y-13782200D02*
X14417200Y-13802200D01*
X14468000Y-7356000D02*
X14488000Y-7376000D01*
X14488000Y-7356000D02*
X14468000Y-7376000D01*
X14468000Y-7914800D02*
X14488000Y-7934800D01*
X14488000Y-7914800D02*
X14468000Y-7934800D01*
X14468000Y-8016400D02*
X14488000Y-8036400D01*
X14488000Y-8016400D02*
X14468000Y-8036400D01*
X14468000Y-8549800D02*
X14488000Y-8569800D01*
X14488000Y-8549800D02*
X14468000Y-8569800D01*
X14468000Y-8714900D02*
X14488000Y-8734900D01*
X14488000Y-8714900D02*
X14468000Y-8734900D01*
X14468000Y-9654700D02*
X14488000Y-9674700D01*
X14488000Y-9654700D02*
X14468000Y-9674700D01*
X14468000Y-10150000D02*
X14488000Y-10170000D01*
X14488000Y-10150000D02*
X14468000Y-10170000D01*
X14468000Y-12055000D02*
X14488000Y-12075000D01*
X14488000Y-12055000D02*
X14468000Y-12075000D01*
X14468000Y-12309000D02*
X14488000Y-12329000D01*
X14488000Y-12309000D02*
X14468000Y-12329000D01*
X14468000Y-12563000D02*
X14488000Y-12583000D01*
X14488000Y-12563000D02*
X14468000Y-12583000D01*
X14468000Y-12817000D02*
X14488000Y-12837000D01*
X14488000Y-12817000D02*
X14468000Y-12837000D01*
X14468000Y-12918600D02*
X14488000Y-12938600D01*
X14488000Y-12918600D02*
X14468000Y-12938600D01*
X14468000Y-14341000D02*
X14488000Y-14361000D01*
X14488000Y-14341000D02*
X14468000Y-14361000D01*
X14480700Y-11343800D02*
X14500700Y-11363800D01*
X14500700Y-11343800D02*
X14480700Y-11363800D01*
X14493400Y-13325000D02*
X14513400Y-13345000D01*
X14513400Y-13325000D02*
X14493400Y-13345000D01*
X14506100Y-13871100D02*
X14526100Y-13891100D01*
X14526100Y-13871100D02*
X14506100Y-13891100D01*
X14544200Y-10797700D02*
X14564200Y-10817700D01*
X14564200Y-10797700D02*
X14544200Y-10817700D01*
X14544200Y-11648600D02*
X14564200Y-11668600D01*
X14564200Y-11648600D02*
X14544200Y-11668600D01*
X14569600Y-11445400D02*
X14589600Y-11465400D01*
X14589600Y-11445400D02*
X14569600Y-11465400D01*
X14595000Y-7356000D02*
X14615000Y-7376000D01*
X14615000Y-7356000D02*
X14595000Y-7376000D01*
X14595000Y-9134000D02*
X14615000Y-9154000D01*
X14615000Y-9134000D02*
X14595000Y-9154000D01*
X14595000Y-10023000D02*
X14615000Y-10043000D01*
X14615000Y-10023000D02*
X14595000Y-10043000D01*
X14595000Y-10581800D02*
X14615000Y-10601800D01*
X14615000Y-10581800D02*
X14595000Y-10601800D01*
X14595000Y-12182000D02*
X14615000Y-12202000D01*
X14615000Y-12182000D02*
X14595000Y-12202000D01*
X14595000Y-12690000D02*
X14615000Y-12710000D01*
X14615000Y-12690000D02*
X14595000Y-12710000D01*
X14595000Y-14341000D02*
X14615000Y-14361000D01*
X14615000Y-14341000D02*
X14595000Y-14361000D01*
X14658500Y-10289700D02*
X14678500Y-10309700D01*
X14678500Y-10289700D02*
X14658500Y-10309700D01*
X14696600Y-8372000D02*
X14716600Y-8392000D01*
X14716600Y-8372000D02*
X14696600Y-8392000D01*
X14709300Y-12563000D02*
X14729300Y-12583000D01*
X14729300Y-12563000D02*
X14709300Y-12583000D01*
X14722000Y-7356000D02*
X14742000Y-7376000D01*
X14742000Y-7356000D02*
X14722000Y-7376000D01*
X14722000Y-7914800D02*
X14742000Y-7934800D01*
X14742000Y-7914800D02*
X14722000Y-7934800D01*
X14722000Y-8016400D02*
X14742000Y-8036400D01*
X14742000Y-8016400D02*
X14722000Y-8036400D01*
X14722000Y-9007000D02*
X14742000Y-9027000D01*
X14742000Y-9007000D02*
X14722000Y-9027000D01*
X14722000Y-9388000D02*
X14742000Y-9408000D01*
X14742000Y-9388000D02*
X14722000Y-9408000D01*
X14722000Y-12309000D02*
X14742000Y-12329000D01*
X14742000Y-12309000D02*
X14722000Y-12329000D01*
X14722000Y-13121800D02*
X14742000Y-13141800D01*
X14742000Y-13121800D02*
X14722000Y-13141800D01*
X14722000Y-13325000D02*
X14742000Y-13345000D01*
X14742000Y-13325000D02*
X14722000Y-13345000D01*
X14722000Y-13744100D02*
X14742000Y-13764100D01*
X14742000Y-13744100D02*
X14722000Y-13764100D01*
X14722000Y-14341000D02*
X14742000Y-14361000D01*
X14742000Y-14341000D02*
X14722000Y-14361000D01*
X14747400Y-11902600D02*
X14767400Y-11922600D01*
X14767400Y-11902600D02*
X14747400Y-11922600D01*
X14823600Y-11674000D02*
X14843600Y-11694000D01*
X14843600Y-11674000D02*
X14823600Y-11694000D01*
X14823600Y-11813700D02*
X14843600Y-11833700D01*
X14843600Y-11813700D02*
X14823600Y-11833700D01*
X14849000Y-7356000D02*
X14869000Y-7376000D01*
X14869000Y-7356000D02*
X14849000Y-7376000D01*
X14849000Y-8880000D02*
X14869000Y-8900000D01*
X14869000Y-8880000D02*
X14849000Y-8900000D01*
X14849000Y-9261000D02*
X14869000Y-9281000D01*
X14869000Y-9261000D02*
X14849000Y-9281000D01*
X14849000Y-14341000D02*
X14869000Y-14361000D01*
X14869000Y-14341000D02*
X14849000Y-14361000D01*
X14950600Y-8397400D02*
X14970600Y-8417400D01*
X14970600Y-8397400D02*
X14950600Y-8417400D01*
X14950600Y-11343800D02*
X14970600Y-11363800D01*
X14970600Y-11343800D02*
X14950600Y-11363800D01*
X14963300Y-10048400D02*
X14983300Y-10068400D01*
X14983300Y-10048400D02*
X14963300Y-10068400D01*
X14976000Y-7356000D02*
X14996000Y-7376000D01*
X14996000Y-7356000D02*
X14976000Y-7376000D01*
X14976000Y-8524400D02*
X14996000Y-8544400D01*
X14996000Y-8524400D02*
X14976000Y-8544400D01*
X14976000Y-8702200D02*
X14996000Y-8722200D01*
X14996000Y-8702200D02*
X14976000Y-8722200D01*
X14976000Y-9134000D02*
X14996000Y-9154000D01*
X14996000Y-9134000D02*
X14976000Y-9154000D01*
X14976000Y-9642000D02*
X14996000Y-9662000D01*
X14996000Y-9642000D02*
X14976000Y-9662000D01*
X14976000Y-12918600D02*
X14996000Y-12938600D01*
X14996000Y-12918600D02*
X14976000Y-12938600D01*
X14976000Y-13071000D02*
X14996000Y-13091000D01*
X14996000Y-13071000D02*
X14976000Y-13091000D01*
X14976000Y-13325000D02*
X14996000Y-13345000D01*
X14996000Y-13325000D02*
X14976000Y-13345000D01*
X14976000Y-13845700D02*
X14996000Y-13865700D01*
X14996000Y-13845700D02*
X14976000Y-13865700D01*
X14976000Y-14341000D02*
X14996000Y-14361000D01*
X14996000Y-14341000D02*
X14976000Y-14361000D01*
X15001400Y-10696100D02*
X15021400Y-10716100D01*
X15021400Y-10696100D02*
X15001400Y-10716100D01*
X15001400Y-10835800D02*
X15021400Y-10855800D01*
X15021400Y-10835800D02*
X15001400Y-10855800D01*
X15039500Y-10975500D02*
X15059500Y-10995500D01*
X15059500Y-10975500D02*
X15039500Y-10995500D01*
X15052200Y-11242200D02*
X15072200Y-11262200D01*
X15072200Y-11242200D02*
X15052200Y-11262200D01*
X15077600Y-11394600D02*
X15097600Y-11414600D01*
X15097600Y-11394600D02*
X15077600Y-11414600D01*
X15090300Y-11559700D02*
X15110300Y-11579700D01*
X15110300Y-11559700D02*
X15090300Y-11579700D01*
X15090300Y-12067700D02*
X15110300Y-12087700D01*
X15110300Y-12067700D02*
X15090300Y-12087700D01*
X15103000Y-7356000D02*
X15123000Y-7376000D01*
X15123000Y-7356000D02*
X15103000Y-7376000D01*
X15103000Y-9007000D02*
X15123000Y-9027000D01*
X15123000Y-9007000D02*
X15103000Y-9027000D01*
X15103000Y-9515000D02*
X15123000Y-9535000D01*
X15123000Y-9515000D02*
X15103000Y-9535000D01*
X15103000Y-12258200D02*
X15123000Y-12278200D01*
X15123000Y-12258200D02*
X15103000Y-12278200D01*
X15103000Y-14341000D02*
X15123000Y-14361000D01*
X15123000Y-14341000D02*
X15103000Y-14361000D01*
X15217300Y-11153300D02*
X15237300Y-11173300D01*
X15237300Y-11153300D02*
X15217300Y-11173300D01*
X15230000Y-7356000D02*
X15250000Y-7376000D01*
X15250000Y-7356000D02*
X15230000Y-7376000D01*
X15230000Y-8016400D02*
X15250000Y-8036400D01*
X15250000Y-8016400D02*
X15230000Y-8036400D01*
X15230000Y-8524400D02*
X15250000Y-8544400D01*
X15250000Y-8524400D02*
X15230000Y-8544400D01*
X15230000Y-8702200D02*
X15250000Y-8722200D01*
X15250000Y-8702200D02*
X15230000Y-8722200D01*
X15230000Y-8880000D02*
X15250000Y-8900000D01*
X15250000Y-8880000D02*
X15230000Y-8900000D01*
X15230000Y-9388000D02*
X15250000Y-9408000D01*
X15250000Y-9388000D02*
X15230000Y-9408000D01*
X15230000Y-9769000D02*
X15250000Y-9789000D01*
X15250000Y-9769000D02*
X15230000Y-9789000D01*
X15230000Y-10658000D02*
X15250000Y-10678000D01*
X15250000Y-10658000D02*
X15230000Y-10678000D01*
X15230000Y-10785000D02*
X15250000Y-10805000D01*
X15250000Y-10785000D02*
X15230000Y-10805000D01*
X15230000Y-10912000D02*
X15250000Y-10932000D01*
X15250000Y-10912000D02*
X15230000Y-10932000D01*
X15230000Y-11420000D02*
X15250000Y-11440000D01*
X15250000Y-11420000D02*
X15230000Y-11440000D01*
X15230000Y-11686700D02*
X15250000Y-11706700D01*
X15250000Y-11686700D02*
X15230000Y-11706700D01*
X15230000Y-12131200D02*
X15250000Y-12151200D01*
X15250000Y-12131200D02*
X15230000Y-12151200D01*
X15230000Y-13769500D02*
X15250000Y-13789500D01*
X15250000Y-13769500D02*
X15230000Y-13789500D01*
X15230000Y-14341000D02*
X15250000Y-14361000D01*
X15250000Y-14341000D02*
X15230000Y-14361000D01*
X15280800Y-12791600D02*
X15300800Y-12811600D01*
X15300800Y-12791600D02*
X15280800Y-12811600D01*
X15357000Y-7356000D02*
X15377000Y-7376000D01*
X15377000Y-7356000D02*
X15357000Y-7376000D01*
X15357000Y-9261000D02*
X15377000Y-9281000D01*
X15377000Y-9261000D02*
X15357000Y-9281000D01*
X15357000Y-9642000D02*
X15377000Y-9662000D01*
X15377000Y-9642000D02*
X15357000Y-9662000D01*
X15357000Y-10023000D02*
X15377000Y-10043000D01*
X15377000Y-10023000D02*
X15357000Y-10043000D01*
X15357000Y-10404000D02*
X15377000Y-10424000D01*
X15377000Y-10404000D02*
X15357000Y-10424000D01*
X15357000Y-10531000D02*
X15377000Y-10551000D01*
X15377000Y-10531000D02*
X15357000Y-10551000D01*
X15357000Y-10658000D02*
X15377000Y-10678000D01*
X15377000Y-10658000D02*
X15357000Y-10678000D01*
X15357000Y-10785000D02*
X15377000Y-10805000D01*
X15377000Y-10785000D02*
X15357000Y-10805000D01*
X15357000Y-10912000D02*
X15377000Y-10932000D01*
X15377000Y-10912000D02*
X15357000Y-10932000D01*
X15357000Y-12512200D02*
X15377000Y-12532200D01*
X15377000Y-12512200D02*
X15357000Y-12532200D01*
X15357000Y-14341000D02*
X15377000Y-14361000D01*
X15377000Y-14341000D02*
X15357000Y-14361000D01*
X15420500Y-11153300D02*
X15440500Y-11173300D01*
X15440500Y-11153300D02*
X15420500Y-11173300D01*
X15420500Y-11394600D02*
X15440500Y-11414600D01*
X15440500Y-11394600D02*
X15420500Y-11414600D01*
X15420500Y-11597800D02*
X15440500Y-11617800D01*
X15440500Y-11597800D02*
X15420500Y-11617800D01*
X15420500Y-11877200D02*
X15440500Y-11897200D01*
X15440500Y-11877200D02*
X15420500Y-11897200D01*
X15484000Y-7356000D02*
X15504000Y-7376000D01*
X15504000Y-7356000D02*
X15484000Y-7376000D01*
X15484000Y-8016400D02*
X15504000Y-8036400D01*
X15504000Y-8016400D02*
X15484000Y-8036400D01*
X15484000Y-12385200D02*
X15504000Y-12405200D01*
X15504000Y-12385200D02*
X15484000Y-12405200D01*
X15484000Y-12639200D02*
X15504000Y-12659200D01*
X15504000Y-12639200D02*
X15484000Y-12659200D01*
X15484000Y-13426600D02*
X15504000Y-13446600D01*
X15504000Y-13426600D02*
X15484000Y-13446600D01*
X15484000Y-13731400D02*
X15504000Y-13751400D01*
X15504000Y-13731400D02*
X15484000Y-13751400D01*
X15484000Y-14214000D02*
X15504000Y-14234000D01*
X15504000Y-14214000D02*
X15484000Y-14234000D01*
X15484000Y-14341000D02*
X15504000Y-14361000D01*
X15504000Y-14341000D02*
X15484000Y-14361000D01*
X15611000Y-7356000D02*
X15631000Y-7376000D01*
X15631000Y-7356000D02*
X15611000Y-7376000D01*
X15611000Y-14214000D02*
X15631000Y-14234000D01*
X15631000Y-14214000D02*
X15611000Y-14234000D01*
X15611000Y-14341000D02*
X15631000Y-14361000D01*
X15631000Y-14341000D02*
X15611000Y-14361000D01*
X15687200Y-9337200D02*
X15707200Y-9357200D01*
X15707200Y-9337200D02*
X15687200Y-9357200D01*
X15687200Y-9642000D02*
X15707200Y-9662000D01*
X15707200Y-9642000D02*
X15687200Y-9662000D01*
X15687200Y-9769000D02*
X15707200Y-9789000D01*
X15707200Y-9769000D02*
X15687200Y-9789000D01*
X15687200Y-9896000D02*
X15707200Y-9916000D01*
X15707200Y-9896000D02*
X15687200Y-9916000D01*
X15687200Y-10023000D02*
X15707200Y-10043000D01*
X15707200Y-10023000D02*
X15687200Y-10043000D01*
X15687200Y-10150000D02*
X15707200Y-10170000D01*
X15707200Y-10150000D02*
X15687200Y-10170000D01*
X15687200Y-10277000D02*
X15707200Y-10297000D01*
X15707200Y-10277000D02*
X15687200Y-10297000D01*
X15687200Y-10404000D02*
X15707200Y-10424000D01*
X15707200Y-10404000D02*
X15687200Y-10424000D01*
X15687200Y-10531000D02*
X15707200Y-10551000D01*
X15707200Y-10531000D02*
X15687200Y-10551000D01*
X15687200Y-10658000D02*
X15707200Y-10678000D01*
X15707200Y-10658000D02*
X15687200Y-10678000D01*
X15687200Y-10785000D02*
X15707200Y-10805000D01*
X15707200Y-10785000D02*
X15687200Y-10805000D01*
X15687200Y-10912000D02*
X15707200Y-10932000D01*
X15707200Y-10912000D02*
X15687200Y-10932000D01*
X15687200Y-11039000D02*
X15707200Y-11059000D01*
X15707200Y-11039000D02*
X15687200Y-11059000D01*
X15687200Y-11166000D02*
X15707200Y-11186000D01*
X15707200Y-11166000D02*
X15687200Y-11186000D01*
X15687200Y-11293000D02*
X15707200Y-11313000D01*
X15707200Y-11293000D02*
X15687200Y-11313000D01*
X15687200Y-11420000D02*
X15707200Y-11440000D01*
X15707200Y-11420000D02*
X15687200Y-11440000D01*
X15687200Y-11547000D02*
X15707200Y-11567000D01*
X15707200Y-11547000D02*
X15687200Y-11567000D01*
X15687200Y-11674000D02*
X15707200Y-11694000D01*
X15707200Y-11674000D02*
X15687200Y-11694000D01*
X15687200Y-11801000D02*
X15707200Y-11821000D01*
X15707200Y-11801000D02*
X15687200Y-11821000D01*
X15687200Y-11928000D02*
X15707200Y-11948000D01*
X15707200Y-11928000D02*
X15687200Y-11948000D01*
X15687200Y-12055000D02*
X15707200Y-12075000D01*
X15707200Y-12055000D02*
X15687200Y-12075000D01*
X15687200Y-12182000D02*
X15707200Y-12202000D01*
X15707200Y-12182000D02*
X15687200Y-12202000D01*
X15687200Y-12550300D02*
X15707200Y-12570300D01*
X15707200Y-12550300D02*
X15687200Y-12570300D01*
X15687200Y-12766200D02*
X15707200Y-12786200D01*
X15707200Y-12766200D02*
X15687200Y-12786200D01*
X15738000Y-7356000D02*
X15758000Y-7376000D01*
X15758000Y-7356000D02*
X15738000Y-7376000D01*
X15738000Y-8016400D02*
X15758000Y-8036400D01*
X15758000Y-8016400D02*
X15738000Y-8036400D01*
X15738000Y-8219600D02*
X15758000Y-8239600D01*
X15758000Y-8219600D02*
X15738000Y-8239600D01*
X15738000Y-8372000D02*
X15758000Y-8392000D01*
X15758000Y-8372000D02*
X15738000Y-8392000D01*
X15738000Y-8841900D02*
X15758000Y-8861900D01*
X15758000Y-8841900D02*
X15738000Y-8861900D01*
X15738000Y-13121800D02*
X15758000Y-13141800D01*
X15758000Y-13121800D02*
X15738000Y-13141800D01*
X15738000Y-13426600D02*
X15758000Y-13446600D01*
X15758000Y-13426600D02*
X15738000Y-13446600D01*
X15738000Y-13731400D02*
X15758000Y-13751400D01*
X15758000Y-13731400D02*
X15738000Y-13751400D01*
X15738000Y-14214000D02*
X15758000Y-14234000D01*
X15758000Y-14214000D02*
X15738000Y-14234000D01*
X15738000Y-14341000D02*
X15758000Y-14361000D01*
X15758000Y-14341000D02*
X15738000Y-14361000D01*
X15865000Y-7356000D02*
X15885000Y-7376000D01*
X15885000Y-7356000D02*
X15865000Y-7376000D01*
X15865000Y-8372000D02*
X15885000Y-8392000D01*
X15885000Y-8372000D02*
X15865000Y-8392000D01*
X15865000Y-14214000D02*
X15885000Y-14234000D01*
X15885000Y-14214000D02*
X15865000Y-14234000D01*
X15865000Y-14341000D02*
X15885000Y-14361000D01*
X15885000Y-14341000D02*
X15865000Y-14361000D01*
X15890400Y-9134000D02*
X15910400Y-9154000D01*
X15910400Y-9134000D02*
X15890400Y-9154000D01*
X15890400Y-9515000D02*
X15910400Y-9535000D01*
X15910400Y-9515000D02*
X15890400Y-9535000D01*
X15890400Y-9642000D02*
X15910400Y-9662000D01*
X15910400Y-9642000D02*
X15890400Y-9662000D01*
X15890400Y-9769000D02*
X15910400Y-9789000D01*
X15910400Y-9769000D02*
X15890400Y-9789000D01*
X15890400Y-9896000D02*
X15910400Y-9916000D01*
X15910400Y-9896000D02*
X15890400Y-9916000D01*
X15890400Y-10023000D02*
X15910400Y-10043000D01*
X15910400Y-10023000D02*
X15890400Y-10043000D01*
X15890400Y-10150000D02*
X15910400Y-10170000D01*
X15910400Y-10150000D02*
X15890400Y-10170000D01*
X15890400Y-10277000D02*
X15910400Y-10297000D01*
X15910400Y-10277000D02*
X15890400Y-10297000D01*
X15890400Y-10404000D02*
X15910400Y-10424000D01*
X15910400Y-10404000D02*
X15890400Y-10424000D01*
X15890400Y-10531000D02*
X15910400Y-10551000D01*
X15910400Y-10531000D02*
X15890400Y-10551000D01*
X15890400Y-10658000D02*
X15910400Y-10678000D01*
X15910400Y-10658000D02*
X15890400Y-10678000D01*
X15890400Y-10785000D02*
X15910400Y-10805000D01*
X15910400Y-10785000D02*
X15890400Y-10805000D01*
X15890400Y-10912000D02*
X15910400Y-10932000D01*
X15910400Y-10912000D02*
X15890400Y-10932000D01*
X15890400Y-11039000D02*
X15910400Y-11059000D01*
X15910400Y-11039000D02*
X15890400Y-11059000D01*
X15890400Y-11166000D02*
X15910400Y-11186000D01*
X15910400Y-11166000D02*
X15890400Y-11186000D01*
X15890400Y-11293000D02*
X15910400Y-11313000D01*
X15910400Y-11293000D02*
X15890400Y-11313000D01*
X15890400Y-11420000D02*
X15910400Y-11440000D01*
X15910400Y-11420000D02*
X15890400Y-11440000D01*
X15890400Y-11547000D02*
X15910400Y-11567000D01*
X15910400Y-11547000D02*
X15890400Y-11567000D01*
X15890400Y-11674000D02*
X15910400Y-11694000D01*
X15910400Y-11674000D02*
X15890400Y-11694000D01*
X15890400Y-11801000D02*
X15910400Y-11821000D01*
X15910400Y-11801000D02*
X15890400Y-11821000D01*
X15890400Y-11928000D02*
X15910400Y-11948000D01*
X15910400Y-11928000D02*
X15890400Y-11948000D01*
X15890400Y-12055000D02*
X15910400Y-12075000D01*
X15910400Y-12055000D02*
X15890400Y-12075000D01*
X15890400Y-12182000D02*
X15910400Y-12202000D01*
X15910400Y-12182000D02*
X15890400Y-12202000D01*
X15890400Y-12309000D02*
X15910400Y-12329000D01*
X15910400Y-12309000D02*
X15890400Y-12329000D01*
X15890400Y-12753500D02*
X15910400Y-12773500D01*
X15910400Y-12753500D02*
X15890400Y-12773500D01*
X15992000Y-7356000D02*
X16012000Y-7376000D01*
X16012000Y-7356000D02*
X15992000Y-7376000D01*
X15992000Y-8016400D02*
X16012000Y-8036400D01*
X16012000Y-8016400D02*
X15992000Y-8036400D01*
X15992000Y-8219600D02*
X16012000Y-8239600D01*
X16012000Y-8219600D02*
X15992000Y-8239600D01*
X15992000Y-8372000D02*
X16012000Y-8392000D01*
X16012000Y-8372000D02*
X15992000Y-8392000D01*
X15992000Y-8537100D02*
X16012000Y-8557100D01*
X16012000Y-8537100D02*
X15992000Y-8557100D01*
X15992000Y-13731400D02*
X16012000Y-13751400D01*
X16012000Y-13731400D02*
X15992000Y-13751400D01*
X15992000Y-14214000D02*
X16012000Y-14234000D01*
X16012000Y-14214000D02*
X15992000Y-14234000D01*
X15992000Y-14341000D02*
X16012000Y-14361000D01*
X16012000Y-14341000D02*
X15992000Y-14361000D01*
X16119000Y-7356000D02*
X16139000Y-7376000D01*
X16139000Y-7356000D02*
X16119000Y-7376000D01*
X16119000Y-9261000D02*
X16139000Y-9281000D01*
X16139000Y-9261000D02*
X16119000Y-9281000D01*
X16119000Y-9388000D02*
X16139000Y-9408000D01*
X16139000Y-9388000D02*
X16119000Y-9408000D01*
X16119000Y-9515000D02*
X16139000Y-9535000D01*
X16139000Y-9515000D02*
X16119000Y-9535000D01*
X16119000Y-9642000D02*
X16139000Y-9662000D01*
X16139000Y-9642000D02*
X16119000Y-9662000D01*
X16119000Y-9769000D02*
X16139000Y-9789000D01*
X16139000Y-9769000D02*
X16119000Y-9789000D01*
X16119000Y-9896000D02*
X16139000Y-9916000D01*
X16139000Y-9896000D02*
X16119000Y-9916000D01*
X16119000Y-10023000D02*
X16139000Y-10043000D01*
X16139000Y-10023000D02*
X16119000Y-10043000D01*
X16119000Y-10150000D02*
X16139000Y-10170000D01*
X16139000Y-10150000D02*
X16119000Y-10170000D01*
X16119000Y-10277000D02*
X16139000Y-10297000D01*
X16139000Y-10277000D02*
X16119000Y-10297000D01*
X16119000Y-10404000D02*
X16139000Y-10424000D01*
X16139000Y-10404000D02*
X16119000Y-10424000D01*
X16119000Y-10531000D02*
X16139000Y-10551000D01*
X16139000Y-10531000D02*
X16119000Y-10551000D01*
X16119000Y-10658000D02*
X16139000Y-10678000D01*
X16139000Y-10658000D02*
X16119000Y-10678000D01*
X16119000Y-10785000D02*
X16139000Y-10805000D01*
X16139000Y-10785000D02*
X16119000Y-10805000D01*
X16119000Y-10912000D02*
X16139000Y-10932000D01*
X16139000Y-10912000D02*
X16119000Y-10932000D01*
X16119000Y-11039000D02*
X16139000Y-11059000D01*
X16139000Y-11039000D02*
X16119000Y-11059000D01*
X16119000Y-11166000D02*
X16139000Y-11186000D01*
X16139000Y-11166000D02*
X16119000Y-11186000D01*
X16119000Y-11293000D02*
X16139000Y-11313000D01*
X16139000Y-11293000D02*
X16119000Y-11313000D01*
X16119000Y-11420000D02*
X16139000Y-11440000D01*
X16139000Y-11420000D02*
X16119000Y-11440000D01*
X16119000Y-11547000D02*
X16139000Y-11567000D01*
X16139000Y-11547000D02*
X16119000Y-11567000D01*
X16119000Y-11674000D02*
X16139000Y-11694000D01*
X16139000Y-11674000D02*
X16119000Y-11694000D01*
X16119000Y-11801000D02*
X16139000Y-11821000D01*
X16139000Y-11801000D02*
X16119000Y-11821000D01*
X16119000Y-11928000D02*
X16139000Y-11948000D01*
X16139000Y-11928000D02*
X16119000Y-11948000D01*
X16119000Y-12055000D02*
X16139000Y-12075000D01*
X16139000Y-12055000D02*
X16119000Y-12075000D01*
X16119000Y-12182000D02*
X16139000Y-12202000D01*
X16139000Y-12182000D02*
X16119000Y-12202000D01*
X16119000Y-12309000D02*
X16139000Y-12329000D01*
X16139000Y-12309000D02*
X16119000Y-12329000D01*
X16119000Y-12436000D02*
X16139000Y-12456000D01*
X16139000Y-12436000D02*
X16119000Y-12456000D01*
X16119000Y-12563000D02*
X16139000Y-12583000D01*
X16139000Y-12563000D02*
X16119000Y-12583000D01*
X16119000Y-14214000D02*
X16139000Y-14234000D01*
X16139000Y-14214000D02*
X16119000Y-14234000D01*
X16119000Y-14341000D02*
X16139000Y-14361000D01*
X16139000Y-14341000D02*
X16119000Y-14361000D01*
X16246000Y-7356000D02*
X16266000Y-7376000D01*
X16266000Y-7356000D02*
X16246000Y-7376000D01*
X16246000Y-8016400D02*
X16266000Y-8036400D01*
X16266000Y-8016400D02*
X16246000Y-8036400D01*
X16246000Y-8219600D02*
X16266000Y-8239600D01*
X16266000Y-8219600D02*
X16246000Y-8239600D01*
X16246000Y-9261000D02*
X16266000Y-9281000D01*
X16266000Y-9261000D02*
X16246000Y-9281000D01*
X16246000Y-9388000D02*
X16266000Y-9408000D01*
X16266000Y-9388000D02*
X16246000Y-9408000D01*
X16246000Y-9515000D02*
X16266000Y-9535000D01*
X16266000Y-9515000D02*
X16246000Y-9535000D01*
X16246000Y-9642000D02*
X16266000Y-9662000D01*
X16266000Y-9642000D02*
X16246000Y-9662000D01*
X16246000Y-9769000D02*
X16266000Y-9789000D01*
X16266000Y-9769000D02*
X16246000Y-9789000D01*
X16246000Y-9896000D02*
X16266000Y-9916000D01*
X16266000Y-9896000D02*
X16246000Y-9916000D01*
X16246000Y-10023000D02*
X16266000Y-10043000D01*
X16266000Y-10023000D02*
X16246000Y-10043000D01*
X16246000Y-10150000D02*
X16266000Y-10170000D01*
X16266000Y-10150000D02*
X16246000Y-10170000D01*
X16246000Y-10277000D02*
X16266000Y-10297000D01*
X16266000Y-10277000D02*
X16246000Y-10297000D01*
X16246000Y-10404000D02*
X16266000Y-10424000D01*
X16266000Y-10404000D02*
X16246000Y-10424000D01*
X16246000Y-10531000D02*
X16266000Y-10551000D01*
X16266000Y-10531000D02*
X16246000Y-10551000D01*
X16246000Y-10658000D02*
X16266000Y-10678000D01*
X16266000Y-10658000D02*
X16246000Y-10678000D01*
X16246000Y-10785000D02*
X16266000Y-10805000D01*
X16266000Y-10785000D02*
X16246000Y-10805000D01*
X16246000Y-10912000D02*
X16266000Y-10932000D01*
X16266000Y-10912000D02*
X16246000Y-10932000D01*
X16246000Y-11039000D02*
X16266000Y-11059000D01*
X16266000Y-11039000D02*
X16246000Y-11059000D01*
X16246000Y-11166000D02*
X16266000Y-11186000D01*
X16266000Y-11166000D02*
X16246000Y-11186000D01*
X16246000Y-11293000D02*
X16266000Y-11313000D01*
X16266000Y-11293000D02*
X16246000Y-11313000D01*
X16246000Y-11420000D02*
X16266000Y-11440000D01*
X16266000Y-11420000D02*
X16246000Y-11440000D01*
X16246000Y-11547000D02*
X16266000Y-11567000D01*
X16266000Y-11547000D02*
X16246000Y-11567000D01*
X16246000Y-11674000D02*
X16266000Y-11694000D01*
X16266000Y-11674000D02*
X16246000Y-11694000D01*
X16246000Y-11801000D02*
X16266000Y-11821000D01*
X16266000Y-11801000D02*
X16246000Y-11821000D01*
X16246000Y-11928000D02*
X16266000Y-11948000D01*
X16266000Y-11928000D02*
X16246000Y-11948000D01*
X16246000Y-12055000D02*
X16266000Y-12075000D01*
X16266000Y-12055000D02*
X16246000Y-12075000D01*
X16246000Y-12182000D02*
X16266000Y-12202000D01*
X16266000Y-12182000D02*
X16246000Y-12202000D01*
X16246000Y-12309000D02*
X16266000Y-12329000D01*
X16266000Y-12309000D02*
X16246000Y-12329000D01*
X16246000Y-12436000D02*
X16266000Y-12456000D01*
X16266000Y-12436000D02*
X16246000Y-12456000D01*
X16246000Y-12563000D02*
X16266000Y-12583000D01*
X16266000Y-12563000D02*
X16246000Y-12583000D01*
X16246000Y-12944000D02*
X16266000Y-12964000D01*
X16266000Y-12944000D02*
X16246000Y-12964000D01*
X16246000Y-13121800D02*
X16266000Y-13141800D01*
X16266000Y-13121800D02*
X16246000Y-13141800D01*
X16246000Y-13426600D02*
X16266000Y-13446600D01*
X16266000Y-13426600D02*
X16246000Y-13446600D01*
X16246000Y-13731400D02*
X16266000Y-13751400D01*
X16266000Y-13731400D02*
X16246000Y-13751400D01*
X16246000Y-14214000D02*
X16266000Y-14234000D01*
X16266000Y-14214000D02*
X16246000Y-14234000D01*
X16246000Y-14341000D02*
X16266000Y-14361000D01*
X16266000Y-14341000D02*
X16246000Y-14361000D01*
X16373000Y-7356000D02*
X16393000Y-7376000D01*
X16393000Y-7356000D02*
X16373000Y-7376000D01*
X16373000Y-8372000D02*
X16393000Y-8392000D01*
X16393000Y-8372000D02*
X16373000Y-8392000D01*
X16373000Y-9007000D02*
X16393000Y-9027000D01*
X16393000Y-9007000D02*
X16373000Y-9027000D01*
X16373000Y-9388000D02*
X16393000Y-9408000D01*
X16393000Y-9388000D02*
X16373000Y-9408000D01*
X16373000Y-9515000D02*
X16393000Y-9535000D01*
X16393000Y-9515000D02*
X16373000Y-9535000D01*
X16373000Y-9642000D02*
X16393000Y-9662000D01*
X16393000Y-9642000D02*
X16373000Y-9662000D01*
X16373000Y-9769000D02*
X16393000Y-9789000D01*
X16393000Y-9769000D02*
X16373000Y-9789000D01*
X16373000Y-9896000D02*
X16393000Y-9916000D01*
X16393000Y-9896000D02*
X16373000Y-9916000D01*
X16373000Y-10023000D02*
X16393000Y-10043000D01*
X16393000Y-10023000D02*
X16373000Y-10043000D01*
X16373000Y-10150000D02*
X16393000Y-10170000D01*
X16393000Y-10150000D02*
X16373000Y-10170000D01*
X16373000Y-10277000D02*
X16393000Y-10297000D01*
X16393000Y-10277000D02*
X16373000Y-10297000D01*
X16373000Y-10404000D02*
X16393000Y-10424000D01*
X16393000Y-10404000D02*
X16373000Y-10424000D01*
X16373000Y-10531000D02*
X16393000Y-10551000D01*
X16393000Y-10531000D02*
X16373000Y-10551000D01*
X16373000Y-10658000D02*
X16393000Y-10678000D01*
X16393000Y-10658000D02*
X16373000Y-10678000D01*
X16373000Y-10785000D02*
X16393000Y-10805000D01*
X16393000Y-10785000D02*
X16373000Y-10805000D01*
X16373000Y-10912000D02*
X16393000Y-10932000D01*
X16393000Y-10912000D02*
X16373000Y-10932000D01*
X16373000Y-11039000D02*
X16393000Y-11059000D01*
X16393000Y-11039000D02*
X16373000Y-11059000D01*
X16373000Y-11166000D02*
X16393000Y-11186000D01*
X16393000Y-11166000D02*
X16373000Y-11186000D01*
X16373000Y-11293000D02*
X16393000Y-11313000D01*
X16393000Y-11293000D02*
X16373000Y-11313000D01*
X16373000Y-11420000D02*
X16393000Y-11440000D01*
X16393000Y-11420000D02*
X16373000Y-11440000D01*
X16373000Y-11547000D02*
X16393000Y-11567000D01*
X16393000Y-11547000D02*
X16373000Y-11567000D01*
X16373000Y-11674000D02*
X16393000Y-11694000D01*
X16393000Y-11674000D02*
X16373000Y-11694000D01*
X16373000Y-11801000D02*
X16393000Y-11821000D01*
X16393000Y-11801000D02*
X16373000Y-11821000D01*
X16373000Y-11928000D02*
X16393000Y-11948000D01*
X16393000Y-11928000D02*
X16373000Y-11948000D01*
X16373000Y-12055000D02*
X16393000Y-12075000D01*
X16393000Y-12055000D02*
X16373000Y-12075000D01*
X16373000Y-12182000D02*
X16393000Y-12202000D01*
X16393000Y-12182000D02*
X16373000Y-12202000D01*
X16373000Y-12309000D02*
X16393000Y-12329000D01*
X16393000Y-12309000D02*
X16373000Y-12329000D01*
X16373000Y-12436000D02*
X16393000Y-12456000D01*
X16393000Y-12436000D02*
X16373000Y-12456000D01*
X16373000Y-12563000D02*
X16393000Y-12583000D01*
X16393000Y-12563000D02*
X16373000Y-12583000D01*
X16373000Y-12766200D02*
X16393000Y-12786200D01*
X16393000Y-12766200D02*
X16373000Y-12786200D01*
X16373000Y-14214000D02*
X16393000Y-14234000D01*
X16393000Y-14214000D02*
X16373000Y-14234000D01*
X16373000Y-14341000D02*
X16393000Y-14361000D01*
X16393000Y-14341000D02*
X16373000Y-14361000D01*
X16500000Y-7356000D02*
X16520000Y-7376000D01*
X16520000Y-7356000D02*
X16500000Y-7376000D01*
X16500000Y-8524400D02*
X16520000Y-8544400D01*
X16520000Y-8524400D02*
X16500000Y-8544400D01*
X16500000Y-8727600D02*
X16520000Y-8747600D01*
X16520000Y-8727600D02*
X16500000Y-8747600D01*
X16500000Y-8880000D02*
X16520000Y-8900000D01*
X16520000Y-8880000D02*
X16500000Y-8900000D01*
X16500000Y-9007000D02*
X16520000Y-9027000D01*
X16520000Y-9007000D02*
X16500000Y-9027000D01*
X16500000Y-9134000D02*
X16520000Y-9154000D01*
X16520000Y-9134000D02*
X16500000Y-9154000D01*
X16500000Y-9515000D02*
X16520000Y-9535000D01*
X16520000Y-9515000D02*
X16500000Y-9535000D01*
X16500000Y-9642000D02*
X16520000Y-9662000D01*
X16520000Y-9642000D02*
X16500000Y-9662000D01*
X16500000Y-9769000D02*
X16520000Y-9789000D01*
X16520000Y-9769000D02*
X16500000Y-9789000D01*
X16500000Y-9896000D02*
X16520000Y-9916000D01*
X16520000Y-9896000D02*
X16500000Y-9916000D01*
X16500000Y-10023000D02*
X16520000Y-10043000D01*
X16520000Y-10023000D02*
X16500000Y-10043000D01*
X16500000Y-10150000D02*
X16520000Y-10170000D01*
X16520000Y-10150000D02*
X16500000Y-10170000D01*
X16500000Y-10277000D02*
X16520000Y-10297000D01*
X16520000Y-10277000D02*
X16500000Y-10297000D01*
X16500000Y-10404000D02*
X16520000Y-10424000D01*
X16520000Y-10404000D02*
X16500000Y-10424000D01*
X16500000Y-10531000D02*
X16520000Y-10551000D01*
X16520000Y-10531000D02*
X16500000Y-10551000D01*
X16500000Y-10658000D02*
X16520000Y-10678000D01*
X16520000Y-10658000D02*
X16500000Y-10678000D01*
X16500000Y-10785000D02*
X16520000Y-10805000D01*
X16520000Y-10785000D02*
X16500000Y-10805000D01*
X16500000Y-10912000D02*
X16520000Y-10932000D01*
X16520000Y-10912000D02*
X16500000Y-10932000D01*
X16500000Y-11039000D02*
X16520000Y-11059000D01*
X16520000Y-11039000D02*
X16500000Y-11059000D01*
X16500000Y-11166000D02*
X16520000Y-11186000D01*
X16520000Y-11166000D02*
X16500000Y-11186000D01*
X16500000Y-11293000D02*
X16520000Y-11313000D01*
X16520000Y-11293000D02*
X16500000Y-11313000D01*
X16500000Y-11420000D02*
X16520000Y-11440000D01*
X16520000Y-11420000D02*
X16500000Y-11440000D01*
X16500000Y-11547000D02*
X16520000Y-11567000D01*
X16520000Y-11547000D02*
X16500000Y-11567000D01*
X16500000Y-11674000D02*
X16520000Y-11694000D01*
X16520000Y-11674000D02*
X16500000Y-11694000D01*
X16500000Y-11801000D02*
X16520000Y-11821000D01*
X16520000Y-11801000D02*
X16500000Y-11821000D01*
X16500000Y-11928000D02*
X16520000Y-11948000D01*
X16520000Y-11928000D02*
X16500000Y-11948000D01*
X16500000Y-12055000D02*
X16520000Y-12075000D01*
X16520000Y-12055000D02*
X16500000Y-12075000D01*
X16500000Y-12182000D02*
X16520000Y-12202000D01*
X16520000Y-12182000D02*
X16500000Y-12202000D01*
X16500000Y-12309000D02*
X16520000Y-12329000D01*
X16520000Y-12309000D02*
X16500000Y-12329000D01*
X16500000Y-12436000D02*
X16520000Y-12456000D01*
X16520000Y-12436000D02*
X16500000Y-12456000D01*
X16500000Y-12563000D02*
X16520000Y-12583000D01*
X16520000Y-12563000D02*
X16500000Y-12583000D01*
X16500000Y-12766200D02*
X16520000Y-12786200D01*
X16520000Y-12766200D02*
X16500000Y-12786200D01*
X16500000Y-12944000D02*
X16520000Y-12964000D01*
X16520000Y-12944000D02*
X16500000Y-12964000D01*
X16500000Y-13121800D02*
X16520000Y-13141800D01*
X16520000Y-13121800D02*
X16500000Y-13141800D01*
X16500000Y-13426600D02*
X16520000Y-13446600D01*
X16520000Y-13426600D02*
X16500000Y-13446600D01*
X16500000Y-13718700D02*
X16520000Y-13738700D01*
X16520000Y-13718700D02*
X16500000Y-13738700D01*
X16500000Y-14341000D02*
X16520000Y-14361000D01*
X16520000Y-14341000D02*
X16500000Y-14361000D01*
X16627000Y-7356000D02*
X16647000Y-7376000D01*
X16647000Y-7356000D02*
X16627000Y-7376000D01*
X16627000Y-13782200D02*
X16647000Y-13802200D01*
X16647000Y-13782200D02*
X16627000Y-13802200D01*
X16627000Y-14341000D02*
X16647000Y-14361000D01*
X16647000Y-14341000D02*
X16627000Y-14361000D01*
X16754000Y-7356000D02*
X16774000Y-7376000D01*
X16774000Y-7356000D02*
X16754000Y-7376000D01*
X16754000Y-8016400D02*
X16774000Y-8036400D01*
X16774000Y-8016400D02*
X16754000Y-8036400D01*
X16754000Y-8219600D02*
X16774000Y-8239600D01*
X16774000Y-8219600D02*
X16754000Y-8239600D01*
X16754000Y-13426600D02*
X16774000Y-13446600D01*
X16774000Y-13426600D02*
X16754000Y-13446600D01*
X16754000Y-14341000D02*
X16774000Y-14361000D01*
X16774000Y-14341000D02*
X16754000Y-14361000D01*
X16779400Y-13744100D02*
X16799400Y-13764100D01*
X16799400Y-13744100D02*
X16779400Y-13764100D01*
X16881000Y-7356000D02*
X16901000Y-7376000D01*
X16901000Y-7356000D02*
X16881000Y-7376000D01*
X16881000Y-14341000D02*
X16901000Y-14361000D01*
X16901000Y-14341000D02*
X16881000Y-14361000D01*
X17008000Y-7356000D02*
X17028000Y-7376000D01*
X17028000Y-7356000D02*
X17008000Y-7376000D01*
X17008000Y-14341000D02*
X17028000Y-14361000D01*
X17028000Y-14341000D02*
X17008000Y-14361000D01*
X17135000Y-7356000D02*
X17155000Y-7376000D01*
X17155000Y-7356000D02*
X17135000Y-7376000D01*
X17135000Y-8372000D02*
X17155000Y-8392000D01*
X17155000Y-8372000D02*
X17135000Y-8392000D01*
X17135000Y-8880000D02*
X17155000Y-8900000D01*
X17155000Y-8880000D02*
X17135000Y-8900000D01*
X17135000Y-9007000D02*
X17155000Y-9027000D01*
X17155000Y-9007000D02*
X17135000Y-9027000D01*
X17135000Y-9134000D02*
X17155000Y-9154000D01*
X17155000Y-9134000D02*
X17135000Y-9154000D01*
X17135000Y-9261000D02*
X17155000Y-9281000D01*
X17155000Y-9261000D02*
X17135000Y-9281000D01*
X17135000Y-9388000D02*
X17155000Y-9408000D01*
X17155000Y-9388000D02*
X17135000Y-9408000D01*
X17135000Y-9515000D02*
X17155000Y-9535000D01*
X17155000Y-9515000D02*
X17135000Y-9535000D01*
X17135000Y-9642000D02*
X17155000Y-9662000D01*
X17155000Y-9642000D02*
X17135000Y-9662000D01*
X17135000Y-9769000D02*
X17155000Y-9789000D01*
X17155000Y-9769000D02*
X17135000Y-9789000D01*
X17135000Y-10150000D02*
X17155000Y-10170000D01*
X17155000Y-10150000D02*
X17135000Y-10170000D01*
X17135000Y-10277000D02*
X17155000Y-10297000D01*
X17155000Y-10277000D02*
X17135000Y-10297000D01*
X17135000Y-10404000D02*
X17155000Y-10424000D01*
X17155000Y-10404000D02*
X17135000Y-10424000D01*
X17135000Y-10531000D02*
X17155000Y-10551000D01*
X17155000Y-10531000D02*
X17135000Y-10551000D01*
X17135000Y-10658000D02*
X17155000Y-10678000D01*
X17155000Y-10658000D02*
X17135000Y-10678000D01*
X17135000Y-10785000D02*
X17155000Y-10805000D01*
X17155000Y-10785000D02*
X17135000Y-10805000D01*
X17135000Y-10912000D02*
X17155000Y-10932000D01*
X17155000Y-10912000D02*
X17135000Y-10932000D01*
X17135000Y-11039000D02*
X17155000Y-11059000D01*
X17155000Y-11039000D02*
X17135000Y-11059000D01*
X17135000Y-11166000D02*
X17155000Y-11186000D01*
X17155000Y-11166000D02*
X17135000Y-11186000D01*
X17135000Y-11293000D02*
X17155000Y-11313000D01*
X17155000Y-11293000D02*
X17135000Y-11313000D01*
X17135000Y-11420000D02*
X17155000Y-11440000D01*
X17155000Y-11420000D02*
X17135000Y-11440000D01*
X17135000Y-11547000D02*
X17155000Y-11567000D01*
X17155000Y-11547000D02*
X17135000Y-11567000D01*
X17135000Y-11674000D02*
X17155000Y-11694000D01*
X17155000Y-11674000D02*
X17135000Y-11694000D01*
X17135000Y-11801000D02*
X17155000Y-11821000D01*
X17155000Y-11801000D02*
X17135000Y-11821000D01*
X17135000Y-11928000D02*
X17155000Y-11948000D01*
X17155000Y-11928000D02*
X17135000Y-11948000D01*
X17135000Y-12055000D02*
X17155000Y-12075000D01*
X17155000Y-12055000D02*
X17135000Y-12075000D01*
X17135000Y-12182000D02*
X17155000Y-12202000D01*
X17155000Y-12182000D02*
X17135000Y-12202000D01*
X17135000Y-12309000D02*
X17155000Y-12329000D01*
X17155000Y-12309000D02*
X17135000Y-12329000D01*
X17135000Y-12436000D02*
X17155000Y-12456000D01*
X17155000Y-12436000D02*
X17135000Y-12456000D01*
X17135000Y-12563000D02*
X17155000Y-12583000D01*
X17155000Y-12563000D02*
X17135000Y-12583000D01*
X17135000Y-14341000D02*
X17155000Y-14361000D01*
X17155000Y-14341000D02*
X17135000Y-14361000D01*
X17249300Y-13274200D02*
X17269300Y-13294200D01*
X17269300Y-13274200D02*
X17249300Y-13294200D01*
X17262000Y-7356000D02*
X17282000Y-7376000D01*
X17282000Y-7356000D02*
X17262000Y-7376000D01*
X17262000Y-9896000D02*
X17282000Y-9916000D01*
X17282000Y-9896000D02*
X17262000Y-9916000D01*
X17262000Y-10277000D02*
X17282000Y-10297000D01*
X17282000Y-10277000D02*
X17262000Y-10297000D01*
X17262000Y-12563000D02*
X17282000Y-12583000D01*
X17282000Y-12563000D02*
X17262000Y-12583000D01*
X17262000Y-13744100D02*
X17282000Y-13764100D01*
X17282000Y-13744100D02*
X17262000Y-13764100D01*
X17262000Y-14341000D02*
X17282000Y-14361000D01*
X17282000Y-14341000D02*
X17262000Y-14361000D01*
X17287400Y-13020200D02*
X17307400Y-13040200D01*
X17307400Y-13020200D02*
X17287400Y-13040200D01*
X17389000Y-7356000D02*
X17409000Y-7376000D01*
X17409000Y-7356000D02*
X17389000Y-7376000D01*
X17389000Y-10023000D02*
X17409000Y-10043000D01*
X17409000Y-10023000D02*
X17389000Y-10043000D01*
X17389000Y-10404000D02*
X17409000Y-10424000D01*
X17409000Y-10404000D02*
X17389000Y-10424000D01*
X17389000Y-12563000D02*
X17409000Y-12583000D01*
X17409000Y-12563000D02*
X17389000Y-12583000D01*
X17389000Y-12690000D02*
X17409000Y-12710000D01*
X17409000Y-12690000D02*
X17389000Y-12710000D01*
X17389000Y-12817000D02*
X17409000Y-12837000D01*
X17409000Y-12817000D02*
X17389000Y-12837000D01*
X17389000Y-12944000D02*
X17409000Y-12964000D01*
X17409000Y-12944000D02*
X17389000Y-12964000D01*
X17389000Y-14087000D02*
X17409000Y-14107000D01*
X17409000Y-14087000D02*
X17389000Y-14107000D01*
X17389000Y-14214000D02*
X17409000Y-14234000D01*
X17409000Y-14214000D02*
X17389000Y-14234000D01*
X17389000Y-14341000D02*
X17409000Y-14361000D01*
X17409000Y-14341000D02*
X17389000Y-14361000D01*
X17516000Y-7356000D02*
X17536000Y-7376000D01*
X17536000Y-7356000D02*
X17516000Y-7376000D01*
X17516000Y-10150000D02*
X17536000Y-10170000D01*
X17536000Y-10150000D02*
X17516000Y-10170000D01*
X17516000Y-10531000D02*
X17536000Y-10551000D01*
X17536000Y-10531000D02*
X17516000Y-10551000D01*
X17516000Y-12944000D02*
X17536000Y-12964000D01*
X17536000Y-12944000D02*
X17516000Y-12964000D01*
X17516000Y-13706000D02*
X17536000Y-13726000D01*
X17536000Y-13706000D02*
X17516000Y-13726000D01*
X17516000Y-14087000D02*
X17536000Y-14107000D01*
X17536000Y-14087000D02*
X17516000Y-14107000D01*
X17516000Y-14341000D02*
X17536000Y-14361000D01*
X17536000Y-14341000D02*
X17516000Y-14361000D01*
X17643000Y-7356000D02*
X17663000Y-7376000D01*
X17663000Y-7356000D02*
X17643000Y-7376000D01*
X17643000Y-10277000D02*
X17663000Y-10297000D01*
X17663000Y-10277000D02*
X17643000Y-10297000D01*
X17643000Y-10658000D02*
X17663000Y-10678000D01*
X17663000Y-10658000D02*
X17643000Y-10678000D01*
X17643000Y-12944000D02*
X17663000Y-12964000D01*
X17663000Y-12944000D02*
X17643000Y-12964000D01*
X17643000Y-13579000D02*
X17663000Y-13599000D01*
X17663000Y-13579000D02*
X17643000Y-13599000D01*
X17643000Y-14087000D02*
X17663000Y-14107000D01*
X17663000Y-14087000D02*
X17643000Y-14107000D01*
X17643000Y-14341000D02*
X17663000Y-14361000D01*
X17663000Y-14341000D02*
X17643000Y-14361000D01*
X17770000Y-7356000D02*
X17790000Y-7376000D01*
X17790000Y-7356000D02*
X17770000Y-7376000D01*
X17770000Y-10277000D02*
X17790000Y-10297000D01*
X17790000Y-10277000D02*
X17770000Y-10297000D01*
X17770000Y-10658000D02*
X17790000Y-10678000D01*
X17790000Y-10658000D02*
X17770000Y-10678000D01*
X17770000Y-12944000D02*
X17790000Y-12964000D01*
X17790000Y-12944000D02*
X17770000Y-12964000D01*
X17770000Y-13960000D02*
X17790000Y-13980000D01*
X17790000Y-13960000D02*
X17770000Y-13980000D01*
X17770000Y-14341000D02*
X17790000Y-14361000D01*
X17790000Y-14341000D02*
X17770000Y-14361000D01*
X17897000Y-7356000D02*
X17917000Y-7376000D01*
X17917000Y-7356000D02*
X17897000Y-7376000D01*
X17897000Y-10277000D02*
X17917000Y-10297000D01*
X17917000Y-10277000D02*
X17897000Y-10297000D01*
X17897000Y-10658000D02*
X17917000Y-10678000D01*
X17917000Y-10658000D02*
X17897000Y-10678000D01*
X17897000Y-10785000D02*
X17917000Y-10805000D01*
X17917000Y-10785000D02*
X17897000Y-10805000D01*
X17897000Y-12944000D02*
X17917000Y-12964000D01*
X17917000Y-12944000D02*
X17897000Y-12964000D01*
X17897000Y-13071000D02*
X17917000Y-13091000D01*
X17917000Y-13071000D02*
X17897000Y-13091000D01*
X17897000Y-13833000D02*
X17917000Y-13853000D01*
X17917000Y-13833000D02*
X17897000Y-13853000D01*
X17897000Y-14341000D02*
X17917000Y-14361000D01*
X17917000Y-14341000D02*
X17897000Y-14361000D01*
X18024000Y-7356000D02*
X18044000Y-7376000D01*
X18044000Y-7356000D02*
X18024000Y-7376000D01*
X18024000Y-10277000D02*
X18044000Y-10297000D01*
X18044000Y-10277000D02*
X18024000Y-10297000D01*
X18024000Y-10658000D02*
X18044000Y-10678000D01*
X18044000Y-10658000D02*
X18024000Y-10678000D01*
X18024000Y-10785000D02*
X18044000Y-10805000D01*
X18044000Y-10785000D02*
X18024000Y-10805000D01*
X18024000Y-10912000D02*
X18044000Y-10932000D01*
X18044000Y-10912000D02*
X18024000Y-10932000D01*
X18024000Y-12944000D02*
X18044000Y-12964000D01*
X18044000Y-12944000D02*
X18024000Y-12964000D01*
X18024000Y-13071000D02*
X18044000Y-13091000D01*
X18044000Y-13071000D02*
X18024000Y-13091000D01*
X18024000Y-13198000D02*
X18044000Y-13218000D01*
X18044000Y-13198000D02*
X18024000Y-13218000D01*
X18024000Y-13706000D02*
X18044000Y-13726000D01*
X18044000Y-13706000D02*
X18024000Y-13726000D01*
X18024000Y-14341000D02*
X18044000Y-14361000D01*
X18044000Y-14341000D02*
X18024000Y-14361000D01*
X18151000Y-7356000D02*
X18171000Y-7376000D01*
X18171000Y-7356000D02*
X18151000Y-7376000D01*
X18151000Y-10658000D02*
X18171000Y-10678000D01*
X18171000Y-10658000D02*
X18151000Y-10678000D01*
X18151000Y-10785000D02*
X18171000Y-10805000D01*
X18171000Y-10785000D02*
X18151000Y-10805000D01*
X18151000Y-10912000D02*
X18171000Y-10932000D01*
X18171000Y-10912000D02*
X18151000Y-10932000D01*
X18151000Y-11039000D02*
X18171000Y-11059000D01*
X18171000Y-11039000D02*
X18151000Y-11059000D01*
X18151000Y-12944000D02*
X18171000Y-12964000D01*
X18171000Y-12944000D02*
X18151000Y-12964000D01*
X18151000Y-13071000D02*
X18171000Y-13091000D01*
X18171000Y-13071000D02*
X18151000Y-13091000D01*
X18151000Y-13579000D02*
X18171000Y-13599000D01*
X18171000Y-13579000D02*
X18151000Y-13599000D01*
X18151000Y-14341000D02*
X18171000Y-14361000D01*
X18171000Y-14341000D02*
X18151000Y-14361000D01*
X18278000Y-7356000D02*
X18298000Y-7376000D01*
X18298000Y-7356000D02*
X18278000Y-7376000D01*
X18278000Y-10658000D02*
X18298000Y-10678000D01*
X18298000Y-10658000D02*
X18278000Y-10678000D01*
X18278000Y-10785000D02*
X18298000Y-10805000D01*
X18298000Y-10785000D02*
X18278000Y-10805000D01*
X18278000Y-10912000D02*
X18298000Y-10932000D01*
X18298000Y-10912000D02*
X18278000Y-10932000D01*
X18278000Y-11039000D02*
X18298000Y-11059000D01*
X18298000Y-11039000D02*
X18278000Y-11059000D01*
X18278000Y-11166000D02*
X18298000Y-11186000D01*
X18298000Y-11166000D02*
X18278000Y-11186000D01*
X18278000Y-11293000D02*
X18298000Y-11313000D01*
X18298000Y-11293000D02*
X18278000Y-11313000D01*
X18278000Y-11420000D02*
X18298000Y-11440000D01*
X18298000Y-11420000D02*
X18278000Y-11440000D01*
X18278000Y-11547000D02*
X18298000Y-11567000D01*
X18298000Y-11547000D02*
X18278000Y-11567000D01*
X18278000Y-11674000D02*
X18298000Y-11694000D01*
X18298000Y-11674000D02*
X18278000Y-11694000D01*
X18278000Y-11801000D02*
X18298000Y-11821000D01*
X18298000Y-11801000D02*
X18278000Y-11821000D01*
X18278000Y-11928000D02*
X18298000Y-11948000D01*
X18298000Y-11928000D02*
X18278000Y-11948000D01*
X18278000Y-12055000D02*
X18298000Y-12075000D01*
X18298000Y-12055000D02*
X18278000Y-12075000D01*
X18278000Y-12182000D02*
X18298000Y-12202000D01*
X18298000Y-12182000D02*
X18278000Y-12202000D01*
X18278000Y-12309000D02*
X18298000Y-12329000D01*
X18298000Y-12309000D02*
X18278000Y-12329000D01*
X18278000Y-12436000D02*
X18298000Y-12456000D01*
X18298000Y-12436000D02*
X18278000Y-12456000D01*
X18278000Y-12563000D02*
X18298000Y-12583000D01*
X18298000Y-12563000D02*
X18278000Y-12583000D01*
X18278000Y-12690000D02*
X18298000Y-12710000D01*
X18298000Y-12690000D02*
X18278000Y-12710000D01*
X18278000Y-12817000D02*
X18298000Y-12837000D01*
X18298000Y-12817000D02*
X18278000Y-12837000D01*
X18278000Y-12944000D02*
X18298000Y-12964000D01*
X18298000Y-12944000D02*
X18278000Y-12964000D01*
X18278000Y-13452000D02*
X18298000Y-13472000D01*
X18298000Y-13452000D02*
X18278000Y-13472000D01*
X18278000Y-14341000D02*
X18298000Y-14361000D01*
X18298000Y-14341000D02*
X18278000Y-14361000D01*
X18405000Y-7356000D02*
X18425000Y-7376000D01*
X18425000Y-7356000D02*
X18405000Y-7376000D01*
X18405000Y-10277000D02*
X18425000Y-10297000D01*
X18425000Y-10277000D02*
X18405000Y-10297000D01*
X18405000Y-10912000D02*
X18425000Y-10932000D01*
X18425000Y-10912000D02*
X18405000Y-10932000D01*
X18405000Y-13325000D02*
X18425000Y-13345000D01*
X18425000Y-13325000D02*
X18405000Y-13345000D01*
X18405000Y-14341000D02*
X18425000Y-14361000D01*
X18425000Y-14341000D02*
X18405000Y-14361000D01*
X18532000Y-7356000D02*
X18552000Y-7376000D01*
X18552000Y-7356000D02*
X18532000Y-7376000D01*
X18532000Y-10277000D02*
X18552000Y-10297000D01*
X18552000Y-10277000D02*
X18532000Y-10297000D01*
X18532000Y-13198000D02*
X18552000Y-13218000D01*
X18552000Y-13198000D02*
X18532000Y-13218000D01*
X18532000Y-14341000D02*
X18552000Y-14361000D01*
X18552000Y-14341000D02*
X18532000Y-14361000D01*
X18659000Y-7356000D02*
X18679000Y-7376000D01*
X18679000Y-7356000D02*
X18659000Y-7376000D01*
X18659000Y-10277000D02*
X18679000Y-10297000D01*
X18679000Y-10277000D02*
X18659000Y-10297000D01*
X18659000Y-13071000D02*
X18679000Y-13091000D01*
X18679000Y-13071000D02*
X18659000Y-13091000D01*
X18659000Y-14341000D02*
X18679000Y-14361000D01*
X18679000Y-14341000D02*
X18659000Y-14361000D01*
X18786000Y-7356000D02*
X18806000Y-7376000D01*
X18806000Y-7356000D02*
X18786000Y-7376000D01*
X18786000Y-10658000D02*
X18806000Y-10678000D01*
X18806000Y-10658000D02*
X18786000Y-10678000D01*
X18786000Y-10785000D02*
X18806000Y-10805000D01*
X18806000Y-10785000D02*
X18786000Y-10805000D01*
X18786000Y-10912000D02*
X18806000Y-10932000D01*
X18806000Y-10912000D02*
X18786000Y-10932000D01*
X18786000Y-11039000D02*
X18806000Y-11059000D01*
X18806000Y-11039000D02*
X18786000Y-11059000D01*
X18786000Y-11293000D02*
X18806000Y-11313000D01*
X18806000Y-11293000D02*
X18786000Y-11313000D01*
X18786000Y-11420000D02*
X18806000Y-11440000D01*
X18806000Y-11420000D02*
X18786000Y-11440000D01*
X18786000Y-11547000D02*
X18806000Y-11567000D01*
X18806000Y-11547000D02*
X18786000Y-11567000D01*
X18786000Y-11674000D02*
X18806000Y-11694000D01*
X18806000Y-11674000D02*
X18786000Y-11694000D01*
X18786000Y-11801000D02*
X18806000Y-11821000D01*
X18806000Y-11801000D02*
X18786000Y-11821000D01*
X18786000Y-11928000D02*
X18806000Y-11948000D01*
X18806000Y-11928000D02*
X18786000Y-11948000D01*
X18786000Y-12055000D02*
X18806000Y-12075000D01*
X18806000Y-12055000D02*
X18786000Y-12075000D01*
X18786000Y-12182000D02*
X18806000Y-12202000D01*
X18806000Y-12182000D02*
X18786000Y-12202000D01*
X18786000Y-12309000D02*
X18806000Y-12329000D01*
X18806000Y-12309000D02*
X18786000Y-12329000D01*
X18786000Y-12436000D02*
X18806000Y-12456000D01*
X18806000Y-12436000D02*
X18786000Y-12456000D01*
X18786000Y-12563000D02*
X18806000Y-12583000D01*
X18806000Y-12563000D02*
X18786000Y-12583000D01*
X18786000Y-12690000D02*
X18806000Y-12710000D01*
X18806000Y-12690000D02*
X18786000Y-12710000D01*
X18786000Y-12817000D02*
X18806000Y-12837000D01*
X18806000Y-12817000D02*
X18786000Y-12837000D01*
X18786000Y-12944000D02*
X18806000Y-12964000D01*
X18806000Y-12944000D02*
X18786000Y-12964000D01*
X18786000Y-14341000D02*
X18806000Y-14361000D01*
X18806000Y-14341000D02*
X18786000Y-14361000D01*
X18913000Y-7356000D02*
X18933000Y-7376000D01*
X18933000Y-7356000D02*
X18913000Y-7376000D01*
X18913000Y-10531000D02*
X18933000Y-10551000D01*
X18933000Y-10531000D02*
X18913000Y-10551000D01*
X18913000Y-11293000D02*
X18933000Y-11313000D01*
X18933000Y-11293000D02*
X18913000Y-11313000D01*
X18913000Y-14341000D02*
X18933000Y-14361000D01*
X18933000Y-14341000D02*
X18913000Y-14361000D01*
X19040000Y-7356000D02*
X19060000Y-7376000D01*
X19060000Y-7356000D02*
X19040000Y-7376000D01*
X19040000Y-10658000D02*
X19060000Y-10678000D01*
X19060000Y-10658000D02*
X19040000Y-10678000D01*
X19040000Y-11293000D02*
X19060000Y-11313000D01*
X19060000Y-11293000D02*
X19040000Y-11313000D01*
X19040000Y-14341000D02*
X19060000Y-14361000D01*
X19060000Y-14341000D02*
X19040000Y-14361000D01*
X19167000Y-7356000D02*
X19187000Y-7376000D01*
X19187000Y-7356000D02*
X19167000Y-7376000D01*
X19167000Y-7483000D02*
X19187000Y-7503000D01*
X19187000Y-7483000D02*
X19167000Y-7503000D01*
X19167000Y-7610000D02*
X19187000Y-7630000D01*
X19187000Y-7610000D02*
X19167000Y-7630000D01*
X19167000Y-10658000D02*
X19187000Y-10678000D01*
X19187000Y-10658000D02*
X19167000Y-10678000D01*
X19167000Y-11293000D02*
X19187000Y-11313000D01*
X19187000Y-11293000D02*
X19167000Y-11313000D01*
X19167000Y-13960000D02*
X19187000Y-13980000D01*
X19187000Y-13960000D02*
X19167000Y-13980000D01*
X19167000Y-14087000D02*
X19187000Y-14107000D01*
X19187000Y-14087000D02*
X19167000Y-14107000D01*
X19167000Y-14214000D02*
X19187000Y-14234000D01*
X19187000Y-14214000D02*
X19167000Y-14234000D01*
X19167000Y-14341000D02*
X19187000Y-14361000D01*
X19187000Y-14341000D02*
X19167000Y-14361000D01*
X19294000Y-10785000D02*
X19314000Y-10805000D01*
X19314000Y-10785000D02*
X19294000Y-10805000D01*
X19294000Y-10912000D02*
X19314000Y-10932000D01*
X19314000Y-10912000D02*
X19294000Y-10932000D01*
X19294000Y-11039000D02*
X19314000Y-11059000D01*
X19314000Y-11039000D02*
X19294000Y-11059000D01*
X19294000Y-11166000D02*
X19314000Y-11186000D01*
X19314000Y-11166000D02*
X19294000Y-11186000D01*
X19294000Y-13833000D02*
X19314000Y-13853000D01*
X19314000Y-13833000D02*
X19294000Y-13853000D01*
X19421000Y-13706000D02*
X19441000Y-13726000D01*
X19441000Y-13706000D02*
X19421000Y-13726000D01*
X19548000Y-7991000D02*
X19568000Y-8011000D01*
X19568000Y-7991000D02*
X19548000Y-8011000D01*
X19548000Y-13706000D02*
X19568000Y-13726000D01*
X19568000Y-13706000D02*
X19548000Y-13726000D01*
X19675000Y-7991000D02*
X19695000Y-8011000D01*
X19695000Y-7991000D02*
X19675000Y-8011000D01*
X19675000Y-13706000D02*
X19695000Y-13726000D01*
X19695000Y-13706000D02*
X19675000Y-13726000D01*
X19802000Y-7991000D02*
X19822000Y-8011000D01*
X19822000Y-7991000D02*
X19802000Y-8011000D01*
X19802000Y-8118000D02*
X19822000Y-8138000D01*
X19822000Y-8118000D02*
X19802000Y-8138000D01*
X19802000Y-8245000D02*
X19822000Y-8265000D01*
X19822000Y-8245000D02*
X19802000Y-8265000D01*
X19802000Y-8372000D02*
X19822000Y-8392000D01*
X19822000Y-8372000D02*
X19802000Y-8392000D01*
X19802000Y-8499000D02*
X19822000Y-8519000D01*
X19822000Y-8499000D02*
X19802000Y-8519000D01*
X19802000Y-8626000D02*
X19822000Y-8646000D01*
X19822000Y-8626000D02*
X19802000Y-8646000D01*
X19802000Y-8753000D02*
X19822000Y-8773000D01*
X19822000Y-8753000D02*
X19802000Y-8773000D01*
X19802000Y-8880000D02*
X19822000Y-8900000D01*
X19822000Y-8880000D02*
X19802000Y-8900000D01*
X19802000Y-9007000D02*
X19822000Y-9027000D01*
X19822000Y-9007000D02*
X19802000Y-9027000D01*
X19802000Y-9134000D02*
X19822000Y-9154000D01*
X19822000Y-9134000D02*
X19802000Y-9154000D01*
X19802000Y-9261000D02*
X19822000Y-9281000D01*
X19822000Y-9261000D02*
X19802000Y-9281000D01*
X19802000Y-9388000D02*
X19822000Y-9408000D01*
X19822000Y-9388000D02*
X19802000Y-9408000D01*
X19802000Y-9515000D02*
X19822000Y-9535000D01*
X19822000Y-9515000D02*
X19802000Y-9535000D01*
X19802000Y-9642000D02*
X19822000Y-9662000D01*
X19822000Y-9642000D02*
X19802000Y-9662000D01*
X19802000Y-9769000D02*
X19822000Y-9789000D01*
X19822000Y-9769000D02*
X19802000Y-9789000D01*
X19802000Y-9896000D02*
X19822000Y-9916000D01*
X19822000Y-9896000D02*
X19802000Y-9916000D01*
X19802000Y-10023000D02*
X19822000Y-10043000D01*
X19822000Y-10023000D02*
X19802000Y-10043000D01*
X19802000Y-10150000D02*
X19822000Y-10170000D01*
X19822000Y-10150000D02*
X19802000Y-10170000D01*
X19802000Y-10277000D02*
X19822000Y-10297000D01*
X19822000Y-10277000D02*
X19802000Y-10297000D01*
X19802000Y-10404000D02*
X19822000Y-10424000D01*
X19822000Y-10404000D02*
X19802000Y-10424000D01*
X19802000Y-10531000D02*
X19822000Y-10551000D01*
X19822000Y-10531000D02*
X19802000Y-10551000D01*
X19802000Y-10658000D02*
X19822000Y-10678000D01*
X19822000Y-10658000D02*
X19802000Y-10678000D01*
X19802000Y-10785000D02*
X19822000Y-10805000D01*
X19822000Y-10785000D02*
X19802000Y-10805000D01*
X19802000Y-10912000D02*
X19822000Y-10932000D01*
X19822000Y-10912000D02*
X19802000Y-10932000D01*
X19802000Y-11039000D02*
X19822000Y-11059000D01*
X19822000Y-11039000D02*
X19802000Y-11059000D01*
X19802000Y-11166000D02*
X19822000Y-11186000D01*
X19822000Y-11166000D02*
X19802000Y-11186000D01*
X19802000Y-11293000D02*
X19822000Y-11313000D01*
X19822000Y-11293000D02*
X19802000Y-11313000D01*
X19802000Y-11420000D02*
X19822000Y-11440000D01*
X19822000Y-11420000D02*
X19802000Y-11440000D01*
X19802000Y-11547000D02*
X19822000Y-11567000D01*
X19822000Y-11547000D02*
X19802000Y-11567000D01*
X19802000Y-11674000D02*
X19822000Y-11694000D01*
X19822000Y-11674000D02*
X19802000Y-11694000D01*
X19802000Y-11801000D02*
X19822000Y-11821000D01*
X19822000Y-11801000D02*
X19802000Y-11821000D01*
X19802000Y-11928000D02*
X19822000Y-11948000D01*
X19822000Y-11928000D02*
X19802000Y-11948000D01*
X19802000Y-12055000D02*
X19822000Y-12075000D01*
X19822000Y-12055000D02*
X19802000Y-12075000D01*
X19802000Y-12182000D02*
X19822000Y-12202000D01*
X19822000Y-12182000D02*
X19802000Y-12202000D01*
X19802000Y-12309000D02*
X19822000Y-12329000D01*
X19822000Y-12309000D02*
X19802000Y-12329000D01*
X19802000Y-12436000D02*
X19822000Y-12456000D01*
X19822000Y-12436000D02*
X19802000Y-12456000D01*
X19802000Y-12563000D02*
X19822000Y-12583000D01*
X19822000Y-12563000D02*
X19802000Y-12583000D01*
X19802000Y-12690000D02*
X19822000Y-12710000D01*
X19822000Y-12690000D02*
X19802000Y-12710000D01*
X19802000Y-12817000D02*
X19822000Y-12837000D01*
X19822000Y-12817000D02*
X19802000Y-12837000D01*
X19802000Y-12944000D02*
X19822000Y-12964000D01*
X19822000Y-12944000D02*
X19802000Y-12964000D01*
X19802000Y-13071000D02*
X19822000Y-13091000D01*
X19822000Y-13071000D02*
X19802000Y-13091000D01*
X19802000Y-13198000D02*
X19822000Y-13218000D01*
X19822000Y-13198000D02*
X19802000Y-13218000D01*
X19802000Y-13325000D02*
X19822000Y-13345000D01*
X19822000Y-13325000D02*
X19802000Y-13345000D01*
X19802000Y-13452000D02*
X19822000Y-13472000D01*
X19822000Y-13452000D02*
X19802000Y-13472000D01*
X19802000Y-13579000D02*
X19822000Y-13599000D01*
X19822000Y-13579000D02*
X19802000Y-13599000D01*
X19802000Y-13706000D02*
X19822000Y-13726000D01*
X19822000Y-13706000D02*
X19802000Y-13726000D01*
X14657500Y-10949000D02*
G75*
G03*
X14657500Y-10949000I-10000J0D01*
G01*
X14657500Y-11149000D02*
G75*
G03*
X14657500Y-11149000I-10000J0D01*
G01*
X14857500Y-10949000D02*
G75*
G03*
X14857500Y-10949000I-10000J0D01*
G01*
X14857500Y-11149000D02*
G75*
G03*
X14857500Y-11149000I-10000J0D01*
G01*
D13*
X10947400Y-10800400D02*
X10947400Y-10840400D01*
X10927400Y-10820400D02*
X10967400Y-10820400D01*
X11239500Y-11485983D02*
X11239500Y-11525983D01*
X11219500Y-11505983D02*
X11259500Y-11505983D01*
X11440160Y-11485983D02*
X11440160Y-11525983D01*
X11420160Y-11505983D02*
X11460160Y-11505983D01*
X11468100Y-11181400D02*
X11468100Y-11221400D01*
X11448100Y-11201400D02*
X11488100Y-11201400D01*
X11790680Y-11486200D02*
X11790680Y-11526200D01*
X11770680Y-11506200D02*
X11810680Y-11506200D01*
X11961950Y-12047540D02*
X11961950Y-12087540D01*
X11941950Y-12067540D02*
X11981950Y-12067540D01*
X11963400Y-12197400D02*
X11963400Y-12237400D01*
X11943400Y-12217400D02*
X11983400Y-12217400D01*
X12090407Y-11089470D02*
X12090407Y-11129470D01*
X12070407Y-11109470D02*
X12110407Y-11109470D01*
X12220730Y-11486200D02*
X12220730Y-11526200D01*
X12200730Y-11506200D02*
X12240730Y-11506200D01*
X12236000Y-10573490D02*
X12236000Y-10613490D01*
X12216000Y-10593490D02*
X12256000Y-10593490D01*
X12331700Y-9949500D02*
X12331700Y-9989500D01*
X12311700Y-9969500D02*
X12351700Y-9969500D01*
X12407900Y-10025700D02*
X12407900Y-10065700D01*
X12387900Y-10045700D02*
X12427900Y-10045700D01*
X12409330Y-10178100D02*
X12409330Y-10218100D01*
X12389330Y-10198100D02*
X12429330Y-10198100D01*
X12442820Y-8760380D02*
X12442820Y-8800380D01*
X12422820Y-8780380D02*
X12462820Y-8780380D01*
X12471400Y-11181170D02*
X12471400Y-11221170D01*
X12451400Y-11201170D02*
X12491400Y-11201170D01*
X12592000Y-11454680D02*
X12592000Y-11494680D01*
X12572000Y-11474680D02*
X12612000Y-11474680D01*
X12683909Y-11191552D02*
X12683909Y-11231552D01*
X12663909Y-11211552D02*
X12703909Y-11211552D01*
X12700000Y-13226100D02*
X12700000Y-13266100D01*
X12680000Y-13246100D02*
X12720000Y-13246100D01*
X12743750Y-10632965D02*
X12743750Y-10672965D01*
X12723750Y-10652965D02*
X12763750Y-10652965D01*
X12827000Y-8909140D02*
X12827000Y-8949140D01*
X12807000Y-8929140D02*
X12847000Y-8929140D01*
X12892710Y-9073200D02*
X12892710Y-9113200D01*
X12872710Y-9093200D02*
X12912710Y-9093200D01*
X12954000Y-12832400D02*
X12954000Y-12872400D01*
X12934000Y-12852400D02*
X12974000Y-12852400D01*
X12954480Y-12268590D02*
X12954480Y-12308590D01*
X12934480Y-12288590D02*
X12974480Y-12288590D01*
X13042900Y-8831900D02*
X13042900Y-8871900D01*
X13022900Y-8851900D02*
X13062900Y-8851900D01*
X13050700Y-8327330D02*
X13050700Y-8367330D01*
X13030700Y-8347330D02*
X13070700Y-8347330D01*
X13142000Y-11486200D02*
X13142000Y-11526200D01*
X13122000Y-11506200D02*
X13162000Y-11506200D01*
X13144500Y-12349800D02*
X13144500Y-12389800D01*
X13124500Y-12369800D02*
X13164500Y-12369800D01*
X13162730Y-8322100D02*
X13162730Y-8362100D01*
X13142730Y-8342100D02*
X13182730Y-8342100D01*
X13169900Y-12476800D02*
X13169900Y-12516800D01*
X13149900Y-12496800D02*
X13189900Y-12496800D01*
X13326850Y-9964000D02*
X13326850Y-10004000D01*
X13306850Y-9984000D02*
X13346850Y-9984000D01*
X13335000Y-13296050D02*
X13335000Y-13336050D01*
X13315000Y-13316050D02*
X13355000Y-13316050D01*
X13380000Y-10762300D02*
X13380000Y-10802300D01*
X13360000Y-10782300D02*
X13400000Y-10782300D01*
X13462000Y-13632500D02*
X13462000Y-13672500D01*
X13442000Y-13652500D02*
X13482000Y-13652500D01*
X13868400Y-10355900D02*
X13868400Y-10395900D01*
X13848400Y-10375900D02*
X13888400Y-10375900D01*
X13985970Y-8336600D02*
X13985970Y-8376600D01*
X13965970Y-8356600D02*
X14005970Y-8356600D01*
X14208910Y-8726410D02*
X14208910Y-8766410D01*
X14188910Y-8746410D02*
X14228910Y-8746410D01*
X14224000Y-13307760D02*
X14224000Y-13347760D01*
X14204000Y-13327760D02*
X14244000Y-13327760D01*
X14239970Y-8249130D02*
X14239970Y-8289130D01*
X14219970Y-8269130D02*
X14259970Y-8269130D01*
X14461610Y-13153380D02*
X14461610Y-13193380D01*
X14441610Y-13173380D02*
X14481610Y-13173380D01*
X14537090Y-8394200D02*
X14537090Y-8434200D01*
X14517090Y-8414200D02*
X14557090Y-8414200D01*
X14684780Y-10448500D02*
X14684780Y-10488500D01*
X14664780Y-10468500D02*
X14704780Y-10468500D01*
X14909800Y-12453204D02*
X14909800Y-12493204D01*
X14889800Y-12473204D02*
X14929800Y-12473204D01*
X14983170Y-10438390D02*
X14983170Y-10478390D01*
X14963170Y-10458390D02*
X15003170Y-10458390D01*
X15088830Y-13296860D02*
X15088830Y-13336860D01*
X15068830Y-13316860D02*
X15108830Y-13316860D01*
X15113000Y-8341560D02*
X15113000Y-8381560D01*
X15093000Y-8361560D02*
X15133000Y-8361560D01*
X15275520Y-13310660D02*
X15275520Y-13350660D01*
X15255520Y-13330660D02*
X15295520Y-13330660D01*
X15348010Y-8338340D02*
X15348010Y-8378340D01*
X15328010Y-8358340D02*
X15368010Y-8358340D01*
X15748000Y-12946700D02*
X15748000Y-12986700D01*
X15728000Y-12966700D02*
X15768000Y-12966700D01*
X15798800Y-8946200D02*
X15798800Y-8986200D01*
X15778800Y-8966200D02*
X15818800Y-8966200D01*
X16017600Y-13373750D02*
X16017600Y-13413750D01*
X15997600Y-13393750D02*
X16037600Y-13393750D01*
X16052480Y-9029150D02*
X16052480Y-9069150D01*
X16032480Y-9049150D02*
X16072480Y-9049150D01*
D14*
X10206678Y-7637678D02*
X10206678Y-7602322D01*
X10171322Y-7602322D01*
X10171322Y-7637678D01*
X10206678Y-7637678D01*
X10206678Y-14140078D02*
X10206678Y-14104722D01*
X10171322Y-14104722D01*
X10171322Y-14140078D01*
X10206678Y-14140078D01*
X10272579Y-7478579D02*
X10272579Y-7443223D01*
X10237223Y-7443223D01*
X10237223Y-7478579D01*
X10272579Y-7478579D01*
X10272579Y-7796777D02*
X10272579Y-7761421D01*
X10237223Y-7761421D01*
X10237223Y-7796777D01*
X10272579Y-7796777D01*
X10272579Y-13980979D02*
X10272579Y-13945623D01*
X10237223Y-13945623D01*
X10237223Y-13980979D01*
X10272579Y-13980979D01*
X10272579Y-14299177D02*
X10272579Y-14263821D01*
X10237223Y-14263821D01*
X10237223Y-14299177D01*
X10272579Y-14299177D01*
X10431678Y-7412678D02*
X10431678Y-7377322D01*
X10396322Y-7377322D01*
X10396322Y-7412678D01*
X10431678Y-7412678D01*
X10431678Y-7862678D02*
X10431678Y-7827322D01*
X10396322Y-7827322D01*
X10396322Y-7862678D01*
X10431678Y-7862678D01*
X10431678Y-13915078D02*
X10431678Y-13879722D01*
X10396322Y-13879722D01*
X10396322Y-13915078D01*
X10431678Y-13915078D01*
X10431678Y-14365078D02*
X10431678Y-14329722D01*
X10396322Y-14329722D01*
X10396322Y-14365078D01*
X10431678Y-14365078D01*
X10590777Y-7478579D02*
X10590777Y-7443223D01*
X10555421Y-7443223D01*
X10555421Y-7478579D01*
X10590777Y-7478579D01*
X10590777Y-7796777D02*
X10590777Y-7761421D01*
X10555421Y-7761421D01*
X10555421Y-7796777D01*
X10590777Y-7796777D01*
X10590777Y-13980979D02*
X10590777Y-13945623D01*
X10555421Y-13945623D01*
X10555421Y-13980979D01*
X10590777Y-13980979D01*
X10590777Y-14299177D02*
X10590777Y-14263821D01*
X10555421Y-14263821D01*
X10555421Y-14299177D01*
X10590777Y-14299177D01*
X10656678Y-7637678D02*
X10656678Y-7602322D01*
X10621322Y-7602322D01*
X10621322Y-7637678D01*
X10656678Y-7637678D01*
X10656678Y-14140078D02*
X10656678Y-14104722D01*
X10621322Y-14104722D01*
X10621322Y-14140078D01*
X10656678Y-14140078D01*
X19376078Y-7637678D02*
X19376078Y-7602322D01*
X19340722Y-7602322D01*
X19340722Y-7637678D01*
X19376078Y-7637678D01*
X19376078Y-14140078D02*
X19376078Y-14104722D01*
X19340722Y-14104722D01*
X19340722Y-14140078D01*
X19376078Y-14140078D01*
X19441979Y-7478579D02*
X19441979Y-7443223D01*
X19406623Y-7443223D01*
X19406623Y-7478579D01*
X19441979Y-7478579D01*
X19441979Y-7796777D02*
X19441979Y-7761421D01*
X19406623Y-7761421D01*
X19406623Y-7796777D01*
X19441979Y-7796777D01*
X19441979Y-13980979D02*
X19441979Y-13945623D01*
X19406623Y-13945623D01*
X19406623Y-13980979D01*
X19441979Y-13980979D01*
X19441979Y-14299177D02*
X19441979Y-14263821D01*
X19406623Y-14263821D01*
X19406623Y-14299177D01*
X19441979Y-14299177D01*
X19601078Y-7412678D02*
X19601078Y-7377322D01*
X19565722Y-7377322D01*
X19565722Y-7412678D01*
X19601078Y-7412678D01*
X19601078Y-7862678D02*
X19601078Y-7827322D01*
X19565722Y-7827322D01*
X19565722Y-7862678D01*
X19601078Y-7862678D01*
X19601078Y-13915078D02*
X19601078Y-13879722D01*
X19565722Y-13879722D01*
X19565722Y-13915078D01*
X19601078Y-13915078D01*
X19601078Y-14365078D02*
X19601078Y-14329722D01*
X19565722Y-14329722D01*
X19565722Y-14365078D01*
X19601078Y-14365078D01*
X19760177Y-7478579D02*
X19760177Y-7443223D01*
X19724821Y-7443223D01*
X19724821Y-7478579D01*
X19760177Y-7478579D01*
X19760177Y-7796777D02*
X19760177Y-7761421D01*
X19724821Y-7761421D01*
X19724821Y-7796777D01*
X19760177Y-7796777D01*
X19760177Y-13980979D02*
X19760177Y-13945623D01*
X19724821Y-13945623D01*
X19724821Y-13980979D01*
X19760177Y-13980979D01*
X19760177Y-14299177D02*
X19760177Y-14263821D01*
X19724821Y-14263821D01*
X19724821Y-14299177D01*
X19760177Y-14299177D01*
X19826078Y-7637678D02*
X19826078Y-7602322D01*
X19790722Y-7602322D01*
X19790722Y-7637678D01*
X19826078Y-7637678D01*
X19826078Y-14140078D02*
X19826078Y-14104722D01*
X19790722Y-14104722D01*
X19790722Y-14140078D01*
X19826078Y-14140078D01*
D15*
X12317500Y-14147000D02*
X12367500Y-14097000D01*
X12317500Y-14047000D01*
X12267500Y-14097000D01*
X12317500Y-14147000D01*
X12571500Y-14147000D02*
X12621500Y-14097000D01*
X12571500Y-14047000D01*
X12521500Y-14097000D01*
X12571500Y-14147000D01*
X12825500Y-14147000D02*
X12875500Y-14097000D01*
X12825500Y-14047000D01*
X12775500Y-14097000D01*
X12825500Y-14147000D01*
X14352000Y-14147000D02*
X14402000Y-14097000D01*
X14352000Y-14047000D01*
X14302000Y-14097000D01*
X14352000Y-14147000D01*
X14606000Y-14147000D02*
X14656000Y-14097000D01*
X14606000Y-14047000D01*
X14556000Y-14097000D01*
X14606000Y-14147000D01*
X14860000Y-14147000D02*
X14910000Y-14097000D01*
X14860000Y-14047000D01*
X14810000Y-14097000D01*
X14860000Y-14147000D01*
X15114000Y-14147000D02*
X15164000Y-14097000D01*
X15114000Y-14047000D01*
X15064000Y-14097000D01*
X15114000Y-14147000D01*
X16637000Y-14147000D02*
X16687000Y-14097000D01*
X16637000Y-14047000D01*
X16587000Y-14097000D01*
X16637000Y-14147000D01*
X16891000Y-14147000D02*
X16941000Y-14097000D01*
X16891000Y-14047000D01*
X16841000Y-14097000D01*
X16891000Y-14147000D01*
X17145000Y-14147000D02*
X17195000Y-14097000D01*
X17145000Y-14047000D01*
X17095000Y-14097000D01*
X17145000Y-14147000D01*
D16*
X10264000Y-7470000D02*
X10564000Y-7770000D01*
X10564000Y-7470000D02*
X10264000Y-7770000D01*
X10564000Y-7620000D02*
G75*
G03*
X10564000Y-7620000I-150000J0D01*
G01*
X10264000Y-13972400D02*
X10564000Y-14272400D01*
X10564000Y-13972400D02*
X10264000Y-14272400D01*
X10564000Y-14122400D02*
G75*
G03*
X10564000Y-14122400I-150000J0D01*
G01*
X19433400Y-7470000D02*
X19733400Y-7770000D01*
X19733400Y-7470000D02*
X19433400Y-7770000D01*
X19733400Y-7620000D02*
G75*
G03*
X19733400Y-7620000I-150000J0D01*
G01*
X19433400Y-13972400D02*
X19733400Y-14272400D01*
X19733400Y-13972400D02*
X19433400Y-14272400D01*
X19733400Y-14122400D02*
G75*
G03*
X19733400Y-14122400I-150000J0D01*
G01*
D11*
X10285619Y-14828868D02*
X10285619Y-14628868D01*
X10333238Y-14628868D01*
X10361810Y-14638392D01*
X10380857Y-14657440D01*
X10390381Y-14676487D01*
X10399905Y-14714583D01*
X10399905Y-14743154D01*
X10390381Y-14781249D01*
X10380857Y-14800297D01*
X10361810Y-14819345D01*
X10333238Y-14828868D01*
X10285619Y-14828868D01*
X10485619Y-14828868D02*
X10485619Y-14695535D01*
X10485619Y-14733630D02*
X10495143Y-14714583D01*
X10504667Y-14705059D01*
X10523714Y-14695535D01*
X10542762Y-14695535D01*
X10609429Y-14828868D02*
X10609429Y-14695535D01*
X10609429Y-14628868D02*
X10599905Y-14638392D01*
X10609429Y-14647916D01*
X10618952Y-14638392D01*
X10609429Y-14628868D01*
X10609429Y-14647916D01*
X10733238Y-14828868D02*
X10714190Y-14819345D01*
X10704667Y-14800297D01*
X10704667Y-14628868D01*
X10838000Y-14828868D02*
X10818952Y-14819345D01*
X10809429Y-14800297D01*
X10809429Y-14628868D01*
X11066571Y-14828868D02*
X11066571Y-14628868D01*
X11133238Y-14771726D01*
X11199905Y-14628868D01*
X11199905Y-14828868D01*
X11380857Y-14828868D02*
X11380857Y-14724106D01*
X11371333Y-14705059D01*
X11352286Y-14695535D01*
X11314190Y-14695535D01*
X11295143Y-14705059D01*
X11380857Y-14819345D02*
X11361809Y-14828868D01*
X11314190Y-14828868D01*
X11295143Y-14819345D01*
X11285619Y-14800297D01*
X11285619Y-14781249D01*
X11295143Y-14762202D01*
X11314190Y-14752678D01*
X11361809Y-14752678D01*
X11380857Y-14743154D01*
X11476095Y-14695535D02*
X11476095Y-14895535D01*
X11476095Y-14705059D02*
X11495143Y-14695535D01*
X11533238Y-14695535D01*
X11552286Y-14705059D01*
X11561809Y-14714583D01*
X11571333Y-14733630D01*
X11571333Y-14790773D01*
X11561809Y-14809821D01*
X11552286Y-14819345D01*
X11533238Y-14828868D01*
X11495143Y-14828868D01*
X11476095Y-14819345D01*
X11657048Y-14809821D02*
X11666571Y-14819345D01*
X11657048Y-14828868D01*
X11647524Y-14819345D01*
X11657048Y-14809821D01*
X11657048Y-14828868D01*
X11657048Y-14705059D02*
X11666571Y-14714583D01*
X11657048Y-14724106D01*
X11647524Y-14714583D01*
X11657048Y-14705059D01*
X11657048Y-14724106D01*
D12*
X10008000Y-15148392D02*
X10028000Y-15168392D01*
X10028000Y-15148392D02*
X10008000Y-15168392D01*
D11*
X10323714Y-15048868D02*
X10342762Y-15048868D01*
X10361810Y-15058392D01*
X10371333Y-15067916D01*
X10380857Y-15086964D01*
X10390381Y-15125059D01*
X10390381Y-15172678D01*
X10380857Y-15210773D01*
X10371333Y-15229821D01*
X10361810Y-15239345D01*
X10342762Y-15248868D01*
X10323714Y-15248868D01*
X10304667Y-15239345D01*
X10295143Y-15229821D01*
X10285619Y-15210773D01*
X10276095Y-15172678D01*
X10276095Y-15125059D01*
X10285619Y-15086964D01*
X10295143Y-15067916D01*
X10304667Y-15058392D01*
X10323714Y-15048868D01*
X10476095Y-15229821D02*
X10485619Y-15239345D01*
X10476095Y-15248868D01*
X10466571Y-15239345D01*
X10476095Y-15229821D01*
X10476095Y-15248868D01*
X10561810Y-15067916D02*
X10571333Y-15058392D01*
X10590381Y-15048868D01*
X10638000Y-15048868D01*
X10657048Y-15058392D01*
X10666571Y-15067916D01*
X10676095Y-15086964D01*
X10676095Y-15106011D01*
X10666571Y-15134583D01*
X10552286Y-15248868D01*
X10676095Y-15248868D01*
X10799905Y-15048868D02*
X10818952Y-15048868D01*
X10838000Y-15058392D01*
X10847524Y-15067916D01*
X10857048Y-15086964D01*
X10866571Y-15125059D01*
X10866571Y-15172678D01*
X10857048Y-15210773D01*
X10847524Y-15229821D01*
X10838000Y-15239345D01*
X10818952Y-15248868D01*
X10799905Y-15248868D01*
X10780857Y-15239345D01*
X10771333Y-15229821D01*
X10761810Y-15210773D01*
X10752286Y-15172678D01*
X10752286Y-15125059D01*
X10761810Y-15086964D01*
X10771333Y-15067916D01*
X10780857Y-15058392D01*
X10799905Y-15048868D01*
X10990381Y-15048868D02*
X11009429Y-15048868D01*
X11028476Y-15058392D01*
X11038000Y-15067916D01*
X11047524Y-15086964D01*
X11057048Y-15125059D01*
X11057048Y-15172678D01*
X11047524Y-15210773D01*
X11038000Y-15229821D01*
X11028476Y-15239345D01*
X11009429Y-15248868D01*
X10990381Y-15248868D01*
X10971333Y-15239345D01*
X10961810Y-15229821D01*
X10952286Y-15210773D01*
X10942762Y-15172678D01*
X10942762Y-15125059D01*
X10952286Y-15086964D01*
X10961810Y-15067916D01*
X10971333Y-15058392D01*
X10990381Y-15048868D01*
X11142762Y-15248868D02*
X11142762Y-15115535D01*
X11142762Y-15134583D02*
X11152286Y-15125059D01*
X11171333Y-15115535D01*
X11199905Y-15115535D01*
X11218952Y-15125059D01*
X11228476Y-15144106D01*
X11228476Y-15248868D01*
X11228476Y-15144106D02*
X11238000Y-15125059D01*
X11257048Y-15115535D01*
X11285619Y-15115535D01*
X11304667Y-15125059D01*
X11314190Y-15144106D01*
X11314190Y-15248868D01*
X11409428Y-15248868D02*
X11409428Y-15115535D01*
X11409428Y-15134583D02*
X11418952Y-15125059D01*
X11438000Y-15115535D01*
X11466571Y-15115535D01*
X11485619Y-15125059D01*
X11495143Y-15144106D01*
X11495143Y-15248868D01*
X11495143Y-15144106D02*
X11504667Y-15125059D01*
X11523714Y-15115535D01*
X11552286Y-15115535D01*
X11571333Y-15125059D01*
X11580857Y-15144106D01*
X11580857Y-15248868D01*
X11971333Y-15039345D02*
X11799905Y-15296487D01*
X12228476Y-15048868D02*
X12247524Y-15048868D01*
X12266571Y-15058392D01*
X12276095Y-15067916D01*
X12285619Y-15086964D01*
X12295143Y-15125059D01*
X12295143Y-15172678D01*
X12285619Y-15210773D01*
X12276095Y-15229821D01*
X12266571Y-15239345D01*
X12247524Y-15248868D01*
X12228476Y-15248868D01*
X12209428Y-15239345D01*
X12199905Y-15229821D01*
X12190381Y-15210773D01*
X12180857Y-15172678D01*
X12180857Y-15125059D01*
X12190381Y-15086964D01*
X12199905Y-15067916D01*
X12209428Y-15058392D01*
X12228476Y-15048868D01*
X12380857Y-15229821D02*
X12390381Y-15239345D01*
X12380857Y-15248868D01*
X12371333Y-15239345D01*
X12380857Y-15229821D01*
X12380857Y-15248868D01*
X12514190Y-15048868D02*
X12533238Y-15048868D01*
X12552286Y-15058392D01*
X12561809Y-15067916D01*
X12571333Y-15086964D01*
X12580857Y-15125059D01*
X12580857Y-15172678D01*
X12571333Y-15210773D01*
X12561809Y-15229821D01*
X12552286Y-15239345D01*
X12533238Y-15248868D01*
X12514190Y-15248868D01*
X12495143Y-15239345D01*
X12485619Y-15229821D01*
X12476095Y-15210773D01*
X12466571Y-15172678D01*
X12466571Y-15125059D01*
X12476095Y-15086964D01*
X12485619Y-15067916D01*
X12495143Y-15058392D01*
X12514190Y-15048868D01*
X12704667Y-15048868D02*
X12723714Y-15048868D01*
X12742762Y-15058392D01*
X12752286Y-15067916D01*
X12761809Y-15086964D01*
X12771333Y-15125059D01*
X12771333Y-15172678D01*
X12761809Y-15210773D01*
X12752286Y-15229821D01*
X12742762Y-15239345D01*
X12723714Y-15248868D01*
X12704667Y-15248868D01*
X12685619Y-15239345D01*
X12676095Y-15229821D01*
X12666571Y-15210773D01*
X12657048Y-15172678D01*
X12657048Y-15125059D01*
X12666571Y-15086964D01*
X12676095Y-15067916D01*
X12685619Y-15058392D01*
X12704667Y-15048868D01*
X12838000Y-15048868D02*
X12971333Y-15048868D01*
X12885619Y-15248868D01*
X13057048Y-15248868D02*
X13095143Y-15248868D01*
X13114190Y-15239345D01*
X13123714Y-15229821D01*
X13142762Y-15201249D01*
X13152286Y-15163154D01*
X13152286Y-15086964D01*
X13142762Y-15067916D01*
X13133238Y-15058392D01*
X13114190Y-15048868D01*
X13076095Y-15048868D01*
X13057048Y-15058392D01*
X13047524Y-15067916D01*
X13038000Y-15086964D01*
X13038000Y-15134583D01*
X13047524Y-15153630D01*
X13057048Y-15163154D01*
X13076095Y-15172678D01*
X13114190Y-15172678D01*
X13133238Y-15163154D01*
X13142762Y-15153630D01*
X13152286Y-15134583D01*
X13228476Y-15048868D02*
X13228476Y-15086964D01*
X13304667Y-15048868D02*
X13304667Y-15086964D01*
X13599905Y-15325059D02*
X13590381Y-15315535D01*
X13571333Y-15286964D01*
X13561809Y-15267916D01*
X13552286Y-15239345D01*
X13542762Y-15191726D01*
X13542762Y-15153630D01*
X13552286Y-15106011D01*
X13561809Y-15077440D01*
X13571333Y-15058392D01*
X13590381Y-15029821D01*
X13599905Y-15020297D01*
X13685619Y-15248868D02*
X13723714Y-15248868D01*
X13742762Y-15239345D01*
X13752286Y-15229821D01*
X13771333Y-15201249D01*
X13780857Y-15163154D01*
X13780857Y-15086964D01*
X13771333Y-15067916D01*
X13761809Y-15058392D01*
X13742762Y-15048868D01*
X13704667Y-15048868D01*
X13685619Y-15058392D01*
X13676095Y-15067916D01*
X13666571Y-15086964D01*
X13666571Y-15134583D01*
X13676095Y-15153630D01*
X13685619Y-15163154D01*
X13704667Y-15172678D01*
X13742762Y-15172678D01*
X13761809Y-15163154D01*
X13771333Y-15153630D01*
X13780857Y-15134583D01*
X13952286Y-15048868D02*
X13914190Y-15048868D01*
X13895143Y-15058392D01*
X13885619Y-15067916D01*
X13866571Y-15096487D01*
X13857048Y-15134583D01*
X13857048Y-15210773D01*
X13866571Y-15229821D01*
X13876095Y-15239345D01*
X13895143Y-15248868D01*
X13933238Y-15248868D01*
X13952286Y-15239345D01*
X13961809Y-15229821D01*
X13971333Y-15210773D01*
X13971333Y-15163154D01*
X13961809Y-15144106D01*
X13952286Y-15134583D01*
X13933238Y-15125059D01*
X13895143Y-15125059D01*
X13876095Y-15134583D01*
X13866571Y-15144106D01*
X13857048Y-15163154D01*
X14038000Y-15048868D02*
X14161809Y-15048868D01*
X14095143Y-15125059D01*
X14123714Y-15125059D01*
X14142762Y-15134583D01*
X14152286Y-15144106D01*
X14161809Y-15163154D01*
X14161809Y-15210773D01*
X14152286Y-15229821D01*
X14142762Y-15239345D01*
X14123714Y-15248868D01*
X14066571Y-15248868D01*
X14047524Y-15239345D01*
X14038000Y-15229821D01*
X14399905Y-15248868D02*
X14399905Y-15048868D01*
X14485619Y-15248868D02*
X14485619Y-15144106D01*
X14476095Y-15125059D01*
X14457048Y-15115535D01*
X14428476Y-15115535D01*
X14409428Y-15125059D01*
X14399905Y-15134583D01*
X14609428Y-15248868D02*
X14590381Y-15239345D01*
X14580857Y-15229821D01*
X14571333Y-15210773D01*
X14571333Y-15153630D01*
X14580857Y-15134583D01*
X14590381Y-15125059D01*
X14609428Y-15115535D01*
X14638000Y-15115535D01*
X14657048Y-15125059D01*
X14666571Y-15134583D01*
X14676095Y-15153630D01*
X14676095Y-15210773D01*
X14666571Y-15229821D01*
X14657048Y-15239345D01*
X14638000Y-15248868D01*
X14609428Y-15248868D01*
X14790381Y-15248868D02*
X14771333Y-15239345D01*
X14761809Y-15220297D01*
X14761809Y-15048868D01*
X14942762Y-15239345D02*
X14923714Y-15248868D01*
X14885619Y-15248868D01*
X14866571Y-15239345D01*
X14857048Y-15220297D01*
X14857048Y-15144106D01*
X14866571Y-15125059D01*
X14885619Y-15115535D01*
X14923714Y-15115535D01*
X14942762Y-15125059D01*
X14952286Y-15144106D01*
X14952286Y-15163154D01*
X14857048Y-15182202D01*
X15028476Y-15239345D02*
X15047524Y-15248868D01*
X15085619Y-15248868D01*
X15104667Y-15239345D01*
X15114190Y-15220297D01*
X15114190Y-15210773D01*
X15104667Y-15191726D01*
X15085619Y-15182202D01*
X15057048Y-15182202D01*
X15038000Y-15172678D01*
X15028476Y-15153630D01*
X15028476Y-15144106D01*
X15038000Y-15125059D01*
X15057048Y-15115535D01*
X15085619Y-15115535D01*
X15104667Y-15125059D01*
X15180857Y-15325059D02*
X15190381Y-15315535D01*
X15209428Y-15286964D01*
X15218952Y-15267916D01*
X15228476Y-15239345D01*
X15238000Y-15191726D01*
X15238000Y-15153630D01*
X15228476Y-15106011D01*
X15218952Y-15077440D01*
X15209428Y-15058392D01*
X15190381Y-15029821D01*
X15180857Y-15020297D01*
D12*
X10028000Y-15422392D02*
G75*
G03*
X10028000Y-15422392I-10000J0D01*
G01*
D11*
X10323714Y-15312868D02*
X10342762Y-15312868D01*
X10361810Y-15322392D01*
X10371333Y-15331916D01*
X10380857Y-15350964D01*
X10390381Y-15389059D01*
X10390381Y-15436678D01*
X10380857Y-15474773D01*
X10371333Y-15493821D01*
X10361810Y-15503345D01*
X10342762Y-15512868D01*
X10323714Y-15512868D01*
X10304667Y-15503345D01*
X10295143Y-15493821D01*
X10285619Y-15474773D01*
X10276095Y-15436678D01*
X10276095Y-15389059D01*
X10285619Y-15350964D01*
X10295143Y-15331916D01*
X10304667Y-15322392D01*
X10323714Y-15312868D01*
X10476095Y-15493821D02*
X10485619Y-15503345D01*
X10476095Y-15512868D01*
X10466571Y-15503345D01*
X10476095Y-15493821D01*
X10476095Y-15512868D01*
X10561810Y-15331916D02*
X10571333Y-15322392D01*
X10590381Y-15312868D01*
X10638000Y-15312868D01*
X10657048Y-15322392D01*
X10666571Y-15331916D01*
X10676095Y-15350964D01*
X10676095Y-15370011D01*
X10666571Y-15398583D01*
X10552286Y-15512868D01*
X10676095Y-15512868D01*
X10799905Y-15312868D02*
X10818952Y-15312868D01*
X10838000Y-15322392D01*
X10847524Y-15331916D01*
X10857048Y-15350964D01*
X10866571Y-15389059D01*
X10866571Y-15436678D01*
X10857048Y-15474773D01*
X10847524Y-15493821D01*
X10838000Y-15503345D01*
X10818952Y-15512868D01*
X10799905Y-15512868D01*
X10780857Y-15503345D01*
X10771333Y-15493821D01*
X10761810Y-15474773D01*
X10752286Y-15436678D01*
X10752286Y-15389059D01*
X10761810Y-15350964D01*
X10771333Y-15331916D01*
X10780857Y-15322392D01*
X10799905Y-15312868D01*
X10990381Y-15312868D02*
X11009429Y-15312868D01*
X11028476Y-15322392D01*
X11038000Y-15331916D01*
X11047524Y-15350964D01*
X11057048Y-15389059D01*
X11057048Y-15436678D01*
X11047524Y-15474773D01*
X11038000Y-15493821D01*
X11028476Y-15503345D01*
X11009429Y-15512868D01*
X10990381Y-15512868D01*
X10971333Y-15503345D01*
X10961810Y-15493821D01*
X10952286Y-15474773D01*
X10942762Y-15436678D01*
X10942762Y-15389059D01*
X10952286Y-15350964D01*
X10961810Y-15331916D01*
X10971333Y-15322392D01*
X10990381Y-15312868D01*
X11142762Y-15512868D02*
X11142762Y-15379535D01*
X11142762Y-15398583D02*
X11152286Y-15389059D01*
X11171333Y-15379535D01*
X11199905Y-15379535D01*
X11218952Y-15389059D01*
X11228476Y-15408106D01*
X11228476Y-15512868D01*
X11228476Y-15408106D02*
X11238000Y-15389059D01*
X11257048Y-15379535D01*
X11285619Y-15379535D01*
X11304667Y-15389059D01*
X11314190Y-15408106D01*
X11314190Y-15512868D01*
X11409428Y-15512868D02*
X11409428Y-15379535D01*
X11409428Y-15398583D02*
X11418952Y-15389059D01*
X11438000Y-15379535D01*
X11466571Y-15379535D01*
X11485619Y-15389059D01*
X11495143Y-15408106D01*
X11495143Y-15512868D01*
X11495143Y-15408106D02*
X11504667Y-15389059D01*
X11523714Y-15379535D01*
X11552286Y-15379535D01*
X11571333Y-15389059D01*
X11580857Y-15408106D01*
X11580857Y-15512868D01*
X11971333Y-15303345D02*
X11799905Y-15560487D01*
X12228476Y-15312868D02*
X12247524Y-15312868D01*
X12266571Y-15322392D01*
X12276095Y-15331916D01*
X12285619Y-15350964D01*
X12295143Y-15389059D01*
X12295143Y-15436678D01*
X12285619Y-15474773D01*
X12276095Y-15493821D01*
X12266571Y-15503345D01*
X12247524Y-15512868D01*
X12228476Y-15512868D01*
X12209428Y-15503345D01*
X12199905Y-15493821D01*
X12190381Y-15474773D01*
X12180857Y-15436678D01*
X12180857Y-15389059D01*
X12190381Y-15350964D01*
X12199905Y-15331916D01*
X12209428Y-15322392D01*
X12228476Y-15312868D01*
X12380857Y-15493821D02*
X12390381Y-15503345D01*
X12380857Y-15512868D01*
X12371333Y-15503345D01*
X12380857Y-15493821D01*
X12380857Y-15512868D01*
X12514190Y-15312868D02*
X12533238Y-15312868D01*
X12552286Y-15322392D01*
X12561809Y-15331916D01*
X12571333Y-15350964D01*
X12580857Y-15389059D01*
X12580857Y-15436678D01*
X12571333Y-15474773D01*
X12561809Y-15493821D01*
X12552286Y-15503345D01*
X12533238Y-15512868D01*
X12514190Y-15512868D01*
X12495143Y-15503345D01*
X12485619Y-15493821D01*
X12476095Y-15474773D01*
X12466571Y-15436678D01*
X12466571Y-15389059D01*
X12476095Y-15350964D01*
X12485619Y-15331916D01*
X12495143Y-15322392D01*
X12514190Y-15312868D01*
X12704667Y-15312868D02*
X12723714Y-15312868D01*
X12742762Y-15322392D01*
X12752286Y-15331916D01*
X12761809Y-15350964D01*
X12771333Y-15389059D01*
X12771333Y-15436678D01*
X12761809Y-15474773D01*
X12752286Y-15493821D01*
X12742762Y-15503345D01*
X12723714Y-15512868D01*
X12704667Y-15512868D01*
X12685619Y-15503345D01*
X12676095Y-15493821D01*
X12666571Y-15474773D01*
X12657048Y-15436678D01*
X12657048Y-15389059D01*
X12666571Y-15350964D01*
X12676095Y-15331916D01*
X12685619Y-15322392D01*
X12704667Y-15312868D01*
X12838000Y-15312868D02*
X12971333Y-15312868D01*
X12885619Y-15512868D01*
X13057048Y-15512868D02*
X13095143Y-15512868D01*
X13114190Y-15503345D01*
X13123714Y-15493821D01*
X13142762Y-15465249D01*
X13152286Y-15427154D01*
X13152286Y-15350964D01*
X13142762Y-15331916D01*
X13133238Y-15322392D01*
X13114190Y-15312868D01*
X13076095Y-15312868D01*
X13057048Y-15322392D01*
X13047524Y-15331916D01*
X13038000Y-15350964D01*
X13038000Y-15398583D01*
X13047524Y-15417630D01*
X13057048Y-15427154D01*
X13076095Y-15436678D01*
X13114190Y-15436678D01*
X13133238Y-15427154D01*
X13142762Y-15417630D01*
X13152286Y-15398583D01*
X13228476Y-15312868D02*
X13228476Y-15350964D01*
X13304667Y-15312868D02*
X13304667Y-15350964D01*
X13599905Y-15589059D02*
X13590381Y-15579535D01*
X13571333Y-15550964D01*
X13561809Y-15531916D01*
X13552286Y-15503345D01*
X13542762Y-15455726D01*
X13542762Y-15417630D01*
X13552286Y-15370011D01*
X13561809Y-15341440D01*
X13571333Y-15322392D01*
X13590381Y-15293821D01*
X13599905Y-15284297D01*
X13761809Y-15379535D02*
X13761809Y-15512868D01*
X13714190Y-15303345D02*
X13666571Y-15446202D01*
X13790381Y-15446202D01*
X14018952Y-15512868D02*
X14018952Y-15312868D01*
X14104667Y-15512868D02*
X14104667Y-15408106D01*
X14095143Y-15389059D01*
X14076095Y-15379535D01*
X14047524Y-15379535D01*
X14028476Y-15389059D01*
X14018952Y-15398583D01*
X14228476Y-15512868D02*
X14209428Y-15503345D01*
X14199905Y-15493821D01*
X14190381Y-15474773D01*
X14190381Y-15417630D01*
X14199905Y-15398583D01*
X14209428Y-15389059D01*
X14228476Y-15379535D01*
X14257048Y-15379535D01*
X14276095Y-15389059D01*
X14285619Y-15398583D01*
X14295143Y-15417630D01*
X14295143Y-15474773D01*
X14285619Y-15493821D01*
X14276095Y-15503345D01*
X14257048Y-15512868D01*
X14228476Y-15512868D01*
X14409428Y-15512868D02*
X14390381Y-15503345D01*
X14380857Y-15484297D01*
X14380857Y-15312868D01*
X14561809Y-15503345D02*
X14542762Y-15512868D01*
X14504667Y-15512868D01*
X14485619Y-15503345D01*
X14476095Y-15484297D01*
X14476095Y-15408106D01*
X14485619Y-15389059D01*
X14504667Y-15379535D01*
X14542762Y-15379535D01*
X14561809Y-15389059D01*
X14571333Y-15408106D01*
X14571333Y-15427154D01*
X14476095Y-15446202D01*
X14647524Y-15503345D02*
X14666571Y-15512868D01*
X14704667Y-15512868D01*
X14723714Y-15503345D01*
X14733238Y-15484297D01*
X14733238Y-15474773D01*
X14723714Y-15455726D01*
X14704667Y-15446202D01*
X14676095Y-15446202D01*
X14657048Y-15436678D01*
X14647524Y-15417630D01*
X14647524Y-15408106D01*
X14657048Y-15389059D01*
X14676095Y-15379535D01*
X14704667Y-15379535D01*
X14723714Y-15389059D01*
X14799905Y-15589059D02*
X14809428Y-15579535D01*
X14828476Y-15550964D01*
X14838000Y-15531916D01*
X14847524Y-15503345D01*
X14857048Y-15455726D01*
X14857048Y-15417630D01*
X14847524Y-15370011D01*
X14838000Y-15341440D01*
X14828476Y-15322392D01*
X14809428Y-15293821D01*
X14799905Y-15284297D01*
D13*
X10008000Y-15666392D02*
X10008000Y-15706392D01*
X9988000Y-15686392D02*
X10028000Y-15686392D01*
D11*
X10323714Y-15576868D02*
X10342762Y-15576868D01*
X10361810Y-15586392D01*
X10371333Y-15595916D01*
X10380857Y-15614964D01*
X10390381Y-15653059D01*
X10390381Y-15700678D01*
X10380857Y-15738773D01*
X10371333Y-15757821D01*
X10361810Y-15767345D01*
X10342762Y-15776868D01*
X10323714Y-15776868D01*
X10304667Y-15767345D01*
X10295143Y-15757821D01*
X10285619Y-15738773D01*
X10276095Y-15700678D01*
X10276095Y-15653059D01*
X10285619Y-15614964D01*
X10295143Y-15595916D01*
X10304667Y-15586392D01*
X10323714Y-15576868D01*
X10476095Y-15757821D02*
X10485619Y-15767345D01*
X10476095Y-15776868D01*
X10466571Y-15767345D01*
X10476095Y-15757821D01*
X10476095Y-15776868D01*
X10657048Y-15643535D02*
X10657048Y-15776868D01*
X10609429Y-15567345D02*
X10561810Y-15710202D01*
X10685619Y-15710202D01*
X10799905Y-15576868D02*
X10818952Y-15576868D01*
X10838000Y-15586392D01*
X10847524Y-15595916D01*
X10857048Y-15614964D01*
X10866571Y-15653059D01*
X10866571Y-15700678D01*
X10857048Y-15738773D01*
X10847524Y-15757821D01*
X10838000Y-15767345D01*
X10818952Y-15776868D01*
X10799905Y-15776868D01*
X10780857Y-15767345D01*
X10771333Y-15757821D01*
X10761810Y-15738773D01*
X10752286Y-15700678D01*
X10752286Y-15653059D01*
X10761810Y-15614964D01*
X10771333Y-15595916D01*
X10780857Y-15586392D01*
X10799905Y-15576868D01*
X10990381Y-15576868D02*
X11009429Y-15576868D01*
X11028476Y-15586392D01*
X11038000Y-15595916D01*
X11047524Y-15614964D01*
X11057048Y-15653059D01*
X11057048Y-15700678D01*
X11047524Y-15738773D01*
X11038000Y-15757821D01*
X11028476Y-15767345D01*
X11009429Y-15776868D01*
X10990381Y-15776868D01*
X10971333Y-15767345D01*
X10961810Y-15757821D01*
X10952286Y-15738773D01*
X10942762Y-15700678D01*
X10942762Y-15653059D01*
X10952286Y-15614964D01*
X10961810Y-15595916D01*
X10971333Y-15586392D01*
X10990381Y-15576868D01*
X11142762Y-15776868D02*
X11142762Y-15643535D01*
X11142762Y-15662583D02*
X11152286Y-15653059D01*
X11171333Y-15643535D01*
X11199905Y-15643535D01*
X11218952Y-15653059D01*
X11228476Y-15672106D01*
X11228476Y-15776868D01*
X11228476Y-15672106D02*
X11238000Y-15653059D01*
X11257048Y-15643535D01*
X11285619Y-15643535D01*
X11304667Y-15653059D01*
X11314190Y-15672106D01*
X11314190Y-15776868D01*
X11409428Y-15776868D02*
X11409428Y-15643535D01*
X11409428Y-15662583D02*
X11418952Y-15653059D01*
X11438000Y-15643535D01*
X11466571Y-15643535D01*
X11485619Y-15653059D01*
X11495143Y-15672106D01*
X11495143Y-15776868D01*
X11495143Y-15672106D02*
X11504667Y-15653059D01*
X11523714Y-15643535D01*
X11552286Y-15643535D01*
X11571333Y-15653059D01*
X11580857Y-15672106D01*
X11580857Y-15776868D01*
X11971333Y-15567345D02*
X11799905Y-15824487D01*
X12228476Y-15576868D02*
X12247524Y-15576868D01*
X12266571Y-15586392D01*
X12276095Y-15595916D01*
X12285619Y-15614964D01*
X12295143Y-15653059D01*
X12295143Y-15700678D01*
X12285619Y-15738773D01*
X12276095Y-15757821D01*
X12266571Y-15767345D01*
X12247524Y-15776868D01*
X12228476Y-15776868D01*
X12209428Y-15767345D01*
X12199905Y-15757821D01*
X12190381Y-15738773D01*
X12180857Y-15700678D01*
X12180857Y-15653059D01*
X12190381Y-15614964D01*
X12199905Y-15595916D01*
X12209428Y-15586392D01*
X12228476Y-15576868D01*
X12380857Y-15757821D02*
X12390381Y-15767345D01*
X12380857Y-15776868D01*
X12371333Y-15767345D01*
X12380857Y-15757821D01*
X12380857Y-15776868D01*
X12514190Y-15576868D02*
X12533238Y-15576868D01*
X12552286Y-15586392D01*
X12561809Y-15595916D01*
X12571333Y-15614964D01*
X12580857Y-15653059D01*
X12580857Y-15700678D01*
X12571333Y-15738773D01*
X12561809Y-15757821D01*
X12552286Y-15767345D01*
X12533238Y-15776868D01*
X12514190Y-15776868D01*
X12495143Y-15767345D01*
X12485619Y-15757821D01*
X12476095Y-15738773D01*
X12466571Y-15700678D01*
X12466571Y-15653059D01*
X12476095Y-15614964D01*
X12485619Y-15595916D01*
X12495143Y-15586392D01*
X12514190Y-15576868D01*
X12771333Y-15776868D02*
X12657048Y-15776868D01*
X12714190Y-15776868D02*
X12714190Y-15576868D01*
X12695143Y-15605440D01*
X12676095Y-15624487D01*
X12657048Y-15634011D01*
X12952286Y-15576868D02*
X12857048Y-15576868D01*
X12847524Y-15672106D01*
X12857048Y-15662583D01*
X12876095Y-15653059D01*
X12923714Y-15653059D01*
X12942762Y-15662583D01*
X12952286Y-15672106D01*
X12961809Y-15691154D01*
X12961809Y-15738773D01*
X12952286Y-15757821D01*
X12942762Y-15767345D01*
X12923714Y-15776868D01*
X12876095Y-15776868D01*
X12857048Y-15767345D01*
X12847524Y-15757821D01*
X13028476Y-15576868D02*
X13161809Y-15576868D01*
X13076095Y-15776868D01*
X13228476Y-15576868D02*
X13228476Y-15614964D01*
X13304667Y-15576868D02*
X13304667Y-15614964D01*
X13599905Y-15853059D02*
X13590381Y-15843535D01*
X13571333Y-15814964D01*
X13561809Y-15795916D01*
X13552286Y-15767345D01*
X13542762Y-15719726D01*
X13542762Y-15681630D01*
X13552286Y-15634011D01*
X13561809Y-15605440D01*
X13571333Y-15586392D01*
X13590381Y-15557821D01*
X13599905Y-15548297D01*
X13771333Y-15576868D02*
X13676095Y-15576868D01*
X13666571Y-15672106D01*
X13676095Y-15662583D01*
X13695143Y-15653059D01*
X13742762Y-15653059D01*
X13761809Y-15662583D01*
X13771333Y-15672106D01*
X13780857Y-15691154D01*
X13780857Y-15738773D01*
X13771333Y-15757821D01*
X13761809Y-15767345D01*
X13742762Y-15776868D01*
X13695143Y-15776868D01*
X13676095Y-15767345D01*
X13666571Y-15757821D01*
X13971333Y-15776868D02*
X13857048Y-15776868D01*
X13914190Y-15776868D02*
X13914190Y-15576868D01*
X13895143Y-15605440D01*
X13876095Y-15624487D01*
X13857048Y-15634011D01*
X14209428Y-15776868D02*
X14209428Y-15576868D01*
X14295143Y-15776868D02*
X14295143Y-15672106D01*
X14285619Y-15653059D01*
X14266571Y-15643535D01*
X14238000Y-15643535D01*
X14218952Y-15653059D01*
X14209428Y-15662583D01*
X14418952Y-15776868D02*
X14399905Y-15767345D01*
X14390381Y-15757821D01*
X14380857Y-15738773D01*
X14380857Y-15681630D01*
X14390381Y-15662583D01*
X14399905Y-15653059D01*
X14418952Y-15643535D01*
X14447524Y-15643535D01*
X14466571Y-15653059D01*
X14476095Y-15662583D01*
X14485619Y-15681630D01*
X14485619Y-15738773D01*
X14476095Y-15757821D01*
X14466571Y-15767345D01*
X14447524Y-15776868D01*
X14418952Y-15776868D01*
X14599905Y-15776868D02*
X14580857Y-15767345D01*
X14571333Y-15748297D01*
X14571333Y-15576868D01*
X14752286Y-15767345D02*
X14733238Y-15776868D01*
X14695143Y-15776868D01*
X14676095Y-15767345D01*
X14666571Y-15748297D01*
X14666571Y-15672106D01*
X14676095Y-15653059D01*
X14695143Y-15643535D01*
X14733238Y-15643535D01*
X14752286Y-15653059D01*
X14761809Y-15672106D01*
X14761809Y-15691154D01*
X14666571Y-15710202D01*
X14838000Y-15767345D02*
X14857048Y-15776868D01*
X14895143Y-15776868D01*
X14914190Y-15767345D01*
X14923714Y-15748297D01*
X14923714Y-15738773D01*
X14914190Y-15719726D01*
X14895143Y-15710202D01*
X14866571Y-15710202D01*
X14847524Y-15700678D01*
X14838000Y-15681630D01*
X14838000Y-15672106D01*
X14847524Y-15653059D01*
X14866571Y-15643535D01*
X14895143Y-15643535D01*
X14914190Y-15653059D01*
X14990381Y-15853059D02*
X14999905Y-15843535D01*
X15018952Y-15814964D01*
X15028476Y-15795916D01*
X15038000Y-15767345D01*
X15047524Y-15719726D01*
X15047524Y-15681630D01*
X15038000Y-15634011D01*
X15028476Y-15605440D01*
X15018952Y-15586392D01*
X14999905Y-15557821D01*
X14990381Y-15548297D01*
D14*
X10020678Y-15968070D02*
X10020678Y-15932714D01*
X9985322Y-15932714D01*
X9985322Y-15968070D01*
X10020678Y-15968070D01*
D11*
X10323714Y-15840868D02*
X10342762Y-15840868D01*
X10361810Y-15850392D01*
X10371333Y-15859916D01*
X10380857Y-15878964D01*
X10390381Y-15917059D01*
X10390381Y-15964678D01*
X10380857Y-16002773D01*
X10371333Y-16021821D01*
X10361810Y-16031345D01*
X10342762Y-16040868D01*
X10323714Y-16040868D01*
X10304667Y-16031345D01*
X10295143Y-16021821D01*
X10285619Y-16002773D01*
X10276095Y-15964678D01*
X10276095Y-15917059D01*
X10285619Y-15878964D01*
X10295143Y-15859916D01*
X10304667Y-15850392D01*
X10323714Y-15840868D01*
X10476095Y-16021821D02*
X10485619Y-16031345D01*
X10476095Y-16040868D01*
X10466571Y-16031345D01*
X10476095Y-16021821D01*
X10476095Y-16040868D01*
X10666571Y-15840868D02*
X10571333Y-15840868D01*
X10561810Y-15936106D01*
X10571333Y-15926583D01*
X10590381Y-15917059D01*
X10638000Y-15917059D01*
X10657048Y-15926583D01*
X10666571Y-15936106D01*
X10676095Y-15955154D01*
X10676095Y-16002773D01*
X10666571Y-16021821D01*
X10657048Y-16031345D01*
X10638000Y-16040868D01*
X10590381Y-16040868D01*
X10571333Y-16031345D01*
X10561810Y-16021821D01*
X10799905Y-15840868D02*
X10818952Y-15840868D01*
X10838000Y-15850392D01*
X10847524Y-15859916D01*
X10857048Y-15878964D01*
X10866571Y-15917059D01*
X10866571Y-15964678D01*
X10857048Y-16002773D01*
X10847524Y-16021821D01*
X10838000Y-16031345D01*
X10818952Y-16040868D01*
X10799905Y-16040868D01*
X10780857Y-16031345D01*
X10771333Y-16021821D01*
X10761810Y-16002773D01*
X10752286Y-15964678D01*
X10752286Y-15917059D01*
X10761810Y-15878964D01*
X10771333Y-15859916D01*
X10780857Y-15850392D01*
X10799905Y-15840868D01*
X10990381Y-15840868D02*
X11009429Y-15840868D01*
X11028476Y-15850392D01*
X11038000Y-15859916D01*
X11047524Y-15878964D01*
X11057048Y-15917059D01*
X11057048Y-15964678D01*
X11047524Y-16002773D01*
X11038000Y-16021821D01*
X11028476Y-16031345D01*
X11009429Y-16040868D01*
X10990381Y-16040868D01*
X10971333Y-16031345D01*
X10961810Y-16021821D01*
X10952286Y-16002773D01*
X10942762Y-15964678D01*
X10942762Y-15917059D01*
X10952286Y-15878964D01*
X10961810Y-15859916D01*
X10971333Y-15850392D01*
X10990381Y-15840868D01*
X11142762Y-16040868D02*
X11142762Y-15907535D01*
X11142762Y-15926583D02*
X11152286Y-15917059D01*
X11171333Y-15907535D01*
X11199905Y-15907535D01*
X11218952Y-15917059D01*
X11228476Y-15936106D01*
X11228476Y-16040868D01*
X11228476Y-15936106D02*
X11238000Y-15917059D01*
X11257048Y-15907535D01*
X11285619Y-15907535D01*
X11304667Y-15917059D01*
X11314190Y-15936106D01*
X11314190Y-16040868D01*
X11409428Y-16040868D02*
X11409428Y-15907535D01*
X11409428Y-15926583D02*
X11418952Y-15917059D01*
X11438000Y-15907535D01*
X11466571Y-15907535D01*
X11485619Y-15917059D01*
X11495143Y-15936106D01*
X11495143Y-16040868D01*
X11495143Y-15936106D02*
X11504667Y-15917059D01*
X11523714Y-15907535D01*
X11552286Y-15907535D01*
X11571333Y-15917059D01*
X11580857Y-15936106D01*
X11580857Y-16040868D01*
X11971333Y-15831345D02*
X11799905Y-16088487D01*
X12228476Y-15840868D02*
X12247524Y-15840868D01*
X12266571Y-15850392D01*
X12276095Y-15859916D01*
X12285619Y-15878964D01*
X12295143Y-15917059D01*
X12295143Y-15964678D01*
X12285619Y-16002773D01*
X12276095Y-16021821D01*
X12266571Y-16031345D01*
X12247524Y-16040868D01*
X12228476Y-16040868D01*
X12209428Y-16031345D01*
X12199905Y-16021821D01*
X12190381Y-16002773D01*
X12180857Y-15964678D01*
X12180857Y-15917059D01*
X12190381Y-15878964D01*
X12199905Y-15859916D01*
X12209428Y-15850392D01*
X12228476Y-15840868D01*
X12380857Y-16021821D02*
X12390381Y-16031345D01*
X12380857Y-16040868D01*
X12371333Y-16031345D01*
X12380857Y-16021821D01*
X12380857Y-16040868D01*
X12514190Y-15840868D02*
X12533238Y-15840868D01*
X12552286Y-15850392D01*
X12561809Y-15859916D01*
X12571333Y-15878964D01*
X12580857Y-15917059D01*
X12580857Y-15964678D01*
X12571333Y-16002773D01*
X12561809Y-16021821D01*
X12552286Y-16031345D01*
X12533238Y-16040868D01*
X12514190Y-16040868D01*
X12495143Y-16031345D01*
X12485619Y-16021821D01*
X12476095Y-16002773D01*
X12466571Y-15964678D01*
X12466571Y-15917059D01*
X12476095Y-15878964D01*
X12485619Y-15859916D01*
X12495143Y-15850392D01*
X12514190Y-15840868D01*
X12771333Y-16040868D02*
X12657048Y-16040868D01*
X12714190Y-16040868D02*
X12714190Y-15840868D01*
X12695143Y-15869440D01*
X12676095Y-15888487D01*
X12657048Y-15898011D01*
X12866571Y-16040868D02*
X12904667Y-16040868D01*
X12923714Y-16031345D01*
X12933238Y-16021821D01*
X12952286Y-15993249D01*
X12961809Y-15955154D01*
X12961809Y-15878964D01*
X12952286Y-15859916D01*
X12942762Y-15850392D01*
X12923714Y-15840868D01*
X12885619Y-15840868D01*
X12866571Y-15850392D01*
X12857048Y-15859916D01*
X12847524Y-15878964D01*
X12847524Y-15926583D01*
X12857048Y-15945630D01*
X12866571Y-15955154D01*
X12885619Y-15964678D01*
X12923714Y-15964678D01*
X12942762Y-15955154D01*
X12952286Y-15945630D01*
X12961809Y-15926583D01*
X13028476Y-15840868D02*
X13161809Y-15840868D01*
X13076095Y-16040868D01*
X13228476Y-15840868D02*
X13228476Y-15878964D01*
X13304667Y-15840868D02*
X13304667Y-15878964D01*
X13599905Y-16117059D02*
X13590381Y-16107535D01*
X13571333Y-16078964D01*
X13561809Y-16059916D01*
X13552286Y-16031345D01*
X13542762Y-15983726D01*
X13542762Y-15945630D01*
X13552286Y-15898011D01*
X13561809Y-15869440D01*
X13571333Y-15850392D01*
X13590381Y-15821821D01*
X13599905Y-15812297D01*
X13657048Y-15840868D02*
X13780857Y-15840868D01*
X13714190Y-15917059D01*
X13742762Y-15917059D01*
X13761809Y-15926583D01*
X13771333Y-15936106D01*
X13780857Y-15955154D01*
X13780857Y-16002773D01*
X13771333Y-16021821D01*
X13761809Y-16031345D01*
X13742762Y-16040868D01*
X13685619Y-16040868D01*
X13666571Y-16031345D01*
X13657048Y-16021821D01*
X13857048Y-15859916D02*
X13866571Y-15850392D01*
X13885619Y-15840868D01*
X13933238Y-15840868D01*
X13952286Y-15850392D01*
X13961809Y-15859916D01*
X13971333Y-15878964D01*
X13971333Y-15898011D01*
X13961809Y-15926583D01*
X13847524Y-16040868D01*
X13971333Y-16040868D01*
X14209428Y-16040868D02*
X14209428Y-15840868D01*
X14295143Y-16040868D02*
X14295143Y-15936106D01*
X14285619Y-15917059D01*
X14266571Y-15907535D01*
X14238000Y-15907535D01*
X14218952Y-15917059D01*
X14209428Y-15926583D01*
X14418952Y-16040868D02*
X14399905Y-16031345D01*
X14390381Y-16021821D01*
X14380857Y-16002773D01*
X14380857Y-15945630D01*
X14390381Y-15926583D01*
X14399905Y-15917059D01*
X14418952Y-15907535D01*
X14447524Y-15907535D01*
X14466571Y-15917059D01*
X14476095Y-15926583D01*
X14485619Y-15945630D01*
X14485619Y-16002773D01*
X14476095Y-16021821D01*
X14466571Y-16031345D01*
X14447524Y-16040868D01*
X14418952Y-16040868D01*
X14599905Y-16040868D02*
X14580857Y-16031345D01*
X14571333Y-16012297D01*
X14571333Y-15840868D01*
X14752286Y-16031345D02*
X14733238Y-16040868D01*
X14695143Y-16040868D01*
X14676095Y-16031345D01*
X14666571Y-16012297D01*
X14666571Y-15936106D01*
X14676095Y-15917059D01*
X14695143Y-15907535D01*
X14733238Y-15907535D01*
X14752286Y-15917059D01*
X14761809Y-15936106D01*
X14761809Y-15955154D01*
X14666571Y-15974202D01*
X14838000Y-16031345D02*
X14857048Y-16040868D01*
X14895143Y-16040868D01*
X14914190Y-16031345D01*
X14923714Y-16012297D01*
X14923714Y-16002773D01*
X14914190Y-15983726D01*
X14895143Y-15974202D01*
X14866571Y-15974202D01*
X14847524Y-15964678D01*
X14838000Y-15945630D01*
X14838000Y-15936106D01*
X14847524Y-15917059D01*
X14866571Y-15907535D01*
X14895143Y-15907535D01*
X14914190Y-15917059D01*
X14990381Y-16117059D02*
X14999905Y-16107535D01*
X15018952Y-16078964D01*
X15028476Y-16059916D01*
X15038000Y-16031345D01*
X15047524Y-15983726D01*
X15047524Y-15945630D01*
X15038000Y-15898011D01*
X15028476Y-15869440D01*
X15018952Y-15850392D01*
X14999905Y-15821821D01*
X14990381Y-15812297D01*
D15*
X9978000Y-16264392D02*
X10028000Y-16214392D01*
X9978000Y-16164392D01*
X9928000Y-16214392D01*
X9978000Y-16264392D01*
D11*
X10390381Y-16304868D02*
X10276095Y-16304868D01*
X10333238Y-16304868D02*
X10333238Y-16104868D01*
X10314190Y-16133440D01*
X10295143Y-16152487D01*
X10276095Y-16162011D01*
X10476095Y-16285821D02*
X10485619Y-16295345D01*
X10476095Y-16304868D01*
X10466571Y-16295345D01*
X10476095Y-16285821D01*
X10476095Y-16304868D01*
X10609429Y-16104868D02*
X10628476Y-16104868D01*
X10647524Y-16114392D01*
X10657048Y-16123916D01*
X10666571Y-16142964D01*
X10676095Y-16181059D01*
X10676095Y-16228678D01*
X10666571Y-16266773D01*
X10657048Y-16285821D01*
X10647524Y-16295345D01*
X10628476Y-16304868D01*
X10609429Y-16304868D01*
X10590381Y-16295345D01*
X10580857Y-16285821D01*
X10571333Y-16266773D01*
X10561810Y-16228678D01*
X10561810Y-16181059D01*
X10571333Y-16142964D01*
X10580857Y-16123916D01*
X10590381Y-16114392D01*
X10609429Y-16104868D01*
X10799905Y-16104868D02*
X10818952Y-16104868D01*
X10838000Y-16114392D01*
X10847524Y-16123916D01*
X10857048Y-16142964D01*
X10866571Y-16181059D01*
X10866571Y-16228678D01*
X10857048Y-16266773D01*
X10847524Y-16285821D01*
X10838000Y-16295345D01*
X10818952Y-16304868D01*
X10799905Y-16304868D01*
X10780857Y-16295345D01*
X10771333Y-16285821D01*
X10761810Y-16266773D01*
X10752286Y-16228678D01*
X10752286Y-16181059D01*
X10761810Y-16142964D01*
X10771333Y-16123916D01*
X10780857Y-16114392D01*
X10799905Y-16104868D01*
X10990381Y-16104868D02*
X11009429Y-16104868D01*
X11028476Y-16114392D01*
X11038000Y-16123916D01*
X11047524Y-16142964D01*
X11057048Y-16181059D01*
X11057048Y-16228678D01*
X11047524Y-16266773D01*
X11038000Y-16285821D01*
X11028476Y-16295345D01*
X11009429Y-16304868D01*
X10990381Y-16304868D01*
X10971333Y-16295345D01*
X10961810Y-16285821D01*
X10952286Y-16266773D01*
X10942762Y-16228678D01*
X10942762Y-16181059D01*
X10952286Y-16142964D01*
X10961810Y-16123916D01*
X10971333Y-16114392D01*
X10990381Y-16104868D01*
X11142762Y-16304868D02*
X11142762Y-16171535D01*
X11142762Y-16190583D02*
X11152286Y-16181059D01*
X11171333Y-16171535D01*
X11199905Y-16171535D01*
X11218952Y-16181059D01*
X11228476Y-16200106D01*
X11228476Y-16304868D01*
X11228476Y-16200106D02*
X11238000Y-16181059D01*
X11257048Y-16171535D01*
X11285619Y-16171535D01*
X11304667Y-16181059D01*
X11314190Y-16200106D01*
X11314190Y-16304868D01*
X11409428Y-16304868D02*
X11409428Y-16171535D01*
X11409428Y-16190583D02*
X11418952Y-16181059D01*
X11438000Y-16171535D01*
X11466571Y-16171535D01*
X11485619Y-16181059D01*
X11495143Y-16200106D01*
X11495143Y-16304868D01*
X11495143Y-16200106D02*
X11504667Y-16181059D01*
X11523714Y-16171535D01*
X11552286Y-16171535D01*
X11571333Y-16181059D01*
X11580857Y-16200106D01*
X11580857Y-16304868D01*
X11971333Y-16095345D02*
X11799905Y-16352487D01*
X12228476Y-16104868D02*
X12247524Y-16104868D01*
X12266571Y-16114392D01*
X12276095Y-16123916D01*
X12285619Y-16142964D01*
X12295143Y-16181059D01*
X12295143Y-16228678D01*
X12285619Y-16266773D01*
X12276095Y-16285821D01*
X12266571Y-16295345D01*
X12247524Y-16304868D01*
X12228476Y-16304868D01*
X12209428Y-16295345D01*
X12199905Y-16285821D01*
X12190381Y-16266773D01*
X12180857Y-16228678D01*
X12180857Y-16181059D01*
X12190381Y-16142964D01*
X12199905Y-16123916D01*
X12209428Y-16114392D01*
X12228476Y-16104868D01*
X12380857Y-16285821D02*
X12390381Y-16295345D01*
X12380857Y-16304868D01*
X12371333Y-16295345D01*
X12380857Y-16285821D01*
X12380857Y-16304868D01*
X12514190Y-16104868D02*
X12533238Y-16104868D01*
X12552286Y-16114392D01*
X12561809Y-16123916D01*
X12571333Y-16142964D01*
X12580857Y-16181059D01*
X12580857Y-16228678D01*
X12571333Y-16266773D01*
X12561809Y-16285821D01*
X12552286Y-16295345D01*
X12533238Y-16304868D01*
X12514190Y-16304868D01*
X12495143Y-16295345D01*
X12485619Y-16285821D01*
X12476095Y-16266773D01*
X12466571Y-16228678D01*
X12466571Y-16181059D01*
X12476095Y-16142964D01*
X12485619Y-16123916D01*
X12495143Y-16114392D01*
X12514190Y-16104868D01*
X12647524Y-16104868D02*
X12771333Y-16104868D01*
X12704667Y-16181059D01*
X12733238Y-16181059D01*
X12752286Y-16190583D01*
X12761809Y-16200106D01*
X12771333Y-16219154D01*
X12771333Y-16266773D01*
X12761809Y-16285821D01*
X12752286Y-16295345D01*
X12733238Y-16304868D01*
X12676095Y-16304868D01*
X12657048Y-16295345D01*
X12647524Y-16285821D01*
X12866571Y-16304868D02*
X12904667Y-16304868D01*
X12923714Y-16295345D01*
X12933238Y-16285821D01*
X12952286Y-16257249D01*
X12961809Y-16219154D01*
X12961809Y-16142964D01*
X12952286Y-16123916D01*
X12942762Y-16114392D01*
X12923714Y-16104868D01*
X12885619Y-16104868D01*
X12866571Y-16114392D01*
X12857048Y-16123916D01*
X12847524Y-16142964D01*
X12847524Y-16190583D01*
X12857048Y-16209630D01*
X12866571Y-16219154D01*
X12885619Y-16228678D01*
X12923714Y-16228678D01*
X12942762Y-16219154D01*
X12952286Y-16209630D01*
X12961809Y-16190583D01*
X13133238Y-16171535D02*
X13133238Y-16304868D01*
X13085619Y-16095345D02*
X13038000Y-16238202D01*
X13161809Y-16238202D01*
X13228476Y-16104868D02*
X13228476Y-16142964D01*
X13304667Y-16104868D02*
X13304667Y-16142964D01*
X13599905Y-16381059D02*
X13590381Y-16371535D01*
X13571333Y-16342964D01*
X13561809Y-16323916D01*
X13552286Y-16295345D01*
X13542762Y-16247726D01*
X13542762Y-16209630D01*
X13552286Y-16162011D01*
X13561809Y-16133440D01*
X13571333Y-16114392D01*
X13590381Y-16085821D01*
X13599905Y-16076297D01*
X13780857Y-16304868D02*
X13666571Y-16304868D01*
X13723714Y-16304868D02*
X13723714Y-16104868D01*
X13704667Y-16133440D01*
X13685619Y-16152487D01*
X13666571Y-16162011D01*
X13904667Y-16104868D02*
X13923714Y-16104868D01*
X13942762Y-16114392D01*
X13952286Y-16123916D01*
X13961809Y-16142964D01*
X13971333Y-16181059D01*
X13971333Y-16228678D01*
X13961809Y-16266773D01*
X13952286Y-16285821D01*
X13942762Y-16295345D01*
X13923714Y-16304868D01*
X13904667Y-16304868D01*
X13885619Y-16295345D01*
X13876095Y-16285821D01*
X13866571Y-16266773D01*
X13857048Y-16228678D01*
X13857048Y-16181059D01*
X13866571Y-16142964D01*
X13876095Y-16123916D01*
X13885619Y-16114392D01*
X13904667Y-16104868D01*
X14209428Y-16304868D02*
X14209428Y-16104868D01*
X14295143Y-16304868D02*
X14295143Y-16200106D01*
X14285619Y-16181059D01*
X14266571Y-16171535D01*
X14238000Y-16171535D01*
X14218952Y-16181059D01*
X14209428Y-16190583D01*
X14418952Y-16304868D02*
X14399905Y-16295345D01*
X14390381Y-16285821D01*
X14380857Y-16266773D01*
X14380857Y-16209630D01*
X14390381Y-16190583D01*
X14399905Y-16181059D01*
X14418952Y-16171535D01*
X14447524Y-16171535D01*
X14466571Y-16181059D01*
X14476095Y-16190583D01*
X14485619Y-16209630D01*
X14485619Y-16266773D01*
X14476095Y-16285821D01*
X14466571Y-16295345D01*
X14447524Y-16304868D01*
X14418952Y-16304868D01*
X14599905Y-16304868D02*
X14580857Y-16295345D01*
X14571333Y-16276297D01*
X14571333Y-16104868D01*
X14752286Y-16295345D02*
X14733238Y-16304868D01*
X14695143Y-16304868D01*
X14676095Y-16295345D01*
X14666571Y-16276297D01*
X14666571Y-16200106D01*
X14676095Y-16181059D01*
X14695143Y-16171535D01*
X14733238Y-16171535D01*
X14752286Y-16181059D01*
X14761809Y-16200106D01*
X14761809Y-16219154D01*
X14666571Y-16238202D01*
X14838000Y-16295345D02*
X14857048Y-16304868D01*
X14895143Y-16304868D01*
X14914190Y-16295345D01*
X14923714Y-16276297D01*
X14923714Y-16266773D01*
X14914190Y-16247726D01*
X14895143Y-16238202D01*
X14866571Y-16238202D01*
X14847524Y-16228678D01*
X14838000Y-16209630D01*
X14838000Y-16200106D01*
X14847524Y-16181059D01*
X14866571Y-16171535D01*
X14895143Y-16171535D01*
X14914190Y-16181059D01*
X14990381Y-16381059D02*
X14999905Y-16371535D01*
X15018952Y-16342964D01*
X15028476Y-16323916D01*
X15038000Y-16295345D01*
X15047524Y-16247726D01*
X15047524Y-16209630D01*
X15038000Y-16162011D01*
X15028476Y-16133440D01*
X15018952Y-16114392D01*
X14999905Y-16085821D01*
X14990381Y-16076297D01*
X9828000Y-16378392D02*
X10028000Y-16578392D01*
X10028000Y-16378392D02*
X9828000Y-16578392D01*
X10028000Y-16478392D02*
G75*
G03*
X10028000Y-16478392I-100000J0D01*
G01*
X10266571Y-16368868D02*
X10390381Y-16368868D01*
X10323714Y-16445059D01*
X10352286Y-16445059D01*
X10371333Y-16454583D01*
X10380857Y-16464106D01*
X10390381Y-16483154D01*
X10390381Y-16530773D01*
X10380857Y-16549821D01*
X10371333Y-16559345D01*
X10352286Y-16568868D01*
X10295143Y-16568868D01*
X10276095Y-16559345D01*
X10266571Y-16549821D01*
X10476095Y-16549821D02*
X10485619Y-16559345D01*
X10476095Y-16568868D01*
X10466571Y-16559345D01*
X10476095Y-16549821D01*
X10476095Y-16568868D01*
X10609429Y-16368868D02*
X10628476Y-16368868D01*
X10647524Y-16378392D01*
X10657048Y-16387916D01*
X10666571Y-16406964D01*
X10676095Y-16445059D01*
X10676095Y-16492678D01*
X10666571Y-16530773D01*
X10657048Y-16549821D01*
X10647524Y-16559345D01*
X10628476Y-16568868D01*
X10609429Y-16568868D01*
X10590381Y-16559345D01*
X10580857Y-16549821D01*
X10571333Y-16530773D01*
X10561810Y-16492678D01*
X10561810Y-16445059D01*
X10571333Y-16406964D01*
X10580857Y-16387916D01*
X10590381Y-16378392D01*
X10609429Y-16368868D01*
X10799905Y-16368868D02*
X10818952Y-16368868D01*
X10838000Y-16378392D01*
X10847524Y-16387916D01*
X10857048Y-16406964D01*
X10866571Y-16445059D01*
X10866571Y-16492678D01*
X10857048Y-16530773D01*
X10847524Y-16549821D01*
X10838000Y-16559345D01*
X10818952Y-16568868D01*
X10799905Y-16568868D01*
X10780857Y-16559345D01*
X10771333Y-16549821D01*
X10761810Y-16530773D01*
X10752286Y-16492678D01*
X10752286Y-16445059D01*
X10761810Y-16406964D01*
X10771333Y-16387916D01*
X10780857Y-16378392D01*
X10799905Y-16368868D01*
X10990381Y-16368868D02*
X11009429Y-16368868D01*
X11028476Y-16378392D01*
X11038000Y-16387916D01*
X11047524Y-16406964D01*
X11057048Y-16445059D01*
X11057048Y-16492678D01*
X11047524Y-16530773D01*
X11038000Y-16549821D01*
X11028476Y-16559345D01*
X11009429Y-16568868D01*
X10990381Y-16568868D01*
X10971333Y-16559345D01*
X10961810Y-16549821D01*
X10952286Y-16530773D01*
X10942762Y-16492678D01*
X10942762Y-16445059D01*
X10952286Y-16406964D01*
X10961810Y-16387916D01*
X10971333Y-16378392D01*
X10990381Y-16368868D01*
X11142762Y-16568868D02*
X11142762Y-16435535D01*
X11142762Y-16454583D02*
X11152286Y-16445059D01*
X11171333Y-16435535D01*
X11199905Y-16435535D01*
X11218952Y-16445059D01*
X11228476Y-16464106D01*
X11228476Y-16568868D01*
X11228476Y-16464106D02*
X11238000Y-16445059D01*
X11257048Y-16435535D01*
X11285619Y-16435535D01*
X11304667Y-16445059D01*
X11314190Y-16464106D01*
X11314190Y-16568868D01*
X11409428Y-16568868D02*
X11409428Y-16435535D01*
X11409428Y-16454583D02*
X11418952Y-16445059D01*
X11438000Y-16435535D01*
X11466571Y-16435535D01*
X11485619Y-16445059D01*
X11495143Y-16464106D01*
X11495143Y-16568868D01*
X11495143Y-16464106D02*
X11504667Y-16445059D01*
X11523714Y-16435535D01*
X11552286Y-16435535D01*
X11571333Y-16445059D01*
X11580857Y-16464106D01*
X11580857Y-16568868D01*
X11971333Y-16359345D02*
X11799905Y-16616487D01*
X12228476Y-16368868D02*
X12247524Y-16368868D01*
X12266571Y-16378392D01*
X12276095Y-16387916D01*
X12285619Y-16406964D01*
X12295143Y-16445059D01*
X12295143Y-16492678D01*
X12285619Y-16530773D01*
X12276095Y-16549821D01*
X12266571Y-16559345D01*
X12247524Y-16568868D01*
X12228476Y-16568868D01*
X12209428Y-16559345D01*
X12199905Y-16549821D01*
X12190381Y-16530773D01*
X12180857Y-16492678D01*
X12180857Y-16445059D01*
X12190381Y-16406964D01*
X12199905Y-16387916D01*
X12209428Y-16378392D01*
X12228476Y-16368868D01*
X12380857Y-16549821D02*
X12390381Y-16559345D01*
X12380857Y-16568868D01*
X12371333Y-16559345D01*
X12380857Y-16549821D01*
X12380857Y-16568868D01*
X12580857Y-16568868D02*
X12466571Y-16568868D01*
X12523714Y-16568868D02*
X12523714Y-16368868D01*
X12504667Y-16397440D01*
X12485619Y-16416487D01*
X12466571Y-16426011D01*
X12771333Y-16568868D02*
X12657048Y-16568868D01*
X12714190Y-16568868D02*
X12714190Y-16368868D01*
X12695143Y-16397440D01*
X12676095Y-16416487D01*
X12657048Y-16426011D01*
X12885619Y-16454583D02*
X12866571Y-16445059D01*
X12857048Y-16435535D01*
X12847524Y-16416487D01*
X12847524Y-16406964D01*
X12857048Y-16387916D01*
X12866571Y-16378392D01*
X12885619Y-16368868D01*
X12923714Y-16368868D01*
X12942762Y-16378392D01*
X12952286Y-16387916D01*
X12961809Y-16406964D01*
X12961809Y-16416487D01*
X12952286Y-16435535D01*
X12942762Y-16445059D01*
X12923714Y-16454583D01*
X12885619Y-16454583D01*
X12866571Y-16464106D01*
X12857048Y-16473630D01*
X12847524Y-16492678D01*
X12847524Y-16530773D01*
X12857048Y-16549821D01*
X12866571Y-16559345D01*
X12885619Y-16568868D01*
X12923714Y-16568868D01*
X12942762Y-16559345D01*
X12952286Y-16549821D01*
X12961809Y-16530773D01*
X12961809Y-16492678D01*
X12952286Y-16473630D01*
X12942762Y-16464106D01*
X12923714Y-16454583D01*
X13152286Y-16568868D02*
X13038000Y-16568868D01*
X13095143Y-16568868D02*
X13095143Y-16368868D01*
X13076095Y-16397440D01*
X13057048Y-16416487D01*
X13038000Y-16426011D01*
X13228476Y-16368868D02*
X13228476Y-16406964D01*
X13304667Y-16368868D02*
X13304667Y-16406964D01*
X13599905Y-16645059D02*
X13590381Y-16635535D01*
X13571333Y-16606964D01*
X13561809Y-16587916D01*
X13552286Y-16559345D01*
X13542762Y-16511726D01*
X13542762Y-16473630D01*
X13552286Y-16426011D01*
X13561809Y-16397440D01*
X13571333Y-16378392D01*
X13590381Y-16349821D01*
X13599905Y-16340297D01*
X13761809Y-16435535D02*
X13761809Y-16568868D01*
X13714190Y-16359345D02*
X13666571Y-16502202D01*
X13790381Y-16502202D01*
X14018952Y-16568868D02*
X14018952Y-16368868D01*
X14104667Y-16568868D02*
X14104667Y-16464106D01*
X14095143Y-16445059D01*
X14076095Y-16435535D01*
X14047524Y-16435535D01*
X14028476Y-16445059D01*
X14018952Y-16454583D01*
X14228476Y-16568868D02*
X14209428Y-16559345D01*
X14199905Y-16549821D01*
X14190381Y-16530773D01*
X14190381Y-16473630D01*
X14199905Y-16454583D01*
X14209428Y-16445059D01*
X14228476Y-16435535D01*
X14257048Y-16435535D01*
X14276095Y-16445059D01*
X14285619Y-16454583D01*
X14295143Y-16473630D01*
X14295143Y-16530773D01*
X14285619Y-16549821D01*
X14276095Y-16559345D01*
X14257048Y-16568868D01*
X14228476Y-16568868D01*
X14409428Y-16568868D02*
X14390381Y-16559345D01*
X14380857Y-16540297D01*
X14380857Y-16368868D01*
X14561809Y-16559345D02*
X14542762Y-16568868D01*
X14504667Y-16568868D01*
X14485619Y-16559345D01*
X14476095Y-16540297D01*
X14476095Y-16464106D01*
X14485619Y-16445059D01*
X14504667Y-16435535D01*
X14542762Y-16435535D01*
X14561809Y-16445059D01*
X14571333Y-16464106D01*
X14571333Y-16483154D01*
X14476095Y-16502202D01*
X14647524Y-16559345D02*
X14666571Y-16568868D01*
X14704667Y-16568868D01*
X14723714Y-16559345D01*
X14733238Y-16540297D01*
X14733238Y-16530773D01*
X14723714Y-16511726D01*
X14704667Y-16502202D01*
X14676095Y-16502202D01*
X14657048Y-16492678D01*
X14647524Y-16473630D01*
X14647524Y-16464106D01*
X14657048Y-16445059D01*
X14676095Y-16435535D01*
X14704667Y-16435535D01*
X14723714Y-16445059D01*
X14799905Y-16645059D02*
X14809428Y-16635535D01*
X14828476Y-16606964D01*
X14838000Y-16587916D01*
X14847524Y-16559345D01*
X14857048Y-16511726D01*
X14857048Y-16473630D01*
X14847524Y-16426011D01*
X14838000Y-16397440D01*
X14828476Y-16378392D01*
X14809428Y-16349821D01*
X14799905Y-16340297D01*
M02*
